<svg width="93" height="42" viewBox="0 0 93 42" fill="none" xmlns="http://www.w3.org/2000/svg">
<path d="M18.9791 31.176V33H16.4831C14.5311 33.32 11.9231 33.48 8.65913 33.48C5.39513 33.48 2.64313 33.32 0.403125 33V31.224C2.96313 31.576 5.53913 31.752 8.13113 31.752C10.4671 31.752 12.7231 31.624 14.8991 31.368C15.2191 29.384 15.4591 27.8 15.6191 26.616C15.7791 25.432 15.8591 24.296 15.8591 23.208C15.8591 19.976 14.9311 17.32 13.0751 15.24C11.2191 13.16 7.87513 11.64 3.04313 10.68L3.47513 8.856C8.85113 9.944 12.5631 11.704 14.6111 14.136C16.6911 16.536 17.7311 19.544 17.7311 23.16C17.7311 25.048 17.4271 27.72 16.8191 31.176H18.9791ZM26.9524 31.176V33H18.8404V31.176H18.9844C20.6164 31.176 21.8484 30.872 22.6804 30.264C23.5444 29.656 24.1524 28.6 24.5044 27.096C24.8564 25.56 25.0484 23.304 25.0804 20.328C25.0804 20.168 25.1764 20.088 25.3684 20.088L26.6644 20.232C26.7284 20.232 26.7764 20.264 26.8084 20.328C26.8724 20.36 26.9044 20.408 26.9044 20.472C26.8724 23.384 26.6964 25.688 26.3764 27.384C26.0564 29.048 25.5124 30.312 24.7444 31.176H26.9524ZM21.9604 37.224C22.4404 36.936 22.6804 36.504 22.6804 35.928C22.6804 35.768 22.6164 35.528 22.4884 35.208C22.3604 34.984 22.1684 34.792 21.9124 34.632C21.6564 34.472 21.4004 34.392 21.1444 34.392C20.7284 34.392 20.4084 34.504 20.1844 34.728C19.9924 34.952 19.8964 35.24 19.8964 35.592C19.8964 35.912 19.9604 36.184 20.0884 36.408C20.2484 36.664 20.4404 36.872 20.6644 37.032C20.9204 37.224 21.1764 37.32 21.4324 37.32C21.6564 37.32 21.8324 37.288 21.9604 37.224ZM22.4884 40.872C22.9684 40.648 23.2084 40.232 23.2084 39.624C23.2084 39.176 23.0484 38.792 22.7284 38.472C22.4404 38.184 22.0884 38.04 21.6724 38.04C21.4804 38.04 21.2884 38.088 21.0964 38.184C20.6484 38.408 20.4244 38.776 20.4244 39.288C20.4244 39.576 20.4884 39.832 20.6164 40.056C20.7444 40.344 20.9204 40.568 21.1444 40.728C21.4004 40.92 21.6724 41.016 21.9604 41.016C22.1204 41.016 22.2964 40.968 22.4884 40.872ZM30.3611 0.887999C30.3931 2.584 30.4091 5.064 30.4091 8.328C30.4091 13.544 30.3291 18.36 30.1691 22.776C30.0091 27.192 29.8011 30.6 29.5451 33H26.9051V31.176H27.9131C28.3611 25.864 28.5851 18.312 28.5851 8.52C28.5851 5.224 28.5691 2.728 28.5371 1.032C28.5371 0.935999 28.6011 0.855999 28.7291 0.792L30.0251 0.455998H30.0731C30.1371 0.455998 30.2011 0.503999 30.2651 0.599999C30.3291 0.663999 30.3611 0.759998 30.3611 0.887999ZM35.6505 31.176V33H31.3305C31.5865 30.568 31.7945 27.144 31.9545 22.728C32.1145 18.312 32.1945 13.528 32.1945 8.376C32.1945 5.144 32.1785 2.696 32.1465 1.032C32.1465 0.935999 32.2105 0.855999 32.3385 0.792L33.6345 0.455998H33.6825C33.7465 0.455998 33.8105 0.503999 33.8745 0.599999C33.9385 0.663999 33.9705 0.759998 33.9705 0.887999C34.0025 2.584 34.0185 5.112 34.0185 8.472C34.0185 18.328 33.7945 25.896 33.3465 31.176H35.6505ZM41.7679 20.328C41.7679 20.168 41.8639 20.088 42.0559 20.088L43.3519 20.232C43.4159 20.232 43.4639 20.264 43.4959 20.328C43.5599 20.36 43.5919 20.408 43.5919 20.472C43.5599 23.896 43.3199 26.488 42.8719 28.248C42.4239 30.008 41.6399 31.24 40.5199 31.944C39.4319 32.648 37.8159 33 35.6719 33V31.176C37.3039 31.176 38.5359 30.872 39.3679 30.264C40.2319 29.656 40.8399 28.6 41.1919 27.096C41.5439 25.56 41.7359 23.304 41.7679 20.328ZM38.6479 40.056C38.9679 39.96 39.2079 39.768 39.3679 39.48C39.5599 39.224 39.6559 38.936 39.6559 38.616C39.6559 38.2 39.4959 37.832 39.1759 37.512C38.8879 37.224 38.5679 37.08 38.2159 37.08C37.8319 37.08 37.5279 37.208 37.3039 37.464C37.0799 37.72 36.9679 38.04 36.9679 38.424C36.9679 38.904 37.1279 39.32 37.4479 39.672C37.7999 40.056 38.1999 40.184 38.6479 40.056ZM57.1485 23.16C57.8845 22.776 58.5565 22.52 59.1645 22.392C59.8045 22.232 60.5565 22.104 61.4205 22.008V23.64C60.1725 23.8 59.1485 24.072 58.3485 24.456C57.5805 24.808 56.4445 25.528 54.9405 26.616L54.5565 24.792C54.7485 24.632 55.0365 24.424 55.4205 24.168C54.4605 23.592 53.9805 22.824 53.9805 21.864C53.9805 20.968 54.3805 20.168 55.1805 19.464C56.0125 18.76 56.9565 18.408 58.0125 18.408C58.5885 18.408 59.1645 18.552 59.7405 18.84L59.0685 20.28C58.6845 20.088 58.3005 19.992 57.9165 19.992C57.3085 19.992 56.7965 20.184 56.3805 20.568C55.9645 20.952 55.7565 21.368 55.7565 21.816C55.7565 22.392 56.2205 22.84 57.1485 23.16ZM69.8224 31.176V33H65.5024C65.7584 30.568 65.9664 27.144 66.1264 22.728C66.2864 18.312 66.3664 13.528 66.3664 8.376C66.3664 5.144 66.3504 2.696 66.3184 1.032C66.3184 0.935999 66.3824 0.855999 66.5104 0.792L67.8064 0.455998H67.8544C67.9184 0.455998 67.9824 0.503999 68.0464 0.599999C68.1104 0.663999 68.1424 0.759998 68.1424 0.887999C68.1744 2.584 68.1904 5.112 68.1904 8.472C68.1904 18.328 67.9664 25.896 67.5184 31.176H69.8224ZM77.8118 31.176V33H69.6997V31.176H69.8438C71.4758 31.176 72.7078 30.872 73.5398 30.264C74.4038 29.656 75.0118 28.6 75.3638 27.096C75.7158 25.56 75.9078 23.304 75.9398 20.328C75.9398 20.168 76.0358 20.088 76.2278 20.088L77.5238 20.232C77.5878 20.232 77.6358 20.264 77.6678 20.328C77.7318 20.36 77.7638 20.408 77.7638 20.472C77.7318 23.384 77.5558 25.688 77.2358 27.384C76.9158 29.048 76.3718 30.312 75.6038 31.176H77.8118ZM74.0678 17.064C74.3878 16.968 74.6278 16.792 74.7878 16.536C74.9798 16.248 75.0758 15.944 75.0758 15.624C75.0758 15.208 74.9158 14.856 74.5958 14.568C74.3078 14.248 73.9878 14.088 73.6358 14.088C73.2518 14.088 72.9478 14.216 72.7238 14.472C72.4998 14.728 72.3878 15.048 72.3878 15.432C72.3878 15.912 72.5478 16.344 72.8678 16.728C73.2198 17.08 73.6198 17.192 74.0678 17.064ZM85.7805 31.176V33H77.6685V31.176H77.8125C79.4445 31.176 80.6765 30.872 81.5085 30.264C82.3725 29.656 82.9805 28.6 83.3325 27.096C83.6845 25.56 83.8765 23.304 83.9085 20.328C83.9085 20.168 84.0045 20.088 84.1965 20.088L85.4925 20.232C85.5565 20.232 85.6045 20.264 85.6365 20.328C85.7005 20.36 85.7325 20.408 85.7325 20.472C85.7005 23.384 85.5245 25.688 85.2045 27.384C84.8845 29.048 84.3405 30.312 83.5725 31.176H85.7805ZM80.7405 40.344C81.0605 40.248 81.3005 40.056 81.4605 39.768C81.6525 39.512 81.7485 39.224 81.7485 38.904C81.7485 38.488 81.5885 38.12 81.2685 37.8C80.9805 37.512 80.6605 37.368 80.3085 37.368C79.9245 37.368 79.6205 37.496 79.3965 37.752C79.1725 38.008 79.0605 38.328 79.0605 38.712C79.0605 39.192 79.2205 39.608 79.5405 39.96C79.8925 40.344 80.2925 40.472 80.7405 40.344ZM89.1893 0.887999C89.2213 2.584 89.2373 5.064 89.2373 8.328C89.2373 13.544 89.1573 18.36 88.9973 22.776C88.8373 27.192 88.6293 30.6 88.3733 33H85.7332V31.176H86.7413C87.1893 25.864 87.4133 18.312 87.4133 8.52C87.4133 5.224 87.3973 2.728 87.3652 1.032C87.3652 0.935999 87.4293 0.855999 87.5573 0.792L88.8533 0.455998H88.9013C88.9653 0.455998 89.0293 0.503999 89.0933 0.599999C89.1573 0.663999 89.1893 0.759998 89.1893 0.887999ZM90.1586 33C90.4146 30.568 90.6226 27.144 90.7826 22.728C90.9426 18.312 91.0226 13.528 91.0226 8.376C91.0226 5.144 91.0066 2.696 90.9746 1.032C90.9746 0.935999 91.0386 0.855999 91.1666 0.792L92.4626 0.455998H92.5106C92.5746 0.455998 92.6386 0.503999 92.7026 0.599999C92.7666 0.663999 92.7986 0.759998 92.7986 0.887999C92.8306 2.584 92.8466 5.064 92.8466 8.328C92.8466 13.544 92.7666 18.36 92.6066 22.776C92.4466 27.192 92.2386 30.6 91.9826 33H90.1586Z" fill="#4B8692"/>
</svg>
