
<svg width="168" height="169" viewBox="0 0 168 169" fill="none" xmlns="http://www.w3.org/2000/svg">
<path d="M44.4673 2.09C44.0846 2.09 43.8933 1.894 43.8933 1.502C43.8933 1.12867 44.0846 0.942 44.4673 0.942C44.8313 0.942 45.0133 1.12867 45.0133 1.502C45.0133 1.894 44.8313 2.09 44.4673 2.09ZM46.0633 2.09C45.6806 2.09 45.4893 1.894 45.4893 1.502C45.4893 1.12867 45.6806 0.942 46.0633 0.942C46.4273 0.942 46.6093 1.12867 46.6093 1.502C46.6093 1.894 46.4273 2.09 46.0633 2.09ZM48.7793 9.132H49.2553V10H48.6533C47.6546 10 46.9593 9.608 46.5673 8.824C46.0819 9.328 45.4846 9.58 44.7753 9.58C43.9726 9.58 43.3379 9.27667 42.8713 8.67C42.4793 8.15667 42.2833 7.51733 42.2833 6.752C42.2833 5.856 42.5446 5.13733 43.0673 4.596C43.5246 4.12 44.0893 3.882 44.7613 3.882C45.3679 3.882 45.8766 4.05933 46.2873 4.414V3.658L47.2253 3.168V7.536C47.2253 8.6 47.7433 9.132 48.7793 9.132ZM46.2873 5.478C45.8766 4.98333 45.3773 4.736 44.7893 4.736C44.3226 4.736 43.9399 4.92733 43.6413 5.31C43.3519 5.68333 43.2073 6.16867 43.2073 6.766C43.2073 7.37267 43.3519 7.858 43.6413 8.222C43.9399 8.586 44.3273 8.768 44.8033 8.768C45.4099 8.768 45.9139 8.502 46.3153 7.97C46.2966 7.802 46.2873 7.66667 46.2873 7.564V5.478ZM48.9694 10V9.132H49.8234C50.8594 9.132 51.3774 8.6 51.3774 7.536V5.52L52.3154 5.03V7.536C52.3154 8.6 52.8287 9.132 53.8554 9.132H54.3734C55.4 9.132 55.9134 8.6 55.9134 7.536V5.016L56.8514 4.512V7.536C56.8514 8.6 57.3694 9.132 58.4054 9.132H58.9094C59.9454 9.132 60.4634 8.6 60.4634 7.536V4.498L61.4014 4.008V7.48C61.4014 8.58133 61.9334 9.132 62.9974 9.132H63.8094V10H62.8994C62.0127 10 61.364 9.68733 60.9534 9.062C60.5427 9.68733 59.908 10 59.0494 10H58.2794C57.4114 10 56.7814 9.692 56.3894 9.076C55.988 9.692 55.3627 10 54.5134 10H53.7434C52.8754 10 52.2407 9.692 51.8394 9.076C51.4474 9.692 50.8174 10 49.9494 10H48.9694ZM67.9959 9.132H68.4859V10H67.8839C67.0253 10 66.3859 9.706 65.9659 9.118C65.5273 9.706 64.8786 10 64.0199 10H63.5299V9.132H63.9219C64.9859 9.132 65.5179 8.58133 65.5179 7.48V1.46L66.4559 0.969999V7.536C66.4559 8.6 66.9693 9.132 67.9959 9.132ZM68.2057 10V9.132H69.7737C71.8084 9.132 73.395 8.44133 74.5337 7.06C73.703 5.47333 72.6997 4.68 71.5237 4.68C70.721 4.68 69.937 5.086 69.1717 5.898V4.974C69.937 4.218 70.735 3.84 71.5657 3.84H71.5937C73.059 3.84 74.3284 4.82933 75.4017 6.808V7.382C74.039 9.12733 72.1584 10 69.7597 10H68.2057ZM71.9017 12.618C71.519 12.618 71.3277 12.422 71.3277 12.03C71.3277 11.6567 71.519 11.47 71.9017 11.47C72.2657 11.47 72.4477 11.6567 72.4477 12.03C72.4477 12.422 72.2657 12.618 71.9017 12.618ZM83.8429 9.65C83.7496 9.706 83.5956 9.79467 83.3809 9.916L83.3529 9.93C82.5876 10.3593 82.0743 10.728 81.8129 11.036C81.5609 11.344 81.4349 11.7547 81.4349 12.268C81.4349 12.884 81.6449 13.388 82.0649 13.78C82.4943 14.1813 83.0449 14.382 83.7169 14.382H83.7449C84.8089 14.382 85.6629 14.144 86.3069 13.668V14.522C85.5416 15.0073 84.6783 15.25 83.7169 15.25C82.7089 15.25 81.9063 14.9187 81.3089 14.256C80.8143 13.696 80.5669 13.024 80.5669 12.24C80.5669 11.5773 80.7303 11.0453 81.0569 10.644C81.3836 10.2427 82.0416 9.76667 83.0309 9.216C82.2189 8.66533 81.3603 7.746 80.4549 6.458V5.884C81.4256 4.52133 82.5689 3.84 83.8849 3.84C84.5009 3.84 85.1123 4.022 85.7189 4.386C86.3256 4.75 86.8623 5.25867 87.3289 5.912V6.458C86.6849 7.34467 85.8216 8.208 84.7389 9.048C84.9816 9.104 85.2336 9.132 85.4949 9.132H88.8829V10H85.4389C84.8883 10 84.3563 9.88333 83.8429 9.65ZM81.2669 6.192C82.2469 7.48 83.1103 8.32 83.8569 8.712C84.8183 8.04 85.7049 7.19067 86.5169 6.164C85.7703 5.184 84.8929 4.694 83.8849 4.694H83.8429C82.8816 4.694 82.0229 5.19333 81.2669 6.192ZM92.0341 2.202C91.6515 2.202 91.4601 2.006 91.4601 1.614C91.4601 1.24067 91.6515 1.054 92.0341 1.054C92.3981 1.054 92.5801 1.24067 92.5801 1.614C92.5801 2.006 92.3981 2.202 92.0341 2.202ZM93.6301 2.202C93.2475 2.202 93.0561 2.006 93.0561 1.614C93.0561 1.24067 93.2475 1.054 93.6301 1.054C93.9941 1.054 94.1761 1.24067 94.1761 1.614C94.1761 2.006 93.9941 2.202 93.6301 2.202ZM88.6041 10V9.132H90.9841C90.4708 8.61867 90.2141 7.88133 90.2141 6.92C90.2141 5.912 90.4755 5.13267 90.9981 4.582C91.4555 4.08733 92.0621 3.84 92.8181 3.84C93.5928 3.84 94.1901 4.08267 94.6101 4.568C94.9741 4.988 95.1561 5.548 95.1561 6.248V7.606C95.1468 8.362 94.9181 8.95467 94.4701 9.384C94.0595 9.79467 93.4995 10 92.7901 10H88.6041ZM94.2321 6.332C94.2321 5.24 93.7608 4.694 92.8181 4.694C92.2955 4.694 91.8848 4.89 91.5861 5.282C91.2968 5.66467 91.1521 6.206 91.1521 6.906C91.1521 7.58733 91.2921 8.12867 91.5721 8.53C91.8615 8.93133 92.2441 9.132 92.7201 9.132C93.7281 9.132 94.2321 8.60933 94.2321 7.564V6.332ZM97.5373 10V1.46L98.4753 0.969999V10H97.5373ZM107.142 9.132V10H105.658C105.649 10.616 105.448 11.1573 105.056 11.624C104.674 12.1 104.174 12.4127 103.558 12.562C103.334 12.6273 103.092 12.66 102.83 12.66C102.289 12.66 101.762 12.5293 101.248 12.268V11.442C101.734 11.7033 102.214 11.834 102.69 11.834C103.073 11.834 103.409 11.75 103.698 11.582C103.988 11.4327 104.23 11.204 104.426 10.896C104.622 10.5973 104.72 10.2987 104.72 10L103.53 9.958C102.494 9.91133 101.72 9.58467 101.206 8.978C100.786 8.46467 100.576 7.77867 100.576 6.92C100.576 5.912 100.838 5.13267 101.36 4.582C101.827 4.08733 102.452 3.84 103.236 3.84C104.048 3.84 104.669 4.08267 105.098 4.568C105.472 4.988 105.658 5.548 105.658 6.248V9.132H107.142ZM104.72 6.346C104.72 5.24467 104.226 4.694 103.236 4.694C102.686 4.694 102.256 4.89 101.948 5.282C101.65 5.66467 101.5 6.206 101.5 6.906C101.5 8.29667 102.186 9.02467 103.558 9.09C103.969 9.118 104.356 9.132 104.72 9.132V6.346ZM106.856 10V9.132H107.346C108.373 9.132 108.886 8.6 108.886 7.536V4.498L109.824 4.008V7.564C109.824 8.348 109.595 8.95933 109.138 9.398C108.718 9.79933 108.158 10 107.458 10H106.856ZM108.718 12.618C108.335 12.618 108.144 12.422 108.144 12.03C108.144 11.6567 108.335 11.47 108.718 11.47C109.082 11.47 109.264 11.6567 109.264 12.03C109.264 12.422 109.082 12.618 108.718 12.618ZM119.417 3.49C119.044 3.49 118.857 3.294 118.857 2.902C118.857 2.52867 119.044 2.342 119.417 2.342C119.791 2.342 119.977 2.52867 119.977 2.902C119.977 3.294 119.791 3.49 119.417 3.49ZM121.027 3.49C120.645 3.49 120.453 3.294 120.453 2.902C120.453 2.52867 120.645 2.342 121.027 2.342C121.391 2.342 121.573 2.52867 121.573 2.902C121.573 3.294 121.391 3.49 121.027 3.49ZM117.975 10C117.285 10 116.734 9.78533 116.323 9.356C115.913 8.91733 115.707 8.32933 115.707 7.592V5.758L116.645 5.268V7.48C116.645 8.58133 117.159 9.132 118.185 9.132H122.875C123.902 9.132 124.415 8.58133 124.415 7.48V4.498L125.353 4.008V7.592C125.353 8.38533 125.111 9.00133 124.625 9.44C124.205 9.81333 123.655 10 122.973 10H117.975ZM130.241 10C129.448 10 128.837 9.74333 128.407 9.23C128.053 8.79133 127.875 8.236 127.875 7.564V1.46L128.813 0.969999V7.536C128.813 8.6 129.327 9.132 130.353 9.132H130.843V10H130.241ZM130.563 10V9.132H131.417C132.453 9.132 132.971 8.6 132.971 7.536V5.52L133.909 5.03V7.536C133.909 8.6 134.422 9.132 135.449 9.132H135.967C136.994 9.132 137.507 8.6 137.507 7.536V5.016L138.445 4.512V7.536C138.445 8.6 138.963 9.132 139.999 9.132H140.503C141.539 9.132 142.057 8.6 142.057 7.536V4.498L142.995 4.008V7.48C142.995 8.58133 143.527 9.132 144.591 9.132H145.403V10H144.493C143.606 10 142.958 9.68733 142.547 9.062C142.136 9.68733 141.502 10 140.643 10H139.873C139.005 10 138.375 9.692 137.983 9.076C137.582 9.692 136.956 10 136.107 10H135.337C134.469 10 133.834 9.692 133.433 9.076C133.041 9.692 132.411 10 131.543 10H130.563ZM149.59 9.132H150.08V10H149.478C148.619 10 147.98 9.706 147.56 9.118C147.121 9.706 146.472 10 145.614 10H145.124V9.132H145.516C146.58 9.132 147.112 8.58133 147.112 7.48V1.46L148.05 0.969999V7.536C148.05 8.6 148.563 9.132 149.59 9.132ZM149.799 10V9.132H151.367C153.402 9.132 154.989 8.44133 156.127 7.06C155.297 5.47333 154.293 4.68 153.117 4.68C152.315 4.68 151.531 5.086 150.765 5.898V4.974C151.531 4.218 152.329 3.84 153.159 3.84H153.187C154.653 3.84 155.922 4.82933 156.995 6.808V7.382C155.633 9.12733 153.752 10 151.353 10H149.799ZM153.495 12.618C153.113 12.618 152.921 12.422 152.921 12.03C152.921 11.6567 153.113 11.47 153.495 11.47C153.859 11.47 154.041 11.6567 154.041 12.03C154.041 12.422 153.859 12.618 153.495 12.618ZM162.245 2.468L161.825 1.852C162.487 1.264 163.281 0.969999 164.205 0.969999C164.961 0.969999 165.586 1.194 166.081 1.642C166.538 2.062 166.767 2.59867 166.767 3.252C166.767 3.71867 166.627 4.134 166.347 4.498C166.067 4.85267 165.698 5.086 165.241 5.198C165.829 5.338 166.291 5.60867 166.627 6.01C166.963 6.41133 167.131 6.89667 167.131 7.466C167.131 8.40867 166.776 9.12733 166.067 9.622C165.544 9.97667 164.928 10.154 164.219 10.154C163.323 10.154 162.487 9.846 161.713 9.23L162.161 8.628C162.749 9.03867 163.393 9.244 164.093 9.244C164.671 9.244 165.138 9.08067 165.493 8.754C165.847 8.42733 166.025 7.99333 166.025 7.452C166.025 6.304 165.339 5.73 163.967 5.73H162.819V4.848H163.967C164.489 4.848 164.9 4.71267 165.199 4.442C165.507 4.17133 165.661 3.798 165.661 3.322C165.661 2.342 165.115 1.852 164.023 1.852C163.453 1.852 162.861 2.05733 162.245 2.468ZM7.40545 20.588C7.02279 20.588 6.83145 20.392 6.83145 20C6.83145 19.6267 7.02279 19.44 7.40545 19.44C7.76945 19.44 7.95145 19.6267 7.95145 20C7.95145 20.392 7.76945 20.588 7.40545 20.588ZM12.5855 26.132H13.0755V27H12.4735C11.8948 27 11.4141 26.8647 11.0315 26.594C10.9661 27.574 10.5741 28.344 9.85545 28.904C9.22079 29.408 8.41812 29.66 7.44745 29.66C6.26212 29.66 5.34279 29.24 4.68945 28.4C4.17612 27.756 3.91945 26.986 3.91945 26.09C3.91945 25.2873 4.12479 24.5967 4.53545 24.018L5.44545 23.836C4.99745 24.5173 4.77345 25.2453 4.77345 26.02C4.77345 26.8413 5.03945 27.518 5.57145 28.05C6.06612 28.5447 6.69145 28.792 7.44745 28.792C8.33412 28.792 9.02012 28.5307 9.50545 28.008C9.90679 27.5787 10.1075 27.014 10.1075 26.314V21.498L11.0455 21.008V24.536C11.0455 25.6 11.5588 26.132 12.5855 26.132ZM17.3016 26.132H17.7916V27H17.1896C16.3496 27 15.7196 26.7153 15.2996 26.146C14.8609 26.7153 14.2263 27 13.3956 27H12.7936V26.132H13.2836C14.3103 26.132 14.8236 25.6 14.8236 24.536V21.498L15.7616 21.008V24.536C15.7616 25.6 16.2749 26.132 17.3016 26.132ZM14.1236 28.47C14.4969 28.47 14.6836 28.6613 14.6836 29.044C14.6836 29.4267 14.4969 29.618 14.1236 29.618C13.7503 29.618 13.5636 29.4267 13.5636 29.044C13.5636 28.6613 13.7503 28.47 14.1236 28.47ZM15.7196 28.47C16.0929 28.47 16.2796 28.6613 16.2796 29.044C16.2796 29.4267 16.0929 29.618 15.7196 29.618C15.3463 29.618 15.1596 29.4267 15.1596 29.044C15.1596 28.6613 15.3463 28.47 15.7196 28.47ZM18.9244 19.202C18.5511 19.202 18.3644 19.0107 18.3644 18.628C18.3644 18.2453 18.5511 18.054 18.9244 18.054C19.2977 18.054 19.4844 18.2453 19.4844 18.628C19.4844 19.0107 19.2977 19.202 18.9244 19.202ZM20.5204 19.202C20.1471 19.202 19.9604 19.0107 19.9604 18.628C19.9604 18.2453 20.1471 18.054 20.5204 18.054C20.8937 18.054 21.0804 18.2453 21.0804 18.628C21.0804 19.0107 20.8937 19.202 20.5204 19.202ZM22.0184 26.132H22.5084V27H21.9064C21.0664 27 20.4364 26.7153 20.0164 26.146C19.5777 26.7153 18.9431 27 18.1124 27H17.5104V26.132H18.0004C19.0271 26.132 19.5404 25.6 19.5404 24.536V21.498L20.4784 21.008V24.536C20.4784 25.6 20.9917 26.132 22.0184 26.132ZM26.7352 26.132H27.2252V27H26.6232C25.7832 27 25.1532 26.7153 24.7332 26.146C24.2945 26.7153 23.6599 27 22.8292 27H22.2272V26.132H22.7172C23.7439 26.132 24.2572 25.6 24.2572 24.536V21.498L25.1952 21.008V24.536C25.1952 25.6 25.7085 26.132 26.7352 26.132ZM23.5572 28.47C23.9305 28.47 24.1172 28.6613 24.1172 29.044C24.1172 29.4267 23.9305 29.618 23.5572 29.618C23.1839 29.618 22.9972 29.4267 22.9972 29.044C22.9972 28.6613 23.1839 28.47 23.5572 28.47ZM25.1532 28.47C25.5265 28.47 25.7132 28.6613 25.7132 29.044C25.7132 29.4267 25.5265 29.618 25.1532 29.618C24.7799 29.618 24.5932 29.4267 24.5932 29.044C24.5932 28.6613 24.7799 28.47 25.1532 28.47ZM29.282 19.16C28.8993 19.16 28.708 18.964 28.708 18.572C28.708 18.1987 28.8993 18.012 29.282 18.012C29.646 18.012 29.828 18.1987 29.828 18.572C29.828 18.964 29.646 19.16 29.282 19.16ZM31.452 26.132H31.942V27H31.34C30.5 27 29.87 26.7153 29.45 26.146C29.0113 26.7153 28.3767 27 27.546 27H26.944V26.132H27.434C28.4607 26.132 28.974 25.6 28.974 24.536V21.498L29.912 21.008V24.536C29.912 25.6 30.4253 26.132 31.452 26.132ZM34.9088 19.202C34.5261 19.202 34.3348 19.006 34.3348 18.614C34.3348 18.2407 34.5261 18.054 34.9088 18.054C35.2728 18.054 35.4548 18.2407 35.4548 18.614C35.4548 19.006 35.2728 19.202 34.9088 19.202ZM36.5048 19.202C36.1221 19.202 35.9308 19.006 35.9308 18.614C35.9308 18.2407 36.1221 18.054 36.5048 18.054C36.8688 18.054 37.0508 18.2407 37.0508 18.614C37.0508 19.006 36.8688 19.202 36.5048 19.202ZM37.1628 26.132H39.7248V27H36.5608C36.2434 27 35.9541 26.9673 35.6928 26.902C35.4314 26.9673 35.1421 27 34.8248 27H31.6608V26.132H34.2368C33.4994 25.4507 33.1308 24.6433 33.1308 23.71C33.1308 22.8047 33.3828 22.086 33.8868 21.554C34.3441 21.078 34.9461 20.84 35.6928 20.84C36.5421 20.84 37.2001 21.148 37.6668 21.764C38.0588 22.2773 38.2548 22.926 38.2548 23.71C38.2548 24.6527 37.8908 25.46 37.1628 26.132ZM35.7488 26.006C36.2248 25.838 36.6121 25.5393 36.9108 25.11C37.2188 24.6713 37.3728 24.2 37.3728 23.696C37.3728 23.08 37.2188 22.5947 36.9108 22.24C36.6121 21.876 36.2061 21.694 35.6928 21.694C35.1794 21.694 34.7734 21.876 34.4748 22.24C34.1761 22.5947 34.0268 23.0753 34.0268 23.682C34.0268 24.1953 34.1761 24.6713 34.4748 25.11C34.7734 25.5393 35.1608 25.838 35.6368 26.006L35.6928 26.02L35.7208 26.006H35.7488ZM40.2801 19.16C39.8974 19.16 39.7061 18.964 39.7061 18.572C39.7061 18.1987 39.8974 18.012 40.2801 18.012C40.6441 18.012 40.8261 18.1987 40.8261 18.572C40.8261 18.964 40.6441 19.16 40.2801 19.16ZM41.8761 19.16C41.4934 19.16 41.3021 18.964 41.3021 18.572C41.3021 18.1987 41.4934 18.012 41.8761 18.012C42.2401 18.012 42.4221 18.1987 42.4221 18.572C42.4221 18.964 42.2401 19.16 41.8761 19.16ZM39.4401 27V26.132H39.9301C40.9567 26.132 41.4701 25.6 41.4701 24.536V21.498L42.4081 21.008V24.564C42.4081 25.348 42.1794 25.9593 41.7221 26.398C41.3021 26.7993 40.7421 27 40.0421 27H39.4401ZM55.4733 26.132H55.9493V27H55.3473C54.5166 27 53.8912 26.72 53.4713 26.16C53.0419 26.7107 52.4073 26.9907 51.5673 27H49.7893C48.7626 27 48.2493 27.532 48.2493 28.596V30.92L47.3113 31.41V28.568C47.3113 27.7933 47.5399 27.1867 47.9973 26.748C48.4079 26.3467 48.9539 26.1413 49.6353 26.132C49.1966 25.572 48.9773 24.8347 48.9773 23.92C48.9773 22.912 49.2386 22.1327 49.7613 21.582C50.2186 21.0873 50.8253 20.84 51.5813 20.84C52.3559 20.84 52.9533 21.0827 53.3733 21.568C53.7373 21.988 53.9193 22.548 53.9193 23.248V24.536C53.9193 25.6 54.4373 26.132 55.4733 26.132ZM52.9813 24.592V23.332C52.9813 22.24 52.5146 21.694 51.5813 21.694C51.0493 21.694 50.6339 21.89 50.3353 22.282C50.0459 22.674 49.9013 23.2153 49.9013 23.906C49.9013 24.606 50.0413 25.152 50.3213 25.544C50.6013 25.936 50.9886 26.132 51.4833 26.132C52.4819 26.132 52.9813 25.6187 52.9813 24.592ZM60.1346 26.132H60.6246V27H60.0226C59.1639 27 58.5246 26.706 58.1046 26.118C57.6659 26.706 57.0173 27 56.1586 27H55.6686V26.132H56.0606C57.1246 26.132 57.6566 25.5813 57.6566 24.48V18.46L58.5946 17.97V24.536C58.5946 25.6 59.1079 26.132 60.1346 26.132ZM70.3404 27H66.8824C66.3784 27 65.865 26.8927 65.3424 26.678C64.8104 26.8927 64.2924 27 63.7884 27H60.3444V26.132H63.7324C63.919 26.132 64.1104 26.118 64.3064 26.09C63.569 25.558 62.7664 24.6807 61.8984 23.458V22.884C62.869 21.5213 64.0124 20.84 65.3284 20.84C66.635 20.84 67.783 21.5307 68.7724 22.912V23.458C67.9044 24.6807 67.1064 25.558 66.3784 26.09C66.565 26.118 66.7517 26.132 66.9384 26.132H70.3264L70.3404 27ZM62.7104 23.178C63.6904 24.4847 64.563 25.334 65.3284 25.726C66.0844 25.334 66.9617 24.48 67.9604 23.164C67.2137 22.184 66.3364 21.694 65.3284 21.694H65.2864C64.3344 21.694 63.4757 22.1887 62.7104 23.178ZM70.9051 19.16C70.5224 19.16 70.3311 18.964 70.3311 18.572C70.3311 18.1987 70.5224 18.012 70.9051 18.012C71.2691 18.012 71.4511 18.1987 71.4511 18.572C71.4511 18.964 71.2691 19.16 70.9051 19.16ZM72.5011 19.16C72.1184 19.16 71.9271 18.964 71.9271 18.572C71.9271 18.1987 72.1184 18.012 72.5011 18.012C72.8651 18.012 73.0471 18.1987 73.0471 18.572C73.0471 18.964 72.8651 19.16 72.5011 19.16ZM70.0651 27V26.132H70.5551C71.5817 26.132 72.0951 25.6 72.0951 24.536V21.498L73.0331 21.008V24.564C73.0331 25.348 72.8044 25.9593 72.3471 26.398C71.9271 26.7993 71.3671 27 70.6671 27H70.0651ZM87.4423 26.132H87.9323V27H87.3303C86.7329 27 86.2336 26.8507 85.8323 26.552C85.7576 27.5413 85.3609 28.3207 84.6423 28.89C83.9983 29.4033 83.1863 29.66 82.2063 29.66C80.9929 29.66 80.0596 29.2447 79.4062 28.414C78.8929 27.77 78.6363 27 78.6363 26.104C78.6363 25.292 78.8416 24.606 79.2523 24.046L80.1763 23.836C79.7189 24.508 79.4903 25.2453 79.4903 26.048C79.4903 26.8693 79.7563 27.5413 80.2883 28.064C80.7923 28.5587 81.4316 28.806 82.2063 28.806C83.1023 28.806 83.7976 28.5353 84.2923 27.994C84.7123 27.546 84.9223 26.9627 84.9223 26.244V18.46L85.8463 17.97V24.55V24.578C85.8463 25.614 86.3783 26.132 87.4423 26.132ZM96.4531 26.132H96.9291V27H96.3271C95.4778 27 94.8431 26.706 94.4231 26.118C93.9564 26.8927 93.2471 27.28 92.2951 27.28C91.3338 27.28 90.6244 26.8973 90.1671 26.132C89.7378 26.7107 89.0984 27 88.2491 27H87.6471V26.132H88.1371C89.1638 26.132 89.6771 25.6 89.6771 24.536V24.06C89.6771 22.9867 89.9384 22.1653 90.4611 21.596C90.9184 21.092 91.5298 20.84 92.2951 20.84C93.1724 20.84 93.8398 21.1667 94.2971 21.82C94.6984 22.38 94.8991 23.1267 94.8991 24.06V24.536C94.8991 25.6 95.4171 26.132 96.4531 26.132ZM92.2951 26.412C92.8084 26.412 93.2144 26.202 93.5131 25.782C93.8118 25.3527 93.9611 24.774 93.9611 24.046C93.9611 22.478 93.4058 21.694 92.2951 21.694C91.1751 21.694 90.6151 22.478 90.6151 24.046C90.6151 25.6233 91.1751 26.412 92.2951 26.412ZM104.049 18.166C103.713 18.166 103.545 17.9887 103.545 17.634C103.545 17.298 103.713 17.13 104.049 17.13C104.385 17.13 104.553 17.298 104.553 17.634C104.553 17.9887 104.385 18.166 104.049 18.166ZM103.265 19.622C102.883 19.622 102.691 19.4307 102.691 19.048C102.691 18.6653 102.883 18.474 103.265 18.474C103.629 18.474 103.811 18.6653 103.811 19.048C103.811 19.4307 103.629 19.622 103.265 19.622ZM104.861 19.622C104.488 19.622 104.301 19.4307 104.301 19.048C104.301 18.6653 104.488 18.474 104.861 18.474C105.235 18.474 105.421 18.6653 105.421 19.048C105.421 19.4307 105.235 19.622 104.861 19.622ZM96.6432 27V26.132H97.4972C98.5332 26.132 99.0512 25.6 99.0512 24.536V22.52L99.9892 22.03V24.536C99.9892 25.6 100.503 26.132 101.529 26.132H102.047C103.074 26.132 103.587 25.6 103.587 24.536V22.016L104.525 21.512V24.536C104.525 25.6 105.043 26.132 106.079 26.132H106.583C107.619 26.132 108.137 25.6 108.137 24.536V21.498L109.075 21.008V24.48C109.075 25.5813 109.607 26.132 110.671 26.132H111.483V27H110.573C109.687 27 109.038 26.6873 108.627 26.062C108.217 26.6873 107.582 27 106.723 27H105.953C105.085 27 104.455 26.692 104.063 26.076C103.662 26.692 103.037 27 102.187 27H101.417C100.549 27 99.9145 26.692 99.5132 26.076C99.1212 26.692 98.4912 27 97.6232 27H96.6432ZM112.044 19.16C111.661 19.16 111.47 18.964 111.47 18.572C111.47 18.1987 111.661 18.012 112.044 18.012C112.408 18.012 112.59 18.1987 112.59 18.572C112.59 18.964 112.408 19.16 112.044 19.16ZM113.64 19.16C113.257 19.16 113.066 18.964 113.066 18.572C113.066 18.1987 113.257 18.012 113.64 18.012C114.004 18.012 114.186 18.1987 114.186 18.572C114.186 18.964 114.004 19.16 113.64 19.16ZM111.204 27V26.132H111.694C112.72 26.132 113.234 25.6 113.234 24.536V21.498L114.172 21.008V24.564C114.172 25.348 113.943 25.9593 113.486 26.398C113.066 26.7993 112.506 27 111.806 27H111.204ZM121.231 26.44C121.231 26.4493 121.231 26.4587 121.231 26.468C121.231 26.8693 121.04 27.07 120.657 27.07C120.256 27.07 120.055 26.8647 120.055 26.454C120.074 26.0713 120.274 25.88 120.657 25.88C121.04 25.88 121.231 26.0667 121.231 26.44ZM126.112 27C125.319 27 124.708 26.7433 124.278 26.23C123.924 25.7913 123.746 25.236 123.746 24.564V18.46L124.684 17.97V24.536C124.684 25.6 125.198 26.132 126.224 26.132H126.714V27H126.112ZM130.942 26.132H131.432V27H130.83C129.99 27 129.36 26.7153 128.94 26.146C128.502 26.7153 127.867 27 127.036 27H126.434V26.132H126.924C127.951 26.132 128.464 25.6 128.464 24.536V21.498L129.402 21.008V24.536C129.402 25.6 129.916 26.132 130.942 26.132ZM127.764 28.47C128.138 28.47 128.324 28.6613 128.324 29.044C128.324 29.4267 128.138 29.618 127.764 29.618C127.391 29.618 127.204 29.4267 127.204 29.044C127.204 28.6613 127.391 28.47 127.764 28.47ZM129.36 28.47C129.734 28.47 129.92 28.6613 129.92 29.044C129.92 29.4267 129.734 29.618 129.36 29.618C128.987 29.618 128.8 29.4267 128.8 29.044C128.8 28.6613 128.987 28.47 129.36 28.47ZM138.319 26.132V27H131.151V26.132H133.503C132.915 25.5347 132.621 24.7413 132.621 23.752C132.621 22.8093 132.943 22.0627 133.587 21.512C134.1 21.0733 134.702 20.8493 135.393 20.84C136.354 20.84 137.106 21.218 137.647 21.974V22.898C137.087 22.0953 136.368 21.694 135.491 21.694H135.449C134.889 21.694 134.432 21.8853 134.077 22.268C133.732 22.6507 133.559 23.1547 133.559 23.78C133.559 24.4987 133.774 25.0727 134.203 25.502C134.614 25.922 135.164 26.132 135.855 26.132H138.319ZM146.422 26.132V27H144.938C144.928 27.616 144.728 28.1573 144.336 28.624C143.953 29.1 143.454 29.4127 142.838 29.562C142.614 29.6273 142.371 29.66 142.11 29.66C141.568 29.66 141.041 29.5293 140.528 29.268V28.442C141.013 28.7033 141.494 28.834 141.97 28.834C142.352 28.834 142.688 28.75 142.978 28.582C143.267 28.4327 143.51 28.204 143.706 27.896C143.902 27.5973 144 27.2987 144 27L142.81 26.958C141.774 26.9113 140.999 26.5847 140.486 25.978C140.066 25.4647 139.856 24.7787 139.856 23.92C139.856 22.912 140.117 22.1327 140.64 21.582C141.106 21.0873 141.732 20.84 142.516 20.84C143.328 20.84 143.948 21.0827 144.378 21.568C144.751 21.988 144.938 22.548 144.938 23.248V26.132H146.422ZM144 23.346C144 22.2447 143.505 21.694 142.516 21.694C141.965 21.694 141.536 21.89 141.228 22.282C140.929 22.6647 140.78 23.206 140.78 23.906C140.78 25.2967 141.466 26.0247 142.838 26.09C143.248 26.118 143.636 26.132 144 26.132V23.346ZM150.643 26.132H151.133V27H150.531C149.691 27 149.061 26.7153 148.641 26.146C148.203 26.7153 147.568 27 146.737 27H146.135V26.132H146.625C147.652 26.132 148.165 25.6 148.165 24.536V21.498L149.103 21.008V24.536C149.103 25.6 149.617 26.132 150.643 26.132ZM148.487 28.47C148.851 28.47 149.033 28.6567 149.033 29.03C149.033 29.422 148.851 29.618 148.487 29.618C148.105 29.618 147.913 29.422 147.913 29.03C147.913 28.6567 148.105 28.47 148.487 28.47ZM150.852 27V26.132H151.706C152.742 26.132 153.26 25.6 153.26 24.536V22.52L154.198 22.03V24.536C154.198 25.6 154.712 26.132 155.738 26.132H156.256C157.283 26.132 157.796 25.6 157.796 24.536V22.016L158.734 21.512V24.536C158.734 25.6 159.252 26.132 160.288 26.132H160.792C161.828 26.132 162.346 25.6 162.346 24.536V21.498L163.284 21.008V24.564C163.284 25.3387 163.056 25.9453 162.598 26.384C162.188 26.7853 161.632 26.9907 160.932 27H160.162C159.294 27 158.664 26.692 158.272 26.076C157.871 26.692 157.246 27 156.396 27H155.626C154.758 27 154.124 26.692 153.722 26.076C153.33 26.692 152.7 27 151.832 27H150.852ZM165.801 27V18.46L166.739 17.97V27H165.801ZM62.1548 43.44C62.1548 43.4493 62.1548 43.4587 62.1548 43.468C62.1548 43.8693 61.9634 44.07 61.5808 44.07C61.1794 44.07 60.9788 43.8647 60.9788 43.454C60.9974 43.0713 61.1981 42.88 61.5808 42.88C61.9634 42.88 62.1548 43.0667 62.1548 43.44ZM72.9162 43.132H73.4062V44H72.9022C72.0995 44 71.4602 43.902 70.9842 43.706C70.5082 43.51 70.0695 43.1647 69.6682 42.67C69.3415 42.7913 68.8422 42.9173 68.1702 43.048C67.0688 43.2627 66.3268 43.5613 65.9442 43.944C65.4868 44.4013 65.2582 45.0453 65.2582 45.876C65.2582 46.6787 65.5242 47.3133 66.0562 47.78C66.5042 48.1813 67.0782 48.382 67.7782 48.382H67.8062C68.8702 48.382 69.7242 48.144 70.3682 47.668V48.522C69.6028 49.0073 68.7348 49.25 67.7642 49.25C66.7188 49.25 65.8788 48.9 65.2442 48.2C64.6748 47.5747 64.3902 46.7907 64.3902 45.848C64.3902 44.84 64.6982 44.014 65.3142 43.37C65.5942 43.0807 65.9162 42.8613 66.2802 42.712C66.6442 42.5533 67.1995 42.404 67.9462 42.264C68.7115 42.1147 69.2715 41.9607 69.6262 41.802C69.9808 41.634 70.2888 41.3913 70.5502 41.074C69.7382 39.478 68.7348 38.68 67.5402 38.68C66.7282 38.68 65.9442 39.086 65.1882 39.898V38.974C65.9535 38.218 66.7515 37.84 67.5822 37.84H67.6102C69.0755 37.84 70.3448 38.8293 71.4182 40.808V41.382C71.1382 41.7647 70.7835 42.082 70.3542 42.334C70.6528 42.6327 70.9888 42.8427 71.3622 42.964C71.7448 43.076 72.2628 43.132 72.9162 43.132ZM67.2742 45.848C67.2742 45.4933 67.4515 45.316 67.8062 45.316C68.1515 45.316 68.3242 45.4933 68.3242 45.848C68.3242 46.212 68.1515 46.394 67.8062 46.394C67.4515 46.394 67.2742 46.212 67.2742 45.848ZM77.3485 43.132H77.8385V44H77.2365C76.3965 44 75.7665 43.7153 75.3465 43.146C74.9078 43.7153 74.2731 44 73.4425 44H72.8405V43.132H73.3305C74.3571 43.132 74.8705 42.6 74.8705 41.536V38.498L75.8085 38.008V41.536C75.8085 42.6 76.3218 43.132 77.3485 43.132ZM74.1705 45.47C74.5438 45.47 74.7305 45.6613 74.7305 46.044C74.7305 46.4267 74.5438 46.618 74.1705 46.618C73.7971 46.618 73.6105 46.4267 73.6105 46.044C73.6105 45.6613 73.7971 45.47 74.1705 45.47ZM75.7665 45.47C76.1398 45.47 76.3265 45.6613 76.3265 46.044C76.3265 46.4267 76.1398 46.618 75.7665 46.618C75.3931 46.618 75.2065 46.4267 75.2065 46.044C75.2065 45.6613 75.3931 45.47 75.7665 45.47ZM77.5573 44V43.132H79.1253C81.1599 43.132 82.7466 42.4413 83.8853 41.06C83.0546 39.4733 82.0513 38.68 80.8753 38.68C80.0726 38.68 79.2886 39.086 78.5233 39.898V38.974C79.2886 38.218 80.0866 37.84 80.9173 37.84H80.9453C82.4106 37.84 83.6799 38.8293 84.7533 40.808V41.382C83.3906 43.1273 81.5099 44 79.1113 44H77.5573ZM81.2533 46.618C80.8706 46.618 80.6793 46.422 80.6793 46.03C80.6793 45.6567 80.8706 45.47 81.2533 45.47C81.6173 45.47 81.7993 45.6567 81.7993 46.03C81.7993 46.422 81.6173 46.618 81.2533 46.618ZM88.421 36.16C88.0384 36.16 87.847 35.964 87.847 35.572C87.847 35.1987 88.0384 35.012 88.421 35.012C88.785 35.012 88.967 35.1987 88.967 35.572C88.967 35.964 88.785 36.16 88.421 36.16ZM90.521 43.132H91.011V44H90.409C89.8304 44 89.3497 43.86 88.967 43.58C88.8924 45.1293 88.267 46.1093 87.091 46.52C86.7924 46.6227 86.475 46.674 86.139 46.674C85.5977 46.674 85.075 46.5433 84.571 46.282V45.456C85.047 45.7173 85.5324 45.848 86.027 45.848C86.419 45.848 86.7644 45.7593 87.063 45.582C87.7164 45.19 88.043 44.4573 88.043 43.384V38.498L88.967 38.008V38.022L88.981 38.008V41.536C88.981 42.6 89.4944 43.132 90.521 43.132ZM92.151 36.202C91.7776 36.202 91.591 36.0107 91.591 35.628C91.591 35.2453 91.7776 35.054 92.151 35.054C92.5243 35.054 92.711 35.2453 92.711 35.628C92.711 36.0107 92.5243 36.202 92.151 36.202ZM93.747 36.202C93.3736 36.202 93.187 36.0107 93.187 35.628C93.187 35.2453 93.3736 35.054 93.747 35.054C94.1203 35.054 94.307 35.2453 94.307 35.628C94.307 36.0107 94.1203 36.202 93.747 36.202ZM95.245 43.132H95.735V44H95.133C94.293 44 93.663 43.7153 93.243 43.146C92.8043 43.7153 92.1696 44 91.339 44H90.737V43.132H91.227C92.2536 43.132 92.767 42.6 92.767 41.536V38.498L93.705 38.008V41.536C93.705 42.6 94.2183 43.132 95.245 43.132ZM95.4537 44V43.132H95.8458C96.9097 43.132 97.4417 42.5813 97.4417 41.48V35.46L98.3798 34.97V41.494C98.3798 42.2873 98.1464 42.9127 97.6798 43.37C97.2411 43.79 96.6624 44 95.9438 44H95.4537ZM100.901 44V35.46L101.839 34.97V44H100.901ZM110.845 43.65C110.752 43.706 110.598 43.7947 110.383 43.916L110.355 43.93C109.59 44.3593 109.076 44.728 108.815 45.036C108.563 45.344 108.437 45.7547 108.437 46.268C108.437 46.884 108.647 47.388 109.067 47.78C109.496 48.1813 110.047 48.382 110.719 48.382H110.747C111.811 48.382 112.665 48.144 113.309 47.668V48.522C112.544 49.0073 111.68 49.25 110.719 49.25C109.711 49.25 108.908 48.9187 108.311 48.256C107.816 47.696 107.569 47.024 107.569 46.24C107.569 45.5773 107.732 45.0453 108.059 44.644C108.386 44.2427 109.044 43.7667 110.033 43.216C109.221 42.6653 108.362 41.746 107.457 40.458V39.884C108.428 38.5213 109.571 37.84 110.887 37.84C111.503 37.84 112.114 38.022 112.721 38.386C113.328 38.75 113.864 39.2587 114.331 39.912V40.458C113.687 41.3447 112.824 42.208 111.741 43.048C111.984 43.104 112.236 43.132 112.497 43.132H115.885V44H112.441C111.89 44 111.358 43.8833 110.845 43.65ZM108.269 40.192C109.249 41.48 110.112 42.32 110.859 42.712C111.82 42.04 112.707 41.1907 113.519 40.164C112.772 39.184 111.895 38.694 110.887 38.694H110.845C109.884 38.694 109.025 39.1933 108.269 40.192ZM117.636 40.248C117.636 39.4547 117.874 38.8387 118.35 38.4C118.761 38.0267 119.302 37.84 119.974 37.84C120.842 37.84 121.509 38.1573 121.976 38.792C122.377 39.3333 122.578 40.0427 122.578 40.92C122.578 41.9187 122.321 42.698 121.808 43.258C121.36 43.7527 120.777 44 120.058 44C119.181 44 118.527 43.72 118.098 43.16C117.678 43.72 117.048 44 116.208 44H115.606V43.132H116.096C117.123 43.132 117.636 42.6 117.636 41.536V40.248ZM118.574 41.592C118.574 42.6187 119.078 43.132 120.086 43.132C120.571 43.132 120.954 42.936 121.234 42.544C121.514 42.152 121.654 41.606 121.654 40.906C121.654 40.2153 121.505 39.674 121.206 39.282C120.917 38.89 120.506 38.694 119.974 38.694C119.041 38.694 118.574 39.24 118.574 40.332V41.592ZM136.784 43.132H137.274V44H136.672C136.075 44 135.575 43.8507 135.174 43.552C135.099 44.5413 134.703 45.3207 133.984 45.89C133.34 46.4033 132.528 46.66 131.548 46.66C130.335 46.66 129.401 46.2447 128.748 45.414C128.235 44.77 127.978 44 127.978 43.104C127.978 42.292 128.183 41.606 128.594 41.046L129.518 40.836C129.061 41.508 128.832 42.2453 128.832 43.048C128.832 43.8693 129.098 44.5413 129.63 45.064C130.134 45.5587 130.773 45.806 131.548 45.806C132.444 45.806 133.139 45.5353 133.634 44.994C134.054 44.546 134.264 43.9627 134.264 43.244V35.46L135.188 34.97V41.55V41.578C135.188 42.614 135.72 43.132 136.784 43.132ZM141.497 43.132H141.987V44H141.385C140.545 44 139.915 43.7153 139.495 43.146C139.056 43.7153 138.422 44 137.591 44H136.989V43.132H137.479C138.506 43.132 139.019 42.6 139.019 41.536V38.498L139.957 38.008V41.536C139.957 42.6 140.47 43.132 141.497 43.132ZM138.319 45.47C138.692 45.47 138.879 45.6613 138.879 46.044C138.879 46.4267 138.692 46.618 138.319 46.618C137.946 46.618 137.759 46.4267 137.759 46.044C137.759 45.6613 137.946 45.47 138.319 45.47ZM139.915 45.47C140.288 45.47 140.475 45.6613 140.475 46.044C140.475 46.4267 140.288 46.618 139.915 46.618C139.542 46.618 139.355 46.4267 139.355 46.044C139.355 45.6613 139.542 45.47 139.915 45.47ZM149.14 43.132H149.49V44H149.028C148.188 44 147.558 43.7153 147.138 43.146C146.718 43.7153 146.083 44 145.234 44H141.706V43.132H145.136C146.153 43.132 146.662 42.586 146.662 41.494V41.354C146.662 40.5887 146.382 40.0147 145.822 39.632C145.374 39.3147 144.814 39.156 144.142 39.156C143.638 39.156 143.138 39.2447 142.644 39.422V38.498L145.822 34.97H146.788L143.918 38.218C144.011 38.2087 144.109 38.204 144.212 38.204C145.108 38.204 145.854 38.4327 146.452 38.89C147.217 39.478 147.6 40.2947 147.6 41.34V41.536C147.6 42.6 148.113 43.132 149.14 43.132ZM156.618 35.166C156.282 35.166 156.114 34.9887 156.114 34.634C156.114 34.298 156.282 34.13 156.618 34.13C156.954 34.13 157.122 34.298 157.122 34.634C157.122 34.9887 156.954 35.166 156.618 35.166ZM155.834 36.622C155.451 36.622 155.26 36.4307 155.26 36.048C155.26 35.6653 155.451 35.474 155.834 35.474C156.198 35.474 156.38 35.6653 156.38 36.048C156.38 36.4307 156.198 36.622 155.834 36.622ZM157.43 36.622C157.056 36.622 156.87 36.4307 156.87 36.048C156.87 35.6653 157.056 35.474 157.43 35.474C157.803 35.474 157.99 35.6653 157.99 36.048C157.99 36.4307 157.803 36.622 157.43 36.622ZM149.212 44V43.132H150.066C151.102 43.132 151.62 42.6 151.62 41.536V39.52L152.558 39.03V41.536C152.558 42.6 153.071 43.132 154.098 43.132H154.616C155.642 43.132 156.156 42.6 156.156 41.536V39.016L157.094 38.512V41.536C157.094 42.6 157.612 43.132 158.648 43.132H159.152C160.188 43.132 160.706 42.6 160.706 41.536V38.498L161.644 38.008V41.48C161.644 42.5813 162.176 43.132 163.24 43.132H164.052V44H163.142C162.255 44 161.606 43.6873 161.196 43.062C160.785 43.6873 160.15 44 159.292 44H158.522C157.654 44 157.024 43.692 156.632 43.076C156.23 43.692 155.605 44 154.756 44H153.986C153.118 44 152.483 43.692 152.082 43.076C151.69 43.692 151.06 44 150.192 44H149.212ZM164.612 36.16C164.229 36.16 164.038 35.964 164.038 35.572C164.038 35.1987 164.229 35.012 164.612 35.012C164.976 35.012 165.158 35.1987 165.158 35.572C165.158 35.964 164.976 36.16 164.612 36.16ZM166.208 36.16C165.825 36.16 165.634 35.964 165.634 35.572C165.634 35.1987 165.825 35.012 166.208 35.012C166.572 35.012 166.754 35.1987 166.754 35.572C166.754 35.964 166.572 36.16 166.208 36.16ZM163.772 44V43.132H164.262C165.289 43.132 165.802 42.6 165.802 41.536V38.498L166.74 38.008V41.564C166.74 42.348 166.511 42.9593 166.054 43.398C165.634 43.7993 165.074 44 164.374 44H163.772ZM6.14764 71.588C5.76497 71.588 5.57364 71.392 5.57364 71C5.57364 70.6267 5.76497 70.44 6.14764 70.44C6.51164 70.44 6.69364 70.6267 6.69364 71C6.69364 71.392 6.51164 71.588 6.14764 71.588ZM11.3276 77.132H11.8176V78H11.2156C10.637 78 10.1563 77.8647 9.77364 77.594C9.70831 78.574 9.31631 79.344 8.59764 79.904C7.96297 80.408 7.16031 80.66 6.18964 80.66C5.00431 80.66 4.08497 80.24 3.43164 79.4C2.91831 78.756 2.66164 77.986 2.66164 77.09C2.66164 76.2873 2.86697 75.5967 3.27764 75.018L4.18764 74.836C3.73964 75.5173 3.51564 76.2453 3.51564 77.02C3.51564 77.8413 3.78164 78.518 4.31364 79.05C4.80831 79.5447 5.43364 79.792 6.18964 79.792C7.07631 79.792 7.76231 79.5307 8.24764 79.008C8.64897 78.5787 8.84964 78.014 8.84964 77.314V72.498L9.78764 72.008V75.536C9.78764 76.6 10.301 77.132 11.3276 77.132ZM16.0438 77.132H16.5338V78H15.9318C15.0918 78 14.4618 77.7153 14.0418 77.146C13.6031 77.7153 12.9684 78 12.1378 78H11.5358V77.132H12.0258C13.0524 77.132 13.5658 76.6 13.5658 75.536V72.498L14.5038 72.008V75.536C14.5038 76.6 15.0171 77.132 16.0438 77.132ZM12.8658 79.47C13.2391 79.47 13.4258 79.6613 13.4258 80.044C13.4258 80.4267 13.2391 80.618 12.8658 80.618C12.4924 80.618 12.3058 80.4267 12.3058 80.044C12.3058 79.6613 12.4924 79.47 12.8658 79.47ZM14.4618 79.47C14.8351 79.47 15.0218 79.6613 15.0218 80.044C15.0218 80.4267 14.8351 80.618 14.4618 80.618C14.0884 80.618 13.9018 80.4267 13.9018 80.044C13.9018 79.6613 14.0884 79.47 14.4618 79.47ZM18.4646 72.218C18.5579 72.2087 18.6559 72.204 18.7586 72.204C19.5986 72.204 20.3172 72.4093 20.9146 72.82C21.7359 73.408 22.1466 74.248 22.1466 75.34V75.606C22.1466 76.39 21.9039 77.0013 21.4186 77.44C20.9986 77.8133 20.4526 78 19.7806 78H16.2526V77.132H19.6826C20.6999 77.132 21.2086 76.586 21.2086 75.494V75.354C21.2086 74.598 20.9379 74.0333 20.3966 73.66C19.9486 73.324 19.3792 73.156 18.6886 73.156C18.1846 73.156 17.6852 73.2447 17.1906 73.422V72.498L20.3686 68.97H21.3346L18.4646 72.218ZM26.0764 77.328C26.0764 79.0267 25.4511 80.0907 24.2004 80.52C23.9018 80.6227 23.5844 80.674 23.2484 80.674C22.7071 80.674 22.1844 80.5433 21.6804 80.282V79.456C22.1564 79.7173 22.6418 79.848 23.1364 79.848C23.5284 79.848 23.8738 79.7593 24.1724 79.582C24.8258 79.19 25.1524 78.4573 25.1524 77.384V72.498L26.0764 72.008V77.328ZM30.9561 78C30.1627 78 29.5514 77.7433 29.1221 77.23C28.7674 76.7913 28.5901 76.236 28.5901 75.564V69.46L29.5281 68.97V75.536C29.5281 76.6 30.0414 77.132 31.0681 77.132H31.5581V78H30.9561ZM38.684 69.166C38.348 69.166 38.18 68.9887 38.18 68.634C38.18 68.298 38.348 68.13 38.684 68.13C39.02 68.13 39.188 68.298 39.188 68.634C39.188 68.9887 39.02 69.166 38.684 69.166ZM37.9 70.622C37.5173 70.622 37.326 70.4307 37.326 70.048C37.326 69.6653 37.5173 69.474 37.9 69.474C38.264 69.474 38.446 69.6653 38.446 70.048C38.446 70.4307 38.264 70.622 37.9 70.622ZM39.496 70.622C39.1226 70.622 38.936 70.4307 38.936 70.048C38.936 69.6653 39.1226 69.474 39.496 69.474C39.8693 69.474 40.056 69.6653 40.056 70.048C40.056 70.4307 39.8693 70.622 39.496 70.622ZM31.278 78V77.132H32.132C33.168 77.132 33.686 76.6 33.686 75.536V73.52L34.624 73.03V75.536C34.624 76.6 35.1373 77.132 36.164 77.132H36.682C37.7086 77.132 38.222 76.6 38.222 75.536V73.016L39.16 72.512V75.536C39.16 76.6 39.678 77.132 40.714 77.132H41.218C42.254 77.132 42.772 76.6 42.772 75.536V72.498L43.71 72.008V75.48C43.71 76.5813 44.242 77.132 45.306 77.132H46.118V78H45.208C44.3213 78 43.6726 77.6873 43.262 77.062C42.8513 77.6873 42.2166 78 41.358 78H40.588C39.72 78 39.09 77.692 38.698 77.076C38.2966 77.692 37.6713 78 36.822 78H36.052C35.184 78 34.5493 77.692 34.148 77.076C33.756 77.692 33.126 78 32.258 78H31.278ZM47.8685 74.248C47.8685 73.4547 48.1065 72.8387 48.5825 72.4C48.9932 72.0267 49.5345 71.84 50.2065 71.84C51.0745 71.84 51.7418 72.1573 52.2085 72.792C52.6098 73.3333 52.8105 74.0427 52.8105 74.92C52.8105 75.9187 52.5538 76.698 52.0405 77.258C51.5925 77.7527 51.0092 78 50.2905 78C49.4132 78 48.7598 77.72 48.3305 77.16C47.9105 77.72 47.2805 78 46.4405 78H45.8385V77.132H46.3285C47.3552 77.132 47.8685 76.6 47.8685 75.536V74.248ZM48.8065 75.592C48.8065 76.6187 49.3105 77.132 50.3185 77.132C50.8038 77.132 51.1865 76.936 51.4665 76.544C51.7465 76.152 51.8865 75.606 51.8865 74.906C51.8865 74.2153 51.7372 73.674 51.4385 73.282C51.1492 72.89 50.7385 72.694 50.2065 72.694C49.2732 72.694 48.8065 73.24 48.8065 74.332V75.592ZM62.2565 73.492C63.4791 73.8187 64.0905 74.5747 64.0905 75.76C64.0905 76.572 63.7451 77.1973 63.0545 77.636C62.4851 77.9907 61.7805 78.168 60.9405 78.168C59.9605 78.168 59.1765 77.9347 58.5885 77.468C58.0378 77.0387 57.7625 76.4647 57.7625 75.746C57.7625 75.074 58.0005 74.514 58.4765 74.066C58.8311 73.73 59.2278 73.534 59.6665 73.478C58.6491 73.17 58.1405 72.5213 58.1405 71.532C58.1405 70.692 58.4671 70.034 59.1205 69.558C59.6431 69.166 60.2825 68.97 61.0385 68.97C61.8971 68.97 62.6018 69.2313 63.1525 69.754C63.6658 70.2487 63.9225 70.874 63.9225 71.63C63.9225 72.0687 63.7638 72.4607 63.4465 72.806C63.1385 73.1513 62.7418 73.38 62.2565 73.492ZM61.0105 72.848C61.3278 72.7547 61.5891 72.582 61.7945 72.33C61.9998 72.0687 62.1025 71.7933 62.1025 71.504C62.1025 71.168 62.0045 70.8973 61.8085 70.692C61.6218 70.4867 61.3791 70.384 61.0805 70.384C60.7351 70.384 60.4551 70.4913 60.2405 70.706C60.0351 70.9113 59.9325 71.1867 59.9325 71.532C59.9325 72.1667 60.2918 72.6053 61.0105 72.848ZM61.0525 74.108C60.6325 74.2107 60.2965 74.402 60.0445 74.682C59.7925 74.9527 59.6665 75.2653 59.6665 75.62C59.6665 75.9467 59.7878 76.2173 60.0305 76.432C60.2731 76.6373 60.5811 76.74 60.9545 76.74C61.3091 76.74 61.5985 76.642 61.8225 76.446C62.0558 76.2407 62.1725 75.9793 62.1725 75.662C62.1725 75.3073 62.0651 74.9853 61.8505 74.696C61.6451 74.4067 61.3791 74.2107 61.0525 74.108ZM68.589 75.368H64.837V73.968H68.589V75.368ZM74.6489 70.608H71.5549V72.4C71.6669 72.3533 71.8209 72.33 72.0169 72.33C73.0435 72.33 73.8415 72.5867 74.4109 73.1C74.9522 73.5947 75.2229 74.2713 75.2229 75.13C75.2229 76.0353 74.8869 76.7867 74.2149 77.384C73.6269 77.9067 72.9129 78.168 72.0729 78.168C70.9529 78.168 69.9775 77.762 69.1469 76.95L69.9029 75.788C70.5842 76.3013 71.2422 76.558 71.8769 76.558C72.8569 76.558 73.3469 76.1193 73.3469 75.242C73.3469 74.262 72.7169 73.772 71.4569 73.772C71.0182 73.772 70.4442 73.8513 69.7349 74.01V69.138H74.6489V70.608ZM81.5551 74.08C81.5551 74.0893 81.5551 74.0987 81.5551 74.108C81.5551 74.5093 81.3638 74.71 80.9811 74.71C80.5798 74.71 80.3791 74.5047 80.3791 74.094C80.3978 73.7113 80.5985 73.52 80.9811 73.52C81.3638 73.52 81.5551 73.7067 81.5551 74.08ZM81.5551 77.44C81.5551 77.4493 81.5551 77.4587 81.5551 77.468C81.5551 77.8693 81.3638 78.07 80.9811 78.07C80.5798 78.07 80.3791 77.8647 80.3791 77.454C80.3978 77.0713 80.5985 76.88 80.9811 76.88C81.3638 76.88 81.5551 77.0667 81.5551 77.44ZM84.854 70.09C84.4713 70.09 84.28 69.894 84.28 69.502C84.28 69.1287 84.4713 68.942 84.854 68.942C85.218 68.942 85.4 69.1287 85.4 69.502C85.4 69.894 85.218 70.09 84.854 70.09ZM86.45 70.09C86.0673 70.09 85.876 69.894 85.876 69.502C85.876 69.1287 86.0673 68.942 86.45 68.942C86.814 68.942 86.996 69.1287 86.996 69.502C86.996 69.894 86.814 70.09 86.45 70.09ZM89.166 77.132H89.642V78H89.04C88.0413 78 87.346 77.608 86.954 76.824C86.4687 77.328 85.8713 77.58 85.162 77.58C84.3593 77.58 83.7247 77.2767 83.258 76.67C82.866 76.1567 82.67 75.5173 82.67 74.752C82.67 73.856 82.9313 73.1373 83.454 72.596C83.9113 72.12 84.476 71.882 85.148 71.882C85.7547 71.882 86.2633 72.0593 86.674 72.414V71.658L87.612 71.168V75.536C87.612 76.6 88.13 77.132 89.166 77.132ZM86.674 73.478C86.2633 72.9833 85.764 72.736 85.176 72.736C84.7093 72.736 84.3267 72.9273 84.028 73.31C83.7387 73.6833 83.594 74.1687 83.594 74.766C83.594 75.3727 83.7387 75.858 84.028 76.222C84.3267 76.586 84.714 76.768 85.19 76.768C85.7967 76.768 86.3007 76.502 86.702 75.97C86.6833 75.802 86.674 75.6667 86.674 75.564V73.478ZM96.5241 77.132V78H89.3561V77.132H91.7081C91.1201 76.5347 90.8261 75.7413 90.8261 74.752C90.8261 73.8093 91.1481 73.0627 91.7921 72.512C92.3054 72.0733 92.9074 71.8493 93.5981 71.84C94.5594 71.84 95.3108 72.218 95.8521 72.974V73.898C95.2921 73.0953 94.5734 72.694 93.6961 72.694H93.6541C93.0941 72.694 92.6368 72.8853 92.2821 73.268C91.9368 73.6507 91.7641 74.1547 91.7641 74.78C91.7641 75.4987 91.9788 76.0727 92.4081 76.502C92.8188 76.922 93.3694 77.132 94.0601 77.132H96.5241ZM104.627 77.132V78H103.143C103.133 78.616 102.933 79.1573 102.541 79.624C102.158 80.1 101.659 80.4127 101.043 80.562C100.819 80.6273 100.576 80.66 100.315 80.66C99.7734 80.66 99.246 80.5293 98.7327 80.268V79.442C99.218 79.7033 99.6987 79.834 100.175 79.834C100.557 79.834 100.893 79.75 101.183 79.582C101.472 79.4327 101.715 79.204 101.911 78.896C102.107 78.5973 102.205 78.2987 102.205 78L101.015 77.958C99.9787 77.9113 99.204 77.5847 98.6907 76.978C98.2707 76.4647 98.0607 75.7787 98.0607 74.92C98.0607 73.912 98.322 73.1327 98.8447 72.582C99.3114 72.0873 99.9367 71.84 100.721 71.84C101.533 71.84 102.153 72.0827 102.583 72.568C102.956 72.988 103.143 73.548 103.143 74.248V77.132H104.627ZM102.205 74.346C102.205 73.2447 101.71 72.694 100.721 72.694C100.17 72.694 99.7407 72.89 99.4327 73.282C99.134 73.6647 98.9847 74.206 98.9847 74.906C98.9847 76.2967 99.6707 77.0247 101.043 77.09C101.453 77.118 101.841 77.132 102.205 77.132V74.346ZM113.146 77.132H113.622V78H113.02C112.171 78 111.536 77.706 111.116 77.118C110.65 77.8927 109.94 78.28 108.988 78.28C108.027 78.28 107.318 77.8973 106.86 77.132C106.431 77.7107 105.792 78 104.942 78H104.34V77.132H104.83C105.857 77.132 106.37 76.6 106.37 75.536V75.06C106.37 73.9867 106.632 73.1653 107.154 72.596C107.612 72.092 108.223 71.84 108.988 71.84C109.866 71.84 110.533 72.1667 110.99 72.82C111.392 73.38 111.592 74.1267 111.592 75.06V75.536C111.592 76.6 112.11 77.132 113.146 77.132ZM108.988 77.412C109.502 77.412 109.908 77.202 110.206 76.782C110.505 76.3527 110.654 75.774 110.654 75.046C110.654 73.478 110.099 72.694 108.988 72.694C107.868 72.694 107.308 73.478 107.308 75.046C107.308 76.6233 107.868 77.412 108.988 77.412ZM122.185 77.132H122.675V78H122.171C121.396 78 120.775 77.9113 120.309 77.734C119.851 77.5567 119.427 77.244 119.035 76.796C117.84 77.5987 116.459 78 114.891 78H113.337V77.132H114.905C116.939 77.132 118.526 76.4413 119.665 75.06C118.834 73.4733 117.831 72.68 116.655 72.68C115.852 72.68 115.068 73.086 114.303 73.898V72.974C115.068 72.218 115.866 71.84 116.697 71.84H116.725C118.19 71.84 119.459 72.8293 120.533 74.808V75.382C120.243 75.7553 119.935 76.0773 119.609 76.348C119.907 76.6373 120.243 76.8427 120.617 76.964C120.999 77.076 121.522 77.132 122.185 77.132ZM117.033 79.47C117.397 79.47 117.579 79.6567 117.579 80.03C117.579 80.422 117.397 80.618 117.033 80.618C116.65 80.618 116.459 80.422 116.459 80.03C116.459 79.6567 116.65 79.47 117.033 79.47ZM131.207 77.132H131.683V78H131.081C130.232 78 129.597 77.706 129.177 77.118C128.71 77.8927 128.001 78.28 127.049 78.28C126.088 78.28 125.378 77.8973 124.921 77.132C124.492 77.7107 123.852 78 123.003 78H122.401V77.132H122.891C123.918 77.132 124.431 76.6 124.431 75.536V75.06C124.431 73.9867 124.692 73.1653 125.215 72.596C125.672 72.092 126.284 71.84 127.049 71.84C127.926 71.84 128.594 72.1667 129.051 72.82C129.452 73.38 129.653 74.1267 129.653 75.06V75.536C129.653 76.6 130.171 77.132 131.207 77.132ZM127.049 77.412C127.562 77.412 127.968 77.202 128.267 76.782C128.566 76.3527 128.715 75.774 128.715 75.046C128.715 73.478 128.16 72.694 127.049 72.694C125.929 72.694 125.369 73.478 125.369 75.046C125.369 76.6233 125.929 77.412 127.049 77.412ZM131.397 78V77.132H131.789C132.853 77.132 133.385 76.5813 133.385 75.48V69.46L134.323 68.97V75.494C134.323 76.2873 134.09 76.9127 133.623 77.37C133.184 77.79 132.606 78 131.887 78H131.397ZM136.844 78V69.46L137.782 68.97V78H136.844ZM150.848 77.132H151.324V78H150.722C149.892 78 149.266 77.72 148.846 77.16C148.417 77.7107 147.782 77.9907 146.942 78H145.164C144.138 78 143.624 78.532 143.624 79.596V81.92L142.686 82.41V79.568C142.686 78.7933 142.915 78.1867 143.372 77.748C143.783 77.3467 144.329 77.1413 145.01 77.132C144.572 76.572 144.352 75.8347 144.352 74.92C144.352 73.912 144.614 73.1327 145.136 72.582C145.594 72.0873 146.2 71.84 146.956 71.84C147.731 71.84 148.328 72.0827 148.748 72.568C149.112 72.988 149.294 73.548 149.294 74.248V75.536C149.294 76.6 149.812 77.132 150.848 77.132ZM148.356 75.592V74.332C148.356 73.24 147.89 72.694 146.956 72.694C146.424 72.694 146.009 72.89 145.71 73.282C145.421 73.674 145.276 74.2153 145.276 74.906C145.276 75.606 145.416 76.152 145.696 76.544C145.976 76.936 146.364 77.132 146.858 77.132C147.857 77.132 148.356 76.6187 148.356 75.592ZM159.892 77.132H160.382V78H159.878C159.103 78 158.482 77.9113 158.016 77.734C157.558 77.5567 157.134 77.244 156.742 76.796C155.547 77.5987 154.166 78 152.598 78H151.044V77.132H152.612C154.646 77.132 156.233 76.4413 157.372 75.06C156.541 73.4733 155.538 72.68 154.362 72.68C153.559 72.68 152.775 73.086 152.01 73.898V72.974C152.775 72.218 153.573 71.84 154.404 71.84H154.432C155.897 71.84 157.166 72.8293 158.24 74.808V75.382C157.95 75.7553 157.642 76.0773 157.316 76.348C157.614 76.6373 157.95 76.8427 158.324 76.964C158.706 77.076 159.229 77.132 159.892 77.132ZM154.74 79.47C155.104 79.47 155.286 79.6567 155.286 80.03C155.286 80.422 155.104 80.618 154.74 80.618C154.357 80.618 154.166 80.422 154.166 80.03C154.166 79.6567 154.357 79.47 154.74 79.47ZM160.108 78V77.132H161.676C163.711 77.132 165.297 76.4413 166.436 75.06C165.605 73.4733 164.602 72.68 163.426 72.68C162.623 72.68 161.839 73.086 161.074 73.898V72.974C161.839 72.218 162.637 71.84 163.468 71.84H163.496C164.961 71.84 166.231 72.8293 167.304 74.808V75.382C165.941 77.1273 164.061 78 161.662 78H160.108ZM4.51883 88.49C4.1455 88.49 3.95883 88.294 3.95883 87.902C3.95883 87.5287 4.1455 87.342 4.51883 87.342C4.89216 87.342 5.07883 87.5287 5.07883 87.902C5.07883 88.294 4.89216 88.49 4.51883 88.49ZM6.12883 88.49C5.74616 88.49 5.55483 88.294 5.55483 87.902C5.55483 87.5287 5.74616 87.342 6.12883 87.342C6.49283 87.342 6.67483 87.5287 6.67483 87.902C6.67483 88.294 6.49283 88.49 6.12883 88.49ZM3.07683 95C2.38616 95 1.83549 94.7853 1.42483 94.356C1.01416 93.9173 0.808828 93.3293 0.808828 92.592V90.758L1.74683 90.268V92.48C1.74683 93.5813 2.26016 94.132 3.28683 94.132H7.97683C9.0035 94.132 9.51683 93.5813 9.51683 92.48V89.498L10.4548 89.008V92.592C10.4548 93.3853 10.2122 94.0013 9.72683 94.44C9.30683 94.8133 8.75616 95 8.07483 95H3.07683ZM15.3428 95C14.5495 95 13.9381 94.7433 13.5088 94.23C13.1541 93.7913 12.9768 93.236 12.9768 92.564V86.46L13.9148 85.97V92.536C13.9148 93.6 14.4281 94.132 15.4548 94.132H15.9448V95H15.3428ZM22.8327 94.132V95H15.6647V94.132H18.0167C17.4287 93.5347 17.1347 92.7413 17.1347 91.752C17.1347 90.8093 17.4567 90.0627 18.1007 89.512C18.614 89.0733 19.216 88.8493 19.9067 88.84C20.868 88.84 21.6194 89.218 22.1607 89.974V90.898C21.6007 90.0953 20.882 89.694 20.0047 89.694H19.9627C19.4027 89.694 18.9454 89.8853 18.5907 90.268C18.2454 90.6507 18.0727 91.1547 18.0727 91.78C18.0727 92.4987 18.2874 93.0727 18.7167 93.502C19.1274 93.922 19.678 94.132 20.3687 94.132H22.8327ZM27.1553 95C26.362 95 25.7506 94.7433 25.3213 94.23C24.9666 93.7913 24.7893 93.236 24.7893 92.564V86.46L25.7273 85.97V92.536C25.7273 93.6 26.2406 94.132 27.2673 94.132H27.7573V95H27.1553ZM27.4772 95V94.132H28.3312C29.3672 94.132 29.8852 93.6 29.8852 92.536V90.52L30.8232 90.03V92.536C30.8232 93.6 31.3365 94.132 32.3632 94.132H32.8812C33.9079 94.132 34.4212 93.6 34.4212 92.536V90.016L35.3592 89.512V92.536C35.3592 93.6 35.8772 94.132 36.9132 94.132H37.4172C38.4532 94.132 38.9712 93.6 38.9712 92.536V89.498L39.9092 89.008V92.564C39.9092 93.3387 39.6805 93.9453 39.2232 94.384C38.8125 94.7853 38.2572 94.9907 37.5572 95H36.7872C35.9192 95 35.2892 94.692 34.8972 94.076C34.4959 94.692 33.8705 95 33.0212 95H32.2512C31.3832 95 30.7485 94.692 30.3472 94.076C29.9552 94.692 29.3252 95 28.4572 95H27.4772ZM49.6533 91.5C49.336 91.7893 48.8646 91.934 48.2393 91.934C47.3993 91.934 46.7273 91.6913 46.2233 91.206C45.7006 90.702 45.4393 89.9693 45.4393 89.008C45.4393 88.196 45.7053 87.4913 46.2373 86.894C46.788 86.278 47.53 85.97 48.4633 85.97C49.686 85.97 50.5493 86.5067 51.0533 87.58C51.3706 88.2613 51.5293 89.1247 51.5293 90.17C51.5293 93.502 50.3953 95.168 48.1273 95.168C47.698 95.168 47.2593 95.0887 46.8113 94.93C46.3726 94.762 46.0226 94.552 45.7613 94.3L46.3913 93.152C47.0073 93.4507 47.5673 93.6 48.0713 93.6C48.5473 93.6 48.93 93.4087 49.2193 93.026C49.5086 92.6433 49.6533 92.1347 49.6533 91.5ZM49.6673 90.198C49.6206 89.2273 49.5413 88.5647 49.4293 88.21C49.252 87.6687 48.9393 87.398 48.4913 87.398C48.1833 87.398 47.9173 87.5567 47.6933 87.874C47.4693 88.1913 47.3573 88.5693 47.3573 89.008C47.3573 90.0813 47.7866 90.618 48.6453 90.618C49.0466 90.618 49.3873 90.478 49.6673 90.198ZM57.5747 91.08C57.5747 91.0893 57.5747 91.0987 57.5747 91.108C57.5747 91.5093 57.3833 91.71 57.0007 91.71C56.5993 91.71 56.3987 91.5047 56.3987 91.094C56.4173 90.7113 56.618 90.52 57.0007 90.52C57.3833 90.52 57.5747 90.7067 57.5747 91.08ZM57.5747 94.44C57.5747 94.4493 57.5747 94.4587 57.5747 94.468C57.5747 94.8693 57.3833 95.07 57.0007 95.07C56.5993 95.07 56.3987 94.8647 56.3987 94.454C56.4173 94.0713 56.618 93.88 57.0007 93.88C57.3833 93.88 57.5747 94.0667 57.5747 94.44ZM60.8735 87.09C60.4909 87.09 60.2995 86.894 60.2995 86.502C60.2995 86.1287 60.4909 85.942 60.8735 85.942C61.2375 85.942 61.4195 86.1287 61.4195 86.502C61.4195 86.894 61.2375 87.09 60.8735 87.09ZM62.4695 87.09C62.0869 87.09 61.8955 86.894 61.8955 86.502C61.8955 86.1287 62.0869 85.942 62.4695 85.942C62.8335 85.942 63.0155 86.1287 63.0155 86.502C63.0155 86.894 62.8335 87.09 62.4695 87.09ZM65.1855 94.132H65.6615V95H65.0595C64.0609 95 63.3655 94.608 62.9735 93.824C62.4882 94.328 61.8909 94.58 61.1815 94.58C60.3789 94.58 59.7442 94.2767 59.2775 93.67C58.8855 93.1567 58.6895 92.5173 58.6895 91.752C58.6895 90.856 58.9509 90.1373 59.4735 89.596C59.9309 89.12 60.4955 88.882 61.1675 88.882C61.7742 88.882 62.2829 89.0593 62.6935 89.414V88.658L63.6315 88.168V92.536C63.6315 93.6 64.1495 94.132 65.1855 94.132ZM62.6935 90.478C62.2829 89.9833 61.7835 89.736 61.1955 89.736C60.7289 89.736 60.3462 89.9273 60.0475 90.31C59.7582 90.6833 59.6135 91.1687 59.6135 91.766C59.6135 92.3727 59.7582 92.858 60.0475 93.222C60.3462 93.586 60.7335 93.768 61.2095 93.768C61.8162 93.768 62.3202 93.502 62.7215 92.97C62.7029 92.802 62.6935 92.6667 62.6935 92.564V90.478ZM69.8836 94.132H70.3736V95H69.7716C68.9316 95 68.3016 94.7153 67.8816 94.146C67.443 94.7153 66.8083 95 65.9776 95H65.3756V94.132H65.8656C66.8923 94.132 67.4056 93.6 67.4056 92.536V89.498L68.3436 89.008V92.536C68.3436 93.6 68.857 94.132 69.8836 94.132ZM66.7056 96.47C67.079 96.47 67.2656 96.6613 67.2656 97.044C67.2656 97.4267 67.079 97.618 66.7056 97.618C66.3323 97.618 66.1456 97.4267 66.1456 97.044C66.1456 96.6613 66.3323 96.47 66.7056 96.47ZM68.3016 96.47C68.675 96.47 68.8616 96.6613 68.8616 97.044C68.8616 97.4267 68.675 97.618 68.3016 97.618C67.9283 97.618 67.7416 97.4267 67.7416 97.044C67.7416 96.6613 67.9283 96.47 68.3016 96.47ZM74.5584 94.132H75.0484V95H74.4464C73.5878 95 72.9484 94.706 72.5284 94.118C72.0898 94.706 71.4411 95 70.5824 95H70.0924V94.132H70.4844C71.5484 94.132 72.0804 93.5813 72.0804 92.48V86.46L73.0184 85.97V92.536C73.0184 93.6 73.5318 94.132 74.5584 94.132ZM82.2022 94.132H82.5522V95H82.0902C81.2502 95 80.6202 94.7153 80.2002 94.146C79.7802 94.7153 79.1455 95 78.2962 95H74.7682V94.132H78.1982C79.2155 94.132 79.7242 93.586 79.7242 92.494V92.354C79.7242 91.5887 79.4442 91.0147 78.8842 90.632C78.4362 90.3147 77.8762 90.156 77.2042 90.156C76.7002 90.156 76.2009 90.2447 75.7062 90.422V89.498L78.8842 85.97H79.8502L76.9802 89.218C77.0735 89.2087 77.1715 89.204 77.2742 89.204C78.1702 89.204 78.9169 89.4327 79.5142 89.89C80.2795 90.478 80.6622 91.2947 80.6622 92.34V92.536C80.6622 93.6 81.1755 94.132 82.2022 94.132ZM82.2741 95V94.132H82.6661C83.7301 94.132 84.2621 93.5813 84.2621 92.48V86.46L85.2001 85.97V92.494C85.2001 93.2873 84.9667 93.9127 84.5001 94.37C84.0614 94.79 83.4827 95 82.7641 95H82.2741ZM87.7209 95V86.46L88.6589 85.97V95H87.7209ZM98.2532 88.49C97.8799 88.49 97.6932 88.294 97.6932 87.902C97.6932 87.5287 97.8799 87.342 98.2532 87.342C98.6265 87.342 98.8132 87.5287 98.8132 87.902C98.8132 88.294 98.6265 88.49 98.2532 88.49ZM99.8632 88.49C99.4805 88.49 99.2892 88.294 99.2892 87.902C99.2892 87.5287 99.4805 87.342 99.8632 87.342C100.227 87.342 100.409 87.5287 100.409 87.902C100.409 88.294 100.227 88.49 99.8632 88.49ZM96.8112 95C96.1205 95 95.5699 94.7853 95.1592 94.356C94.7485 93.9173 94.5432 93.3293 94.5432 92.592V90.758L95.4812 90.268V92.48C95.4812 93.5813 95.9945 94.132 97.0212 94.132H101.711C102.738 94.132 103.251 93.5813 103.251 92.48V89.498L104.189 89.008V92.592C104.189 93.3853 103.947 94.0013 103.461 94.44C103.041 94.8133 102.491 95 101.809 95H96.8112ZM109.077 95C108.284 95 107.673 94.7433 107.243 94.23C106.889 93.7913 106.711 93.236 106.711 92.564V86.46L107.649 85.97V92.536C107.649 93.6 108.163 94.132 109.189 94.132H109.679V95H109.077ZM116.567 94.132V95H109.399V94.132H111.751C111.163 93.5347 110.869 92.7413 110.869 91.752C110.869 90.8093 111.191 90.0627 111.835 89.512C112.348 89.0733 112.95 88.8493 113.641 88.84C114.602 88.84 115.354 89.218 115.895 89.974V90.898C115.335 90.0953 114.616 89.694 113.739 89.694H113.697C113.137 89.694 112.68 89.8853 112.325 90.268C111.98 90.6507 111.807 91.1547 111.807 91.78C111.807 92.4987 112.022 93.0727 112.451 93.502C112.862 93.922 113.412 94.132 114.103 94.132H116.567ZM120.89 95C120.096 95 119.485 94.7433 119.056 94.23C118.701 93.7913 118.524 93.236 118.524 92.564V86.46L119.462 85.97V92.536C119.462 93.6 119.975 94.132 121.002 94.132H121.492V95H120.89ZM121.212 95V94.132H122.066C123.102 94.132 123.62 93.6 123.62 92.536V90.52L124.558 90.03V92.536C124.558 93.6 125.071 94.132 126.098 94.132H126.616C127.642 94.132 128.156 93.6 128.156 92.536V90.016L129.094 89.512V92.536C129.094 93.6 129.612 94.132 130.648 94.132H131.152C132.188 94.132 132.706 93.6 132.706 92.536V89.498L133.644 89.008V92.48C133.644 93.5813 134.176 94.132 135.24 94.132H136.052V95H135.142C134.255 95 133.606 94.6873 133.196 94.062C132.785 94.6873 132.15 95 131.292 95H130.522C129.654 95 129.024 94.692 128.632 94.076C128.23 94.692 127.605 95 126.756 95H125.986C125.118 95 124.483 94.692 124.082 94.076C123.69 94.692 123.06 95 122.192 95H121.212ZM135.772 95V94.132H136.164C137.228 94.132 137.76 93.5813 137.76 92.48V86.46L138.698 85.97V92.494C138.698 93.2873 138.465 93.9127 137.998 94.37C137.559 94.79 136.981 95 136.262 95H135.772ZM141.219 95V86.46L142.157 85.97V95H141.219ZM146.921 95L147.369 94.132H150.001C150.431 94.132 150.729 94.0247 150.897 93.81C151.075 93.5953 151.163 93.222 151.163 92.69C151.163 91.3273 150.566 90.3053 149.371 89.624L149.819 88.854C151.341 89.7407 152.101 91.024 152.101 92.704C152.101 94.2347 151.453 95 150.155 95H146.921ZM153.21 95L153.658 94.132H156.29C156.72 94.132 157.018 94.0247 157.186 93.81C157.364 93.5953 157.452 93.222 157.452 92.69C157.452 91.318 156.85 90.296 155.646 89.624L156.108 88.854C157.592 89.7127 158.348 90.9213 158.376 92.48C158.386 93.5813 158.922 94.132 159.986 94.132H160.42V95H159.888C159.076 95 158.456 94.7293 158.026 94.188C157.709 94.7293 157.182 95 156.444 95H153.21ZM167.303 94.132V95H160.135V94.132H162.487C161.899 93.5347 161.605 92.7413 161.605 91.752C161.605 90.8093 161.927 90.0627 162.571 89.512C163.085 89.0733 163.687 88.8493 164.377 88.84C165.339 88.84 166.09 89.218 166.631 89.974V90.898C166.071 90.0953 165.353 89.694 164.475 89.694H164.433C163.873 89.694 163.416 89.8853 163.061 90.268C162.716 90.6507 162.543 91.1547 162.543 91.78C162.543 92.4987 162.758 93.0727 163.187 93.502C163.598 93.922 164.149 94.132 164.839 94.132H167.303ZM38.7758 125.08C38.7758 125.089 38.7758 125.099 38.7758 125.108C38.7758 125.509 38.5845 125.71 38.2018 125.71C37.8005 125.71 37.5998 125.505 37.5998 125.094C37.6185 124.711 37.8192 124.52 38.2018 124.52C38.5845 124.52 38.7758 124.707 38.7758 125.08ZM38.7758 128.44C38.7758 128.449 38.7758 128.459 38.7758 128.468C38.7758 128.869 38.5845 129.07 38.2018 129.07C37.8005 129.07 37.5998 128.865 37.5998 128.454C37.6185 128.071 37.8192 127.88 38.2018 127.88C38.5845 127.88 38.7758 128.067 38.7758 128.44ZM39.6107 129L40.0587 128.132H42.6907C43.12 128.132 43.4187 128.025 43.5867 127.81C43.764 127.595 43.8527 127.222 43.8527 126.69C43.8527 125.318 43.2507 124.296 42.0467 123.624L42.5087 122.854C43.9927 123.713 44.7487 124.921 44.7767 126.48C44.786 127.581 45.3227 128.132 46.3867 128.132H46.8207V129H46.2887C45.4767 129 44.856 128.729 44.4267 128.188C44.1094 128.729 43.582 129 42.8447 129H39.6107ZM46.5358 129V128.132H48.1038C50.1384 128.132 51.7251 127.441 52.8638 126.06C52.0331 124.473 51.0298 123.68 49.8538 123.68C49.0511 123.68 48.2671 124.086 47.5018 124.898V123.974C48.2671 123.218 49.0651 122.84 49.8958 122.84H49.9238C51.3891 122.84 52.6584 123.829 53.7318 125.808V126.382C52.3691 128.127 50.4884 129 48.0898 129H46.5358ZM55.6877 129V120.46L56.6257 119.97V129H55.6877ZM65.2927 128.132V129H63.8087C63.7994 129.616 63.5987 130.157 63.2067 130.624C62.8241 131.1 62.3247 131.413 61.7087 131.562C61.4847 131.627 61.2421 131.66 60.9807 131.66C60.4394 131.66 59.9121 131.529 59.3987 131.268V130.442C59.8841 130.703 60.3647 130.834 60.8407 130.834C61.2234 130.834 61.5594 130.75 61.8487 130.582C62.1381 130.433 62.3807 130.204 62.5767 129.896C62.7727 129.597 62.8707 129.299 62.8707 129L61.6807 128.958C60.6447 128.911 59.8701 128.585 59.3567 127.978C58.9367 127.465 58.7267 126.779 58.7267 125.92C58.7267 124.912 58.9881 124.133 59.5107 123.582C59.9774 123.087 60.6027 122.84 61.3867 122.84C62.1987 122.84 62.8194 123.083 63.2487 123.568C63.6221 123.988 63.8087 124.548 63.8087 125.248V128.132H65.2927ZM62.8707 125.346C62.8707 124.245 62.3761 123.694 61.3867 123.694C60.8361 123.694 60.4067 123.89 60.0987 124.282C59.8001 124.665 59.6507 125.206 59.6507 125.906C59.6507 127.297 60.3367 128.025 61.7087 128.09C62.1194 128.118 62.5067 128.132 62.8707 128.132V125.346ZM65.0065 129V128.132H65.3985C66.4625 128.132 66.9945 127.581 66.9945 126.48V120.46L67.9325 119.97V126.494C67.9325 127.287 67.6992 127.913 67.2325 128.37C66.7938 128.79 66.2152 129 65.4965 129H65.0065ZM70.4534 129V120.46L71.3914 119.97V129H70.4534ZM95.1536 128.132H95.6436V129H95.0416C94.2016 129 93.5716 128.715 93.1516 128.146C92.7316 128.715 92.097 129 91.2476 129H85.5496C84.999 129 84.5183 128.865 84.1076 128.594C84.0423 129.574 83.6503 130.344 82.9316 130.904C82.297 131.408 81.4943 131.66 80.5236 131.66C79.3383 131.66 78.419 131.24 77.7656 130.4C77.2523 129.756 76.9956 128.986 76.9956 128.09C76.9956 127.287 77.201 126.597 77.6116 126.018L78.5216 125.836C78.0736 126.517 77.8496 127.245 77.8496 128.02C77.8496 128.841 78.1156 129.518 78.6476 130.05C79.1423 130.545 79.7676 130.792 80.5236 130.792C81.4103 130.792 82.0963 130.531 82.5816 130.008C82.983 129.579 83.1836 129.014 83.1836 128.314V124.52L84.1216 124.03V126.536C84.1216 127.413 84.4623 127.927 85.1436 128.076C85.4796 126.648 86.0816 125.444 86.9496 124.464C87.911 123.381 89.0403 122.84 90.3376 122.84C91.383 122.84 92.2136 123.199 92.8296 123.918C93.3523 124.534 93.6136 125.295 93.6136 126.2V126.564C93.6136 127.609 94.127 128.132 95.1536 128.132ZM91.1776 128.132C92.1763 128.132 92.6756 127.581 92.6756 126.48V126.2C92.6756 125.416 92.4283 124.786 91.9336 124.31C91.5136 123.899 90.9863 123.694 90.3516 123.694C89.2503 123.694 88.2796 124.207 87.4396 125.234C86.7956 126.009 86.315 126.975 85.9976 128.132H91.1776ZM99.278 121.16C98.8954 121.16 98.704 120.964 98.704 120.572C98.704 120.199 98.8954 120.012 99.278 120.012C99.642 120.012 99.824 120.199 99.824 120.572C99.824 120.964 99.642 121.16 99.278 121.16ZM104.206 128.132H104.696V129H104.192C103.417 129 102.797 128.911 102.33 128.734C101.873 128.557 101.448 128.244 101.056 127.796C99.8614 128.599 98.48 129 96.912 129H95.358V128.132H96.926C98.9607 128.132 100.547 127.441 101.686 126.06C100.855 124.473 99.852 123.68 98.676 123.68C97.8734 123.68 97.0894 124.086 96.324 124.898V123.974C97.0894 123.218 97.8874 122.84 98.718 122.84H98.746C100.211 122.84 101.481 123.829 102.554 125.808V126.382C102.265 126.755 101.957 127.077 101.63 127.348C101.929 127.637 102.265 127.843 102.638 127.964C103.021 128.076 103.543 128.132 104.206 128.132ZM111.829 120.166C111.493 120.166 111.325 119.989 111.325 119.634C111.325 119.298 111.493 119.13 111.829 119.13C112.165 119.13 112.333 119.298 112.333 119.634C112.333 119.989 112.165 120.166 111.829 120.166ZM111.045 121.622C110.662 121.622 110.471 121.431 110.471 121.048C110.471 120.665 110.662 120.474 111.045 120.474C111.409 120.474 111.591 120.665 111.591 121.048C111.591 121.431 111.409 121.622 111.045 121.622ZM112.641 121.622C112.267 121.622 112.081 121.431 112.081 121.048C112.081 120.665 112.267 120.474 112.641 120.474C113.014 120.474 113.201 120.665 113.201 121.048C113.201 121.431 113.014 121.622 112.641 121.622ZM104.422 129V128.132H105.277C106.313 128.132 106.831 127.6 106.831 126.536V124.52L107.769 124.03V126.536C107.769 127.6 108.282 128.132 109.309 128.132H109.827C110.853 128.132 111.367 127.6 111.367 126.536V124.016L112.305 123.512V126.536C112.305 127.6 112.823 128.132 113.859 128.132H114.363C115.399 128.132 115.917 127.6 115.917 126.536V123.498L116.855 123.008V126.48C116.855 127.581 117.387 128.132 118.451 128.132H119.263V129H118.353C117.466 129 116.817 128.687 116.407 128.062C115.996 128.687 115.361 129 114.503 129H113.733C112.865 129 112.235 128.692 111.843 128.076C111.441 128.692 110.816 129 109.967 129H109.197C108.329 129 107.694 128.692 107.293 128.076C106.901 128.692 106.271 129 105.403 129H104.422ZM123.449 128.132H123.939V129H123.337C122.478 129 121.839 128.706 121.419 128.118C120.98 128.706 120.332 129 119.473 129H118.983V128.132H119.375C120.439 128.132 120.971 127.581 120.971 126.48V120.46L121.909 119.97V126.536C121.909 127.6 122.422 128.132 123.449 128.132ZM123.659 129V128.132H124.051C125.115 128.132 125.647 127.581 125.647 126.48V120.46L126.585 119.97V126.494C126.585 127.287 126.351 127.913 125.885 128.37C125.446 128.79 124.867 129 124.149 129H123.659ZM135.857 128.132H136.347V129H135.745C135.166 129 134.686 128.86 134.303 128.58C134.228 130.129 133.603 131.109 132.427 131.52C132.128 131.623 131.811 131.674 131.475 131.674C130.934 131.674 130.411 131.543 129.907 131.282V130.456C130.383 130.717 130.868 130.848 131.363 130.848C131.755 130.848 132.1 130.759 132.399 130.582C133.052 130.19 133.379 129.457 133.379 128.384V123.498L134.303 123.008V123.022L134.317 123.008V126.536C134.317 127.6 134.83 128.132 135.857 128.132ZM146.069 129H142.611C142.107 129 141.594 128.893 141.071 128.678C140.539 128.893 140.021 129 139.517 129H136.073V128.132H139.461C139.648 128.132 139.839 128.118 140.035 128.09C139.298 127.558 138.495 126.681 137.627 125.458V124.884C138.598 123.521 139.741 122.84 141.057 122.84C142.364 122.84 143.512 123.531 144.501 124.912V125.458C143.633 126.681 142.835 127.558 142.107 128.09C142.294 128.118 142.48 128.132 142.667 128.132H146.055L146.069 129ZM138.439 125.178C139.419 126.485 140.292 127.334 141.057 127.726C141.813 127.334 142.69 126.48 143.689 125.164C142.942 124.184 142.065 123.694 141.057 123.694H141.015C140.063 123.694 139.204 124.189 138.439 125.178ZM145.794 129V128.132H146.648C147.684 128.132 148.202 127.6 148.202 126.536V124.52L149.14 124.03V126.536C149.14 127.6 149.653 128.132 150.68 128.132H151.198C152.224 128.132 152.738 127.6 152.738 126.536V124.016L153.676 123.512V126.536C153.676 127.6 154.194 128.132 155.23 128.132H155.734C156.77 128.132 157.288 127.6 157.288 126.536V123.498L158.226 123.008V126.48C158.226 127.581 158.758 128.132 159.822 128.132H160.634V129H159.724C158.837 129 158.188 128.687 157.778 128.062C157.367 128.687 156.732 129 155.874 129H155.104C154.236 129 153.606 128.692 153.214 128.076C152.812 128.692 152.187 129 151.338 129H150.568C149.7 129 149.065 128.692 148.664 128.076C148.272 128.692 147.642 129 146.774 129H145.794ZM160.354 129V128.132H160.746C161.81 128.132 162.342 127.581 162.342 126.48V120.46L163.28 119.97V126.494C163.28 127.287 163.047 127.913 162.58 128.37C162.141 128.79 161.563 129 160.844 129H160.354ZM165.801 129V120.46L166.739 119.97V129H165.801ZM12.2017 145.132C11.763 144.572 11.5437 143.835 11.5437 142.92C11.5437 141.912 11.805 141.133 12.3277 140.582C12.785 140.087 13.3917 139.84 14.1477 139.84C14.9223 139.84 15.5197 140.083 15.9397 140.568C16.3037 140.988 16.4857 141.548 16.4857 142.248V143.676C16.4857 144.385 16.2757 144.95 15.8557 145.37C15.4357 145.781 14.8617 145.991 14.1337 146H12.3557C11.329 146 10.8157 146.532 10.8157 147.596V149.92L9.87766 150.41V147.568C9.87766 146.793 10.1063 146.187 10.5637 145.748C10.9743 145.347 11.5203 145.141 12.2017 145.132ZM15.5477 143.592V142.332C15.5477 141.24 15.081 140.694 14.1477 140.694C13.6157 140.694 13.2003 140.89 12.9017 141.282C12.6123 141.674 12.4677 142.215 12.4677 142.906C12.4677 143.606 12.6077 144.152 12.8877 144.544C13.1677 144.936 13.555 145.132 14.0497 145.132C15.0483 145.132 15.5477 144.619 15.5477 143.592ZM26.4574 145.132H26.9474V146H26.3454C25.4867 146 24.8474 145.706 24.4274 145.118C23.9887 145.706 23.34 146 22.4814 146H17.8894L18.3374 145.132H20.4794V139.28L21.4034 138.79V145.132H22.3834C23.4474 145.132 23.9794 144.581 23.9794 143.48V137.46L24.9034 136.97V140.022L24.9174 140.008V143.536C24.9174 144.6 25.4307 145.132 26.4574 145.132ZM28.0845 138.202C27.7112 138.202 27.5245 138.011 27.5245 137.628C27.5245 137.245 27.7112 137.054 28.0845 137.054C28.4579 137.054 28.6445 137.245 28.6445 137.628C28.6445 138.011 28.4579 138.202 28.0845 138.202ZM29.6805 138.202C29.3072 138.202 29.1205 138.011 29.1205 137.628C29.1205 137.245 29.3072 137.054 29.6805 137.054C30.0539 137.054 30.2405 137.245 30.2405 137.628C30.2405 138.011 30.0539 138.202 29.6805 138.202ZM31.1785 145.132H31.6685V146H31.0665C30.2265 146 29.5965 145.715 29.1765 145.146C28.7379 145.715 28.1032 146 27.2725 146H26.6705V145.132H27.1605C28.1872 145.132 28.7005 144.6 28.7005 143.536V140.498L29.6385 140.008V143.536C29.6385 144.6 30.1519 145.132 31.1785 145.132ZM31.3873 146V145.132H32.2413C33.2773 145.132 33.7953 144.6 33.7953 143.536V141.52L34.7333 141.03V143.536C34.7333 144.6 35.2467 145.132 36.2733 145.132H36.7913C37.818 145.132 38.3313 144.6 38.3313 143.536V141.016L39.2693 140.512V143.536C39.2693 144.6 39.7873 145.132 40.8233 145.132H41.3273C42.3633 145.132 42.8813 144.6 42.8813 143.536V140.498L43.8193 140.008V143.564C43.8193 144.339 43.5907 144.945 43.1333 145.384C42.7227 145.785 42.1673 145.991 41.4673 146H40.6973C39.8293 146 39.1993 145.692 38.8073 145.076C38.406 145.692 37.7807 146 36.9313 146H36.1613C35.2933 146 34.6587 145.692 34.2573 145.076C33.8653 145.692 33.2353 146 32.3673 146H31.3873ZM46.3362 146V137.46L47.2742 136.97V146H46.3362ZM56.7424 145.482C56.3504 145.706 55.8464 145.818 55.2304 145.818C54.4184 145.818 53.7838 145.505 53.3264 144.88C52.9344 144.348 52.7384 143.676 52.7384 142.864C52.7384 141.884 52.9998 141.119 53.5224 140.568C53.9798 140.083 54.5864 139.84 55.3424 139.84C56.1171 139.84 56.7144 140.083 57.1344 140.568C57.4984 140.988 57.6804 141.548 57.6804 142.248V145.328C57.6804 146.196 57.4984 146.91 57.1344 147.47C56.7704 148.039 56.2524 148.403 55.5804 148.562C55.3564 148.627 55.1138 148.66 54.8524 148.66C54.3111 148.66 53.7838 148.529 53.2704 148.268V147.442C53.7558 147.703 54.2364 147.834 54.7124 147.834C55.0951 147.834 55.4311 147.75 55.7204 147.582C56.3738 147.255 56.7144 146.555 56.7424 145.482ZM56.7424 142.332C56.7424 141.24 56.2758 140.694 55.3424 140.694C54.8198 140.694 54.4044 140.885 54.0964 141.268C53.7978 141.651 53.6484 142.178 53.6484 142.85C53.6484 143.503 53.7931 144.026 54.0824 144.418C54.3718 144.801 54.7638 144.992 55.2584 144.992C55.9958 144.992 56.4904 144.787 56.7424 144.376V142.332ZM68.214 138.202C67.8313 138.202 67.64 138.006 67.64 137.614C67.64 137.241 67.8313 137.054 68.214 137.054C68.578 137.054 68.76 137.241 68.76 137.614C68.76 138.006 68.578 138.202 68.214 138.202ZM69.81 138.202C69.4273 138.202 69.236 138.006 69.236 137.614C69.236 137.241 69.4273 137.054 69.81 137.054C70.174 137.054 70.356 137.241 70.356 137.614C70.356 138.006 70.174 138.202 69.81 138.202ZM71.322 145.314C71.322 146.397 70.93 147.237 70.146 147.834C69.4273 148.385 68.4473 148.66 67.206 148.66C65.7687 148.66 64.686 148.24 63.958 147.4C63.4167 146.775 63.146 146.005 63.146 145.09C63.146 144.287 63.3513 143.597 63.762 143.018L64.672 142.836C64.224 143.517 64 144.245 64 145.02C64 145.869 64.294 146.546 64.882 147.05C65.4513 147.545 66.226 147.792 67.206 147.792C68.326 147.792 69.1567 147.535 69.698 147.022C70.146 146.602 70.37 146.042 70.37 145.342C70.0247 145.659 69.5253 145.818 68.872 145.818C68.0693 145.818 67.4347 145.501 66.968 144.866C66.576 144.334 66.38 143.667 66.38 142.864C66.38 141.884 66.6413 141.119 67.164 140.568C67.6213 140.083 68.228 139.84 68.984 139.84C69.7587 139.84 70.356 140.083 70.776 140.568C71.14 140.988 71.322 141.548 71.322 142.248V145.314ZM70.384 142.332C70.384 141.24 69.9173 140.694 68.984 140.694C68.4613 140.694 68.0507 140.885 67.752 141.268C67.4533 141.651 67.304 142.178 67.304 142.85C67.304 143.513 67.444 144.035 67.724 144.418C68.0133 144.801 68.4053 144.992 68.9 144.992C69.656 144.992 70.1507 144.777 70.384 144.348V142.332ZM78.0113 145.132H78.5013V146H77.8993C77.3206 146 76.8399 145.86 76.4573 145.58C76.3826 147.129 75.7573 148.109 74.5813 148.52C74.2826 148.623 73.9653 148.674 73.6293 148.674C73.0879 148.674 72.5653 148.543 72.0613 148.282V147.456C72.5373 147.717 73.0226 147.848 73.5173 147.848C73.9093 147.848 74.2546 147.759 74.5533 147.582C75.2066 147.19 75.5333 146.457 75.5333 145.384V140.498L76.4573 140.008V140.022L76.4713 140.008V143.536C76.4713 144.6 76.9846 145.132 78.0113 145.132ZM87.0752 145.132H87.5652V146H87.0612C86.2865 146 85.6659 145.911 85.1992 145.734C84.7419 145.557 84.3172 145.244 83.9252 144.796C82.7305 145.599 81.3492 146 79.7812 146H78.2272V145.132H79.7952C81.8299 145.132 83.4165 144.441 84.5552 143.06C83.7245 141.473 82.7212 140.68 81.5452 140.68C80.7425 140.68 79.9585 141.086 79.1932 141.898V140.974C79.9585 140.218 80.7565 139.84 81.5872 139.84H81.6152C83.0805 139.84 84.3499 140.829 85.4232 142.808V143.382C85.1339 143.755 84.8259 144.077 84.4992 144.348C84.7979 144.637 85.1339 144.843 85.5072 144.964C85.8899 145.076 86.4125 145.132 87.0752 145.132ZM87.2916 146V145.132H87.6836C88.7476 145.132 89.2796 144.581 89.2796 143.48V137.46L90.2176 136.97V143.494C90.2176 144.287 89.9843 144.913 89.5176 145.37C89.079 145.79 88.5003 146 87.7816 146H87.2916ZM92.7385 146V137.46L93.6765 136.97V146H92.7385ZM100.905 138.09C100.522 138.09 100.331 137.894 100.331 137.502C100.331 137.129 100.522 136.942 100.905 136.942C101.269 136.942 101.451 137.129 101.451 137.502C101.451 137.894 101.269 138.09 100.905 138.09ZM102.501 138.09C102.118 138.09 101.927 137.894 101.927 137.502C101.927 137.129 102.118 136.942 102.501 136.942C102.865 136.942 103.047 137.129 103.047 137.502C103.047 137.894 102.865 138.09 102.501 138.09ZM105.217 145.132H105.693V146H105.091C104.092 146 103.397 145.608 103.005 144.824C102.519 145.328 101.922 145.58 101.213 145.58C100.41 145.58 99.7754 145.277 99.3088 144.67C98.9168 144.157 98.7208 143.517 98.7208 142.752C98.7208 141.856 98.9821 141.137 99.5048 140.596C99.9621 140.12 100.527 139.882 101.199 139.882C101.805 139.882 102.314 140.059 102.725 140.414V139.658L103.663 139.168V143.536C103.663 144.6 104.181 145.132 105.217 145.132ZM102.725 141.478C102.314 140.983 101.815 140.736 101.227 140.736C100.76 140.736 100.377 140.927 100.079 141.31C99.7894 141.683 99.6448 142.169 99.6448 142.766C99.6448 143.373 99.7894 143.858 100.079 144.222C100.377 144.586 100.765 144.768 101.241 144.768C101.847 144.768 102.351 144.502 102.753 143.97C102.734 143.802 102.725 143.667 102.725 143.564V141.478ZM109.873 145.132H110.363V146H109.761C108.902 146 108.263 145.706 107.843 145.118C107.404 145.706 106.756 146 105.897 146H105.407V145.132H105.799C106.863 145.132 107.395 144.581 107.395 143.48V137.46L108.333 136.97V143.536C108.333 144.6 108.846 145.132 109.873 145.132ZM112.113 142.248C112.113 141.455 112.351 140.839 112.827 140.4C113.237 140.027 113.779 139.84 114.451 139.84C115.319 139.84 115.986 140.157 116.453 140.792C116.854 141.333 117.055 142.043 117.055 142.92C117.055 143.919 116.798 144.698 116.285 145.258C115.837 145.753 115.253 146 114.535 146C113.657 146 113.004 145.72 112.575 145.16C112.155 145.72 111.525 146 110.685 146H110.083V145.132H110.573C111.599 145.132 112.113 144.6 112.113 143.536V142.248ZM113.051 143.592C113.051 144.619 113.555 145.132 114.563 145.132C115.048 145.132 115.431 144.936 115.711 144.544C115.991 144.152 116.131 143.606 116.131 142.906C116.131 142.215 115.981 141.674 115.683 141.282C115.393 140.89 114.983 140.694 114.451 140.694C113.517 140.694 113.051 141.24 113.051 142.332V143.592ZM121.737 146C120.944 146 120.333 145.743 119.903 145.23C119.549 144.791 119.371 144.236 119.371 143.564V137.46L120.309 136.97V143.536C120.309 144.6 120.823 145.132 121.849 145.132H122.339V146H121.737ZM129.465 137.166C129.129 137.166 128.961 136.989 128.961 136.634C128.961 136.298 129.129 136.13 129.465 136.13C129.801 136.13 129.969 136.298 129.969 136.634C129.969 136.989 129.801 137.166 129.465 137.166ZM128.681 138.622C128.299 138.622 128.107 138.431 128.107 138.048C128.107 137.665 128.299 137.474 128.681 137.474C129.045 137.474 129.227 137.665 129.227 138.048C129.227 138.431 129.045 138.622 128.681 138.622ZM130.277 138.622C129.904 138.622 129.717 138.431 129.717 138.048C129.717 137.665 129.904 137.474 130.277 137.474C130.651 137.474 130.837 137.665 130.837 138.048C130.837 138.431 130.651 138.622 130.277 138.622ZM122.059 146V145.132H122.913C123.949 145.132 124.467 144.6 124.467 143.536V141.52L125.405 141.03V143.536C125.405 144.6 125.919 145.132 126.945 145.132H127.463C128.49 145.132 129.003 144.6 129.003 143.536V141.016L129.941 140.512V143.536C129.941 144.6 130.459 145.132 131.495 145.132H131.999C133.035 145.132 133.553 144.6 133.553 143.536V140.498L134.491 140.008V143.564C134.491 144.339 134.263 144.945 133.805 145.384C133.395 145.785 132.839 145.991 132.139 146H131.369C130.501 146 129.871 145.692 129.479 145.076C129.078 145.692 128.453 146 127.603 146H126.833C125.965 146 125.331 145.692 124.929 145.076C124.537 145.692 123.907 146 123.039 146H122.059ZM143.157 137.138V146H141.323V139.224C141.193 139.308 141.001 139.425 140.749 139.574C140.385 139.789 140.124 139.952 139.965 140.064C139.844 139.859 139.639 139.518 139.349 139.042L139.265 138.916C139.2 138.795 139.149 138.706 139.111 138.65C139.41 138.435 139.881 138.113 140.525 137.684C140.861 137.46 141.127 137.278 141.323 137.138H143.157ZM148.199 136.97C149.282 136.97 150.15 137.488 150.803 138.524C151.354 139.383 151.629 140.405 151.629 141.59C151.629 143.018 151.279 144.161 150.579 145.02C149.963 145.785 149.17 146.168 148.199 146.168C147.089 146.168 146.221 145.673 145.595 144.684C145.073 143.863 144.811 142.831 144.811 141.59C144.811 140.209 145.157 139.075 145.847 138.188C146.473 137.376 147.257 136.97 148.199 136.97ZM148.227 138.538C147.219 138.538 146.715 139.527 146.715 141.506C146.715 142.505 146.86 143.289 147.149 143.858C147.411 144.371 147.756 144.628 148.185 144.628C148.661 144.628 149.035 144.353 149.305 143.802C149.585 143.242 149.725 142.477 149.725 141.506C149.725 139.527 149.226 138.538 148.227 138.538ZM156.088 136.97C157.171 136.97 158.039 137.488 158.692 138.524C159.243 139.383 159.518 140.405 159.518 141.59C159.518 143.018 159.168 144.161 158.468 145.02C157.852 145.785 157.059 146.168 156.088 146.168C154.977 146.168 154.109 145.673 153.484 144.684C152.961 143.863 152.7 142.831 152.7 141.59C152.7 140.209 153.045 139.075 153.736 138.188C154.361 137.376 155.145 136.97 156.088 136.97ZM156.116 138.538C155.108 138.538 154.604 139.527 154.604 141.506C154.604 142.505 154.749 143.289 155.038 143.858C155.299 144.371 155.645 144.628 156.074 144.628C156.55 144.628 156.923 144.353 157.194 143.802C157.474 143.242 157.614 142.477 157.614 141.506C157.614 139.527 157.115 138.538 156.116 138.538ZM164.229 136.2V136.984C165.115 137.012 165.979 137.306 166.819 137.866L166.035 139C165.344 138.711 164.742 138.557 164.229 138.538V140.512C166.105 141.231 167.043 142.215 167.043 143.466C167.043 144.353 166.739 145.039 166.133 145.524C165.638 145.925 165.003 146.135 164.229 146.154V147.036H163.543V146.154C162.731 146.07 161.867 145.743 160.953 145.174C161.046 145.034 161.195 144.829 161.401 144.558C161.559 144.353 161.681 144.189 161.765 144.068C161.858 144.143 162.129 144.236 162.577 144.348C163.025 144.46 163.347 144.516 163.543 144.516V142.024C162.665 141.679 162.04 141.305 161.667 140.904C161.303 140.493 161.121 139.985 161.121 139.378C161.121 138.725 161.335 138.188 161.765 137.768C162.203 137.348 162.796 137.096 163.543 137.012V136.2H164.229ZM164.229 144.502C164.807 144.455 165.097 144.138 165.097 143.55C165.097 143.055 164.807 142.659 164.229 142.36V144.502ZM163.543 138.552C163.197 138.692 163.025 138.967 163.025 139.378C163.025 139.714 163.197 139.994 163.543 140.218V138.552ZM99.8002 163C99.7255 163.803 99.3055 164.451 98.5402 164.946C97.8029 165.422 96.8555 165.66 95.6982 165.66C94.2609 165.66 93.1782 165.24 92.4502 164.4C91.9089 163.775 91.6382 163.005 91.6382 162.09C91.6382 161.287 91.8435 160.597 92.2542 160.018L93.1642 159.836C92.7162 160.517 92.4922 161.245 92.4922 162.02C92.4922 162.879 92.7862 163.565 93.3742 164.078C93.9342 164.573 94.7089 164.82 95.6982 164.82C96.7155 164.82 97.5135 164.605 98.0922 164.176C98.5215 163.859 98.7735 163.467 98.8482 163H97.4202L97.8682 162.132H99.8422V163H99.8002ZM94.8162 167.97C94.4335 167.97 94.2422 167.779 94.2422 167.396C94.2422 167.013 94.4335 166.822 94.8162 166.822C95.1802 166.822 95.3622 167.013 95.3622 167.396C95.3622 167.779 95.1802 167.97 94.8162 167.97ZM96.4122 167.97C96.0389 167.97 95.8522 167.779 95.8522 167.396C95.8522 167.013 96.0389 166.822 96.4122 166.822C96.7855 166.822 96.9722 167.013 96.9722 167.396C96.9722 167.779 96.7855 167.97 96.4122 167.97ZM100.26 155.132L100.526 154.642H100.89C100.796 154.474 100.75 154.301 100.75 154.124C100.75 153.863 100.848 153.639 101.044 153.452C101.24 153.256 101.473 153.158 101.744 153.158C101.949 153.158 102.15 153.223 102.346 153.354V153.872C102.159 153.741 101.977 153.676 101.8 153.676C101.65 153.676 101.524 153.727 101.422 153.83C101.319 153.923 101.268 154.035 101.268 154.166C101.268 154.325 101.333 154.483 101.464 154.642H102.696L102.43 155.132H100.26ZM99.3776 163V162.132H99.8676C100.894 162.132 101.408 161.6 101.408 160.536V157.498L102.346 157.008V160.564C102.346 161.348 102.117 161.959 101.66 162.398C101.24 162.799 100.68 163 99.9796 163H99.3776ZM106.999 163C106.206 163 105.594 162.743 105.165 162.23C104.81 161.791 104.633 161.236 104.633 160.564V154.46L105.571 153.97V160.536C105.571 161.6 106.084 162.132 107.111 162.132H107.601V163H106.999ZM116.561 162.132H117.051V163H116.449C115.6 163 114.965 162.715 114.545 162.146C114.125 162.715 113.49 163 112.641 163H111.255C110.928 163 110.625 162.953 110.345 162.86C110.065 162.953 109.771 163 109.463 163H107.321V162.132H109.113C108.609 161.628 108.357 161.007 108.357 160.27C108.357 159.729 108.483 159.271 108.735 158.898C108.931 158.123 109.3 157.512 109.841 157.064C110.392 156.607 111.036 156.378 111.773 156.378C112.716 156.378 113.5 156.709 114.125 157.372C114.713 158.007 115.007 158.814 115.007 159.794V160.536C115.007 161.6 115.525 162.132 116.561 162.132ZM112.571 162.132C113.579 162.132 114.083 161.581 114.083 160.48V159.794C114.083 158.954 113.812 158.291 113.271 157.806C112.832 157.423 112.319 157.232 111.731 157.232C110.947 157.232 110.35 157.535 109.939 158.142C110.079 158.114 110.219 158.1 110.359 158.1C110.956 158.1 111.437 158.301 111.801 158.702C112.165 159.094 112.347 159.617 112.347 160.27C112.347 161.007 112.095 161.628 111.591 162.132H112.571ZM110.359 162.006C111.208 161.726 111.633 161.138 111.633 160.242C111.633 159.803 111.516 159.453 111.283 159.192C111.059 158.921 110.751 158.786 110.359 158.786C109.967 158.786 109.654 158.917 109.421 159.178C109.188 159.439 109.071 159.794 109.071 160.242C109.071 161.138 109.5 161.726 110.359 162.006ZM119.106 155.16C118.724 155.16 118.532 154.964 118.532 154.572C118.532 154.199 118.724 154.012 119.106 154.012C119.47 154.012 119.652 154.199 119.652 154.572C119.652 154.964 119.47 155.16 119.106 155.16ZM121.276 162.132H121.766V163H121.164C120.324 163 119.694 162.715 119.274 162.146C118.836 162.715 118.201 163 117.37 163H116.768V162.132H117.258C118.285 162.132 118.798 161.6 118.798 160.536V157.498L119.736 157.008V160.536C119.736 161.6 120.25 162.132 121.276 162.132ZM121.485 163V162.132H121.877C122.941 162.132 123.473 161.581 123.473 160.48V154.46L124.411 153.97V160.494C124.411 161.287 124.178 161.913 123.711 162.37C123.272 162.79 122.694 163 121.975 163H121.485ZM126.932 163V154.46L127.87 153.97V163H126.932ZM142 162.132H142.49V163H141.986C141.183 163 140.544 162.902 140.068 162.706C139.592 162.51 139.153 162.165 138.752 161.67C138.425 161.791 137.926 161.917 137.254 162.048C136.153 162.263 135.411 162.561 135.028 162.944C134.571 163.401 134.342 164.045 134.342 164.876C134.342 165.679 134.608 166.313 135.14 166.78C135.588 167.181 136.162 167.382 136.862 167.382H136.89C137.954 167.382 138.808 167.144 139.452 166.668V167.522C138.687 168.007 137.819 168.25 136.848 168.25C135.803 168.25 134.963 167.9 134.328 167.2C133.759 166.575 133.474 165.791 133.474 164.848C133.474 163.84 133.782 163.014 134.398 162.37C134.678 162.081 135 161.861 135.364 161.712C135.728 161.553 136.283 161.404 137.03 161.264C137.795 161.115 138.355 160.961 138.71 160.802C139.065 160.634 139.373 160.391 139.634 160.074C138.822 158.478 137.819 157.68 136.624 157.68C135.812 157.68 135.028 158.086 134.272 158.898V157.974C135.037 157.218 135.835 156.84 136.666 156.84H136.694C138.159 156.84 139.429 157.829 140.502 159.808V160.382C140.222 160.765 139.867 161.082 139.438 161.334C139.737 161.633 140.073 161.843 140.446 161.964C140.829 162.076 141.347 162.132 142 162.132ZM136.358 164.848C136.358 164.493 136.535 164.316 136.89 164.316C137.235 164.316 137.408 164.493 137.408 164.848C137.408 165.212 137.235 165.394 136.89 165.394C136.535 165.394 136.358 165.212 136.358 164.848ZM143.338 155.202C142.965 155.202 142.778 155.011 142.778 154.628C142.778 154.245 142.965 154.054 143.338 154.054C143.712 154.054 143.898 154.245 143.898 154.628C143.898 155.011 143.712 155.202 143.338 155.202ZM144.934 155.202C144.561 155.202 144.374 155.011 144.374 154.628C144.374 154.245 144.561 154.054 144.934 154.054C145.308 154.054 145.494 154.245 145.494 154.628C145.494 155.011 145.308 155.202 144.934 155.202ZM146.432 162.132H146.922V163H146.32C145.48 163 144.85 162.715 144.43 162.146C143.992 162.715 143.357 163 142.526 163H141.924V162.132H142.414C143.441 162.132 143.954 161.6 143.954 160.536V157.498L144.892 157.008V160.536C144.892 161.6 145.406 162.132 146.432 162.132ZM148.979 155.16C148.597 155.16 148.405 154.964 148.405 154.572C148.405 154.199 148.597 154.012 148.979 154.012C149.343 154.012 149.525 154.199 149.525 154.572C149.525 154.964 149.343 155.16 148.979 155.16ZM151.149 162.132H151.639V163H151.037C150.197 163 149.567 162.715 149.147 162.146C148.709 162.715 148.074 163 147.243 163H146.641V162.132H147.131C148.158 162.132 148.671 161.6 148.671 160.536V157.498L149.609 157.008V160.536C149.609 161.6 150.123 162.132 151.149 162.132ZM160.164 162.132H160.64V163H160.038C159.189 163 158.554 162.706 158.134 162.118C157.667 162.893 156.958 163.28 156.006 163.28C155.045 163.28 154.335 162.897 153.878 162.132C153.449 162.711 152.809 163 151.96 163H151.358V162.132H151.848C152.875 162.132 153.388 161.6 153.388 160.536V160.06C153.388 158.987 153.649 158.165 154.172 157.596C154.629 157.092 155.241 156.84 156.006 156.84C156.883 156.84 157.551 157.167 158.008 157.82C158.409 158.38 158.61 159.127 158.61 160.06V160.536C158.61 161.6 159.128 162.132 160.164 162.132ZM156.006 162.412C156.519 162.412 156.925 162.202 157.224 161.782C157.523 161.353 157.672 160.774 157.672 160.046C157.672 158.478 157.117 157.694 156.006 157.694C154.886 157.694 154.326 158.478 154.326 160.046C154.326 161.623 154.886 162.412 156.006 162.412ZM160.354 163V162.132H160.746C161.81 162.132 162.342 161.581 162.342 160.48V154.46L163.28 153.97V160.494C163.28 161.287 163.047 161.913 162.58 162.37C162.141 162.79 161.563 163 160.844 163H160.354ZM165.801 163V154.46L166.739 153.97V163H165.801Z" fill="black"/>
</svg>
