<svg width="115" height="30" viewBox="0 0 115 30" fill="none" xmlns="http://www.w3.org/2000/svg">
<path d="M4.12945 22V18.52H7.54945V22H4.12945ZM0.139453 22V0.789999H4.12945V22H0.139453ZM7.54945 22V18.52C7.78945 18.52 7.94945 18.68 8.02945 19C8.10945 19.3 8.14945 19.72 8.14945 20.26C8.14945 20.78 8.10945 21.2 8.02945 21.52C7.94945 21.84 7.78945 22 7.54945 22ZM14.7169 22V18.52H17.8669V22H14.7169ZM7.54688 22V18.52H13.0369L10.6969 20.47V6.94H14.7169V22H7.54688ZM7.54688 22C7.30687 22 7.14687 21.84 7.06687 21.52C6.98687 21.2 6.94687 20.78 6.94687 20.26C6.94687 19.72 6.98687 19.3 7.06687 19C7.14687 18.68 7.30687 18.52 7.54688 18.52V22ZM17.8669 22V18.52C18.1069 18.52 18.2669 18.68 18.3469 19C18.4269 19.3 18.4669 19.72 18.4669 20.26C18.4669 20.78 18.4269 21.2 18.3469 21.52C18.2669 21.84 18.1069 22 17.8669 22ZM10.6969 4.18V0.76H14.7169V4.18H10.6969ZM17.8594 22V18.52H38.6794L35.8894 20.77V15.64C35.8894 13.92 35.6594 12.54 35.1994 11.5C34.7594 10.46 34.0494 9.71 33.0694 9.25C32.1094 8.77 30.8594 8.53 29.3194 8.53C28.5794 8.53 27.7694 8.56 26.8894 8.62C26.0094 8.66 25.1294 8.72 24.2494 8.8C23.3894 8.86 22.6094 8.93 21.9094 9.01L21.4894 6.31C22.1694 6.13 22.9594 5.94 23.8594 5.74C24.7594 5.54 25.6994 5.37 26.6794 5.23C27.6794 5.09 28.6494 5.02 29.5894 5.02C30.8894 5.02 32.1494 5.2 33.3694 5.56C34.6094 5.9 35.7194 6.48 36.6994 7.3C37.6794 8.1 38.4594 9.18 39.0394 10.54C39.6194 11.9 39.9094 13.6 39.9094 15.64V22H17.8594ZM20.9494 18.52V17.02C20.9494 16.06 21.1894 15.17 21.6694 14.35C22.1694 13.51 22.8494 12.85 23.7094 12.37C24.5694 11.87 25.5294 11.62 26.5894 11.62C27.6494 11.62 28.5994 11.87 29.4394 12.37C30.2794 12.85 30.9394 13.5 31.4194 14.32C31.9194 15.14 32.1694 16.04 32.1694 17.02V18.52H28.9894V17.02C28.9894 16.52 28.8794 16.08 28.6594 15.7C28.4394 15.3 28.1494 14.98 27.7894 14.74C27.4294 14.5 27.0294 14.38 26.5894 14.38C26.1494 14.38 25.7394 14.5 25.3594 14.74C24.9994 14.98 24.7094 15.3 24.4894 15.7C24.2694 16.08 24.1594 16.52 24.1594 17.02V18.52H20.9494ZM17.8594 22C17.6194 22 17.4594 21.84 17.3794 21.52C17.2994 21.2 17.2594 20.78 17.2594 20.26C17.2594 19.72 17.2994 19.3 17.3794 19C17.4594 18.68 17.6194 18.52 17.8594 18.52V22ZM67.4039 22V18.52H70.5539V22H67.4039ZM58.7639 29.44C57.0239 29.44 55.4639 29.12 54.0839 28.48C52.7239 27.86 51.6539 26.99 50.8739 25.87C50.0939 24.75 49.7039 23.48 49.7039 22.06C49.7039 21.66 49.7339 21.13 49.7939 20.47C49.8539 19.81 49.9339 19.07 50.0339 18.25C50.1539 17.43 50.2739 16.6 50.3939 15.76C50.5339 14.9 50.6639 14.07 50.7839 13.27L54.7439 13.81C54.5239 15.15 54.3339 16.38 54.1739 17.5C54.0339 18.6 53.9239 19.54 53.8439 20.32C53.7639 21.1 53.7239 21.67 53.7239 22.03C53.7239 22.83 53.9239 23.52 54.3239 24.1C54.7239 24.68 55.2939 25.13 56.0339 25.45C56.7939 25.79 57.7039 25.96 58.7639 25.96C59.8639 25.96 60.7539 25.8 61.4339 25.48C62.1139 25.16 62.6039 24.72 62.9039 24.16C63.2239 23.6 63.3839 22.97 63.3839 22.27V0.789999H67.4039V22.27C67.4039 23.71 67.0239 24.97 66.2639 26.05C65.5239 27.13 64.5039 27.96 63.2039 28.54C61.9039 29.14 60.4239 29.44 58.7639 29.44ZM70.5539 22V18.52C70.7939 18.52 70.9539 18.68 71.0339 19C71.1139 19.3 71.1539 19.72 71.1539 20.26C71.1539 20.78 71.1139 21.2 71.0339 21.52C70.9539 21.84 70.7939 22 70.5539 22ZM86.1045 22V18.52H89.2845V22H86.1045ZM70.5645 22V18.52H83.4645L82.1145 19.63V14.08C82.1145 12.88 81.7345 11.97 80.9745 11.35C80.2345 10.73 79.0545 10.42 77.4345 10.42C76.9745 10.42 76.3445 10.46 75.5445 10.54C74.7445 10.6 73.8745 10.7 72.9345 10.84L72.5445 7.66C73.4045 7.46 74.2745 7.29 75.1545 7.15C76.0545 7.01 76.9345 6.94 77.7945 6.94C79.4345 6.94 80.8745 7.23 82.1145 7.81C83.3545 8.37 84.3245 9.18 85.0245 10.24C85.7445 11.3 86.1045 12.58 86.1045 14.08V22H70.5645ZM70.5645 22C70.3245 22 70.1645 21.84 70.0845 21.52C70.0045 21.2 69.9645 20.78 69.9645 20.26C69.9645 19.72 70.0045 19.3 70.0845 19C70.1645 18.68 70.3245 18.52 70.5645 18.52V22ZM89.2845 22V18.52C89.5045 18.52 89.6545 18.68 89.7345 19C89.8345 19.3 89.8845 19.72 89.8845 20.26C89.8845 20.78 89.8345 21.2 89.7345 21.52C89.6545 21.84 89.5045 22 89.2845 22ZM76.3545 28.39V24.97H80.3745V28.39H76.3545ZM106.925 22C106.105 22 105.285 21.85 104.465 21.55C103.665 21.23 102.925 20.76 102.245 20.14L104.705 17.59C105.105 17.91 105.475 18.15 105.815 18.31C106.175 18.45 106.545 18.52 106.925 18.52H112.535L110.465 20.41V13.75C110.465 13.43 110.425 12.95 110.345 12.31C110.285 11.65 110.185 10.91 110.045 10.09C109.925 9.25 109.775 8.4 109.595 7.54L113.555 6.94C113.695 7.66 113.825 8.47 113.945 9.37C114.085 10.25 114.205 11.09 114.305 11.89C114.405 12.67 114.455 13.29 114.455 13.75V22H106.925ZM89.2852 22V18.52H93.6652L92.7652 19.45V10H96.7852V22H89.2852ZM96.7852 22V18.52H99.2152C99.8552 18.52 100.345 18.43 100.685 18.25C101.025 18.05 101.255 17.66 101.375 17.08C101.515 16.48 101.585 15.59 101.585 14.41V8.5H105.605V14.41C105.605 16.19 105.375 17.64 104.915 18.76C104.475 19.88 103.785 20.7 102.845 21.22C101.905 21.74 100.695 22 99.2152 22H96.7852ZM89.2852 22C89.0452 22 88.8852 21.84 88.8052 21.52C88.7252 21.2 88.6852 20.78 88.6852 20.26C88.6852 19.72 88.7252 19.3 88.8052 19C88.8852 18.68 89.0452 18.52 89.2852 18.52V22Z" fill="white"/>
</svg>
