<svg width="171" height="169" viewBox="0 0 171 169" fill="none" xmlns="http://www.w3.org/2000/svg">
<path d="M43.1333 2.09C42.7506 2.09 42.5593 1.894 42.5593 1.502C42.5593 1.12867 42.7506 0.942 43.1333 0.942C43.4973 0.942 43.6793 1.12867 43.6793 1.502C43.6793 1.894 43.4973 2.09 43.1333 2.09ZM44.7293 2.09C44.3466 2.09 44.1553 1.894 44.1553 1.502C44.1553 1.12867 44.3466 0.942 44.7293 0.942C45.0933 0.942 45.2753 1.12867 45.2753 1.502C45.2753 1.894 45.0933 2.09 44.7293 2.09ZM47.4453 9.132H47.9213V10H47.3193C46.3206 10 45.6253 9.608 45.2333 8.824C44.748 9.328 44.1506 9.58 43.4413 9.58C42.6386 9.58 42.004 9.27667 41.5373 8.67C41.1453 8.15667 40.9493 7.51733 40.9493 6.752C40.9493 5.856 41.2106 5.13733 41.7333 4.596C42.1906 4.12 42.7553 3.882 43.4273 3.882C44.034 3.882 44.5426 4.05933 44.9533 4.414V3.658L45.8913 3.168V7.536C45.8913 8.6 46.4093 9.132 47.4453 9.132ZM44.9533 5.478C44.5426 4.98333 44.0433 4.736 43.4553 4.736C42.9886 4.736 42.606 4.92733 42.3073 5.31C42.018 5.68333 41.8733 6.16867 41.8733 6.766C41.8733 7.37267 42.018 7.858 42.3073 8.222C42.606 8.586 42.9933 8.768 43.4693 8.768C44.076 8.768 44.58 8.502 44.9813 7.97C44.9626 7.802 44.9533 7.66667 44.9533 7.564V5.478ZM51.6254 9.076C51.9707 7.63867 52.5727 6.43467 53.4314 5.464C54.3927 4.38133 55.5221 3.84 56.8194 3.84C57.8647 3.84 58.6954 4.19933 59.3114 4.918C59.8341 5.534 60.0954 6.29467 60.0954 7.2V7.592C60.0954 8.38533 59.8527 9.00133 59.3674 9.44C58.9567 9.81333 58.4107 10 57.7294 10H52.0314C51.1914 10 50.5614 9.71533 50.1414 9.146C49.7027 9.71533 49.0681 10 48.2374 10H47.6354V9.132H48.1254C49.1521 9.132 49.6654 8.6 49.6654 7.536V5.52L50.6034 5.03V7.536C50.6034 8.41333 50.9441 8.92667 51.6254 9.076ZM59.1574 7.48V7.2C59.1574 6.416 58.9101 5.786 58.4154 5.31C57.9954 4.89933 57.4681 4.694 56.8334 4.694C55.7414 4.694 54.7707 5.20733 53.9214 6.234C53.2774 7.018 52.7921 7.984 52.4654 9.132H57.6594C58.6581 9.132 59.1574 8.58133 59.1574 7.48ZM64.7315 10C63.9381 10 63.3268 9.74333 62.8975 9.23C62.5428 8.79133 62.3655 8.236 62.3655 7.564V1.46L63.3035 0.969999V7.536C63.3035 8.6 63.8168 9.132 64.8435 9.132H65.3335V10H64.7315ZM68.9734 2.16C68.5907 2.16 68.3994 1.964 68.3994 1.572C68.3994 1.19867 68.5907 1.012 68.9734 1.012C69.3374 1.012 69.5194 1.19867 69.5194 1.572C69.5194 1.964 69.3374 2.16 68.9734 2.16ZM65.0534 10V9.132H66.6214C68.656 9.132 70.2427 8.44133 71.3814 7.06C70.5507 5.47333 69.5474 4.68 68.3714 4.68C67.5687 4.68 66.7847 5.086 66.0194 5.898V4.974C66.7847 4.218 67.5827 3.84 68.4134 3.84H68.4414C69.9067 3.84 71.176 4.82933 72.2494 6.808V7.382C70.8867 9.12733 69.006 10 66.6074 10H65.0534ZM81.2786 3.49C80.9053 3.49 80.7186 3.294 80.7186 2.902C80.7186 2.52867 80.9053 2.342 81.2786 2.342C81.6519 2.342 81.8386 2.52867 81.8386 2.902C81.8386 3.294 81.6519 3.49 81.2786 3.49ZM82.8886 3.49C82.5059 3.49 82.3146 3.294 82.3146 2.902C82.3146 2.52867 82.5059 2.342 82.8886 2.342C83.2526 2.342 83.4346 2.52867 83.4346 2.902C83.4346 3.294 83.2526 3.49 82.8886 3.49ZM79.8366 10C79.1459 10 78.5953 9.78533 78.1846 9.356C77.7739 8.91733 77.5686 8.32933 77.5686 7.592V5.758L78.5066 5.268V7.48C78.5066 8.58133 79.0199 9.132 80.0466 9.132H84.7366C85.7633 9.132 86.2766 8.58133 86.2766 7.48V4.498L87.2146 4.008V7.592C87.2146 8.38533 86.9719 9.00133 86.4866 9.44C86.0666 9.81333 85.5159 10 84.8346 10H79.8366ZM92.1026 10C91.3092 10 90.6979 9.74333 90.2686 9.23C89.9139 8.79133 89.7366 8.236 89.7366 7.564V1.46L90.6746 0.969999V7.536C90.6746 8.6 91.1879 9.132 92.2146 9.132H92.7046V10H92.1026ZM92.4245 10V9.132H93.2785C94.3145 9.132 94.8325 8.6 94.8325 7.536V5.52L95.7705 5.03V7.536C95.7705 8.6 96.2838 9.132 97.3105 9.132H97.8285C98.8551 9.132 99.3685 8.6 99.3685 7.536V5.016L100.306 4.512V7.536C100.306 8.6 100.824 9.132 101.86 9.132H102.364C103.4 9.132 103.918 8.6 103.918 7.536V4.498L104.856 4.008V7.48C104.856 8.58133 105.388 9.132 106.452 9.132H107.264V10H106.354C105.468 10 104.819 9.68733 104.408 9.062C103.998 9.68733 103.363 10 102.504 10H101.734C100.866 10 100.236 9.692 99.8445 9.076C99.4431 9.692 98.8178 10 97.9685 10H97.1985C96.3305 10 95.6958 9.692 95.2945 9.076C94.9025 9.692 94.2725 10 93.4045 10H92.4245ZM111.451 9.132H111.941V10H111.339C110.48 10 109.841 9.706 109.421 9.118C108.982 9.706 108.334 10 107.475 10H106.985V9.132H107.377C108.441 9.132 108.973 8.58133 108.973 7.48V1.46L109.911 0.969999V7.536C109.911 8.6 110.424 9.132 111.451 9.132ZM111.661 10V9.132H113.229C115.263 9.132 116.85 8.44133 117.989 7.06C117.158 5.47333 116.155 4.68 114.979 4.68C114.176 4.68 113.392 5.086 112.627 5.898V4.974C113.392 4.218 114.19 3.84 115.021 3.84H115.049C116.514 3.84 117.783 4.82933 118.857 6.808V7.382C117.494 9.12733 115.613 10 113.215 10H111.661ZM115.357 12.618C114.974 12.618 114.783 12.422 114.783 12.03C114.783 11.6567 114.974 11.47 115.357 11.47C115.721 11.47 115.903 11.6567 115.903 12.03C115.903 12.422 115.721 12.618 115.357 12.618ZM124.106 2.468L123.686 1.852C124.349 1.264 125.142 0.969999 126.066 0.969999C126.822 0.969999 127.447 1.194 127.942 1.642C128.399 2.062 128.628 2.59867 128.628 3.252C128.628 3.71867 128.488 4.134 128.208 4.498C127.928 4.85267 127.559 5.086 127.102 5.198C127.69 5.338 128.152 5.60867 128.488 6.01C128.824 6.41133 128.992 6.89667 128.992 7.466C128.992 8.40867 128.637 9.12733 127.928 9.622C127.405 9.97667 126.789 10.154 126.08 10.154C125.184 10.154 124.349 9.846 123.574 9.23L124.022 8.628C124.61 9.03867 125.254 9.244 125.954 9.244C126.533 9.244 126.999 9.08067 127.354 8.754C127.709 8.42733 127.886 7.99333 127.886 7.452C127.886 6.304 127.2 5.73 125.828 5.73H124.68V4.848H125.828C126.351 4.848 126.761 4.71267 127.06 4.442C127.368 4.17133 127.522 3.798 127.522 3.322C127.522 2.342 126.976 1.852 125.884 1.852C125.315 1.852 124.722 2.05733 124.106 2.468ZM143.011 9.132H143.501V10H142.899C142.301 10 141.802 9.85067 141.401 9.552C141.326 10.5413 140.929 11.3207 140.211 11.89C139.567 12.4033 138.755 12.66 137.775 12.66C136.561 12.66 135.628 12.2447 134.975 11.414C134.461 10.77 134.205 10 134.205 9.104C134.205 8.292 134.41 7.606 134.821 7.046L135.745 6.836C135.287 7.508 135.059 8.24533 135.059 9.048C135.059 9.86933 135.325 10.5413 135.857 11.064C136.361 11.5587 137 11.806 137.775 11.806C138.671 11.806 139.366 11.5353 139.861 10.994C140.281 10.546 140.491 9.96267 140.491 9.244V1.46L141.415 0.969999V7.55V7.578C141.415 8.614 141.947 9.132 143.011 9.132ZM152.021 9.132H152.497V10H151.895C151.046 10 150.411 9.706 149.991 9.118C149.525 9.89267 148.815 10.28 147.863 10.28C146.902 10.28 146.193 9.89733 145.735 9.132C145.306 9.71067 144.667 10 143.817 10H143.215V9.132H143.705C144.732 9.132 145.245 8.6 145.245 7.536V7.06C145.245 5.98667 145.507 5.16533 146.029 4.596C146.487 4.092 147.098 3.84 147.863 3.84C148.741 3.84 149.408 4.16667 149.865 4.82C150.267 5.38 150.467 6.12667 150.467 7.06V7.536C150.467 8.6 150.985 9.132 152.021 9.132ZM147.863 9.412C148.377 9.412 148.783 9.202 149.081 8.782C149.38 8.35267 149.529 7.774 149.529 7.046C149.529 5.478 148.974 4.694 147.863 4.694C146.743 4.694 146.183 5.478 146.183 7.046C146.183 8.62333 146.743 9.412 147.863 9.412ZM159.618 1.166C159.282 1.166 159.114 0.988666 159.114 0.634C159.114 0.297999 159.282 0.129999 159.618 0.129999C159.954 0.129999 160.122 0.297999 160.122 0.634C160.122 0.988666 159.954 1.166 159.618 1.166ZM158.834 2.622C158.451 2.622 158.26 2.43067 158.26 2.048C158.26 1.66533 158.451 1.474 158.834 1.474C159.198 1.474 159.38 1.66533 159.38 2.048C159.38 2.43067 159.198 2.622 158.834 2.622ZM160.43 2.622C160.056 2.622 159.87 2.43067 159.87 2.048C159.87 1.66533 160.056 1.474 160.43 1.474C160.803 1.474 160.99 1.66533 160.99 2.048C160.99 2.43067 160.803 2.622 160.43 2.622ZM152.212 10V9.132H153.066C154.102 9.132 154.62 8.6 154.62 7.536V5.52L155.558 5.03V7.536C155.558 8.6 156.071 9.132 157.098 9.132H157.616C158.642 9.132 159.156 8.6 159.156 7.536V5.016L160.094 4.512V7.536C160.094 8.6 160.612 9.132 161.648 9.132H162.152C163.188 9.132 163.706 8.6 163.706 7.536V4.498L164.644 4.008V7.48C164.644 8.58133 165.176 9.132 166.24 9.132H167.052V10H166.142C165.255 10 164.606 9.68733 164.196 9.062C163.785 9.68733 163.15 10 162.292 10H161.522C160.654 10 160.024 9.692 159.632 9.076C159.23 9.692 158.605 10 157.756 10H156.986C156.118 10 155.483 9.692 155.082 9.076C154.69 9.692 154.06 10 153.192 10H152.212ZM167.612 2.16C167.229 2.16 167.038 1.964 167.038 1.572C167.038 1.19867 167.229 1.012 167.612 1.012C167.976 1.012 168.158 1.19867 168.158 1.572C168.158 1.964 167.976 2.16 167.612 2.16ZM169.208 2.16C168.825 2.16 168.634 1.964 168.634 1.572C168.634 1.19867 168.825 1.012 169.208 1.012C169.572 1.012 169.754 1.19867 169.754 1.572C169.754 1.964 169.572 2.16 169.208 2.16ZM166.772 10V9.132H167.262C168.289 9.132 168.802 8.6 168.802 7.536V4.498L169.74 4.008V7.564C169.74 8.348 169.511 8.95933 169.054 9.398C168.634 9.79933 168.074 10 167.374 10H166.772ZM0.227891 27L0.675891 26.132H3.30789C3.73722 26.132 4.03589 26.0247 4.20389 25.81C4.38122 25.5953 4.46989 25.222 4.46989 24.69C4.46989 23.318 3.86789 22.296 2.66389 21.624L3.12589 20.854C4.60989 21.7127 5.36589 22.9213 5.39389 24.48C5.40322 25.5813 5.93989 26.132 7.00389 26.132H7.43789V27H6.90589C6.09389 27 5.47322 26.7293 5.04389 26.188C4.72656 26.7293 4.19922 27 3.46189 27H0.227891ZM7.15297 27V26.132H7.64297C8.66964 26.132 9.18297 25.6 9.18297 24.536V21.498L10.121 21.008V24.564C10.121 25.348 9.8923 25.9593 9.43497 26.398C9.01497 26.7993 8.45497 27 7.75497 27H7.15297ZM7.61497 29.618C7.2323 29.618 7.04097 29.422 7.04097 29.03C7.04097 28.6567 7.2323 28.47 7.61497 28.47C7.97897 28.47 8.16097 28.6567 8.16097 29.03C8.16097 29.422 7.97897 29.618 7.61497 29.618ZM9.21097 29.618C8.8283 29.618 8.63697 29.422 8.63697 29.03C8.63697 28.6567 8.8283 28.47 9.21097 28.47C9.57497 28.47 9.75697 28.6567 9.75697 29.03C9.75697 29.422 9.57497 29.618 9.21097 29.618ZM11.5209 27L11.9689 26.132H14.6009C15.0302 26.132 15.3289 26.0247 15.4969 25.81C15.6742 25.5953 15.7629 25.222 15.7629 24.69C15.7629 23.318 15.1609 22.296 13.9569 21.624L14.4189 20.854C15.9029 21.7127 16.6589 22.9213 16.6869 24.48C16.6962 25.5813 17.2329 26.132 18.2969 26.132H18.7309V27H18.1989C17.3869 27 16.7662 26.7293 16.3369 26.188C16.0195 26.7293 15.4922 27 14.7549 27H11.5209ZM27.2939 26.132H27.7839V27H27.2799C26.5053 27 25.8846 26.9113 25.4179 26.734C24.9606 26.5567 24.5359 26.244 24.1439 25.796C22.9493 26.5987 21.5679 27 19.9999 27H18.4459V26.132H20.0139C22.0486 26.132 23.6353 25.4413 24.7739 24.06C23.9433 22.4733 22.9399 21.68 21.7639 21.68C20.9613 21.68 20.1773 22.086 19.4119 22.898V21.974C20.1773 21.218 20.9753 20.84 21.8059 20.84H21.8339C23.2993 20.84 24.5686 21.8293 25.6419 23.808V24.382C25.3526 24.7553 25.0446 25.0773 24.7179 25.348C25.0166 25.6373 25.3526 25.8427 25.7259 25.964C26.1086 26.076 26.6313 26.132 27.2939 26.132ZM28.3504 19.16C27.9677 19.16 27.7764 18.964 27.7764 18.572C27.7764 18.1987 27.9677 18.012 28.3504 18.012C28.7144 18.012 28.8964 18.1987 28.8964 18.572C28.8964 18.964 28.7144 19.16 28.3504 19.16ZM29.9464 19.16C29.5637 19.16 29.3724 18.964 29.3724 18.572C29.3724 18.1987 29.5637 18.012 29.9464 18.012C30.3104 18.012 30.4924 18.1987 30.4924 18.572C30.4924 18.964 30.3104 19.16 29.9464 19.16ZM27.5104 27V26.132H28.0004C29.0271 26.132 29.5404 25.6 29.5404 24.536V21.498L30.4784 21.008V24.564C30.4784 25.348 30.2497 25.9593 29.7924 26.398C29.3724 26.7993 28.8124 27 28.1124 27H27.5104ZM43.5436 26.132H44.0196V27H43.4176C42.5869 27 41.9616 26.72 41.5416 26.16C41.1122 26.7107 40.4776 26.9907 39.6376 27H37.8596C36.8329 27 36.3196 27.532 36.3196 28.596V30.92L35.3816 31.41V28.568C35.3816 27.7933 35.6102 27.1867 36.0676 26.748C36.4782 26.3467 37.0242 26.1413 37.7056 26.132C37.2669 25.572 37.0476 24.8347 37.0476 23.92C37.0476 22.912 37.3089 22.1327 37.8316 21.582C38.2889 21.0873 38.8956 20.84 39.6516 20.84C40.4262 20.84 41.0236 21.0827 41.4436 21.568C41.8076 21.988 41.9896 22.548 41.9896 23.248V24.536C41.9896 25.6 42.5076 26.132 43.5436 26.132ZM41.0516 24.592V23.332C41.0516 22.24 40.5849 21.694 39.6516 21.694C39.1196 21.694 38.7042 21.89 38.4056 22.282C38.1162 22.674 37.9716 23.2153 37.9716 23.906C37.9716 24.606 38.1116 25.152 38.3916 25.544C38.6716 25.936 39.0589 26.132 39.5536 26.132C40.5522 26.132 41.0516 25.6187 41.0516 24.592ZM45.1529 19.202C44.7796 19.202 44.5929 19.0107 44.5929 18.628C44.5929 18.2453 44.7796 18.054 45.1529 18.054C45.5262 18.054 45.7129 18.2453 45.7129 18.628C45.7129 19.0107 45.5262 19.202 45.1529 19.202ZM46.7489 19.202C46.3756 19.202 46.1889 19.0107 46.1889 18.628C46.1889 18.2453 46.3756 18.054 46.7489 18.054C47.1222 18.054 47.3089 18.2453 47.3089 18.628C47.3089 19.0107 47.1222 19.202 46.7489 19.202ZM48.2469 26.132H48.7369V27H48.1349C47.2949 27 46.6649 26.7153 46.2449 26.146C45.8062 26.7153 45.1716 27 44.3409 27H43.7389V26.132H44.2289C45.2556 26.132 45.7689 25.6 45.7689 24.536V21.498L46.7069 21.008V24.536C46.7069 25.6 47.2202 26.132 48.2469 26.132ZM48.4557 27V26.132H48.9457C49.9724 26.132 50.4857 25.6 50.4857 24.536V21.498L51.4237 21.008V24.564C51.4237 25.348 51.195 25.9593 50.7377 26.398C50.3177 26.7993 49.7577 27 49.0577 27H48.4557ZM48.9177 29.618C48.535 29.618 48.3437 29.422 48.3437 29.03C48.3437 28.6567 48.535 28.47 48.9177 28.47C49.2817 28.47 49.4637 28.6567 49.4637 29.03C49.4637 29.422 49.2817 29.618 48.9177 29.618ZM50.5137 29.618C50.131 29.618 49.9397 29.422 49.9397 29.03C49.9397 28.6567 50.131 28.47 50.5137 28.47C50.8777 28.47 51.0597 28.6567 51.0597 29.03C51.0597 29.422 50.8777 29.618 50.5137 29.618ZM59.2949 17.97H60.1349C58.9122 19.706 58.3009 21.5307 58.3009 23.444C58.3009 25.46 58.9122 27.2987 60.1349 28.96H59.2949C58.7349 28.4 58.2635 27.588 57.8809 26.524C57.5075 25.46 57.3209 24.4333 57.3209 23.444C57.3209 22.464 57.5075 21.456 57.8809 20.42C58.2542 19.3747 58.7255 18.558 59.2949 17.97ZM74.3052 26.132V27H73.7032C72.9192 27 72.3125 26.748 71.8832 26.244C71.5472 26.748 71.0058 27 70.2592 27H61.4812L61.9432 26.132H63.7912V18.46L64.6592 17.97V23.85C65.7512 21.8433 67.1978 20.84 68.9992 20.84C70.0445 20.84 70.8752 21.1993 71.4912 21.918C72.0138 22.534 72.2752 23.2947 72.2752 24.2V24.564C72.2752 25.6093 72.7932 26.132 73.8292 26.132H74.3052ZM71.3372 24.2C71.3372 23.416 71.0898 22.786 70.5952 22.31C70.1752 21.8993 69.6478 21.694 69.0132 21.694C67.9212 21.694 66.9505 22.2213 66.1012 23.276C65.4572 24.0693 64.9812 25.0213 64.6732 26.132H70.1612C70.6092 26.132 70.9172 26.0293 71.0852 25.824C71.2532 25.6093 71.3372 25.222 71.3372 24.662V24.2ZM77.2701 19.202C76.8874 19.202 76.6961 19.006 76.6961 18.614C76.6961 18.2407 76.8874 18.054 77.2701 18.054C77.6341 18.054 77.8161 18.2407 77.8161 18.614C77.8161 19.006 77.6341 19.202 77.2701 19.202ZM78.8661 19.202C78.4834 19.202 78.2921 19.006 78.2921 18.614C78.2921 18.2407 78.4834 18.054 78.8661 18.054C79.2301 18.054 79.4121 18.2407 79.4121 18.614C79.4121 19.006 79.2301 19.202 78.8661 19.202ZM79.5241 26.132H82.0861V27H78.9221C78.6048 27 78.3154 26.9673 78.0541 26.902C77.7928 26.9673 77.5034 27 77.1861 27H74.0221V26.132H76.5981C75.8608 25.4507 75.4921 24.6433 75.4921 23.71C75.4921 22.8047 75.7441 22.086 76.2481 21.554C76.7054 21.078 77.3074 20.84 78.0541 20.84C78.9034 20.84 79.5614 21.148 80.0281 21.764C80.4201 22.2773 80.6161 22.926 80.6161 23.71C80.6161 24.6527 80.2521 25.46 79.5241 26.132ZM78.1101 26.006C78.5861 25.838 78.9734 25.5393 79.2721 25.11C79.5801 24.6713 79.7341 24.2 79.7341 23.696C79.7341 23.08 79.5801 22.5947 79.2721 22.24C78.9734 21.876 78.5674 21.694 78.0541 21.694C77.5408 21.694 77.1348 21.876 76.8361 22.24C76.5374 22.5947 76.3881 23.0753 76.3881 23.682C76.3881 24.1953 76.5374 24.6713 76.8361 25.11C77.1348 25.5393 77.5221 25.838 77.9981 26.006L78.0541 26.02L78.0821 26.006H78.1101ZM86.0574 19.188C85.6747 19.188 85.4834 18.992 85.4834 18.6C85.4834 18.2267 85.6747 18.04 86.0574 18.04C86.4214 18.04 86.6034 18.2267 86.6034 18.6C86.6034 18.992 86.4214 19.188 86.0574 19.188ZM81.8014 27V26.132H84.1814C83.6681 25.6187 83.4114 24.8813 83.4114 23.92C83.4114 22.912 83.6727 22.1327 84.1954 21.582C84.6527 21.0873 85.2594 20.84 86.0154 20.84C86.7901 20.84 87.3874 21.0827 87.8074 21.568C88.1714 21.988 88.3534 22.548 88.3534 23.248V24.606C88.3441 25.362 88.1154 25.9547 87.6674 26.384C87.2567 26.7947 86.6967 27 85.9874 27H81.8014ZM87.4294 23.332C87.4294 22.24 86.9581 21.694 86.0154 21.694C85.4927 21.694 85.0821 21.89 84.7834 22.282C84.4941 22.6647 84.3494 23.206 84.3494 23.906C84.3494 24.5873 84.4894 25.1287 84.7694 25.53C85.0587 25.9313 85.4414 26.132 85.9174 26.132C86.9254 26.132 87.4294 25.6093 87.4294 24.564V23.332ZM92.9779 27L93.4259 26.132H96.0579C96.4872 26.132 96.7859 26.0247 96.9539 25.81C97.1312 25.5953 97.2199 25.222 97.2199 24.69C97.2199 23.318 96.6179 22.296 95.4139 21.624L95.8759 20.854C97.3599 21.7127 98.1159 22.9213 98.1439 24.48C98.1532 25.5813 98.6899 26.132 99.7539 26.132H100.188V27H99.6559C98.8439 27 98.2232 26.7293 97.7939 26.188C97.4766 26.7293 96.9492 27 96.2119 27H92.9779ZM99.903 27V26.132H101.471C103.506 26.132 105.092 25.4413 106.231 24.06C105.4 22.4733 104.397 21.68 103.221 21.68C102.418 21.68 101.634 22.086 100.869 22.898V21.974C101.634 21.218 102.432 20.84 103.263 20.84H103.291C104.756 20.84 106.026 21.8293 107.099 23.808V24.382C105.736 26.1273 103.856 27 101.457 27H99.903ZM109.055 27V18.46L109.993 17.97V27H109.055ZM116.098 26.482C115.706 26.706 115.202 26.818 114.586 26.818C113.774 26.818 113.139 26.5053 112.682 25.88C112.29 25.348 112.094 24.676 112.094 23.864C112.094 22.884 112.355 22.1187 112.878 21.568C113.335 21.0827 113.942 20.84 114.698 20.84C115.473 20.84 116.07 21.0827 116.49 21.568C116.854 21.988 117.036 22.548 117.036 23.248V26.328C117.036 27.196 116.854 27.91 116.49 28.47C116.126 29.0393 115.608 29.4033 114.936 29.562C114.712 29.6273 114.469 29.66 114.208 29.66C113.667 29.66 113.139 29.5293 112.626 29.268V28.442C113.111 28.7033 113.592 28.834 114.068 28.834C114.451 28.834 114.787 28.75 115.076 28.582C115.729 28.2553 116.07 27.5553 116.098 26.482ZM116.098 23.332C116.098 22.24 115.631 21.694 114.698 21.694C114.175 21.694 113.76 21.8853 113.452 22.268C113.153 22.6507 113.004 23.178 113.004 23.85C113.004 24.5033 113.149 25.026 113.438 25.418C113.727 25.8007 114.119 25.992 114.614 25.992C115.351 25.992 115.846 25.7867 116.098 25.376V23.332ZM131.475 18.46L132.413 17.97V24.592C132.413 25.3853 132.171 26.0013 131.685 26.44C131.275 26.8133 130.729 27 130.047 27H125.049C124.359 27 123.808 26.7853 123.397 26.356C122.987 25.9173 122.781 25.3293 122.781 24.592V22.758L123.719 22.268V24.48C123.719 25.5813 124.233 26.132 125.259 26.132H129.949C130.967 26.132 131.475 25.5813 131.475 24.48V18.46ZM127.541 20.322C127.924 20.322 128.227 20.4247 128.451 20.63C128.675 20.8353 128.787 21.1107 128.787 21.456C128.787 21.764 128.694 22.0113 128.507 22.198C128.33 22.3753 128.092 22.464 127.793 22.464H126.057L126.323 21.974H127.751C128.106 21.974 128.283 21.7967 128.283 21.442C128.283 21.0127 128.013 20.798 127.471 20.798C127.191 20.798 126.953 20.854 126.757 20.966V20.49L127.905 19.202H128.493L127.527 20.322H127.541ZM138.324 26.132H138.814V27H138.212C137.633 27 137.152 26.86 136.77 26.58C136.695 28.1293 136.07 29.1093 134.894 29.52C134.595 29.6227 134.278 29.674 133.942 29.674C133.4 29.674 132.878 29.5433 132.374 29.282V28.456C132.85 28.7173 133.335 28.848 133.83 28.848C134.222 28.848 134.567 28.7593 134.866 28.582C135.519 28.19 135.846 27.4573 135.846 26.384V21.498L136.77 21.008V21.022L136.784 21.008V24.536C136.784 25.6 137.297 26.132 138.324 26.132ZM139.954 19.202C139.58 19.202 139.394 19.0107 139.394 18.628C139.394 18.2453 139.58 18.054 139.954 18.054C140.327 18.054 140.514 18.2453 140.514 18.628C140.514 19.0107 140.327 19.202 139.954 19.202ZM141.55 19.202C141.176 19.202 140.99 19.0107 140.99 18.628C140.99 18.2453 141.176 18.054 141.55 18.054C141.923 18.054 142.11 18.2453 142.11 18.628C142.11 19.0107 141.923 19.202 141.55 19.202ZM143.048 26.132H143.538V27H142.936C142.096 27 141.466 26.7153 141.046 26.146C140.607 26.7153 139.972 27 139.142 27H138.54V26.132H139.03C140.056 26.132 140.57 25.6 140.57 24.536V21.498L141.508 21.008V24.536C141.508 25.6 142.021 26.132 143.048 26.132ZM150.662 18.166C150.326 18.166 150.158 17.9887 150.158 17.634C150.158 17.298 150.326 17.13 150.662 17.13C150.998 17.13 151.166 17.298 151.166 17.634C151.166 17.9887 150.998 18.166 150.662 18.166ZM149.878 19.622C149.496 19.622 149.304 19.4307 149.304 19.048C149.304 18.6653 149.496 18.474 149.878 18.474C150.242 18.474 150.424 18.6653 150.424 19.048C150.424 19.4307 150.242 19.622 149.878 19.622ZM151.474 19.622C151.101 19.622 150.914 19.4307 150.914 19.048C150.914 18.6653 151.101 18.474 151.474 18.474C151.848 18.474 152.034 18.6653 152.034 19.048C152.034 19.4307 151.848 19.622 151.474 19.622ZM143.256 27V26.132H144.11C145.146 26.132 145.664 25.6 145.664 24.536V22.52L146.602 22.03V24.536C146.602 25.6 147.116 26.132 148.142 26.132H148.66C149.687 26.132 150.2 25.6 150.2 24.536V22.016L151.138 21.512V24.536C151.138 25.6 151.656 26.132 152.692 26.132H153.196C154.232 26.132 154.75 25.6 154.75 24.536V21.498L155.688 21.008V24.48C155.688 25.5813 156.22 26.132 157.284 26.132H158.096V27H157.186C156.3 27 155.651 26.6873 155.24 26.062C154.83 26.6873 154.195 27 153.336 27H152.566C151.698 27 151.068 26.692 150.676 26.076C150.275 26.692 149.65 27 148.8 27H148.03C147.162 27 146.528 26.692 146.126 26.076C145.734 26.692 145.104 27 144.236 27H143.256ZM159.847 23.248C159.847 22.4547 160.085 21.8387 160.561 21.4C160.972 21.0267 161.513 20.84 162.185 20.84C163.053 20.84 163.72 21.1573 164.187 21.792C164.588 22.3333 164.789 23.0427 164.789 23.92C164.789 24.9187 164.532 25.698 164.019 26.258C163.571 26.7527 162.988 27 162.269 27C161.392 27 160.738 26.72 160.309 26.16C159.889 26.72 159.259 27 158.419 27H157.817V26.132H158.307C159.334 26.132 159.847 25.6 159.847 24.536V23.248ZM160.785 24.592C160.785 25.6187 161.289 26.132 162.297 26.132C162.782 26.132 163.165 25.936 163.445 25.544C163.725 25.152 163.865 24.606 163.865 23.906C163.865 23.2153 163.716 22.674 163.417 22.282C163.128 21.89 162.717 21.694 162.185 21.694C161.252 21.694 160.785 22.24 160.785 23.332V24.592ZM166.882 17.97H167.722C168.282 18.558 168.748 19.3747 169.122 20.42C169.504 21.456 169.696 22.464 169.696 23.444C169.696 24.704 169.42 25.936 168.87 27.14C168.506 27.952 168.123 28.5587 167.722 28.96H166.882C168.104 27.2987 168.716 25.46 168.716 23.444C168.716 21.5307 168.104 19.706 166.882 17.97ZM22.4985 43.44C22.4985 43.4493 22.4985 43.4587 22.4985 43.468C22.4985 43.8693 22.3072 44.07 21.9245 44.07C21.5232 44.07 21.3225 43.8647 21.3225 43.454C21.3412 43.0713 21.5418 42.88 21.9245 42.88C22.3072 42.88 22.4985 43.0667 22.4985 43.44ZM28.2199 37.588C27.8372 37.588 27.6459 37.392 27.6459 37C27.6459 36.6267 27.8372 36.44 28.2199 36.44C28.5839 36.44 28.7659 36.6267 28.7659 37C28.7659 37.392 28.5839 37.588 28.2199 37.588ZM33.3999 43.132H33.8899V44H33.2879C32.7092 44 32.2286 43.8647 31.8459 43.594C31.7806 44.574 31.3886 45.344 30.6699 45.904C30.0352 46.408 29.2326 46.66 28.2619 46.66C27.0766 46.66 26.1572 46.24 25.5039 45.4C24.9906 44.756 24.7339 43.986 24.7339 43.09C24.7339 42.2873 24.9392 41.5967 25.3499 41.018L26.2599 40.836C25.8119 41.5173 25.5879 42.2453 25.5879 43.02C25.5879 43.8413 25.8539 44.518 26.3859 45.05C26.8806 45.5447 27.5059 45.792 28.2619 45.792C29.1486 45.792 29.8346 45.5307 30.3199 45.008C30.7212 44.5787 30.9219 44.014 30.9219 43.314V38.498L31.8599 38.008V41.536C31.8599 42.6 32.3732 43.132 33.3999 43.132ZM38.116 43.132H38.606V44H38.004C37.164 44 36.534 43.7153 36.114 43.146C35.6754 43.7153 35.0407 44 34.21 44H33.608V43.132H34.098C35.1247 43.132 35.638 42.6 35.638 41.536V38.498L36.576 38.008V41.536C36.576 42.6 37.0894 43.132 38.116 43.132ZM34.938 45.47C35.3114 45.47 35.498 45.6613 35.498 46.044C35.498 46.4267 35.3114 46.618 34.938 46.618C34.5647 46.618 34.378 46.4267 34.378 46.044C34.378 45.6613 34.5647 45.47 34.938 45.47ZM36.534 45.47C36.9074 45.47 37.094 45.6613 37.094 46.044C37.094 46.4267 36.9074 46.618 36.534 46.618C36.1607 46.618 35.974 46.4267 35.974 46.044C35.974 45.6613 36.1607 45.47 36.534 45.47ZM40.5368 38.218C40.6302 38.2087 40.7282 38.204 40.8308 38.204C41.6708 38.204 42.3895 38.4093 42.9868 38.82C43.8082 39.408 44.2188 40.248 44.2188 41.34V41.606C44.2188 42.39 43.9762 43.0013 43.4908 43.44C43.0708 43.8133 42.5248 44 41.8528 44H38.3248V43.132H41.7548C42.7722 43.132 43.2808 42.586 43.2808 41.494V41.354C43.2808 40.598 43.0102 40.0333 42.4688 39.66C42.0208 39.324 41.4515 39.156 40.7608 39.156C40.2568 39.156 39.7575 39.2447 39.2628 39.422V38.498L42.4408 34.97H43.4068L40.5368 38.218ZM49.7027 43.132H50.1927V44H49.5907C49.012 44 48.5314 43.86 48.1487 43.58C48.074 45.1293 47.4487 46.1093 46.2727 46.52C45.974 46.6227 45.6567 46.674 45.3207 46.674C44.7794 46.674 44.2567 46.5433 43.7527 46.282V45.456C44.2287 45.7173 44.714 45.848 45.2087 45.848C45.6007 45.848 45.946 45.7593 46.2447 45.582C46.898 45.19 47.2247 44.4573 47.2247 43.384V38.498L48.1487 38.008V38.022L48.1627 38.008V41.536C48.1627 42.6 48.676 43.132 49.7027 43.132ZM51.3326 36.202C50.9593 36.202 50.7726 36.0107 50.7726 35.628C50.7726 35.2453 50.9593 35.054 51.3326 35.054C51.7059 35.054 51.8926 35.2453 51.8926 35.628C51.8926 36.0107 51.7059 36.202 51.3326 36.202ZM52.9286 36.202C52.5553 36.202 52.3686 36.0107 52.3686 35.628C52.3686 35.2453 52.5553 35.054 52.9286 35.054C53.3019 35.054 53.4886 35.2453 53.4886 35.628C53.4886 36.0107 53.3019 36.202 52.9286 36.202ZM54.4266 43.132H54.9166V44H54.3146C53.4746 44 52.8446 43.7153 52.4246 43.146C51.9859 43.7153 51.3513 44 50.5206 44H49.9186V43.132H50.4086C51.4353 43.132 51.9486 42.6 51.9486 41.536V38.498L52.8866 38.008V41.536C52.8866 42.6 53.3999 43.132 54.4266 43.132ZM62.0414 35.166C61.7054 35.166 61.5374 34.9887 61.5374 34.634C61.5374 34.298 61.7054 34.13 62.0414 34.13C62.3774 34.13 62.5454 34.298 62.5454 34.634C62.5454 34.9887 62.3774 35.166 62.0414 35.166ZM61.2574 36.622C60.8747 36.622 60.6834 36.4307 60.6834 36.048C60.6834 35.6653 60.8747 35.474 61.2574 35.474C61.6214 35.474 61.8034 35.6653 61.8034 36.048C61.8034 36.4307 61.6214 36.622 61.2574 36.622ZM62.8534 36.622C62.4801 36.622 62.2934 36.4307 62.2934 36.048C62.2934 35.6653 62.4801 35.474 62.8534 35.474C63.2267 35.474 63.4134 35.6653 63.4134 36.048C63.4134 36.4307 63.2267 36.622 62.8534 36.622ZM54.6354 44V43.132H55.4894C56.5254 43.132 57.0434 42.6 57.0434 41.536V39.52L57.9814 39.03V41.536C57.9814 42.6 58.4947 43.132 59.5214 43.132H60.0394C61.0661 43.132 61.5794 42.6 61.5794 41.536V39.016L62.5174 38.512V41.536C62.5174 42.6 63.0354 43.132 64.0714 43.132H64.5754C65.6114 43.132 66.1294 42.6 66.1294 41.536V38.498L67.0674 38.008V41.48C67.0674 42.5813 67.5994 43.132 68.6634 43.132H69.4754V44H68.5654C67.6787 44 67.0301 43.6873 66.6194 43.062C66.2087 43.6873 65.5741 44 64.7154 44H63.9454C63.0774 44 62.4474 43.692 62.0554 43.076C61.6541 43.692 61.0287 44 60.1794 44H59.4094C58.5414 44 57.9067 43.692 57.5054 43.076C57.1134 43.692 56.4834 44 55.6154 44H54.6354ZM78.0019 43.132H78.4779V44H77.8759C77.0266 44 76.3919 43.706 75.9719 43.118C75.5053 43.8927 74.7959 44.28 73.8439 44.28C72.8826 44.28 72.1733 43.8973 71.7159 43.132C71.2866 43.7107 70.6473 44 69.7979 44H69.1959V43.132H69.6859C70.7126 43.132 71.2259 42.6 71.2259 41.536V41.06C71.2259 39.9867 71.4873 39.1653 72.0099 38.596C72.4673 38.092 73.0786 37.84 73.8439 37.84C74.7213 37.84 75.3886 38.1667 75.8459 38.82C76.2473 39.38 76.4479 40.1267 76.4479 41.06V41.536C76.4479 42.6 76.9659 43.132 78.0019 43.132ZM73.8439 43.412C74.3573 43.412 74.7633 43.202 75.0619 42.782C75.3606 42.3527 75.5099 41.774 75.5099 41.046C75.5099 39.478 74.9546 38.694 73.8439 38.694C72.7239 38.694 72.1639 39.478 72.1639 41.046C72.1639 42.6233 72.7239 43.412 73.8439 43.412ZM78.192 44V43.132H78.584C79.648 43.132 80.18 42.5813 80.18 41.48V35.46L81.118 34.97V41.494C81.118 42.2873 80.8847 42.9127 80.418 43.37C79.9794 43.79 79.4007 44 78.682 44H78.192ZM83.6389 44V35.46L84.5769 34.97V44H83.6389ZM98.9872 43.132H99.4772V44H98.8752C98.2778 44 97.7785 43.8507 97.3772 43.552C97.3025 44.5413 96.9058 45.3207 96.1872 45.89C95.5432 46.4033 94.7312 46.66 93.7512 46.66C92.5378 46.66 91.6045 46.2447 90.9512 45.414C90.4378 44.77 90.1812 44 90.1812 43.104C90.1812 42.292 90.3865 41.606 90.7972 41.046L91.7212 40.836C91.2638 41.508 91.0352 42.2453 91.0352 43.048C91.0352 43.8693 91.3012 44.5413 91.8332 45.064C92.3372 45.5587 92.9765 45.806 93.7512 45.806C94.6472 45.806 95.3425 45.5353 95.8372 44.994C96.2572 44.546 96.4672 43.9627 96.4672 43.244V35.46L97.3912 34.97V41.55V41.578C97.3912 42.614 97.9232 43.132 98.9872 43.132ZM103.7 43.132H104.19V44H103.588C102.748 44 102.118 43.7153 101.698 43.146C101.259 43.7153 100.625 44 99.794 44H99.192V43.132H99.682C100.709 43.132 101.222 42.6 101.222 41.536V38.498L102.16 38.008V41.536C102.16 42.6 102.673 43.132 103.7 43.132ZM101.544 45.47C101.908 45.47 102.09 45.6567 102.09 46.03C102.09 46.422 101.908 46.618 101.544 46.618C101.161 46.618 100.97 46.422 100.97 46.03C100.97 45.6567 101.161 45.47 101.544 45.47ZM107.339 36.202C106.956 36.202 106.765 36.006 106.765 35.614C106.765 35.2407 106.956 35.054 107.339 35.054C107.703 35.054 107.885 35.2407 107.885 35.614C107.885 36.006 107.703 36.202 107.339 36.202ZM108.935 36.202C108.552 36.202 108.361 36.006 108.361 35.614C108.361 35.2407 108.552 35.054 108.935 35.054C109.299 35.054 109.481 35.2407 109.481 35.614C109.481 36.006 109.299 36.202 108.935 36.202ZM103.909 44V43.132H106.289C105.775 42.6187 105.519 41.8813 105.519 40.92C105.519 39.912 105.78 39.1327 106.303 38.582C106.76 38.0873 107.367 37.84 108.123 37.84C108.897 37.84 109.495 38.0827 109.915 38.568C110.279 38.988 110.461 39.548 110.461 40.248V41.606C110.451 42.362 110.223 42.9547 109.775 43.384C109.364 43.7947 108.804 44 108.095 44H103.909ZM109.537 40.332C109.537 39.24 109.065 38.694 108.123 38.694C107.6 38.694 107.189 38.89 106.891 39.282C106.601 39.6647 106.457 40.206 106.457 40.906C106.457 41.5873 106.597 42.1287 106.877 42.53C107.166 42.9313 107.549 43.132 108.025 43.132C109.033 43.132 109.537 42.6093 109.537 41.564V40.332ZM119.411 37.588C119.029 37.588 118.837 37.392 118.837 37C118.837 36.6267 119.029 36.44 119.411 36.44C119.775 36.44 119.957 36.6267 119.957 37C119.957 37.392 119.775 37.588 119.411 37.588ZM124.591 43.132H125.081V44H124.479C123.901 44 123.42 43.8647 123.037 43.594C122.972 44.574 122.58 45.344 121.861 45.904C121.227 46.408 120.424 46.66 119.453 46.66C118.268 46.66 117.349 46.24 116.695 45.4C116.182 44.756 115.925 43.986 115.925 43.09C115.925 42.2873 116.131 41.5967 116.541 41.018L117.451 40.836C117.003 41.5173 116.779 42.2453 116.779 43.02C116.779 43.8413 117.045 44.518 117.577 45.05C118.072 45.5447 118.697 45.792 119.453 45.792C120.34 45.792 121.026 45.5307 121.511 45.008C121.913 44.5787 122.113 44.014 122.113 43.314V38.498L123.051 38.008V41.536C123.051 42.6 123.565 43.132 124.591 43.132ZM126.829 40.248C126.829 39.4547 127.067 38.8387 127.543 38.4C127.954 38.0267 128.495 37.84 129.167 37.84C130.035 37.84 130.703 38.1573 131.169 38.792C131.571 39.3333 131.771 40.0427 131.771 40.92C131.771 41.9187 131.515 42.698 131.001 43.258C130.553 43.7527 129.97 44 129.251 44C128.374 44 127.721 43.72 127.291 43.16C126.871 43.72 126.241 44 125.401 44H124.799V43.132H125.289C126.316 43.132 126.829 42.6 126.829 41.536V40.248ZM127.767 41.592C127.767 42.6187 128.271 43.132 129.279 43.132C129.765 43.132 130.147 42.936 130.427 42.544C130.707 42.152 130.847 41.606 130.847 40.906C130.847 40.2153 130.698 39.674 130.399 39.282C130.11 38.89 129.699 38.694 129.167 38.694C128.234 38.694 127.767 39.24 127.767 40.332V41.592ZM141.161 37.49C140.788 37.49 140.601 37.294 140.601 36.902C140.601 36.5287 140.788 36.342 141.161 36.342C141.535 36.342 141.721 36.5287 141.721 36.902C141.721 37.294 141.535 37.49 141.161 37.49ZM142.771 37.49C142.389 37.49 142.197 37.294 142.197 36.902C142.197 36.5287 142.389 36.342 142.771 36.342C143.135 36.342 143.317 36.5287 143.317 36.902C143.317 37.294 143.135 37.49 142.771 37.49ZM148.637 43.132H149.127V44H148.525C147.685 44 147.055 43.7153 146.635 43.146C146.197 43.7153 145.557 44 144.717 44H139.719C139.029 44 138.478 43.7853 138.067 43.356C137.657 42.9173 137.451 42.3293 137.451 41.592V39.758L138.389 39.268V41.48C138.389 42.5813 138.903 43.132 139.929 43.132H144.619C145.646 43.132 146.159 42.5813 146.159 41.48V38.498L147.097 38.008V41.536C147.097 42.6 147.611 43.132 148.637 43.132ZM151.991 36.202C151.609 36.202 151.417 36.006 151.417 35.614C151.417 35.2407 151.609 35.054 151.991 35.054C152.355 35.054 152.537 35.2407 152.537 35.614C152.537 36.006 152.355 36.202 151.991 36.202ZM153.587 36.202C153.205 36.202 153.013 36.006 153.013 35.614C153.013 35.2407 153.205 35.054 153.587 35.054C153.951 35.054 154.133 35.2407 154.133 35.614C154.133 36.006 153.951 36.202 153.587 36.202ZM148.561 44V43.132H150.941C150.428 42.6187 150.171 41.8813 150.171 40.92C150.171 39.912 150.433 39.1327 150.955 38.582C151.413 38.0873 152.019 37.84 152.775 37.84C153.55 37.84 154.147 38.0827 154.567 38.568C154.931 38.988 155.113 39.548 155.113 40.248V41.606C155.104 42.362 154.875 42.9547 154.427 43.384C154.017 43.7947 153.457 44 152.747 44H148.561ZM154.189 40.332C154.189 39.24 153.718 38.694 152.775 38.694C152.253 38.694 151.842 38.89 151.543 39.282C151.254 39.6647 151.109 40.206 151.109 40.906C151.109 41.5873 151.249 42.1287 151.529 42.53C151.819 42.9313 152.201 43.132 152.677 43.132C153.685 43.132 154.189 42.6093 154.189 41.564V40.332ZM163.64 43.132V44H162.156C162.147 44.616 161.946 45.1573 161.554 45.624C161.172 46.1 160.672 46.4127 160.056 46.562C159.832 46.6273 159.59 46.66 159.328 46.66C158.787 46.66 158.26 46.5293 157.746 46.268V45.442C158.232 45.7033 158.712 45.834 159.188 45.834C159.571 45.834 159.907 45.75 160.196 45.582C160.486 45.4327 160.728 45.204 160.924 44.896C161.12 44.5973 161.218 44.2987 161.218 44L160.028 43.958C158.992 43.9113 158.218 43.5847 157.704 42.978C157.284 42.4647 157.074 41.7787 157.074 40.92C157.074 39.912 157.336 39.1327 157.858 38.582C158.325 38.0873 158.95 37.84 159.734 37.84C160.546 37.84 161.167 38.0827 161.596 38.568C161.97 38.988 162.156 39.548 162.156 40.248V43.132H163.64ZM161.218 40.346C161.218 39.2447 160.724 38.694 159.734 38.694C159.184 38.694 158.754 38.89 158.446 39.282C158.148 39.6647 157.998 40.206 157.998 40.906C157.998 42.2967 158.684 43.0247 160.056 43.09C160.467 43.118 160.854 43.132 161.218 43.132V40.346ZM163.354 44V43.132H163.746C164.81 43.132 165.342 42.5813 165.342 41.48V35.46L166.28 34.97V41.494C166.28 42.2873 166.047 42.9127 165.58 43.37C165.141 43.79 164.563 44 163.844 44H163.354ZM168.801 44V35.46L169.739 34.97V44H168.801ZM1.19859 78L2.08059 76.306H4.29259C4.76859 76.306 5.00659 76.0307 5.00659 75.48C5.00659 74.4533 4.51193 73.6647 3.52259 73.114L4.39059 71.616C5.84659 72.4653 6.63059 73.618 6.74259 75.074C6.77993 75.5407 6.88259 75.8627 7.05059 76.04C7.22793 76.2173 7.52659 76.306 7.94659 76.306H9.01059V78H7.84859C7.15793 78 6.57459 77.8087 6.09859 77.426C5.75326 77.8087 5.25859 78 4.61459 78H1.19859ZM8.1718 78V76.306H10.2578C11.9005 76.306 13.2071 75.816 14.1778 74.836C13.5431 73.7253 12.7731 73.17 11.8678 73.17C11.1211 73.17 10.3045 73.576 9.4178 74.388V72.834C10.2018 71.9753 11.0885 71.546 12.0778 71.546C12.8058 71.546 13.5151 71.812 14.2058 72.344C14.8965 72.876 15.5078 73.632 16.0398 74.612V75.312C15.3678 76.1707 14.5278 76.8333 13.5198 77.3C12.5211 77.7667 11.4291 78 10.2438 78H8.1718ZM18.0002 78V69.908L19.7642 68.97V78H18.0002ZM25.4435 77.594C25.1542 77.65 24.8555 77.678 24.5475 77.678C23.6889 77.678 23.0029 77.356 22.4895 76.712C22.0695 76.1707 21.8595 75.5173 21.8595 74.752C21.8595 73.7253 22.1395 72.918 22.6995 72.33C23.1942 71.8073 23.8475 71.546 24.6595 71.546C25.4902 71.546 26.1389 71.812 26.6055 72.344C27.0069 72.8013 27.2075 73.3987 27.2075 74.136V77.132C27.2075 78.2333 26.9182 79.1013 26.3395 79.736C25.7982 80.3333 25.0609 80.632 24.1275 80.632C23.5395 80.632 22.9655 80.4733 22.4055 80.156V78.63C22.9095 78.9193 23.4135 79.064 23.9175 79.064C24.8229 79.064 25.3315 78.574 25.4435 77.594ZM25.4575 74.108C25.4575 73.492 25.1915 73.184 24.6595 73.184C24.3235 73.184 24.0575 73.3193 23.8615 73.59C23.6749 73.8607 23.5815 74.2293 23.5815 74.696C23.5815 75.6853 23.9362 76.18 24.6455 76.18C25.0189 76.18 25.2895 76.0867 25.4575 75.9V74.108ZM41.2453 69.894L42.9953 68.97V75.396C42.9953 76.2453 42.7293 76.908 42.1973 77.384C41.7399 77.7947 41.1473 78 40.4193 78H35.4213C34.6279 78 34.0073 77.734 33.5593 77.202C33.1579 76.7353 32.9573 76.1333 32.9573 75.396V73.968L34.7073 73.044V75.284C34.7073 75.6573 34.7819 75.9233 34.9313 76.082C35.0899 76.2313 35.3466 76.306 35.7013 76.306H40.2653C40.6199 76.306 40.8719 76.2267 41.0213 76.068C41.1706 75.9093 41.2453 75.648 41.2453 75.284V69.894ZM38.3473 71C39.0193 71.112 39.3553 71.5087 39.3553 72.19C39.3553 72.9553 38.9866 73.338 38.2493 73.338H36.1773L36.6113 72.526H38.1653C38.4173 72.526 38.5433 72.4 38.5433 72.148C38.5433 71.8307 38.3333 71.672 37.9133 71.672C37.6333 71.672 37.3719 71.7467 37.1293 71.896V71.196L38.3333 69.866H39.3553L38.3473 71ZM49.0357 76.306H50.2957V78H48.8677C48.5504 78 48.2564 77.958 47.9857 77.874C47.8644 78.77 47.5051 79.4793 46.9077 80.002C46.3664 80.4687 45.7177 80.702 44.9617 80.702C44.3737 80.702 43.7997 80.5527 43.2397 80.254V78.714C43.7251 78.9847 44.2011 79.12 44.6677 79.12C45.1811 79.12 45.5777 78.952 45.8577 78.616C46.1471 78.2893 46.2917 77.832 46.2917 77.244V72.708L47.4397 72.106L48.0417 71.784V71.798L48.0557 71.784V75.298C48.0557 75.662 48.1304 75.9233 48.2797 76.082C48.4291 76.2313 48.6811 76.306 49.0357 76.306ZM50.7909 70.552C50.5109 70.552 50.2869 70.468 50.1189 70.3C49.9509 70.132 49.8669 69.9033 49.8669 69.614C49.8669 69.3433 49.9509 69.124 50.1189 68.956C50.2869 68.788 50.5109 68.704 50.7909 68.704C51.0709 68.704 51.2902 68.788 51.4489 68.956C51.6169 69.1147 51.7009 69.334 51.7009 69.614C51.7009 70.2393 51.3975 70.552 50.7909 70.552ZM52.9329 70.552C52.6529 70.552 52.4289 70.468 52.2609 70.3C52.0929 70.1227 52.0089 69.894 52.0089 69.614C52.0089 69.3433 52.0929 69.124 52.2609 68.956C52.4382 68.788 52.6622 68.704 52.9329 68.704C53.2129 68.704 53.4322 68.788 53.5909 68.956C53.7589 69.1147 53.8429 69.334 53.8429 69.614C53.8429 70.2393 53.5395 70.552 52.9329 70.552ZM54.4449 76.306H55.7049V78H54.2769C53.5955 78 53.0309 77.818 52.5829 77.454C52.1349 77.818 51.5702 78 50.8889 78H49.4609V76.306H50.7209C51.0755 76.306 51.3275 76.2313 51.4769 76.082C51.6262 75.9233 51.7009 75.662 51.7009 75.298V72.708L53.4649 71.784V75.298C53.4649 75.662 53.5395 75.9233 53.6889 76.082C53.8382 76.2313 54.0902 76.306 54.4449 76.306ZM62.8133 68.494C62.2533 68.494 61.9733 68.2093 61.9733 67.64C61.9733 67.0893 62.2533 66.814 62.8133 66.814C63.3639 66.814 63.6393 67.0893 63.6393 67.64C63.6393 68.2093 63.3639 68.494 62.8133 68.494ZM61.7493 70.552C61.4693 70.552 61.2453 70.468 61.0773 70.3C60.9093 70.132 60.8253 69.9033 60.8253 69.614C60.8253 69.3433 60.9093 69.124 61.0773 68.956C61.2453 68.788 61.4693 68.704 61.7493 68.704C62.0293 68.704 62.2486 68.788 62.4073 68.956C62.5753 69.1147 62.6593 69.334 62.6593 69.614C62.6593 70.2393 62.3559 70.552 61.7493 70.552ZM63.9053 70.552C63.6253 70.552 63.4013 70.468 63.2333 70.3C63.0653 70.132 62.9813 69.9033 62.9813 69.614C62.9813 69.3433 63.0653 69.124 63.2333 68.956C63.4013 68.788 63.6253 68.704 63.9053 68.704C64.1853 68.704 64.4046 68.788 64.5633 68.956C64.7313 69.1147 64.8153 69.334 64.8153 69.614C64.8153 70.2393 64.5119 70.552 63.9053 70.552ZM54.8612 78V76.306H56.3453C56.6999 76.306 56.9519 76.2313 57.1013 76.082C57.2599 75.9233 57.3392 75.662 57.3392 75.298V73.45L59.1033 72.526V75.298C59.1033 75.662 59.1779 75.9233 59.3273 76.082C59.4766 76.2313 59.7286 76.306 60.0833 76.306H61.0353C61.3899 76.306 61.6419 76.2313 61.7913 76.082C61.9406 75.9233 62.0153 75.662 62.0153 75.298V73.086L63.7793 72.148V75.298C63.7793 75.662 63.8539 75.9233 64.0033 76.082C64.1619 76.2313 64.4186 76.306 64.7733 76.306H65.7253C66.0799 76.306 66.3319 76.2313 66.4813 76.082C66.6306 75.9233 66.7053 75.662 66.7053 75.298V72.708L68.4693 71.784V75.074C68.4693 75.522 68.5579 75.8393 68.7353 76.026C68.9219 76.2127 69.2299 76.306 69.6593 76.306H70.9473V78H69.5613C68.7773 78 68.1473 77.776 67.6713 77.328C67.2513 77.7667 66.6866 77.9907 65.9773 78H64.5913C63.9006 78 63.3359 77.7947 62.8973 77.384C62.4959 77.7853 61.9639 77.9907 61.3013 78H59.9153C59.2246 78 58.6599 77.7947 58.2213 77.384C57.7826 77.7947 57.2179 78 56.5273 78H54.8612ZM72.3454 74.136C72.3454 73.296 72.6067 72.638 73.1294 72.162C73.5867 71.7513 74.1747 71.546 74.8934 71.546C75.8174 71.546 76.5361 71.8867 77.0494 72.568C77.4881 73.1373 77.7074 73.87 77.7074 74.766C77.7074 75.802 77.4321 76.6187 76.8814 77.216C76.3867 77.7387 75.7567 78 74.9914 78C74.2447 78 73.6334 77.8367 73.1574 77.51C72.7094 77.8367 72.1681 78 71.5334 78H70.1054V76.306H71.3654C71.7201 76.306 71.9721 76.2313 72.1214 76.082C72.2707 75.9233 72.3454 75.662 72.3454 75.298V74.136ZM74.1094 75.522C74.1094 76.0447 74.3847 76.306 74.9354 76.306C75.6261 76.306 75.9714 75.774 75.9714 74.71C75.9714 73.6927 75.6121 73.184 74.8934 73.184C74.3707 73.184 74.1094 73.492 74.1094 74.108V75.522ZM84.5551 74.08C84.5551 74.0893 84.5551 74.0987 84.5551 74.108C84.5551 74.5093 84.3638 74.71 83.9811 74.71C83.5798 74.71 83.3791 74.5047 83.3791 74.094C83.3978 73.7113 83.5985 73.52 83.9811 73.52C84.3638 73.52 84.5551 73.7067 84.5551 74.08ZM84.5551 77.44C84.5551 77.4493 84.5551 77.4587 84.5551 77.468C84.5551 77.8693 84.3638 78.07 83.9811 78.07C83.5798 78.07 83.3791 77.8647 83.3791 77.454C83.3978 77.0713 83.5985 76.88 83.9811 76.88C84.3638 76.88 84.5551 77.0667 84.5551 77.44ZM87.854 70.09C87.4713 70.09 87.28 69.894 87.28 69.502C87.28 69.1287 87.4713 68.942 87.854 68.942C88.218 68.942 88.4 69.1287 88.4 69.502C88.4 69.894 88.218 70.09 87.854 70.09ZM89.45 70.09C89.0673 70.09 88.876 69.894 88.876 69.502C88.876 69.1287 89.0673 68.942 89.45 68.942C89.814 68.942 89.996 69.1287 89.996 69.502C89.996 69.894 89.814 70.09 89.45 70.09ZM92.166 77.132H92.642V78H92.04C91.0413 78 90.346 77.608 89.954 76.824C89.4687 77.328 88.8713 77.58 88.162 77.58C87.3593 77.58 86.7247 77.2767 86.258 76.67C85.866 76.1567 85.67 75.5173 85.67 74.752C85.67 73.856 85.9313 73.1373 86.454 72.596C86.9113 72.12 87.476 71.882 88.148 71.882C88.7547 71.882 89.2633 72.0593 89.674 72.414V71.658L90.612 71.168V75.536C90.612 76.6 91.13 77.132 92.166 77.132ZM89.674 73.478C89.2633 72.9833 88.764 72.736 88.176 72.736C87.7093 72.736 87.3267 72.9273 87.028 73.31C86.7387 73.6833 86.594 74.1687 86.594 74.766C86.594 75.3727 86.7387 75.858 87.028 76.222C87.3267 76.586 87.714 76.768 88.19 76.768C88.7967 76.768 89.3007 76.502 89.702 75.97C89.6833 75.802 89.674 75.6667 89.674 75.564V73.478ZM99.5241 77.132V78H92.3561V77.132H94.7081C94.1201 76.5347 93.8261 75.7413 93.8261 74.752C93.8261 73.8093 94.1481 73.0627 94.7921 72.512C95.3054 72.0733 95.9074 71.8493 96.5981 71.84C97.5594 71.84 98.3108 72.218 98.8521 72.974V73.898C98.2921 73.0953 97.5734 72.694 96.6961 72.694H96.6541C96.0941 72.694 95.6368 72.8853 95.2821 73.268C94.9368 73.6507 94.7641 74.1547 94.7641 74.78C94.7641 75.4987 94.9788 76.0727 95.4081 76.502C95.8188 76.922 96.3694 77.132 97.0601 77.132H99.5241ZM107.627 77.132V78H106.143C106.133 78.616 105.933 79.1573 105.541 79.624C105.158 80.1 104.659 80.4127 104.043 80.562C103.819 80.6273 103.576 80.66 103.315 80.66C102.773 80.66 102.246 80.5293 101.733 80.268V79.442C102.218 79.7033 102.699 79.834 103.175 79.834C103.557 79.834 103.893 79.75 104.183 79.582C104.472 79.4327 104.715 79.204 104.911 78.896C105.107 78.5973 105.205 78.2987 105.205 78L104.015 77.958C102.979 77.9113 102.204 77.5847 101.691 76.978C101.271 76.4647 101.061 75.7787 101.061 74.92C101.061 73.912 101.322 73.1327 101.845 72.582C102.311 72.0873 102.937 71.84 103.721 71.84C104.533 71.84 105.153 72.0827 105.583 72.568C105.956 72.988 106.143 73.548 106.143 74.248V77.132H107.627ZM105.205 74.346C105.205 73.2447 104.71 72.694 103.721 72.694C103.17 72.694 102.741 72.89 102.433 73.282C102.134 73.6647 101.985 74.206 101.985 74.906C101.985 76.2967 102.671 77.0247 104.043 77.09C104.453 77.118 104.841 77.132 105.205 77.132V74.346ZM116.146 77.132H116.622V78H116.02C115.171 78 114.536 77.706 114.116 77.118C113.65 77.8927 112.94 78.28 111.988 78.28C111.027 78.28 110.318 77.8973 109.86 77.132C109.431 77.7107 108.792 78 107.942 78H107.34V77.132H107.83C108.857 77.132 109.37 76.6 109.37 75.536V75.06C109.37 73.9867 109.632 73.1653 110.154 72.596C110.612 72.092 111.223 71.84 111.988 71.84C112.866 71.84 113.533 72.1667 113.99 72.82C114.392 73.38 114.592 74.1267 114.592 75.06V75.536C114.592 76.6 115.11 77.132 116.146 77.132ZM111.988 77.412C112.502 77.412 112.908 77.202 113.206 76.782C113.505 76.3527 113.654 75.774 113.654 75.046C113.654 73.478 113.099 72.694 111.988 72.694C110.868 72.694 110.308 73.478 110.308 75.046C110.308 76.6233 110.868 77.412 111.988 77.412ZM125.185 77.132H125.675V78H125.171C124.396 78 123.775 77.9113 123.309 77.734C122.851 77.5567 122.427 77.244 122.035 76.796C120.84 77.5987 119.459 78 117.891 78H116.337V77.132H117.905C119.939 77.132 121.526 76.4413 122.665 75.06C121.834 73.4733 120.831 72.68 119.655 72.68C118.852 72.68 118.068 73.086 117.303 73.898V72.974C118.068 72.218 118.866 71.84 119.697 71.84H119.725C121.19 71.84 122.459 72.8293 123.533 74.808V75.382C123.243 75.7553 122.935 76.0773 122.609 76.348C122.907 76.6373 123.243 76.8427 123.617 76.964C123.999 77.076 124.522 77.132 125.185 77.132ZM120.033 79.47C120.397 79.47 120.579 79.6567 120.579 80.03C120.579 80.422 120.397 80.618 120.033 80.618C119.65 80.618 119.459 80.422 119.459 80.03C119.459 79.6567 119.65 79.47 120.033 79.47ZM134.207 77.132H134.683V78H134.081C133.232 78 132.597 77.706 132.177 77.118C131.71 77.8927 131.001 78.28 130.049 78.28C129.088 78.28 128.378 77.8973 127.921 77.132C127.492 77.7107 126.852 78 126.003 78H125.401V77.132H125.891C126.918 77.132 127.431 76.6 127.431 75.536V75.06C127.431 73.9867 127.692 73.1653 128.215 72.596C128.672 72.092 129.284 71.84 130.049 71.84C130.926 71.84 131.594 72.1667 132.051 72.82C132.452 73.38 132.653 74.1267 132.653 75.06V75.536C132.653 76.6 133.171 77.132 134.207 77.132ZM130.049 77.412C130.562 77.412 130.968 77.202 131.267 76.782C131.566 76.3527 131.715 75.774 131.715 75.046C131.715 73.478 131.16 72.694 130.049 72.694C128.929 72.694 128.369 73.478 128.369 75.046C128.369 76.6233 128.929 77.412 130.049 77.412ZM134.397 78V77.132H134.789C135.853 77.132 136.385 76.5813 136.385 75.48V69.46L137.323 68.97V75.494C137.323 76.2873 137.09 76.9127 136.623 77.37C136.184 77.79 135.606 78 134.887 78H134.397ZM139.844 78V69.46L140.782 68.97V78H139.844ZM153.848 77.132H154.324V78H153.722C152.892 78 152.266 77.72 151.846 77.16C151.417 77.7107 150.782 77.9907 149.942 78H148.164C147.138 78 146.624 78.532 146.624 79.596V81.92L145.686 82.41V79.568C145.686 78.7933 145.915 78.1867 146.372 77.748C146.783 77.3467 147.329 77.1413 148.01 77.132C147.572 76.572 147.352 75.8347 147.352 74.92C147.352 73.912 147.614 73.1327 148.136 72.582C148.594 72.0873 149.2 71.84 149.956 71.84C150.731 71.84 151.328 72.0827 151.748 72.568C152.112 72.988 152.294 73.548 152.294 74.248V75.536C152.294 76.6 152.812 77.132 153.848 77.132ZM151.356 75.592V74.332C151.356 73.24 150.89 72.694 149.956 72.694C149.424 72.694 149.009 72.89 148.71 73.282C148.421 73.674 148.276 74.2153 148.276 74.906C148.276 75.606 148.416 76.152 148.696 76.544C148.976 76.936 149.364 77.132 149.858 77.132C150.857 77.132 151.356 76.6187 151.356 75.592ZM162.892 77.132H163.382V78H162.878C162.103 78 161.482 77.9113 161.016 77.734C160.558 77.5567 160.134 77.244 159.742 76.796C158.547 77.5987 157.166 78 155.598 78H154.044V77.132H155.612C157.646 77.132 159.233 76.4413 160.372 75.06C159.541 73.4733 158.538 72.68 157.362 72.68C156.559 72.68 155.775 73.086 155.01 73.898V72.974C155.775 72.218 156.573 71.84 157.404 71.84H157.432C158.897 71.84 160.166 72.8293 161.24 74.808V75.382C160.95 75.7553 160.642 76.0773 160.316 76.348C160.614 76.6373 160.95 76.8427 161.324 76.964C161.706 77.076 162.229 77.132 162.892 77.132ZM157.74 79.47C158.104 79.47 158.286 79.6567 158.286 80.03C158.286 80.422 158.104 80.618 157.74 80.618C157.357 80.618 157.166 80.422 157.166 80.03C157.166 79.6567 157.357 79.47 157.74 79.47ZM163.108 78V77.132H164.676C166.711 77.132 168.297 76.4413 169.436 75.06C168.605 73.4733 167.602 72.68 166.426 72.68C165.623 72.68 164.839 73.086 164.074 73.898V72.974C164.839 72.218 165.637 71.84 166.468 71.84H166.496C167.961 71.84 169.231 72.8293 170.304 74.808V75.382C168.941 77.1273 167.061 78 164.662 78H163.108ZM7.51883 88.49C7.1455 88.49 6.95883 88.294 6.95883 87.902C6.95883 87.5287 7.1455 87.342 7.51883 87.342C7.89216 87.342 8.07883 87.5287 8.07883 87.902C8.07883 88.294 7.89216 88.49 7.51883 88.49ZM9.12883 88.49C8.74616 88.49 8.55483 88.294 8.55483 87.902C8.55483 87.5287 8.74616 87.342 9.12883 87.342C9.49283 87.342 9.67483 87.5287 9.67483 87.902C9.67483 88.294 9.49283 88.49 9.12883 88.49ZM6.07683 95C5.38616 95 4.83549 94.7853 4.42483 94.356C4.01416 93.9173 3.80883 93.3293 3.80883 92.592V90.758L4.74683 90.268V92.48C4.74683 93.5813 5.26016 94.132 6.28683 94.132H10.9768C12.0035 94.132 12.5168 93.5813 12.5168 92.48V89.498L13.4548 89.008V92.592C13.4548 93.3853 13.2122 94.0013 12.7268 94.44C12.3068 94.8133 11.7562 95 11.0748 95H6.07683ZM18.3428 95C17.5495 95 16.9381 94.7433 16.5088 94.23C16.1541 93.7913 15.9768 93.236 15.9768 92.564V86.46L16.9148 85.97V92.536C16.9148 93.6 17.4281 94.132 18.4548 94.132H18.9448V95H18.3428ZM25.8327 94.132V95H18.6647V94.132H21.0167C20.4287 93.5347 20.1347 92.7413 20.1347 91.752C20.1347 90.8093 20.4567 90.0627 21.1007 89.512C21.614 89.0733 22.216 88.8493 22.9067 88.84C23.868 88.84 24.6194 89.218 25.1607 89.974V90.898C24.6007 90.0953 23.882 89.694 23.0047 89.694H22.9627C22.4027 89.694 21.9454 89.8853 21.5907 90.268C21.2454 90.6507 21.0727 91.1547 21.0727 91.78C21.0727 92.4987 21.2874 93.0727 21.7167 93.502C22.1274 93.922 22.678 94.132 23.3687 94.132H25.8327ZM30.1553 95C29.362 95 28.7506 94.7433 28.3213 94.23C27.9666 93.7913 27.7893 93.236 27.7893 92.564V86.46L28.7273 85.97V92.536C28.7273 93.6 29.2406 94.132 30.2673 94.132H30.7573V95H30.1553ZM30.4772 95V94.132H31.3312C32.3672 94.132 32.8852 93.6 32.8852 92.536V90.52L33.8232 90.03V92.536C33.8232 93.6 34.3365 94.132 35.3632 94.132H35.8812C36.9079 94.132 37.4212 93.6 37.4212 92.536V90.016L38.3592 89.512V92.536C38.3592 93.6 38.8772 94.132 39.9132 94.132H40.4172C41.4532 94.132 41.9712 93.6 41.9712 92.536V89.498L42.9092 89.008V92.564C42.9092 93.3387 42.6805 93.9453 42.2232 94.384C41.8125 94.7853 41.2572 94.9907 40.5572 95H39.7872C38.9192 95 38.2892 94.692 37.8972 94.076C37.4959 94.692 36.8705 95 36.0212 95H35.2512C34.3832 95 33.7485 94.692 33.3472 94.076C32.9552 94.692 32.3252 95 31.4572 95H30.4772ZM49.9373 89.638C50.2546 89.3487 50.726 89.204 51.3513 89.204C52.1913 89.204 52.8633 89.4467 53.3673 89.932C53.89 90.436 54.1513 91.1687 54.1513 92.13C54.1513 92.942 53.8853 93.6467 53.3533 94.244C52.8026 94.86 52.0606 95.168 51.1273 95.168C49.9046 95.168 49.0413 94.6313 48.5373 93.558C48.22 92.8767 48.0613 92.0133 48.0613 90.968C48.0613 87.636 49.1953 85.97 51.4633 85.97C51.8926 85.97 52.3266 86.054 52.7653 86.222C53.2133 86.3807 53.568 86.586 53.8293 86.838L53.1993 87.986C52.5833 87.6873 52.0233 87.538 51.5193 87.538C51.0433 87.538 50.6606 87.7293 50.3713 88.112C50.082 88.4947 49.9373 89.0033 49.9373 89.638ZM49.9233 90.94C49.97 91.9107 50.0493 92.5733 50.1613 92.928C50.3386 93.4693 50.6513 93.74 51.0993 93.74C51.4073 93.74 51.6733 93.5813 51.8973 93.264C52.1213 92.9467 52.2333 92.5687 52.2333 92.13C52.2333 91.0567 51.804 90.52 50.9453 90.52C50.544 90.52 50.2033 90.66 49.9233 90.94ZM60.5747 91.08C60.5747 91.0893 60.5747 91.0987 60.5747 91.108C60.5747 91.5093 60.3833 91.71 60.0007 91.71C59.5993 91.71 59.3987 91.5047 59.3987 91.094C59.4173 90.7113 59.618 90.52 60.0007 90.52C60.3833 90.52 60.5747 90.7067 60.5747 91.08ZM60.5747 94.44C60.5747 94.4493 60.5747 94.4587 60.5747 94.468C60.5747 94.8693 60.3833 95.07 60.0007 95.07C59.5993 95.07 59.3987 94.8647 59.3987 94.454C59.4173 94.0713 59.618 93.88 60.0007 93.88C60.3833 93.88 60.5747 94.0667 60.5747 94.44ZM63.8735 87.09C63.4909 87.09 63.2995 86.894 63.2995 86.502C63.2995 86.1287 63.4909 85.942 63.8735 85.942C64.2375 85.942 64.4195 86.1287 64.4195 86.502C64.4195 86.894 64.2375 87.09 63.8735 87.09ZM65.4695 87.09C65.0869 87.09 64.8955 86.894 64.8955 86.502C64.8955 86.1287 65.0869 85.942 65.4695 85.942C65.8335 85.942 66.0155 86.1287 66.0155 86.502C66.0155 86.894 65.8335 87.09 65.4695 87.09ZM68.1855 94.132H68.6615V95H68.0595C67.0609 95 66.3655 94.608 65.9735 93.824C65.4882 94.328 64.8909 94.58 64.1815 94.58C63.3789 94.58 62.7442 94.2767 62.2775 93.67C61.8855 93.1567 61.6895 92.5173 61.6895 91.752C61.6895 90.856 61.9509 90.1373 62.4735 89.596C62.9309 89.12 63.4955 88.882 64.1675 88.882C64.7742 88.882 65.2829 89.0593 65.6935 89.414V88.658L66.6315 88.168V92.536C66.6315 93.6 67.1495 94.132 68.1855 94.132ZM65.6935 90.478C65.2829 89.9833 64.7835 89.736 64.1955 89.736C63.7289 89.736 63.3462 89.9273 63.0475 90.31C62.7582 90.6833 62.6135 91.1687 62.6135 91.766C62.6135 92.3727 62.7582 92.858 63.0475 93.222C63.3462 93.586 63.7335 93.768 64.2095 93.768C64.8162 93.768 65.3202 93.502 65.7215 92.97C65.7029 92.802 65.6935 92.6667 65.6935 92.564V90.478ZM72.8836 94.132H73.3736V95H72.7716C71.9316 95 71.3016 94.7153 70.8816 94.146C70.443 94.7153 69.8083 95 68.9776 95H68.3756V94.132H68.8656C69.8923 94.132 70.4056 93.6 70.4056 92.536V89.498L71.3436 89.008V92.536C71.3436 93.6 71.857 94.132 72.8836 94.132ZM69.7056 96.47C70.079 96.47 70.2656 96.6613 70.2656 97.044C70.2656 97.4267 70.079 97.618 69.7056 97.618C69.3323 97.618 69.1456 97.4267 69.1456 97.044C69.1456 96.6613 69.3323 96.47 69.7056 96.47ZM71.3016 96.47C71.675 96.47 71.8616 96.6613 71.8616 97.044C71.8616 97.4267 71.675 97.618 71.3016 97.618C70.9283 97.618 70.7416 97.4267 70.7416 97.044C70.7416 96.6613 70.9283 96.47 71.3016 96.47ZM77.5584 94.132H78.0484V95H77.4464C76.5878 95 75.9484 94.706 75.5284 94.118C75.0898 94.706 74.4411 95 73.5824 95H73.0924V94.132H73.4844C74.5484 94.132 75.0804 93.5813 75.0804 92.48V86.46L76.0184 85.97V92.536C76.0184 93.6 76.5318 94.132 77.5584 94.132ZM85.2022 94.132H85.5522V95H85.0902C84.2502 95 83.6202 94.7153 83.2002 94.146C82.7802 94.7153 82.1455 95 81.2962 95H77.7682V94.132H81.1982C82.2155 94.132 82.7242 93.586 82.7242 92.494V92.354C82.7242 91.5887 82.4442 91.0147 81.8842 90.632C81.4362 90.3147 80.8762 90.156 80.2042 90.156C79.7002 90.156 79.2009 90.2447 78.7062 90.422V89.498L81.8842 85.97H82.8502L79.9802 89.218C80.0735 89.2087 80.1715 89.204 80.2742 89.204C81.1702 89.204 81.9169 89.4327 82.5142 89.89C83.2795 90.478 83.6622 91.2947 83.6622 92.34V92.536C83.6622 93.6 84.1755 94.132 85.2022 94.132ZM85.2741 95V94.132H85.6661C86.7301 94.132 87.2621 93.5813 87.2621 92.48V86.46L88.2001 85.97V92.494C88.2001 93.2873 87.9667 93.9127 87.5001 94.37C87.0614 94.79 86.4827 95 85.7641 95H85.2741ZM90.7209 95V86.46L91.6589 85.97V95H90.7209ZM101.253 88.49C100.88 88.49 100.693 88.294 100.693 87.902C100.693 87.5287 100.88 87.342 101.253 87.342C101.627 87.342 101.813 87.5287 101.813 87.902C101.813 88.294 101.627 88.49 101.253 88.49ZM102.863 88.49C102.481 88.49 102.289 88.294 102.289 87.902C102.289 87.5287 102.481 87.342 102.863 87.342C103.227 87.342 103.409 87.5287 103.409 87.902C103.409 88.294 103.227 88.49 102.863 88.49ZM99.8112 95C99.1205 95 98.5699 94.7853 98.1592 94.356C97.7485 93.9173 97.5432 93.3293 97.5432 92.592V90.758L98.4812 90.268V92.48C98.4812 93.5813 98.9945 94.132 100.021 94.132H104.711C105.738 94.132 106.251 93.5813 106.251 92.48V89.498L107.189 89.008V92.592C107.189 93.3853 106.947 94.0013 106.461 94.44C106.041 94.8133 105.491 95 104.809 95H99.8112ZM112.077 95C111.284 95 110.673 94.7433 110.243 94.23C109.889 93.7913 109.711 93.236 109.711 92.564V86.46L110.649 85.97V92.536C110.649 93.6 111.163 94.132 112.189 94.132H112.679V95H112.077ZM119.567 94.132V95H112.399V94.132H114.751C114.163 93.5347 113.869 92.7413 113.869 91.752C113.869 90.8093 114.191 90.0627 114.835 89.512C115.348 89.0733 115.95 88.8493 116.641 88.84C117.602 88.84 118.354 89.218 118.895 89.974V90.898C118.335 90.0953 117.616 89.694 116.739 89.694H116.697C116.137 89.694 115.68 89.8853 115.325 90.268C114.98 90.6507 114.807 91.1547 114.807 91.78C114.807 92.4987 115.022 93.0727 115.451 93.502C115.862 93.922 116.412 94.132 117.103 94.132H119.567ZM123.89 95C123.096 95 122.485 94.7433 122.056 94.23C121.701 93.7913 121.524 93.236 121.524 92.564V86.46L122.462 85.97V92.536C122.462 93.6 122.975 94.132 124.002 94.132H124.492V95H123.89ZM124.212 95V94.132H125.066C126.102 94.132 126.62 93.6 126.62 92.536V90.52L127.558 90.03V92.536C127.558 93.6 128.071 94.132 129.098 94.132H129.616C130.642 94.132 131.156 93.6 131.156 92.536V90.016L132.094 89.512V92.536C132.094 93.6 132.612 94.132 133.648 94.132H134.152C135.188 94.132 135.706 93.6 135.706 92.536V89.498L136.644 89.008V92.48C136.644 93.5813 137.176 94.132 138.24 94.132H139.052V95H138.142C137.255 95 136.606 94.6873 136.196 94.062C135.785 94.6873 135.15 95 134.292 95H133.522C132.654 95 132.024 94.692 131.632 94.076C131.23 94.692 130.605 95 129.756 95H128.986C128.118 95 127.483 94.692 127.082 94.076C126.69 94.692 126.06 95 125.192 95H124.212ZM138.772 95V94.132H139.164C140.228 94.132 140.76 93.5813 140.76 92.48V86.46L141.698 85.97V92.494C141.698 93.2873 141.465 93.9127 140.998 94.37C140.559 94.79 139.981 95 139.262 95H138.772ZM144.219 95V86.46L145.157 85.97V95H144.219ZM149.921 95L150.369 94.132H153.001C153.431 94.132 153.729 94.0247 153.897 93.81C154.075 93.5953 154.163 93.222 154.163 92.69C154.163 91.3273 153.566 90.3053 152.371 89.624L152.819 88.854C154.341 89.7407 155.101 91.024 155.101 92.704C155.101 94.2347 154.453 95 153.155 95H149.921ZM156.21 95L156.658 94.132H159.29C159.72 94.132 160.018 94.0247 160.186 93.81C160.364 93.5953 160.452 93.222 160.452 92.69C160.452 91.318 159.85 90.296 158.646 89.624L159.108 88.854C160.592 89.7127 161.348 90.9213 161.376 92.48C161.386 93.5813 161.922 94.132 162.986 94.132H163.42V95H162.888C162.076 95 161.456 94.7293 161.026 94.188C160.709 94.7293 160.182 95 159.444 95H156.21ZM170.303 94.132V95H163.135V94.132H165.487C164.899 93.5347 164.605 92.7413 164.605 91.752C164.605 90.8093 164.927 90.0627 165.571 89.512C166.085 89.0733 166.687 88.8493 167.377 88.84C168.339 88.84 169.09 89.218 169.631 89.974V90.898C169.071 90.0953 168.353 89.694 167.475 89.694H167.433C166.873 89.694 166.416 89.8853 166.061 90.268C165.716 90.6507 165.543 91.1547 165.543 91.78C165.543 92.4987 165.758 93.0727 166.187 93.502C166.598 93.922 167.149 94.132 167.839 94.132H170.303ZM130.151 125.08C130.151 125.089 130.151 125.099 130.151 125.108C130.151 125.509 129.96 125.71 129.577 125.71C129.176 125.71 128.975 125.505 128.975 125.094C128.994 124.711 129.194 124.52 129.577 124.52C129.96 124.52 130.151 124.707 130.151 125.08ZM130.151 128.44C130.151 128.449 130.151 128.459 130.151 128.468C130.151 128.869 129.96 129.07 129.577 129.07C129.176 129.07 128.975 128.865 128.975 128.454C128.994 128.071 129.194 127.88 129.577 127.88C129.96 127.88 130.151 128.067 130.151 128.44ZM138.857 128.132H139.347V129H138.745C138.166 129 137.686 128.86 137.303 128.58C137.228 130.129 136.603 131.109 135.427 131.52C135.128 131.623 134.811 131.674 134.475 131.674C133.934 131.674 133.411 131.543 132.907 131.282V130.456C133.383 130.717 133.868 130.848 134.363 130.848C134.755 130.848 135.1 130.759 135.399 130.582C136.052 130.19 136.379 129.457 136.379 128.384V123.498L137.303 123.008V123.022L137.317 123.008V126.536C137.317 127.6 137.83 128.132 138.857 128.132ZM149.069 129H145.611C145.107 129 144.594 128.893 144.071 128.678C143.539 128.893 143.021 129 142.517 129H139.073V128.132H142.461C142.648 128.132 142.839 128.118 143.035 128.09C142.298 127.558 141.495 126.681 140.627 125.458V124.884C141.598 123.521 142.741 122.84 144.057 122.84C145.364 122.84 146.512 123.531 147.501 124.912V125.458C146.633 126.681 145.835 127.558 145.107 128.09C145.294 128.118 145.48 128.132 145.667 128.132H149.055L149.069 129ZM141.439 125.178C142.419 126.485 143.292 127.334 144.057 127.726C144.813 127.334 145.69 126.48 146.689 125.164C145.942 124.184 145.065 123.694 144.057 123.694H144.015C143.063 123.694 142.204 124.189 141.439 125.178ZM148.794 129V128.132H149.648C150.684 128.132 151.202 127.6 151.202 126.536V124.52L152.14 124.03V126.536C152.14 127.6 152.653 128.132 153.68 128.132H154.198C155.224 128.132 155.738 127.6 155.738 126.536V124.016L156.676 123.512V126.536C156.676 127.6 157.194 128.132 158.23 128.132H158.734C159.77 128.132 160.288 127.6 160.288 126.536V123.498L161.226 123.008V126.48C161.226 127.581 161.758 128.132 162.822 128.132H163.634V129H162.724C161.837 129 161.188 128.687 160.778 128.062C160.367 128.687 159.732 129 158.874 129H158.104C157.236 129 156.606 128.692 156.214 128.076C155.812 128.692 155.187 129 154.338 129H153.568C152.7 129 152.065 128.692 151.664 128.076C151.272 128.692 150.642 129 149.774 129H148.794ZM163.354 129V128.132H163.746C164.81 128.132 165.342 127.581 165.342 126.48V120.46L166.28 119.97V126.494C166.28 127.287 166.047 127.913 165.58 128.37C165.141 128.79 164.563 129 163.844 129H163.354ZM168.801 129V120.46L169.739 119.97V129H168.801ZM16.1313 145.132C15.6927 144.572 15.4733 143.835 15.4733 142.92C15.4733 141.912 15.7347 141.133 16.2573 140.582C16.7147 140.087 17.3213 139.84 18.0773 139.84C18.852 139.84 19.4493 140.083 19.8693 140.568C20.2333 140.988 20.4153 141.548 20.4153 142.248V143.676C20.4153 144.385 20.2053 144.95 19.7853 145.37C19.3653 145.781 18.7913 145.991 18.0633 146H16.2853C15.2587 146 14.7453 146.532 14.7453 147.596V149.92L13.8073 150.41V147.568C13.8073 146.793 14.036 146.187 14.4933 145.748C14.904 145.347 15.45 145.141 16.1313 145.132ZM19.4773 143.592V142.332C19.4773 141.24 19.0107 140.694 18.0773 140.694C17.5453 140.694 17.13 140.89 16.8313 141.282C16.542 141.674 16.3973 142.215 16.3973 142.906C16.3973 143.606 16.5373 144.152 16.8173 144.544C17.0973 144.936 17.4847 145.132 17.9793 145.132C18.978 145.132 19.4773 144.619 19.4773 143.592ZM30.3871 145.132H30.8771V146H30.2751C29.4164 146 28.7771 145.706 28.3571 145.118C27.9184 145.706 27.2697 146 26.4111 146H21.8191L22.2671 145.132H24.4091V139.28L25.3331 138.79V145.132H26.3131C27.3771 145.132 27.9091 144.581 27.9091 143.48V137.46L28.8331 136.97V140.022L28.8471 140.008V143.536C28.8471 144.6 29.3604 145.132 30.3871 145.132ZM32.0142 138.202C31.6409 138.202 31.4542 138.011 31.4542 137.628C31.4542 137.245 31.6409 137.054 32.0142 137.054C32.3876 137.054 32.5742 137.245 32.5742 137.628C32.5742 138.011 32.3876 138.202 32.0142 138.202ZM33.6102 138.202C33.2369 138.202 33.0502 138.011 33.0502 137.628C33.0502 137.245 33.2369 137.054 33.6102 137.054C33.9836 137.054 34.1702 137.245 34.1702 137.628C34.1702 138.011 33.9836 138.202 33.6102 138.202ZM35.1082 145.132H35.5982V146H34.9962C34.1562 146 33.5262 145.715 33.1062 145.146C32.6676 145.715 32.0329 146 31.2022 146H30.6002V145.132H31.0902C32.1169 145.132 32.6302 144.6 32.6302 143.536V140.498L33.5682 140.008V143.536C33.5682 144.6 34.0816 145.132 35.1082 145.132ZM35.317 146V145.132H36.171C37.207 145.132 37.725 144.6 37.725 143.536V141.52L38.663 141.03V143.536C38.663 144.6 39.1764 145.132 40.203 145.132H40.721C41.7477 145.132 42.261 144.6 42.261 143.536V141.016L43.199 140.512V143.536C43.199 144.6 43.717 145.132 44.753 145.132H45.257C46.293 145.132 46.811 144.6 46.811 143.536V140.498L47.749 140.008V143.564C47.749 144.339 47.5204 144.945 47.063 145.384C46.6524 145.785 46.097 145.991 45.397 146H44.627C43.759 146 43.129 145.692 42.737 145.076C42.3357 145.692 41.7104 146 40.861 146H40.091C39.223 146 38.5884 145.692 38.187 145.076C37.795 145.692 37.165 146 36.297 146H35.317ZM50.2659 146V137.46L51.2039 136.97V146H50.2659ZM60.6721 145.482C60.2801 145.706 59.7761 145.818 59.1601 145.818C58.3481 145.818 57.7135 145.505 57.2561 144.88C56.8641 144.348 56.6681 143.676 56.6681 142.864C56.6681 141.884 56.9295 141.119 57.4521 140.568C57.9095 140.083 58.5161 139.84 59.2721 139.84C60.0468 139.84 60.6441 140.083 61.0641 140.568C61.4281 140.988 61.6101 141.548 61.6101 142.248V145.328C61.6101 146.196 61.4281 146.91 61.0641 147.47C60.7001 148.039 60.1821 148.403 59.5101 148.562C59.2861 148.627 59.0435 148.66 58.7821 148.66C58.2408 148.66 57.7135 148.529 57.2001 148.268V147.442C57.6855 147.703 58.1661 147.834 58.6421 147.834C59.0248 147.834 59.3608 147.75 59.6501 147.582C60.3035 147.255 60.6441 146.555 60.6721 145.482ZM60.6721 142.332C60.6721 141.24 60.2055 140.694 59.2721 140.694C58.7495 140.694 58.3341 140.885 58.0261 141.268C57.7275 141.651 57.5781 142.178 57.5781 142.85C57.5781 143.503 57.7228 144.026 58.0121 144.418C58.3015 144.801 58.6935 144.992 59.1881 144.992C59.9255 144.992 60.4201 144.787 60.6721 144.376V142.332ZM72.1437 138.202C71.761 138.202 71.5697 138.006 71.5697 137.614C71.5697 137.241 71.761 137.054 72.1437 137.054C72.5077 137.054 72.6897 137.241 72.6897 137.614C72.6897 138.006 72.5077 138.202 72.1437 138.202ZM73.7397 138.202C73.357 138.202 73.1657 138.006 73.1657 137.614C73.1657 137.241 73.357 137.054 73.7397 137.054C74.1037 137.054 74.2857 137.241 74.2857 137.614C74.2857 138.006 74.1037 138.202 73.7397 138.202ZM75.2517 145.314C75.2517 146.397 74.8597 147.237 74.0757 147.834C73.357 148.385 72.377 148.66 71.1357 148.66C69.6984 148.66 68.6157 148.24 67.8877 147.4C67.3464 146.775 67.0757 146.005 67.0757 145.09C67.0757 144.287 67.281 143.597 67.6917 143.018L68.6017 142.836C68.1537 143.517 67.9297 144.245 67.9297 145.02C67.9297 145.869 68.2237 146.546 68.8117 147.05C69.381 147.545 70.1557 147.792 71.1357 147.792C72.2557 147.792 73.0864 147.535 73.6277 147.022C74.0757 146.602 74.2997 146.042 74.2997 145.342C73.9544 145.659 73.455 145.818 72.8017 145.818C71.999 145.818 71.3644 145.501 70.8977 144.866C70.5057 144.334 70.3097 143.667 70.3097 142.864C70.3097 141.884 70.571 141.119 71.0937 140.568C71.551 140.083 72.1577 139.84 72.9137 139.84C73.6884 139.84 74.2857 140.083 74.7057 140.568C75.0697 140.988 75.2517 141.548 75.2517 142.248V145.314ZM74.3137 142.332C74.3137 141.24 73.847 140.694 72.9137 140.694C72.391 140.694 71.9804 140.885 71.6817 141.268C71.383 141.651 71.2337 142.178 71.2337 142.85C71.2337 143.513 71.3737 144.035 71.6537 144.418C71.943 144.801 72.335 144.992 72.8297 144.992C73.5857 144.992 74.0804 144.777 74.3137 144.348V142.332ZM81.941 145.132H82.431V146H81.829C81.2503 146 80.7696 145.86 80.387 145.58C80.3123 147.129 79.687 148.109 78.511 148.52C78.2123 148.623 77.895 148.674 77.559 148.674C77.0176 148.674 76.495 148.543 75.991 148.282V147.456C76.467 147.717 76.9523 147.848 77.447 147.848C77.839 147.848 78.1843 147.759 78.483 147.582C79.1363 147.19 79.463 146.457 79.463 145.384V140.498L80.387 140.008V140.022L80.401 140.008V143.536C80.401 144.6 80.9143 145.132 81.941 145.132ZM91.0049 145.132H91.4949V146H90.9909C90.2162 146 89.5955 145.911 89.1289 145.734C88.6715 145.557 88.2469 145.244 87.8549 144.796C86.6602 145.599 85.2789 146 83.7109 146H82.1569V145.132H83.7249C85.7595 145.132 87.3462 144.441 88.4849 143.06C87.6542 141.473 86.6509 140.68 85.4749 140.68C84.6722 140.68 83.8882 141.086 83.1229 141.898V140.974C83.8882 140.218 84.6862 139.84 85.5169 139.84H85.5449C87.0102 139.84 88.2795 140.829 89.3529 142.808V143.382C89.0635 143.755 88.7555 144.077 88.4289 144.348C88.7275 144.637 89.0635 144.843 89.4369 144.964C89.8195 145.076 90.3422 145.132 91.0049 145.132ZM91.2213 146V145.132H91.6133C92.6773 145.132 93.2093 144.581 93.2093 143.48V137.46L94.1473 136.97V143.494C94.1473 144.287 93.914 144.913 93.4473 145.37C93.0087 145.79 92.43 146 91.7113 146H91.2213ZM96.6682 146V137.46L97.6062 136.97V146H96.6682ZM104.834 138.09C104.452 138.09 104.26 137.894 104.26 137.502C104.26 137.129 104.452 136.942 104.834 136.942C105.198 136.942 105.38 137.129 105.38 137.502C105.38 137.894 105.198 138.09 104.834 138.09ZM106.43 138.09C106.048 138.09 105.856 137.894 105.856 137.502C105.856 137.129 106.048 136.942 106.43 136.942C106.794 136.942 106.976 137.129 106.976 137.502C106.976 137.894 106.794 138.09 106.43 138.09ZM109.146 145.132H109.622V146H109.02C108.022 146 107.326 145.608 106.934 144.824C106.449 145.328 105.852 145.58 105.142 145.58C104.34 145.58 103.705 145.277 103.238 144.67C102.846 144.157 102.65 143.517 102.65 142.752C102.65 141.856 102.912 141.137 103.434 140.596C103.892 140.12 104.456 139.882 105.128 139.882C105.735 139.882 106.244 140.059 106.654 140.414V139.658L107.592 139.168V143.536C107.592 144.6 108.11 145.132 109.146 145.132ZM106.654 141.478C106.244 140.983 105.744 140.736 105.156 140.736C104.69 140.736 104.307 140.927 104.008 141.31C103.719 141.683 103.574 142.169 103.574 142.766C103.574 143.373 103.719 143.858 104.008 144.222C104.307 144.586 104.694 144.768 105.17 144.768C105.777 144.768 106.281 144.502 106.682 143.97C106.664 143.802 106.654 143.667 106.654 143.564V141.478ZM113.803 145.132H114.293V146H113.691C112.832 146 112.193 145.706 111.773 145.118C111.334 145.706 110.685 146 109.827 146H109.337V145.132H109.729C110.793 145.132 111.325 144.581 111.325 143.48V137.46L112.263 136.97V143.536C112.263 144.6 112.776 145.132 113.803 145.132ZM116.042 142.248C116.042 141.455 116.28 140.839 116.756 140.4C117.167 140.027 117.708 139.84 118.38 139.84C119.248 139.84 119.916 140.157 120.382 140.792C120.784 141.333 120.984 142.043 120.984 142.92C120.984 143.919 120.728 144.698 120.214 145.258C119.766 145.753 119.183 146 118.464 146C117.587 146 116.934 145.72 116.504 145.16C116.084 145.72 115.454 146 114.614 146H114.012V145.132H114.502C115.529 145.132 116.042 144.6 116.042 143.536V142.248ZM116.98 143.592C116.98 144.619 117.484 145.132 118.492 145.132C118.978 145.132 119.36 144.936 119.64 144.544C119.92 144.152 120.06 143.606 120.06 142.906C120.06 142.215 119.911 141.674 119.612 141.282C119.323 140.89 118.912 140.694 118.38 140.694C117.447 140.694 116.98 141.24 116.98 142.332V143.592ZM125.667 146C124.874 146 124.262 145.743 123.833 145.23C123.478 144.791 123.301 144.236 123.301 143.564V137.46L124.239 136.97V143.536C124.239 144.6 124.752 145.132 125.779 145.132H126.269V146H125.667ZM133.395 137.166C133.059 137.166 132.891 136.989 132.891 136.634C132.891 136.298 133.059 136.13 133.395 136.13C133.731 136.13 133.899 136.298 133.899 136.634C133.899 136.989 133.731 137.166 133.395 137.166ZM132.611 138.622C132.228 138.622 132.037 138.431 132.037 138.048C132.037 137.665 132.228 137.474 132.611 137.474C132.975 137.474 133.157 137.665 133.157 138.048C133.157 138.431 132.975 138.622 132.611 138.622ZM134.207 138.622C133.834 138.622 133.647 138.431 133.647 138.048C133.647 137.665 133.834 137.474 134.207 137.474C134.58 137.474 134.767 137.665 134.767 138.048C134.767 138.431 134.58 138.622 134.207 138.622ZM125.989 146V145.132H126.843C127.879 145.132 128.397 144.6 128.397 143.536V141.52L129.335 141.03V143.536C129.335 144.6 129.848 145.132 130.875 145.132H131.393C132.42 145.132 132.933 144.6 132.933 143.536V141.016L133.871 140.512V143.536C133.871 144.6 134.389 145.132 135.425 145.132H135.929C136.965 145.132 137.483 144.6 137.483 143.536V140.498L138.421 140.008V143.564C138.421 144.339 138.192 144.945 137.735 145.384C137.324 145.785 136.769 145.991 136.069 146H135.299C134.431 146 133.801 145.692 133.409 145.076C133.008 145.692 132.382 146 131.533 146H130.763C129.895 146 129.26 145.692 128.859 145.076C128.467 145.692 127.837 146 126.969 146H125.989ZM147.087 137.138V146H145.253V139.224C145.122 139.308 144.931 139.425 144.679 139.574C144.315 139.789 144.054 139.952 143.895 140.064C143.774 139.859 143.568 139.518 143.279 139.042L143.195 138.916C143.13 138.795 143.078 138.706 143.041 138.65C143.34 138.435 143.811 138.113 144.455 137.684C144.791 137.46 145.057 137.278 145.253 137.138H147.087ZM154.061 138.608H150.967V140.4C151.079 140.353 151.233 140.33 151.429 140.33C152.456 140.33 153.254 140.587 153.823 141.1C154.364 141.595 154.635 142.271 154.635 143.13C154.635 144.035 154.299 144.787 153.627 145.384C153.039 145.907 152.325 146.168 151.485 146.168C150.365 146.168 149.39 145.762 148.559 144.95L149.315 143.788C149.996 144.301 150.654 144.558 151.289 144.558C152.269 144.558 152.759 144.119 152.759 143.242C152.759 142.262 152.129 141.772 150.869 141.772C150.43 141.772 149.856 141.851 149.147 142.01V137.138H154.061V138.608ZM159.088 136.97C160.171 136.97 161.039 137.488 161.692 138.524C162.243 139.383 162.518 140.405 162.518 141.59C162.518 143.018 162.168 144.161 161.468 145.02C160.852 145.785 160.059 146.168 159.088 146.168C157.977 146.168 157.109 145.673 156.484 144.684C155.961 143.863 155.7 142.831 155.7 141.59C155.7 140.209 156.045 139.075 156.736 138.188C157.361 137.376 158.145 136.97 159.088 136.97ZM159.116 138.538C158.108 138.538 157.604 139.527 157.604 141.506C157.604 142.505 157.749 143.289 158.038 143.858C158.299 144.371 158.645 144.628 159.074 144.628C159.55 144.628 159.923 144.353 160.194 143.802C160.474 143.242 160.614 142.477 160.614 141.506C160.614 139.527 160.115 138.538 159.116 138.538ZM167.229 136.2V136.984C168.115 137.012 168.979 137.306 169.819 137.866L169.035 139C168.344 138.711 167.742 138.557 167.229 138.538V140.512C169.105 141.231 170.043 142.215 170.043 143.466C170.043 144.353 169.739 145.039 169.133 145.524C168.638 145.925 168.003 146.135 167.229 146.154V147.036H166.543V146.154C165.731 146.07 164.867 145.743 163.953 145.174C164.046 145.034 164.195 144.829 164.401 144.558C164.559 144.353 164.681 144.189 164.765 144.068C164.858 144.143 165.129 144.236 165.577 144.348C166.025 144.46 166.347 144.516 166.543 144.516V142.024C165.665 141.679 165.04 141.305 164.667 140.904C164.303 140.493 164.121 139.985 164.121 139.378C164.121 138.725 164.335 138.188 164.765 137.768C165.203 137.348 165.796 137.096 166.543 137.012V136.2H167.229ZM167.229 144.502C167.807 144.455 168.097 144.138 168.097 143.55C168.097 143.055 167.807 142.659 167.229 142.36V144.502ZM166.543 138.552C166.197 138.692 166.025 138.967 166.025 139.378C166.025 139.714 166.197 139.994 166.543 140.218V138.552ZM102.8 163C102.726 163.803 102.306 164.451 101.54 164.946C100.803 165.422 99.8555 165.66 98.6982 165.66C97.2609 165.66 96.1782 165.24 95.4502 164.4C94.9089 163.775 94.6382 163.005 94.6382 162.09C94.6382 161.287 94.8435 160.597 95.2542 160.018L96.1642 159.836C95.7162 160.517 95.4922 161.245 95.4922 162.02C95.4922 162.879 95.7862 163.565 96.3742 164.078C96.9342 164.573 97.7089 164.82 98.6982 164.82C99.7155 164.82 100.514 164.605 101.092 164.176C101.522 163.859 101.774 163.467 101.848 163H100.42L100.868 162.132H102.842V163H102.8ZM97.8162 167.97C97.4335 167.97 97.2422 167.779 97.2422 167.396C97.2422 167.013 97.4335 166.822 97.8162 166.822C98.1802 166.822 98.3622 167.013 98.3622 167.396C98.3622 167.779 98.1802 167.97 97.8162 167.97ZM99.4122 167.97C99.0389 167.97 98.8522 167.779 98.8522 167.396C98.8522 167.013 99.0389 166.822 99.4122 166.822C99.7855 166.822 99.9722 167.013 99.9722 167.396C99.9722 167.779 99.7855 167.97 99.4122 167.97ZM103.26 155.132L103.526 154.642H103.89C103.796 154.474 103.75 154.301 103.75 154.124C103.75 153.863 103.848 153.639 104.044 153.452C104.24 153.256 104.473 153.158 104.744 153.158C104.949 153.158 105.15 153.223 105.346 153.354V153.872C105.159 153.741 104.977 153.676 104.8 153.676C104.65 153.676 104.524 153.727 104.422 153.83C104.319 153.923 104.268 154.035 104.268 154.166C104.268 154.325 104.333 154.483 104.464 154.642H105.696L105.43 155.132H103.26ZM102.378 163V162.132H102.868C103.894 162.132 104.408 161.6 104.408 160.536V157.498L105.346 157.008V160.564C105.346 161.348 105.117 161.959 104.66 162.398C104.24 162.799 103.68 163 102.98 163H102.378ZM109.999 163C109.206 163 108.594 162.743 108.165 162.23C107.81 161.791 107.633 161.236 107.633 160.564V154.46L108.571 153.97V160.536C108.571 161.6 109.084 162.132 110.111 162.132H110.601V163H109.999ZM119.561 162.132H120.051V163H119.449C118.6 163 117.965 162.715 117.545 162.146C117.125 162.715 116.49 163 115.641 163H114.255C113.928 163 113.625 162.953 113.345 162.86C113.065 162.953 112.771 163 112.463 163H110.321V162.132H112.113C111.609 161.628 111.357 161.007 111.357 160.27C111.357 159.729 111.483 159.271 111.735 158.898C111.931 158.123 112.3 157.512 112.841 157.064C113.392 156.607 114.036 156.378 114.773 156.378C115.716 156.378 116.5 156.709 117.125 157.372C117.713 158.007 118.007 158.814 118.007 159.794V160.536C118.007 161.6 118.525 162.132 119.561 162.132ZM115.571 162.132C116.579 162.132 117.083 161.581 117.083 160.48V159.794C117.083 158.954 116.812 158.291 116.271 157.806C115.832 157.423 115.319 157.232 114.731 157.232C113.947 157.232 113.35 157.535 112.939 158.142C113.079 158.114 113.219 158.1 113.359 158.1C113.956 158.1 114.437 158.301 114.801 158.702C115.165 159.094 115.347 159.617 115.347 160.27C115.347 161.007 115.095 161.628 114.591 162.132H115.571ZM113.359 162.006C114.208 161.726 114.633 161.138 114.633 160.242C114.633 159.803 114.516 159.453 114.283 159.192C114.059 158.921 113.751 158.786 113.359 158.786C112.967 158.786 112.654 158.917 112.421 159.178C112.188 159.439 112.071 159.794 112.071 160.242C112.071 161.138 112.5 161.726 113.359 162.006ZM122.106 155.16C121.724 155.16 121.532 154.964 121.532 154.572C121.532 154.199 121.724 154.012 122.106 154.012C122.47 154.012 122.652 154.199 122.652 154.572C122.652 154.964 122.47 155.16 122.106 155.16ZM124.276 162.132H124.766V163H124.164C123.324 163 122.694 162.715 122.274 162.146C121.836 162.715 121.201 163 120.37 163H119.768V162.132H120.258C121.285 162.132 121.798 161.6 121.798 160.536V157.498L122.736 157.008V160.536C122.736 161.6 123.25 162.132 124.276 162.132ZM124.485 163V162.132H124.877C125.941 162.132 126.473 161.581 126.473 160.48V154.46L127.411 153.97V160.494C127.411 161.287 127.178 161.913 126.711 162.37C126.272 162.79 125.694 163 124.975 163H124.485ZM129.932 163V154.46L130.87 153.97V163H129.932ZM145 162.132H145.49V163H144.986C144.183 163 143.544 162.902 143.068 162.706C142.592 162.51 142.153 162.165 141.752 161.67C141.425 161.791 140.926 161.917 140.254 162.048C139.153 162.263 138.411 162.561 138.028 162.944C137.571 163.401 137.342 164.045 137.342 164.876C137.342 165.679 137.608 166.313 138.14 166.78C138.588 167.181 139.162 167.382 139.862 167.382H139.89C140.954 167.382 141.808 167.144 142.452 166.668V167.522C141.687 168.007 140.819 168.25 139.848 168.25C138.803 168.25 137.963 167.9 137.328 167.2C136.759 166.575 136.474 165.791 136.474 164.848C136.474 163.84 136.782 163.014 137.398 162.37C137.678 162.081 138 161.861 138.364 161.712C138.728 161.553 139.283 161.404 140.03 161.264C140.795 161.115 141.355 160.961 141.71 160.802C142.065 160.634 142.373 160.391 142.634 160.074C141.822 158.478 140.819 157.68 139.624 157.68C138.812 157.68 138.028 158.086 137.272 158.898V157.974C138.037 157.218 138.835 156.84 139.666 156.84H139.694C141.159 156.84 142.429 157.829 143.502 159.808V160.382C143.222 160.765 142.867 161.082 142.438 161.334C142.737 161.633 143.073 161.843 143.446 161.964C143.829 162.076 144.347 162.132 145 162.132ZM139.358 164.848C139.358 164.493 139.535 164.316 139.89 164.316C140.235 164.316 140.408 164.493 140.408 164.848C140.408 165.212 140.235 165.394 139.89 165.394C139.535 165.394 139.358 165.212 139.358 164.848ZM146.338 155.202C145.965 155.202 145.778 155.011 145.778 154.628C145.778 154.245 145.965 154.054 146.338 154.054C146.712 154.054 146.898 154.245 146.898 154.628C146.898 155.011 146.712 155.202 146.338 155.202ZM147.934 155.202C147.561 155.202 147.374 155.011 147.374 154.628C147.374 154.245 147.561 154.054 147.934 154.054C148.308 154.054 148.494 154.245 148.494 154.628C148.494 155.011 148.308 155.202 147.934 155.202ZM149.432 162.132H149.922V163H149.32C148.48 163 147.85 162.715 147.43 162.146C146.992 162.715 146.357 163 145.526 163H144.924V162.132H145.414C146.441 162.132 146.954 161.6 146.954 160.536V157.498L147.892 157.008V160.536C147.892 161.6 148.406 162.132 149.432 162.132ZM151.979 155.16C151.597 155.16 151.405 154.964 151.405 154.572C151.405 154.199 151.597 154.012 151.979 154.012C152.343 154.012 152.525 154.199 152.525 154.572C152.525 154.964 152.343 155.16 151.979 155.16ZM154.149 162.132H154.639V163H154.037C153.197 163 152.567 162.715 152.147 162.146C151.709 162.715 151.074 163 150.243 163H149.641V162.132H150.131C151.158 162.132 151.671 161.6 151.671 160.536V157.498L152.609 157.008V160.536C152.609 161.6 153.123 162.132 154.149 162.132ZM163.164 162.132H163.64V163H163.038C162.189 163 161.554 162.706 161.134 162.118C160.667 162.893 159.958 163.28 159.006 163.28C158.045 163.28 157.335 162.897 156.878 162.132C156.449 162.711 155.809 163 154.96 163H154.358V162.132H154.848C155.875 162.132 156.388 161.6 156.388 160.536V160.06C156.388 158.987 156.649 158.165 157.172 157.596C157.629 157.092 158.241 156.84 159.006 156.84C159.883 156.84 160.551 157.167 161.008 157.82C161.409 158.38 161.61 159.127 161.61 160.06V160.536C161.61 161.6 162.128 162.132 163.164 162.132ZM159.006 162.412C159.519 162.412 159.925 162.202 160.224 161.782C160.523 161.353 160.672 160.774 160.672 160.046C160.672 158.478 160.117 157.694 159.006 157.694C157.886 157.694 157.326 158.478 157.326 160.046C157.326 161.623 157.886 162.412 159.006 162.412ZM163.354 163V162.132H163.746C164.81 162.132 165.342 161.581 165.342 160.48V154.46L166.28 153.97V160.494C166.28 161.287 166.047 161.913 165.58 162.37C165.141 162.79 164.563 163 163.844 163H163.354ZM168.801 163V154.46L169.739 153.97V163H168.801Z" fill="black"/>
</svg>
