<svg width="137" height="41" viewBox="0 0 137 41" fill="none" xmlns="http://www.w3.org/2000/svg">
<path d="M24.3954 29.9873V31.7084H18.2843C18.8924 31.1951 19.4244 30.41 19.8805 29.3532C18.0867 30.3798 15.7912 30.8932 12.9941 30.8932C10.6227 30.8932 8.52482 30.41 6.70062 29.4438C4.90683 28.4775 3.50827 27.1339 2.50496 25.4127C1.50165 23.6614 1 21.6535 1 19.3888C1 17.5167 1.44085 15.7805 2.32254 14.1802C3.23464 12.5496 4.45078 11.2663 5.97094 10.3303C7.52151 9.36404 9.17849 8.88092 10.9419 8.88092C13.0701 8.88092 15.0615 9.48483 16.9161 10.6926C18.8011 11.9004 20.3061 13.5008 21.431 15.4937C22.556 17.4563 23.1184 19.5398 23.1184 21.744C23.1184 23.133 22.9664 24.5673 22.6624 26.0468C22.3887 27.4962 22.0087 28.8097 21.5222 29.9873H24.3954ZM12.9941 29.172C14.7879 29.172 16.3233 28.9456 17.6002 28.4926C18.8772 28.0397 19.9565 27.3301 20.8382 26.3639C21.203 24.8541 21.3854 23.3142 21.3854 21.744C21.3854 19.8417 20.899 18.03 19.9261 16.3089C18.9532 14.5878 17.661 13.2139 16.0496 12.1873C14.4383 11.1305 12.7357 10.602 10.9419 10.602C9.48253 10.602 8.11438 11.0097 6.83744 11.8249C5.5909 12.61 4.58759 13.6819 3.82751 15.0407C3.09783 16.3693 2.73299 17.8187 2.73299 19.3888C2.73299 21.3213 3.15864 23.0273 4.00993 24.5069C4.86122 25.9865 6.06215 27.1339 7.61272 27.9491C9.16329 28.7644 10.9571 29.172 12.9941 29.172ZM7.97756 2.67583C7.88635 2.40407 7.71913 2.2078 7.47591 2.08702C7.26308 1.93605 7.00466 1.86056 6.70062 1.86056C6.4878 1.86056 6.32058 1.89076 6.19897 1.95115C5.89493 2.04173 5.65171 2.2078 5.46929 2.44937C5.28687 2.69093 5.19566 2.96268 5.19566 3.26463C5.19566 3.35522 5.22606 3.4911 5.28687 3.67227C5.46929 4.15539 5.84933 4.39695 6.42699 4.39695C6.67022 4.39695 6.85264 4.36675 6.97425 4.30636C7.33909 4.18558 7.62792 3.97422 7.84075 3.67227C8.05357 3.37032 8.09917 3.03817 7.97756 2.67583ZM4.46598 2.72112C4.34437 2.44936 4.16195 2.238 3.91872 2.08702C3.67549 1.93605 3.41706 1.86056 3.14343 1.86056C2.99142 1.86056 2.8242 1.89076 2.64178 1.95115C2.30734 2.10212 2.03371 2.35878 1.82089 2.72112C1.63847 3.05327 1.60807 3.37032 1.72968 3.67227C1.9121 4.18558 2.30734 4.44224 2.91541 4.44224C3.43227 4.44224 3.84271 4.27617 4.14674 3.94402C4.48118 3.58168 4.58759 3.17405 4.46598 2.72112Z" fill="#4F8893"/>
<path d="M29.9684 29.9873V31.7084H24.359V29.9873H26.5024C26.9281 24.9749 27.1409 17.8489 27.1409 8.60917C27.1409 5.49907 27.1257 3.14385 27.0953 1.54351C27.0953 1.45293 27.1561 1.37744 27.2777 1.31705L28.5091 1H28.5547C28.6155 1 28.6763 1.04529 28.7371 1.13588C28.7979 1.19627 28.8283 1.28685 28.8283 1.40763C28.8587 3.00797 28.8739 5.39339 28.8739 8.56387C28.8739 17.864 28.6611 25.0051 28.2354 29.9873H29.9684Z" fill="#4F8893"/>
<path d="M48.3048 29.9873V31.7084H46.1614C44.3676 31.7688 41.5401 31.799 37.6789 31.799C34.0001 31.799 31.431 31.7688 29.9716 31.7084V29.9873C32.4039 30.0779 35.1402 30.1232 38.1805 30.1232C40.3392 30.1232 41.9353 30.1081 42.9691 30.0779C43.3035 28.0246 43.5467 26.4092 43.6987 25.2316C43.8811 24.054 43.9724 22.8915 43.9724 21.744C43.9724 18.7245 43.1059 16.2485 41.3729 14.316C39.6399 12.3534 36.5235 10.904 32.0239 9.96795C31.8718 9.90756 31.811 9.81697 31.8414 9.69619L32.1607 8.428C32.2519 8.27702 32.3431 8.21663 32.4343 8.24683C37.4508 9.27346 40.9168 10.9191 42.8322 13.1837C44.778 15.4484 45.751 18.2716 45.751 21.6535C45.751 22.8311 45.6597 24.054 45.4773 25.3222C45.3253 26.5602 45.0821 28.1303 44.7476 30.0326L45.8878 29.9873H48.3048ZM38.0437 37.1435C38.439 37.1435 38.7734 37.2794 39.047 37.5512C39.3206 37.8531 39.4575 38.2004 39.4575 38.5929C39.4575 38.8949 39.3663 39.1666 39.1838 39.4082C39.0318 39.6799 38.8038 39.8611 38.4998 39.9517C38.0741 40.0725 37.6941 39.9668 37.3596 39.6346C37.0556 39.3025 36.9036 38.8949 36.9036 38.4117C36.9036 38.0796 36.9948 37.7776 37.1772 37.5059C37.39 37.2643 37.6789 37.1435 38.0437 37.1435Z" fill="#4F8893"/>
<path d="M73.4489 29.9873V31.7084H72.1719C71.0774 31.7084 69.7548 31.5574 68.2043 31.2555C66.6841 30.9535 65.1183 30.5006 63.507 29.8967C60.6491 31.0743 57.3655 31.6631 53.6563 31.6631L48.2749 31.7084V29.9873L53.6563 29.942C56.3926 29.942 58.8857 29.6099 61.1355 28.9456C57.5479 27.2848 54.5988 25.0504 52.2881 22.2423C50.0079 19.4039 48.9134 15.9768 49.0046 11.9608C49.035 11.1154 49.8711 10.4964 51.5129 10.1038C53.185 9.71129 55.2525 9.51502 57.7151 9.51502C60.9683 9.51502 63.887 9.86226 66.4713 10.5568C69.0556 11.2512 70.7278 12.0816 71.4878 13.0478C72.0655 13.8027 72.3543 14.8747 72.3543 16.2636C72.3543 19.0416 71.7615 21.5025 70.5757 23.6463C69.4204 25.7902 67.7482 27.5264 65.5592 28.855C68.1131 29.6099 70.3173 29.9873 72.1719 29.9873H73.4489ZM50.7376 12.3232C50.7376 16.2183 51.9385 19.4794 54.3404 22.1064C56.7422 24.7032 59.737 26.696 63.3245 28.085C65.696 26.9678 67.505 25.4127 68.7515 23.4199C69.9981 21.3968 70.6213 19.0114 70.6213 16.2636C70.6213 15.2068 70.4541 14.4972 70.1197 14.1349C69.7549 13.6819 68.9492 13.229 67.7026 12.7761C66.4865 12.3232 64.9967 11.9608 63.2333 11.6891C61.4699 11.3871 59.6305 11.2361 57.7151 11.2361C56.4382 11.2361 55.2677 11.3116 54.2036 11.4626C53.1698 11.5834 52.3337 11.7344 51.6953 11.9155C51.0872 12.0967 50.768 12.2326 50.7376 12.3232Z" fill="#4F8893"/>
<path d="M76.6323 1.40763C76.6627 3.00797 76.6779 5.34809 76.6779 8.428C76.6779 13.3498 76.6019 17.8942 76.4499 22.0611C76.2979 26.228 76.1002 29.4438 75.857 31.7084H73.3487V29.9873H74.3064C74.7321 24.9749 74.9449 17.8489 74.9449 8.60917C74.9449 5.49907 74.9297 3.14385 74.8993 1.54351C74.8993 1.45293 74.9601 1.37744 75.0817 1.31705L76.3131 1H76.3587C76.4195 1 76.4803 1.04529 76.5411 1.13588C76.6019 1.19627 76.6323 1.28685 76.6323 1.40763Z" fill="#4F8893"/>
<path d="M81.6578 29.9873V31.7084H77.5533C77.7965 29.4136 77.9941 26.1827 78.1462 22.0158C78.2982 17.8489 78.3742 13.3347 78.3742 8.47329C78.3742 5.42358 78.359 3.11366 78.3286 1.54351C78.3286 1.45293 78.3894 1.37744 78.511 1.31705L79.7423 1H79.7879C79.8488 1 79.9096 1.04529 79.9704 1.13588C80.0312 1.19627 80.0616 1.28685 80.0616 1.40763C80.092 3.00797 80.1072 5.39339 80.1072 8.56387C80.1072 17.864 79.8943 25.0051 79.4687 29.9873H81.6578Z" fill="#4F8893"/>
<path d="M87.4699 19.7512C87.4699 19.6002 87.5611 19.5247 87.7435 19.5247L88.9749 19.6606C89.0357 19.6606 89.0813 19.6908 89.1117 19.7512C89.1725 19.7814 89.2029 19.8266 89.2029 19.887C89.1725 23.1179 88.9444 25.5637 88.5188 27.2245C88.0932 28.8852 87.3483 30.0477 86.2842 30.712C85.2504 31.3763 83.7151 31.7084 81.6781 31.7084V29.9873C83.2286 29.9873 84.3991 29.7005 85.1896 29.1267C86.0105 28.553 86.5882 27.5566 86.9226 26.1374C87.2571 24.6881 87.4395 22.5593 87.4699 19.7512ZM84.5056 38.3664C84.8096 38.2759 85.0376 38.0947 85.1896 37.8229C85.3721 37.5814 85.4633 37.3096 85.4633 37.0077C85.4633 36.6151 85.3113 36.2679 85.0072 35.9659C84.7336 35.6942 84.4296 35.5583 84.0951 35.5583C83.7303 35.5583 83.4414 35.6791 83.2286 35.9206C83.0158 36.1622 82.9094 36.4642 82.9094 36.8265C82.9094 37.2794 83.0614 37.672 83.3654 38.0041C83.6999 38.3664 84.0799 38.4872 84.5056 38.3664Z" fill="#4F8893"/>
<path d="M102.083 22.4234C102.782 22.0611 103.421 21.8195 103.998 21.6987C104.607 21.5478 105.321 21.427 106.142 21.3364V22.8764C104.956 23.0273 103.983 23.284 103.223 23.6463C102.494 23.9785 101.414 24.6579 99.9852 25.6845L99.6204 23.9634C99.8028 23.8124 100.076 23.6161 100.441 23.3746C99.5292 22.8311 99.0731 22.1064 99.0731 21.2005C99.0731 20.3551 99.4532 19.6002 100.213 18.9359C101.004 18.2716 101.901 17.9395 102.904 17.9395C103.451 17.9395 103.998 18.0753 104.546 18.3471L103.907 19.7059C103.542 19.5247 103.178 19.4341 102.813 19.4341C102.235 19.4341 101.749 19.6153 101.353 19.9776C100.958 20.34 100.761 20.7325 100.761 21.1552C100.761 21.6987 101.201 22.1215 102.083 22.4234Z" fill="#4F8893"/>
<path d="M114.125 29.9873V31.7084H110.02C110.263 29.4136 110.461 26.1827 110.613 22.0158C110.765 17.8489 110.841 13.3347 110.841 8.47329C110.841 5.42358 110.826 3.11366 110.795 1.54351C110.795 1.45293 110.856 1.37744 110.978 1.31705L112.209 1H112.255C112.316 1 112.376 1.04529 112.437 1.13588C112.498 1.19627 112.528 1.28685 112.528 1.40763C112.559 3.00797 112.574 5.39339 112.574 8.56387C112.574 17.864 112.361 25.0051 111.936 29.9873H114.125Z" fill="#4F8893"/>
<path d="M121.715 29.9873V31.7084H114.008V29.9873H114.145C115.695 29.9873 116.866 29.7005 117.656 29.1267C118.477 28.553 119.055 27.5566 119.389 26.1374C119.724 24.6881 119.906 22.5593 119.937 19.7512C119.937 19.6002 120.028 19.5247 120.21 19.5247L121.442 19.6606C121.502 19.6606 121.548 19.6908 121.578 19.7512C121.639 19.7814 121.67 19.8266 121.67 19.887C121.639 22.6348 121.472 24.8088 121.168 26.4092C120.864 27.9793 120.347 29.172 119.617 29.9873H121.715ZM118.158 16.6713C118.462 16.5807 118.69 16.4146 118.842 16.173C119.025 15.9013 119.116 15.6144 119.116 15.3125C119.116 14.9199 118.964 14.5878 118.66 14.316C118.386 14.0141 118.082 13.8631 117.748 13.8631C117.383 13.8631 117.094 13.9839 116.881 14.2255C116.668 14.467 116.562 14.769 116.562 15.1313C116.562 15.5842 116.714 15.9919 117.018 16.3542C117.352 16.6864 117.732 16.792 118.158 16.6713Z" fill="#4F8893"/>
<path d="M129.286 29.9873V31.7084H121.579V29.9873H121.715C123.266 29.9873 124.437 29.7005 125.228 29.1267C126.048 28.553 126.626 27.5566 126.961 26.1374C127.295 24.6881 127.477 22.5593 127.508 19.7512C127.508 19.6002 127.599 19.5247 127.781 19.5247L129.013 19.6606C129.074 19.6606 129.119 19.6908 129.15 19.7512C129.21 19.7814 129.241 19.8266 129.241 19.887C129.21 22.6348 129.043 24.8088 128.739 26.4092C128.435 27.9793 127.918 29.172 127.189 29.9873H129.286ZM124.498 38.6382C124.802 38.5476 125.03 38.3664 125.182 38.0947C125.364 37.8531 125.456 37.5814 125.456 37.2794C125.456 36.8869 125.304 36.5396 125 36.2377C124.726 35.9659 124.422 35.8301 124.087 35.8301C123.723 35.8301 123.434 35.9508 123.221 36.1924C123.008 36.434 122.902 36.7359 122.902 37.0983C122.902 37.5512 123.054 37.9437 123.358 38.2759C123.692 38.6382 124.072 38.759 124.498 38.6382Z" fill="#4F8893"/>
<path d="M132.525 1.40763C132.556 3.00797 132.571 5.34809 132.571 8.428C132.571 13.3498 132.495 17.8942 132.343 22.0611C132.191 26.228 131.993 29.4438 131.75 31.7084H129.242V29.9873H130.199C130.625 24.9749 130.838 17.8489 130.838 8.60917C130.838 5.49907 130.823 3.14385 130.792 1.54351C130.792 1.45293 130.853 1.37744 130.975 1.31705L132.206 1H132.251C132.312 1 132.373 1.04529 132.434 1.13588C132.495 1.19627 132.525 1.28685 132.525 1.40763Z" fill="#4F8893"/>
<path d="M133.446 31.7084C133.689 29.4136 133.887 26.1827 134.039 22.0158C134.191 17.8489 134.267 13.3347 134.267 8.47329C134.267 5.42358 134.252 3.11366 134.221 1.54351C134.221 1.45293 134.282 1.37744 134.404 1.31705L135.635 1H135.681C135.742 1 135.802 1.04529 135.863 1.13588C135.924 1.19627 135.954 1.28685 135.954 1.40763C135.985 3.00797 136 5.34809 136 8.428C136 13.3498 135.924 17.8942 135.772 22.0611C135.62 26.228 135.422 29.4438 135.179 31.7084H133.446Z" fill="#4F8893"/>
<path d="M121.715 29.9873V31.7084H114.008V29.9873H114.145C115.695 29.9873 116.866 29.7005 117.656 29.1267C118.477 28.553 119.055 27.5566 119.389 26.1374C119.724 24.6881 119.906 22.5593 119.937 19.7512C119.937 19.6002 120.028 19.5247 120.21 19.5247L121.442 19.6606C121.502 19.6606 121.548 19.6908 121.578 19.7512C121.639 19.7814 121.67 19.8266 121.67 19.887C121.639 22.6348 121.472 24.8088 121.168 26.4092C120.864 27.9793 120.347 29.172 119.617 29.9873H121.715ZM121.715 29.9873H121.579V31.7084H129.286V29.9873H127.189C127.918 29.172 128.435 27.9793 128.739 26.4092C129.043 24.8088 129.21 22.6348 129.241 19.887C129.241 19.8266 129.21 19.7814 129.15 19.7512C129.119 19.6908 129.074 19.6606 129.013 19.6606L127.781 19.5247C127.599 19.5247 127.508 19.6002 127.508 19.7512C127.477 22.5593 127.295 24.6881 126.961 26.1374C126.626 27.5566 126.048 28.553 125.228 29.1267C124.437 29.7005 123.266 29.9873 121.715 29.9873ZM24.3954 29.9873V31.7084H18.2843C18.8924 31.1951 19.4244 30.41 19.8805 29.3532C18.0867 30.3798 15.7912 30.8932 12.9941 30.8932C10.6227 30.8932 8.52482 30.41 6.70062 29.4438C4.90683 28.4775 3.50827 27.1339 2.50496 25.4127C1.50165 23.6614 1 21.6535 1 19.3888C1 17.5167 1.44085 15.7805 2.32254 14.1802C3.23464 12.5496 4.45078 11.2663 5.97094 10.3303C7.52151 9.36404 9.17849 8.88092 10.9419 8.88092C13.0701 8.88092 15.0615 9.48483 16.9161 10.6926C18.8011 11.9004 20.3061 13.5008 21.431 15.4937C22.556 17.4563 23.1184 19.5398 23.1184 21.744C23.1184 23.133 22.9664 24.5673 22.6624 26.0468C22.3887 27.4962 22.0087 28.8097 21.5222 29.9873H24.3954ZM12.9941 29.172C14.7879 29.172 16.3233 28.9456 17.6002 28.4926C18.8772 28.0397 19.9565 27.3301 20.8382 26.3639C21.203 24.8541 21.3854 23.3142 21.3854 21.744C21.3854 19.8417 20.899 18.03 19.9261 16.3089C18.9532 14.5878 17.661 13.2139 16.0496 12.1873C14.4383 11.1305 12.7357 10.602 10.9419 10.602C9.48253 10.602 8.11438 11.0097 6.83744 11.8249C5.5909 12.61 4.58759 13.6819 3.82751 15.0407C3.09783 16.3693 2.73299 17.8187 2.73299 19.3888C2.73299 21.3213 3.15864 23.0273 4.00993 24.5069C4.86122 25.9864 6.06215 27.1339 7.61272 27.9491C9.16329 28.7644 10.9571 29.172 12.9941 29.172ZM7.97756 2.67583C7.88635 2.40407 7.71913 2.2078 7.47591 2.08702C7.26308 1.93605 7.00466 1.86056 6.70062 1.86056C6.4878 1.86056 6.32058 1.89076 6.19897 1.95115C5.89493 2.04173 5.65171 2.2078 5.46929 2.44937C5.28687 2.69093 5.19566 2.96268 5.19566 3.26463C5.19566 3.35522 5.22606 3.4911 5.28687 3.67227C5.46929 4.15539 5.84933 4.39695 6.42699 4.39695C6.67022 4.39695 6.85264 4.36675 6.97425 4.30636C7.33909 4.18558 7.62792 3.97422 7.84075 3.67227C8.05357 3.37032 8.09918 3.03817 7.97756 2.67583ZM4.46598 2.72112C4.34437 2.44936 4.16195 2.238 3.91872 2.08702C3.67549 1.93605 3.41706 1.86056 3.14343 1.86056C2.99142 1.86056 2.8242 1.89076 2.64178 1.95115C2.30734 2.10212 2.03371 2.35878 1.82089 2.72112C1.63847 3.05327 1.60807 3.37032 1.72968 3.67227C1.9121 4.18558 2.30734 4.44224 2.91541 4.44224C3.43227 4.44224 3.84271 4.27617 4.14674 3.94402C4.48118 3.58168 4.58759 3.17405 4.46598 2.72112ZM29.9684 29.9873V31.7084H24.359V29.9873H26.5024C26.9281 24.9749 27.1409 17.8489 27.1409 8.60917C27.1409 5.49907 27.1257 3.14385 27.0953 1.54351C27.0953 1.45293 27.1561 1.37744 27.2777 1.31705L28.5091 1H28.5547C28.6155 1 28.6763 1.04529 28.7371 1.13588C28.7979 1.19627 28.8283 1.28685 28.8283 1.40763C28.8587 3.00797 28.8739 5.39339 28.8739 8.56387C28.8739 17.864 28.6611 25.0051 28.2354 29.9873H29.9684ZM48.3048 29.9873V31.7084H46.1614C44.3676 31.7688 41.5401 31.799 37.6789 31.799C34.0001 31.799 31.431 31.7688 29.9716 31.7084V29.9873C32.4039 30.0779 35.1402 30.1232 38.1805 30.1232C40.3392 30.1232 41.9353 30.1081 42.9691 30.0779C43.3035 28.0246 43.5467 26.4092 43.6987 25.2316C43.8811 24.054 43.9724 22.8915 43.9724 21.744C43.9724 18.7245 43.1059 16.2485 41.3729 14.316C39.6399 12.3534 36.5235 10.904 32.0239 9.96795C31.8718 9.90756 31.811 9.81697 31.8414 9.69619L32.1607 8.428C32.2519 8.27702 32.3431 8.21663 32.4343 8.24683C37.4508 9.27346 40.9168 10.9191 42.8322 13.1837C44.778 15.4484 45.751 18.2716 45.751 21.6535C45.751 22.8311 45.6597 24.054 45.4773 25.3222C45.3253 26.5602 45.0821 28.1303 44.7476 30.0326L45.8878 29.9873H48.3048ZM38.0437 37.1435C38.439 37.1435 38.7734 37.2794 39.047 37.5512C39.3206 37.8531 39.4575 38.2004 39.4575 38.5929C39.4575 38.8949 39.3663 39.1666 39.1838 39.4082C39.0318 39.6799 38.8038 39.8611 38.4998 39.9517C38.0741 40.0725 37.6941 39.9668 37.3596 39.6346C37.0556 39.3025 36.9036 38.8949 36.9036 38.4117C36.9036 38.0796 36.9948 37.7776 37.1772 37.5059C37.39 37.2643 37.6789 37.1435 38.0437 37.1435ZM73.4489 29.9873V31.7084H72.1719C71.0774 31.7084 69.7548 31.5574 68.2043 31.2555C66.6841 30.9535 65.1183 30.5006 63.507 29.8967C60.6491 31.0743 57.3655 31.6631 53.6563 31.6631L48.2749 31.7084V29.9873L53.6563 29.942C56.3926 29.942 58.8857 29.6099 61.1355 28.9456C57.5479 27.2848 54.5988 25.0504 52.2881 22.2423C50.0079 19.4039 48.9134 15.9768 49.0046 11.9608C49.035 11.1154 49.8711 10.4964 51.5129 10.1038C53.185 9.71129 55.2525 9.51502 57.7151 9.51502C60.9683 9.51502 63.887 9.86226 66.4713 10.5568C69.0556 11.2512 70.7278 12.0816 71.4878 13.0478C72.0655 13.8027 72.3543 14.8747 72.3543 16.2636C72.3543 19.0416 71.7615 21.5025 70.5757 23.6463C69.4204 25.7902 67.7482 27.5264 65.5592 28.855C68.1131 29.6099 70.3173 29.9873 72.1719 29.9873H73.4489ZM50.7376 12.3232C50.7376 16.2183 51.9385 19.4794 54.3404 22.1064C56.7422 24.7032 59.737 26.696 63.3245 28.085C65.696 26.9678 67.505 25.4127 68.7515 23.4199C69.9981 21.3968 70.6213 19.0114 70.6213 16.2636C70.6213 15.2068 70.4541 14.4972 70.1197 14.1349C69.7549 13.6819 68.9492 13.229 67.7026 12.7761C66.4865 12.3232 64.9967 11.9608 63.2333 11.6891C61.4699 11.3871 59.6305 11.2361 57.7151 11.2361C56.4382 11.2361 55.2677 11.3116 54.2036 11.4626C53.1698 11.5834 52.3337 11.7344 51.6953 11.9155C51.0872 12.0967 50.768 12.2326 50.7376 12.3232ZM76.6323 1.40763C76.6627 3.00797 76.6779 5.3481 76.6779 8.428C76.6779 13.3498 76.6019 17.8942 76.4499 22.0611C76.2979 26.228 76.1002 29.4438 75.857 31.7084H73.3487V29.9873H74.3064C74.7321 24.9749 74.9449 17.8489 74.9449 8.60917C74.9449 5.49907 74.9297 3.14385 74.8993 1.54351C74.8993 1.45293 74.9601 1.37744 75.0817 1.31705L76.3131 1H76.3587C76.4195 1 76.4803 1.04529 76.5411 1.13588C76.6019 1.19627 76.6323 1.28685 76.6323 1.40763ZM81.6578 29.9873V31.7084H77.5533C77.7965 29.4136 77.9941 26.1827 78.1462 22.0158C78.2982 17.8489 78.3742 13.3347 78.3742 8.47329C78.3742 5.42358 78.359 3.11366 78.3286 1.54351C78.3286 1.45293 78.3894 1.37744 78.511 1.31705L79.7423 1H79.7879C79.8488 1 79.9096 1.04529 79.9704 1.13588C80.0312 1.19627 80.0616 1.28685 80.0616 1.40763C80.092 3.00797 80.1072 5.39339 80.1072 8.56387C80.1072 17.864 79.8944 25.0051 79.4687 29.9873H81.6578ZM87.4699 19.7512C87.4699 19.6002 87.5611 19.5247 87.7435 19.5247L88.9749 19.6606C89.0357 19.6606 89.0813 19.6908 89.1117 19.7512C89.1725 19.7814 89.2029 19.8266 89.2029 19.887C89.1725 23.1179 88.9444 25.5637 88.5188 27.2245C88.0932 28.8852 87.3483 30.0477 86.2842 30.712C85.2504 31.3763 83.7151 31.7084 81.6781 31.7084V29.9873C83.2286 29.9873 84.3991 29.7005 85.1896 29.1267C86.0105 28.553 86.5882 27.5566 86.9226 26.1374C87.2571 24.6881 87.4395 22.5593 87.4699 19.7512ZM84.5056 38.3664C84.8096 38.2759 85.0376 38.0947 85.1896 37.8229C85.3721 37.5814 85.4633 37.3096 85.4633 37.0077C85.4633 36.6151 85.3113 36.2679 85.0072 35.9659C84.7336 35.6942 84.4296 35.5583 84.0951 35.5583C83.7303 35.5583 83.4414 35.6791 83.2286 35.9206C83.0158 36.1622 82.9094 36.4642 82.9094 36.8265C82.9094 37.2794 83.0614 37.672 83.3654 38.0041C83.6999 38.3664 84.0799 38.4872 84.5056 38.3664ZM102.083 22.4234C102.782 22.0611 103.421 21.8195 103.998 21.6987C104.607 21.5478 105.321 21.427 106.142 21.3364V22.8764C104.956 23.0273 103.983 23.284 103.223 23.6463C102.494 23.9785 101.414 24.6579 99.9852 25.6845L99.6204 23.9634C99.8028 23.8124 100.076 23.6161 100.441 23.3746C99.5292 22.8311 99.0731 22.1064 99.0731 21.2005C99.0731 20.3551 99.4532 19.6002 100.213 18.9359C101.004 18.2716 101.901 17.9395 102.904 17.9395C103.451 17.9395 103.998 18.0753 104.546 18.3471L103.907 19.7059C103.542 19.5247 103.178 19.4341 102.813 19.4341C102.235 19.4341 101.749 19.6153 101.353 19.9776C100.958 20.34 100.761 20.7325 100.761 21.1552C100.761 21.6987 101.201 22.1215 102.083 22.4234ZM114.125 29.9873V31.7084H110.02C110.263 29.4136 110.461 26.1827 110.613 22.0158C110.765 17.8489 110.841 13.3347 110.841 8.47329C110.841 5.42358 110.826 3.11366 110.795 1.54351C110.795 1.45293 110.856 1.37744 110.978 1.31705L112.209 1H112.255C112.316 1 112.376 1.04529 112.437 1.13588C112.498 1.19627 112.528 1.28685 112.528 1.40763C112.559 3.00797 112.574 5.39339 112.574 8.56387C112.574 17.864 112.361 25.0051 111.936 29.9873H114.125ZM118.158 16.6713C118.462 16.5807 118.69 16.4146 118.842 16.173C119.025 15.9013 119.116 15.6144 119.116 15.3125C119.116 14.9199 118.964 14.5878 118.66 14.316C118.386 14.0141 118.082 13.8631 117.748 13.8631C117.383 13.8631 117.094 13.9839 116.881 14.2255C116.668 14.467 116.562 14.769 116.562 15.1313C116.562 15.5842 116.714 15.9919 117.018 16.3542C117.352 16.6864 117.732 16.792 118.158 16.6713ZM124.498 38.6382C124.802 38.5476 125.03 38.3664 125.182 38.0947C125.364 37.8531 125.456 37.5814 125.456 37.2794C125.456 36.8869 125.304 36.5396 125 36.2377C124.726 35.9659 124.422 35.8301 124.087 35.8301C123.723 35.8301 123.434 35.9508 123.221 36.1924C123.008 36.434 122.902 36.7359 122.902 37.0983C122.902 37.5512 123.054 37.9437 123.358 38.2759C123.692 38.6382 124.072 38.759 124.498 38.6382ZM132.525 1.40763C132.556 3.00797 132.571 5.3481 132.571 8.428C132.571 13.3498 132.495 17.8942 132.343 22.0611C132.191 26.228 131.993 29.4438 131.75 31.7084H129.242V29.9873H130.199C130.625 24.9749 130.838 17.8489 130.838 8.60917C130.838 5.49907 130.823 3.14385 130.792 1.54351C130.792 1.45293 130.853 1.37744 130.975 1.31705L132.206 1H132.251C132.312 1 132.373 1.04529 132.434 1.13588C132.495 1.19627 132.525 1.28685 132.525 1.40763ZM133.446 31.7084C133.689 29.4136 133.887 26.1827 134.039 22.0158C134.191 17.8489 134.267 13.3347 134.267 8.47329C134.267 5.42358 134.252 3.11366 134.221 1.54351C134.221 1.45293 134.282 1.37744 134.404 1.31705L135.635 1H135.681C135.742 1 135.802 1.04529 135.863 1.13588C135.924 1.19627 135.954 1.28685 135.954 1.40763C135.985 3.00797 136 5.3481 136 8.428C136 13.3498 135.924 17.8942 135.772 22.0611C135.62 26.228 135.422 29.4438 135.179 31.7084H133.446Z" stroke="#4F8893" stroke-width="0.6"/>
</svg>
