<svg width="297" height="87" viewBox="0 0 297 87" fill="none" xmlns="http://www.w3.org/2000/svg">
<path d="M51.9602 64.2V68H38.5602C39.8935 66.8667 41.0602 65.1333 42.0602 62.8C38.1268 65.0667 33.0935 66.2 26.9602 66.2C21.7602 66.2 17.1602 65.1333 13.1602 63C9.22682 60.8667 6.16016 57.9 3.96016 54.1C1.76016 50.2333 0.660156 45.8 0.660156 40.8C0.660156 36.6667 1.62682 32.8333 3.56016 29.3C5.56016 25.7 8.22682 22.8667 11.5602 20.8C14.9602 18.6667 18.5935 17.6 22.4602 17.6C27.1268 17.6 31.4935 18.9333 35.5602 21.6C39.6935 24.2667 42.9935 27.8 45.4602 32.2C47.9268 36.5333 49.1602 41.1333 49.1602 46C49.1602 49.0667 48.8268 52.2333 48.1602 55.5C47.5602 58.7 46.7268 61.6 45.6602 64.2H51.9602ZM26.9602 62.4C30.8935 62.4 34.2602 61.9 37.0602 60.9C39.8602 59.9 42.2268 58.3333 44.1602 56.2C44.9602 52.8667 45.3602 49.4667 45.3602 46C45.3602 41.8 44.2935 37.8 42.1602 34C40.0268 30.2 37.1935 27.1667 33.6602 24.9C30.1268 22.5667 26.3935 21.4 22.4602 21.4C19.2602 21.4 16.2602 22.3 13.4602 24.1C10.7268 25.8333 8.52682 28.2 6.86016 31.2C5.26016 34.1333 4.46016 37.3333 4.46016 40.8C4.46016 45.0667 5.39349 48.8333 7.26016 52.1C9.12682 55.3667 11.7602 57.9 15.1602 59.7C18.5602 61.5 22.4935 62.4 26.9602 62.4ZM15.9602 3.9C15.7602 3.3 15.3935 2.86666 14.8602 2.6C14.3935 2.26666 13.8268 2.1 13.1602 2.1C12.6935 2.1 12.3268 2.16666 12.0602 2.3C11.3935 2.5 10.8602 2.86666 10.4602 3.4C10.0602 3.93333 9.86016 4.53333 9.86016 5.2C9.86016 5.4 9.92682 5.7 10.0602 6.1C10.4602 7.16666 11.2935 7.7 12.5602 7.7C13.0935 7.7 13.4935 7.63333 13.7602 7.5C14.5602 7.23333 15.1935 6.76666 15.6602 6.1C16.1268 5.43333 16.2268 4.7 15.9602 3.9ZM8.26016 4C7.99349 3.4 7.59349 2.93333 7.06016 2.6C6.52682 2.26666 5.96016 2.1 5.36016 2.1C5.02682 2.1 4.66016 2.16666 4.26016 2.3C3.52682 2.63333 2.92682 3.2 2.46016 4C2.06016 4.73333 1.99349 5.43333 2.26016 6.1C2.66016 7.23333 3.52682 7.79999 4.86016 7.79999C5.99349 7.79999 6.89349 7.43333 7.56016 6.7C8.29349 5.9 8.52682 5 8.26016 4ZM64.1805 64.2V68H51.8805V64.2H56.5805C57.5138 53.1333 57.9805 37.4 57.9805 17C57.9805 10.1333 57.9471 4.93333 57.8805 1.4C57.8805 1.2 58.0138 1.03333 58.2805 0.9L60.9805 0.199997H61.0805C61.2138 0.199997 61.3471 0.299997 61.4805 0.499999C61.6138 0.63333 61.6805 0.83333 61.6805 1.1C61.7471 4.63333 61.7805 9.9 61.7805 16.9C61.7805 37.4333 61.3138 53.2 60.3805 64.2H64.1805ZM104.388 64.2V68H99.6875C95.7542 68.1333 89.5542 68.2 81.0875 68.2C73.0208 68.2 67.3875 68.1333 64.1875 68V64.2C69.5208 64.4 75.5208 64.5 82.1875 64.5C86.9208 64.5 90.4208 64.4667 92.6875 64.4C93.4208 59.8667 93.9542 56.3 94.2875 53.7C94.6875 51.1 94.8875 48.5333 94.8875 46C94.8875 39.3333 92.9875 33.8667 89.1875 29.6C85.3875 25.2667 78.5542 22.0667 68.6875 20C68.3542 19.8667 68.2208 19.6667 68.2875 19.4L68.9875 16.6C69.1875 16.2667 69.3875 16.1333 69.5875 16.2C80.5875 18.4667 88.1875 22.1 92.3875 27.1C96.6542 32.1 98.7875 38.3333 98.7875 45.8C98.7875 48.4 98.5875 51.1 98.1875 53.9C97.8542 56.6333 97.3208 60.1 96.5875 64.3L99.0875 64.2H104.388ZM81.8875 80C82.7542 80 83.4875 80.3 84.0875 80.9C84.6875 81.5667 84.9875 82.3333 84.9875 83.2C84.9875 83.8667 84.7875 84.4667 84.3875 85C84.0542 85.6 83.5542 86 82.8875 86.2C81.9542 86.4667 81.1208 86.2333 80.3875 85.5C79.7208 84.7667 79.3875 83.8667 79.3875 82.8C79.3875 82.0667 79.5875 81.4 79.9875 80.8C80.4542 80.2667 81.0875 80 81.8875 80ZM159.522 64.2V68H156.722C154.322 68 151.422 67.6667 148.022 67C144.689 66.3333 141.255 65.3333 137.722 64C131.455 66.6 124.255 67.9 116.122 67.9L104.322 68V64.2L116.122 64.1C122.122 64.1 127.589 63.3667 132.522 61.9C124.655 58.2333 118.189 53.3 113.122 47.1C108.122 40.8333 105.722 33.2667 105.922 24.4C105.989 22.5333 107.822 21.1667 111.422 20.3C115.089 19.4333 119.622 19 125.022 19C132.155 19 138.555 19.7667 144.222 21.3C149.889 22.8333 153.555 24.6667 155.222 26.8C156.489 28.4667 157.122 30.8333 157.122 33.9C157.122 40.0333 155.822 45.4667 153.222 50.2C150.689 54.9333 147.022 58.7667 142.222 61.7C147.822 63.3667 152.655 64.2 156.722 64.2H159.522ZM109.722 25.2C109.722 33.8 112.355 41 117.622 46.8C122.889 52.5333 129.455 56.9333 137.322 60C142.522 57.5333 146.489 54.1 149.222 49.7C151.955 45.2333 153.322 39.9667 153.322 33.9C153.322 31.5667 152.955 30 152.222 29.2C151.422 28.2 149.655 27.2 146.922 26.2C144.255 25.2 140.989 24.4 137.122 23.8C133.255 23.1333 129.222 22.8 125.022 22.8C122.222 22.8 119.655 22.9667 117.322 23.3C115.055 23.5667 113.222 23.9 111.822 24.3C110.489 24.7 109.789 25 109.722 25.2ZM166.502 1.1C166.569 4.63333 166.602 9.8 166.602 16.6C166.602 27.4667 166.436 37.5 166.102 46.7C165.769 55.9 165.336 63 164.802 68H159.302V64.2H161.402C162.336 53.1333 162.802 37.4 162.802 17C162.802 10.1333 162.769 4.93333 162.702 1.4C162.702 1.2 162.836 1.03333 163.102 0.9L165.802 0.199997H165.902C166.036 0.199997 166.169 0.299997 166.302 0.499999C166.436 0.63333 166.502 0.83333 166.502 1.1ZM177.522 64.2V68H168.522C169.055 62.9333 169.489 55.8 169.822 46.6C170.155 37.4 170.322 27.4333 170.322 16.7C170.322 9.96666 170.289 4.86666 170.222 1.4C170.222 1.2 170.355 1.03333 170.622 0.9L173.322 0.199997H173.422C173.555 0.199997 173.689 0.299997 173.822 0.499999C173.955 0.63333 174.022 0.83333 174.022 1.1C174.089 4.63333 174.122 9.9 174.122 16.9C174.122 37.4333 173.655 53.2 172.722 64.2H177.522ZM190.266 41.6C190.266 41.2667 190.466 41.1 190.866 41.1L193.566 41.4C193.7 41.4 193.8 41.4667 193.866 41.6C194 41.6667 194.066 41.7667 194.066 41.9C194 49.0333 193.5 54.4333 192.566 58.1C191.633 61.7667 190 64.3333 187.666 65.8C185.4 67.2667 182.033 68 177.566 68V64.2C180.966 64.2 183.533 63.5667 185.266 62.3C187.066 61.0333 188.333 58.8333 189.066 55.7C189.8 52.5 190.2 47.8 190.266 41.6ZM183.766 82.7C184.433 82.5 184.933 82.1 185.266 81.5C185.666 80.9667 185.866 80.3667 185.866 79.7C185.866 78.8333 185.533 78.0667 184.866 77.4C184.266 76.8 183.6 76.5 182.866 76.5C182.066 76.5 181.433 76.7667 180.966 77.3C180.5 77.8333 180.266 78.5 180.266 79.3C180.266 80.3 180.6 81.1667 181.266 81.9C182 82.7 182.833 82.9667 183.766 82.7ZM222.309 47.5C223.843 46.7 225.243 46.1667 226.509 45.9C227.843 45.5667 229.409 45.3 231.209 45.1V48.5C228.609 48.8333 226.476 49.4 224.809 50.2C223.209 50.9333 220.843 52.4333 217.709 54.7L216.909 50.9C217.309 50.5667 217.909 50.1333 218.709 49.6C216.709 48.4 215.709 46.8 215.709 44.8C215.709 42.9333 216.543 41.2667 218.209 39.8C219.943 38.3333 221.909 37.6 224.109 37.6C225.309 37.6 226.509 37.9 227.709 38.5L226.309 41.5C225.509 41.1 224.709 40.9 223.909 40.9C222.643 40.9 221.576 41.3 220.709 42.1C219.843 42.9 219.409 43.7667 219.409 44.7C219.409 45.9 220.376 46.8333 222.309 47.5ZM248.713 64.2V68H239.713C240.247 62.9333 240.68 55.8 241.013 46.6C241.347 37.4 241.513 27.4333 241.513 16.7C241.513 9.96666 241.48 4.86666 241.413 1.4C241.413 1.2 241.547 1.03333 241.813 0.9L244.513 0.199997H244.613C244.747 0.199997 244.88 0.299997 245.013 0.499999C245.147 0.63333 245.213 0.83333 245.213 1.1C245.28 4.63333 245.313 9.9 245.313 16.9C245.313 37.4333 244.847 53.2 243.913 64.2H248.713ZM265.358 64.2V68H248.458V64.2H248.758C252.158 64.2 254.724 63.5667 256.458 62.3C258.258 61.0333 259.524 58.8333 260.258 55.7C260.991 52.5 261.391 47.8 261.458 41.6C261.458 41.2667 261.658 41.1 262.058 41.1L264.758 41.4C264.891 41.4 264.991 41.4667 265.058 41.6C265.191 41.6667 265.258 41.7667 265.258 41.9C265.191 47.9667 264.824 52.7667 264.158 56.3C263.491 59.7667 262.358 62.4 260.758 64.2H265.358ZM257.558 34.8C258.224 34.6 258.724 34.2333 259.058 33.7C259.458 33.1 259.658 32.4667 259.658 31.8C259.658 30.9333 259.324 30.2 258.658 29.6C258.058 28.9333 257.391 28.6 256.658 28.6C255.858 28.6 255.224 28.8667 254.758 29.4C254.291 29.9333 254.058 30.6 254.058 31.4C254.058 32.4 254.391 33.3 255.058 34.1C255.791 34.8333 256.624 35.0667 257.558 34.8ZM281.959 64.2V68H265.059V64.2H265.359C268.759 64.2 271.326 63.5667 273.059 62.3C274.859 61.0333 276.126 58.8333 276.859 55.7C277.593 52.5 277.993 47.8 278.059 41.6C278.059 41.2667 278.259 41.1 278.659 41.1L281.359 41.4C281.493 41.4 281.593 41.4667 281.659 41.6C281.793 41.6667 281.859 41.7667 281.859 41.9C281.793 47.9667 281.426 52.7667 280.759 56.3C280.093 59.7667 278.959 62.4 277.359 64.2H281.959ZM271.459 83.3C272.126 83.1 272.626 82.7 272.959 82.1C273.359 81.5667 273.559 80.9667 273.559 80.3C273.559 79.4333 273.226 78.6667 272.559 78C271.959 77.4 271.293 77.1 270.559 77.1C269.759 77.1 269.126 77.3667 268.659 77.9C268.193 78.4333 267.959 79.1 267.959 79.9C267.959 80.9 268.293 81.7667 268.959 82.5C269.693 83.3 270.526 83.5667 271.459 83.3ZM289.061 1.1C289.128 4.63333 289.161 9.8 289.161 16.6C289.161 27.4667 288.994 37.5 288.661 46.7C288.328 55.9 287.894 63 287.361 68H281.861V64.2H283.961C284.894 53.1333 285.361 37.4 285.361 17C285.361 10.1333 285.328 4.93333 285.261 1.4C285.261 1.2 285.394 1.03333 285.661 0.9L288.361 0.199997H288.461C288.594 0.199997 288.728 0.299997 288.861 0.499999C288.994 0.63333 289.061 0.83333 289.061 1.1ZM291.08 68C291.614 62.9333 292.047 55.8 292.38 46.6C292.714 37.4 292.88 27.4333 292.88 16.7C292.88 9.96666 292.847 4.86666 292.78 1.4C292.78 1.2 292.914 1.03333 293.18 0.9L295.88 0.199997H295.98C296.114 0.199997 296.247 0.299997 296.38 0.499999C296.514 0.63333 296.58 0.83333 296.58 1.1C296.647 4.63333 296.68 9.8 296.68 16.6C296.68 27.4667 296.514 37.5 296.18 46.7C295.847 55.9 295.414 63 294.88 68H291.08Z" fill="#4B8692"/>
</svg>
