<svg width="193" height="85" viewBox="0 0 193 85" fill="none" xmlns="http://www.w3.org/2000/svg">
<path d="M38.7898 64.2V68H33.5898C29.5232 68.6667 24.0898 69 17.2898 69C10.4898 69 4.75651 68.6667 0.0898438 68V64.3C5.42318 65.0333 10.7898 65.4 16.1898 65.4C21.0565 65.4 25.7565 65.1333 30.2898 64.6C30.9565 60.4667 31.4565 57.1667 31.7898 54.7C32.1232 52.2333 32.2898 49.8667 32.2898 47.6C32.2898 40.8667 30.3565 35.3333 26.4898 31C22.6232 26.6667 15.6565 23.5 5.58984 21.5L6.48984 17.7C17.6898 19.9667 25.4232 23.6333 29.6898 28.7C34.0232 33.7 36.1898 39.9667 36.1898 47.5C36.1898 51.4333 35.5565 57 34.2898 64.2H38.7898ZM55.4008 64.2V68H38.5008V64.2H38.8008C42.2008 64.2 44.7674 63.5667 46.5008 62.3C48.3008 61.0333 49.5674 58.8333 50.3008 55.7C51.0341 52.5 51.4341 47.8 51.5008 41.6C51.5008 41.2667 51.7008 41.1 52.1008 41.1L54.8008 41.4C54.9341 41.4 55.0341 41.4667 55.1008 41.6C55.2341 41.6667 55.3008 41.7667 55.3008 41.9C55.2341 47.9667 54.8674 52.7667 54.2008 56.3C53.5341 59.7667 52.4008 62.4 50.8008 64.2H55.4008ZM45.0008 76.8C46.0008 76.2 46.5008 75.3 46.5008 74.1C46.5008 73.7667 46.3674 73.2667 46.1008 72.6C45.8341 72.1333 45.4341 71.7333 44.9008 71.4C44.3674 71.0667 43.8341 70.9 43.3008 70.9C42.4341 70.9 41.7674 71.1333 41.3008 71.6C40.9008 72.0667 40.7008 72.6667 40.7008 73.4C40.7008 74.0667 40.8341 74.6333 41.1008 75.1C41.4341 75.6333 41.8341 76.0667 42.3008 76.4C42.8341 76.8 43.3674 77 43.9008 77C44.3674 77 44.7341 76.9333 45.0008 76.8ZM46.1008 84.4C47.1008 83.9333 47.6008 83.0667 47.6008 81.8C47.6008 80.8667 47.2674 80.0667 46.6008 79.4C46.0008 78.8 45.2674 78.5 44.4008 78.5C44.0008 78.5 43.6008 78.6 43.2008 78.8C42.2674 79.2667 41.8008 80.0333 41.8008 81.1C41.8008 81.7 41.9341 82.2333 42.2008 82.7C42.4674 83.3 42.8341 83.7667 43.3008 84.1C43.8341 84.5 44.4008 84.7 45.0008 84.7C45.3341 84.7 45.7008 84.6 46.1008 84.4ZM62.5023 1.1C62.569 4.63333 62.6023 9.8 62.6023 16.6C62.6023 27.4667 62.4357 37.5 62.1023 46.7C61.769 55.9 61.3357 63 60.8023 68H55.3023V64.2H57.4023C58.3357 53.1333 58.8023 37.4 58.8023 17C58.8023 10.1333 58.769 4.93333 58.7023 1.4C58.7023 1.2 58.8357 1.03333 59.1023 0.9L61.8023 0.199997H61.9023C62.0357 0.199997 62.169 0.299997 62.3023 0.499999C62.4357 0.63333 62.5023 0.83333 62.5023 1.1ZM73.5219 64.2V68H64.5219C65.0552 62.9333 65.4885 55.8 65.8219 46.6C66.1552 37.4 66.3219 27.4333 66.3219 16.7C66.3219 9.96666 66.2885 4.86666 66.2219 1.4C66.2219 1.2 66.3552 1.03333 66.6219 0.9L69.3219 0.199997H69.4219C69.5552 0.199997 69.6885 0.299997 69.8219 0.499999C69.9552 0.63333 70.0219 0.83333 70.0219 1.1C70.0885 4.63333 70.1219 9.9 70.1219 16.9C70.1219 37.4333 69.6552 53.2 68.7219 64.2H73.5219ZM86.2664 41.6C86.2664 41.2667 86.4664 41.1 86.8664 41.1L89.5664 41.4C89.6997 41.4 89.7997 41.4667 89.8664 41.6C89.9997 41.6667 90.0664 41.7667 90.0664 41.9C89.9997 49.0333 89.4997 54.4333 88.5664 58.1C87.6331 61.7667 85.9997 64.3333 83.6664 65.8C81.3997 67.2667 78.0331 68 73.5664 68V64.2C76.9664 64.2 79.5331 63.5667 81.2664 62.3C83.0664 61.0333 84.3331 58.8333 85.0664 55.7C85.7997 52.5 86.1997 47.8 86.2664 41.6ZM79.7664 82.7C80.4331 82.5 80.9331 82.1 81.2664 81.5C81.6664 80.9667 81.8664 80.3667 81.8664 79.7C81.8664 78.8333 81.5331 78.0667 80.8664 77.4C80.2664 76.8 79.5997 76.5 78.8664 76.5C78.0664 76.5 77.4331 76.7667 76.9664 77.3C76.4997 77.8333 76.2664 78.5 76.2664 79.3C76.2664 80.3 76.5997 81.1667 77.2664 81.9C77.9997 82.7 78.8331 82.9667 79.7664 82.7ZM118.309 47.5C119.843 46.7 121.243 46.1667 122.509 45.9C123.843 45.5667 125.409 45.3 127.209 45.1V48.5C124.609 48.8333 122.476 49.4 120.809 50.2C119.209 50.9333 116.843 52.4333 113.709 54.7L112.909 50.9C113.309 50.5667 113.909 50.1333 114.709 49.6C112.709 48.4 111.709 46.8 111.709 44.8C111.709 42.9333 112.543 41.2667 114.209 39.8C115.943 38.3333 117.909 37.6 120.109 37.6C121.309 37.6 122.509 37.9 123.709 38.5L122.309 41.5C121.509 41.1 120.709 40.9 119.909 40.9C118.643 40.9 117.576 41.3 116.709 42.1C115.843 42.9 115.409 43.7667 115.409 44.7C115.409 45.9 116.376 46.8333 118.309 47.5ZM144.713 64.2V68H135.713C136.247 62.9333 136.68 55.8 137.013 46.6C137.347 37.4 137.513 27.4333 137.513 16.7C137.513 9.96666 137.48 4.86666 137.413 1.4C137.413 1.2 137.547 1.03333 137.813 0.9L140.513 0.199997H140.613C140.747 0.199997 140.88 0.299997 141.013 0.499999C141.147 0.63333 141.213 0.83333 141.213 1.1C141.28 4.63333 141.313 9.9 141.313 16.9C141.313 37.4333 140.847 53.2 139.913 64.2H144.713ZM161.358 64.2V68H144.458V64.2H144.758C148.158 64.2 150.724 63.5667 152.458 62.3C154.258 61.0333 155.524 58.8333 156.258 55.7C156.991 52.5 157.391 47.8 157.458 41.6C157.458 41.2667 157.658 41.1 158.058 41.1L160.758 41.4C160.891 41.4 160.991 41.4667 161.058 41.6C161.191 41.6667 161.258 41.7667 161.258 41.9C161.191 47.9667 160.824 52.7667 160.158 56.3C159.491 59.7667 158.358 62.4 156.758 64.2H161.358ZM153.558 34.8C154.224 34.6 154.724 34.2333 155.058 33.7C155.458 33.1 155.658 32.4667 155.658 31.8C155.658 30.9333 155.324 30.2 154.658 29.6C154.058 28.9333 153.391 28.6 152.658 28.6C151.858 28.6 151.224 28.8667 150.758 29.4C150.291 29.9333 150.058 30.6 150.058 31.4C150.058 32.4 150.391 33.3 151.058 34.1C151.791 34.8333 152.624 35.0667 153.558 34.8ZM177.959 64.2V68H161.059V64.2H161.359C164.759 64.2 167.326 63.5667 169.059 62.3C170.859 61.0333 172.126 58.8333 172.859 55.7C173.593 52.5 173.993 47.8 174.059 41.6C174.059 41.2667 174.259 41.1 174.659 41.1L177.359 41.4C177.493 41.4 177.593 41.4667 177.659 41.6C177.793 41.6667 177.859 41.7667 177.859 41.9C177.793 47.9667 177.426 52.7667 176.759 56.3C176.093 59.7667 174.959 62.4 173.359 64.2H177.959ZM167.459 83.3C168.126 83.1 168.626 82.7 168.959 82.1C169.359 81.5667 169.559 80.9667 169.559 80.3C169.559 79.4333 169.226 78.6667 168.559 78C167.959 77.4 167.293 77.1 166.559 77.1C165.759 77.1 165.126 77.3667 164.659 77.9C164.193 78.4333 163.959 79.1 163.959 79.9C163.959 80.9 164.293 81.7667 164.959 82.5C165.693 83.3 166.526 83.5667 167.459 83.3ZM185.061 1.1C185.128 4.63333 185.161 9.8 185.161 16.6C185.161 27.4667 184.994 37.5 184.661 46.7C184.328 55.9 183.894 63 183.361 68H177.861V64.2H179.961C180.894 53.1333 181.361 37.4 181.361 17C181.361 10.1333 181.328 4.93333 181.261 1.4C181.261 1.2 181.394 1.03333 181.661 0.9L184.361 0.199997H184.461C184.594 0.199997 184.728 0.299997 184.861 0.499999C184.994 0.63333 185.061 0.83333 185.061 1.1ZM187.08 68C187.614 62.9333 188.047 55.8 188.38 46.6C188.714 37.4 188.88 27.4333 188.88 16.7C188.88 9.96666 188.847 4.86666 188.78 1.4C188.78 1.2 188.914 1.03333 189.18 0.9L191.88 0.199997H191.98C192.114 0.199997 192.247 0.299997 192.38 0.499999C192.514 0.63333 192.58 0.83333 192.58 1.1C192.647 4.63333 192.68 9.8 192.68 16.6C192.68 27.4667 192.514 37.5 192.18 46.7C191.847 55.9 191.414 63 190.88 68H187.08Z" fill="#4B8692"/>
</svg>
