<svg width="28" height="1002" viewBox="0 0 28 1002" fill="none" xmlns="http://www.w3.org/2000/svg">
<path d="M14 0.666667C6.6362 0.666667 0.666667 6.6362 0.666667 14C0.666667 21.3638 6.6362 27.3333 14 27.3333C21.3638 27.3333 27.3333 21.3638 27.3333 14C27.3333 6.6362 21.3638 0.666667 14 0.666667ZM14 974.667C6.6362 974.667 0.666667 980.636 0.666667 988C0.666667 995.364 6.6362 1001.33 14 1001.33C21.3638 1001.33 27.3333 995.364 27.3333 988C27.3333 980.636 21.3638 974.667 14 974.667ZM11.5 14V18.9694H16.5V14H11.5ZM11.5 28.9082L11.5 38.8469H16.5V28.9082H11.5ZM11.5 48.7857L11.5 58.7245H16.5V48.7857H11.5ZM11.5 68.6633V78.602H16.5V68.6633H11.5ZM11.5 88.5408L11.5 98.4796H16.5L16.5 88.5408H11.5ZM11.5 108.418L11.5 118.357H16.5V108.418H11.5ZM11.5 128.296V138.235H16.5V128.296H11.5ZM11.5 148.173V158.112H16.5V148.173H11.5ZM11.5 168.051L11.5 177.99H16.5V168.051H11.5ZM11.5 187.929V197.867H16.5V187.929H11.5ZM11.5 207.806V217.745H16.5L16.5 207.806H11.5ZM11.5 227.684L11.5 237.623H16.5V227.684H11.5ZM11.5 247.561V257.5H16.5V247.561H11.5ZM11.5 267.439V277.378H16.5V267.439H11.5ZM11.5 287.316V297.255H16.5V287.316H11.5ZM11.5 307.194V317.133H16.5V307.194H11.5ZM11.5 327.072V337.01H16.5L16.5 327.072H11.5ZM11.5 346.949V356.888H16.5V346.949H11.5ZM11.5 366.827V376.765H16.5V366.827H11.5ZM11.5 386.704V396.643H16.5L16.5 386.704H11.5ZM11.5 406.582V416.521H16.5V406.582H11.5ZM11.5 426.459V436.398H16.5V426.459H11.5ZM11.5 446.337V456.276H16.5V446.337H11.5ZM11.5 466.214V476.153H16.5V466.214H11.5ZM11.5 486.092V496.031H16.5V486.092H11.5ZM11.5 505.97V515.908H16.5L16.5 505.97H11.5ZM11.5 525.847V535.786H16.5V525.847H11.5ZM11.5 545.725L11.5 555.664H16.5V545.725H11.5ZM11.5 565.602V575.541H16.5V565.602H11.5ZM11.5 585.48V595.419H16.5V585.48H11.5ZM11.5 605.357L11.5 615.296H16.5V605.357H11.5ZM11.5 625.235L11.5 635.174H16.5L16.5 625.235H11.5ZM11.5 645.113V655.051H16.5V645.113H11.5ZM11.5 664.99L11.5 674.929H16.5V664.99H11.5ZM11.5 684.868L11.5 694.806H16.5V684.868H11.5ZM11.5 704.745V714.684H16.5V704.745H11.5ZM11.5 724.623L11.5 734.562H16.5V724.623H11.5ZM11.5 744.5L11.5 754.439H16.5V744.5H11.5ZM11.5 764.378V774.317H16.5V764.378H11.5ZM11.5 784.255L11.5 794.194H16.5L16.5 784.255H11.5ZM11.5 804.133V814.072H16.5V804.133H11.5ZM11.5 824.011V833.949H16.5V824.011H11.5ZM11.5 843.888L11.5 853.827H16.5V843.888H11.5ZM11.5 863.766L11.5 873.705H16.5V863.766H11.5ZM11.5 883.643V893.582H16.5V883.643H11.5ZM11.5 903.521L11.5 913.46H16.5V903.521H11.5ZM11.5 923.398L11.5 933.337H16.5V923.398H11.5ZM11.5 943.276V953.215H16.5V943.276H11.5ZM11.5 963.154L11.5 973.092H16.5L16.5 963.154H11.5ZM11.5 983.031V988H16.5V983.031H11.5Z" fill="white"/>
</svg>
