<svg width="571" height="339" viewBox="0 0 571 339" fill="none" xmlns="http://www.w3.org/2000/svg">
<path d="M18.796 21.016H19.884V23H18.508C16.6093 23 15.18 22.36 14.22 21.08C13.2387 22.3387 11.788 22.9787 9.868 23H5.804C3.45733 23 2.284 24.216 2.284 26.648V31.96L0.14 33.08V26.584C0.14 24.8133 0.662667 23.4267 1.708 22.424C2.64667 21.5067 3.89467 21.0373 5.452 21.016C4.44933 19.736 3.948 18.0507 3.948 15.96C3.948 13.656 4.54533 11.8747 5.74 10.616C6.78533 9.48533 8.172 8.92 9.9 8.92C11.6707 8.92 13.036 9.47467 13.996 10.584C14.828 11.544 15.244 12.824 15.244 14.424V17.368C15.244 19.8 16.428 21.016 18.796 21.016ZM13.1 17.496V14.616C13.1 12.12 12.0333 10.872 9.9 10.872C8.684 10.872 7.73467 11.32 7.052 12.216C6.39067 13.112 6.06 14.3493 6.06 15.928C6.06 17.528 6.38 18.776 7.02 19.672C7.66 20.568 8.54533 21.016 9.676 21.016C11.9587 21.016 13.1 19.8427 13.1 17.496ZM29.4505 21.016H30.5705V23H29.1945C27.2318 23 25.7705 22.328 24.8105 20.984C23.8078 22.328 22.3252 23 20.3625 23H19.2425V21.016H20.1385C22.5705 21.016 23.7865 19.7573 23.7865 17.24V3.48L25.9305 2.36V17.368C25.9305 19.8 27.1038 21.016 29.4505 21.016ZM52.778 23H44.874C43.722 23 42.5487 22.7547 41.354 22.264C40.138 22.7547 38.954 23 37.802 23H29.93V21.016H37.674C38.1007 21.016 38.538 20.984 38.986 20.92C37.3007 19.704 35.466 17.6987 33.482 14.904V13.592C35.7007 10.4773 38.314 8.92 41.322 8.92C44.3087 8.92 46.9327 10.4987 49.194 13.656V14.904C47.21 17.6987 45.386 19.704 43.722 20.92C44.1487 20.984 44.5753 21.016 45.002 21.016H52.746L52.778 23ZM35.338 14.264C37.578 17.2507 39.5727 19.192 41.322 20.088C43.05 19.192 45.0553 17.24 47.338 14.232C45.6313 11.992 43.626 10.872 41.322 10.872H41.226C39.05 10.872 37.0873 12.0027 35.338 14.264ZM54.0688 5.08C53.1941 5.08 52.7568 4.632 52.7568 3.736C52.7568 2.88267 53.1941 2.456 54.0688 2.456C54.9008 2.456 55.3168 2.88267 55.3168 3.736C55.3168 4.632 54.9008 5.08 54.0688 5.08ZM57.7168 5.08C56.8421 5.08 56.4048 4.632 56.4048 3.736C56.4048 2.88267 56.8421 2.456 57.7168 2.456C58.5488 2.456 58.9648 2.88267 58.9648 3.736C58.9648 4.632 58.5488 5.08 57.7168 5.08ZM52.1487 23V21.016H53.2688C55.6154 21.016 56.7888 19.8 56.7888 17.368V10.424L58.9328 9.304V17.432C58.9328 19.224 58.4101 20.6213 57.3648 21.624C56.4048 22.5413 55.1248 23 53.5247 23H52.1487ZM91.868 21.016H92.988V23H91.612C90.2467 23 89.1053 22.6587 88.188 21.976C88.0173 24.2373 87.1107 26.0187 85.468 27.32C83.996 28.4933 82.14 29.08 79.9 29.08C77.1267 29.08 74.9933 28.1307 73.5 26.232C72.3267 24.76 71.74 23 71.74 20.952C71.74 19.096 72.2093 17.528 73.148 16.248L75.26 15.768C74.2147 17.304 73.692 18.9893 73.692 20.824C73.692 22.7013 74.3 24.2373 75.516 25.432C76.668 26.5627 78.1293 27.128 79.9 27.128C81.948 27.128 83.5373 26.5093 84.668 25.272C85.628 24.248 86.108 22.9147 86.108 21.272V3.48L88.22 2.36V17.4V17.464C88.22 19.832 89.436 21.016 91.868 21.016ZM112.464 21.016H113.552V23H112.176C110.235 23 108.784 22.328 107.824 20.984C106.758 22.7547 105.136 23.64 102.96 23.64C100.763 23.64 99.1416 22.7653 98.0963 21.016C97.1149 22.3387 95.6536 23 93.7122 23H92.3362V21.016H93.4563C95.8029 21.016 96.9763 19.8 96.9763 17.368V16.28C96.9763 13.8267 97.5736 11.9493 98.7683 10.648C99.8136 9.496 101.211 8.92 102.96 8.92C104.966 8.92 106.491 9.66667 107.536 11.16C108.454 12.44 108.912 14.1467 108.912 16.28V17.368C108.912 19.8 110.096 21.016 112.464 21.016ZM102.96 21.656C104.134 21.656 105.062 21.176 105.744 20.216C106.427 19.2347 106.768 17.912 106.768 16.248C106.768 12.664 105.499 10.872 102.96 10.872C100.4 10.872 99.1203 12.664 99.1203 16.248C99.1203 19.8533 100.4 21.656 102.96 21.656ZM129.827 2.808C129.059 2.808 128.675 2.40267 128.675 1.592C128.675 0.823999 129.059 0.439999 129.827 0.439999C130.595 0.439999 130.979 0.823999 130.979 1.592C130.979 2.40267 130.595 2.808 129.827 2.808ZM128.035 6.136C127.16 6.136 126.723 5.69867 126.723 4.824C126.723 3.94933 127.16 3.512 128.035 3.512C128.867 3.512 129.283 3.94933 129.283 4.824C129.283 5.69867 128.867 6.136 128.035 6.136ZM131.683 6.136C130.829 6.136 130.403 5.69867 130.403 4.824C130.403 3.94933 130.829 3.512 131.683 3.512C132.536 3.512 132.963 3.94933 132.963 4.824C132.963 5.69867 132.536 6.136 131.683 6.136ZM112.899 23V21.016H114.851C117.219 21.016 118.403 19.8 118.403 17.368V12.76L120.547 11.64V17.368C120.547 19.8 121.72 21.016 124.067 21.016H125.251C127.597 21.016 128.771 19.8 128.771 17.368V11.608L130.915 10.456V17.368C130.915 19.8 132.099 21.016 134.467 21.016H135.619C137.987 21.016 139.171 19.8 139.171 17.368V10.424L141.315 9.304V17.24C141.315 19.7573 142.531 21.016 144.963 21.016H146.819V23H144.739C142.712 23 141.229 22.2853 140.291 20.856C139.352 22.2853 137.901 23 135.939 23H134.179C132.195 23 130.755 22.296 129.859 20.888C128.941 22.296 127.512 23 125.571 23H123.811C121.827 23 120.376 22.296 119.459 20.888C118.563 22.296 117.123 23 115.139 23H112.899ZM148.1 5.08C147.225 5.08 146.788 4.632 146.788 3.736C146.788 2.88267 147.225 2.456 148.1 2.456C148.932 2.456 149.348 2.88267 149.348 3.736C149.348 4.632 148.932 5.08 148.1 5.08ZM151.748 5.08C150.873 5.08 150.436 4.632 150.436 3.736C150.436 2.88267 150.873 2.456 151.748 2.456C152.58 2.456 152.996 2.88267 152.996 3.736C152.996 4.632 152.58 5.08 151.748 5.08ZM146.18 23V21.016H147.3C149.647 21.016 150.82 19.8 150.82 17.368V10.424L152.964 9.304V17.432C152.964 19.224 152.441 20.6213 151.396 21.624C150.436 22.5413 149.156 23 147.556 23H146.18ZM169.099 21.72C169.099 21.7413 169.099 21.7627 169.099 21.784C169.099 22.7013 168.662 23.16 167.787 23.16C166.87 23.16 166.411 22.6907 166.411 21.752C166.454 20.8773 166.913 20.44 167.787 20.44C168.662 20.44 169.099 20.8667 169.099 21.72ZM180.257 23C178.443 23 177.046 22.4133 176.065 21.24C175.254 20.2373 174.849 18.968 174.849 17.432V3.48L176.993 2.36V17.368C176.993 19.8 178.166 21.016 180.513 21.016H181.633V23H180.257ZM191.297 21.016H192.417V23H191.041C189.121 23 187.681 22.3493 186.721 21.048C185.718 22.3493 184.267 23 182.368 23H180.992V21.016H182.113C184.459 21.016 185.633 19.8 185.633 17.368V10.424L187.777 9.304V17.368C187.777 19.8 188.95 21.016 191.297 21.016ZM184.033 26.36C184.886 26.36 185.312 26.7973 185.312 27.672C185.312 28.5467 184.886 28.984 184.033 28.984C183.179 28.984 182.753 28.5467 182.753 27.672C182.753 26.7973 183.179 26.36 184.033 26.36ZM187.681 26.36C188.534 26.36 188.961 26.7973 188.961 27.672C188.961 28.5467 188.534 28.984 187.681 28.984C186.827 28.984 186.401 28.5467 186.401 27.672C186.401 26.7973 186.827 26.36 187.681 26.36ZM208.158 21.016V23H191.774V21.016H197.15C195.806 19.6507 195.134 17.8373 195.134 15.576C195.134 13.4213 195.87 11.7147 197.342 10.456C198.515 9.45333 199.891 8.94133 201.47 8.92C203.667 8.92 205.384 9.784 206.622 11.512V13.624C205.342 11.7893 203.699 10.872 201.694 10.872H201.598C200.318 10.872 199.272 11.3093 198.462 12.184C197.672 13.0587 197.278 14.2107 197.278 15.64C197.278 17.2827 197.768 18.5947 198.75 19.576C199.688 20.536 200.947 21.016 202.526 21.016H208.158ZM226.678 21.016V23H223.286C223.265 24.408 222.806 25.6453 221.91 26.712C221.035 27.8 219.894 28.5147 218.486 28.856C217.974 29.0053 217.419 29.08 216.822 29.08C215.585 29.08 214.379 28.7813 213.206 28.184V26.296C214.315 26.8933 215.414 27.192 216.502 27.192C217.377 27.192 218.145 27 218.806 26.616C219.467 26.2747 220.022 25.752 220.47 25.048C220.918 24.3653 221.142 23.6827 221.142 23L218.422 22.904C216.054 22.7973 214.283 22.0507 213.11 20.664C212.15 19.4907 211.67 17.9227 211.67 15.96C211.67 13.656 212.267 11.8747 213.462 10.616C214.529 9.48533 215.958 8.92 217.75 8.92C219.606 8.92 221.025 9.47467 222.006 10.584C222.859 11.544 223.286 12.824 223.286 14.424V21.016H226.678ZM221.142 14.648C221.142 12.1307 220.011 10.872 217.75 10.872C216.491 10.872 215.51 11.32 214.806 12.216C214.123 13.0907 213.782 14.328 213.782 15.928C213.782 19.1067 215.35 20.7707 218.486 20.92C219.425 20.984 220.31 21.016 221.142 21.016V14.648ZM236.328 21.016H237.448V23H236.072C234.152 23 232.712 22.3493 231.752 21.048C230.749 22.3493 229.298 23 227.4 23H226.024V21.016H227.144C229.49 21.016 230.664 19.8 230.664 17.368V10.424L232.808 9.304V17.368C232.808 19.8 233.981 21.016 236.328 21.016ZM231.4 26.36C232.232 26.36 232.648 26.7867 232.648 27.64C232.648 28.536 232.232 28.984 231.4 28.984C230.525 28.984 230.088 28.536 230.088 27.64C230.088 26.7867 230.525 26.36 231.4 26.36ZM236.805 23V21.016H238.757C241.125 21.016 242.309 19.8 242.309 17.368V12.76L244.453 11.64V17.368C244.453 19.8 245.626 21.016 247.973 21.016H249.157C251.504 21.016 252.677 19.8 252.677 17.368V11.608L254.821 10.456V17.368C254.821 19.8 256.005 21.016 258.373 21.016H259.525C261.893 21.016 263.077 19.8 263.077 17.368V10.424L265.221 9.304V17.432C265.221 19.2027 264.698 20.5893 263.653 21.592C262.714 22.5093 261.445 22.9787 259.845 23H258.085C256.101 23 254.661 22.296 253.765 20.888C252.848 22.296 251.418 23 249.477 23H247.717C245.733 23 244.282 22.296 243.365 20.888C242.469 22.296 241.029 23 239.045 23H236.805ZM270.974 23V3.48L273.118 2.36V23H270.974ZM289.64 4.92C288.765 4.92 288.328 4.472 288.328 3.576C288.328 2.72267 288.765 2.296 289.64 2.296C290.472 2.296 290.888 2.72267 290.888 3.576C290.888 4.472 290.472 4.92 289.64 4.92ZM293.288 4.92C292.413 4.92 291.976 4.472 291.976 3.576C291.976 2.72267 292.413 2.296 293.288 2.296C294.12 2.296 294.536 2.72267 294.536 3.576C294.536 4.472 294.12 4.92 293.288 4.92ZM299.496 21.016H300.583V23H299.208C296.925 23 295.336 22.104 294.44 20.312C293.33 21.464 291.965 22.04 290.344 22.04C288.509 22.04 287.058 21.3467 285.992 19.96C285.096 18.7867 284.648 17.3253 284.648 15.576C284.648 13.528 285.245 11.8853 286.44 10.648C287.485 9.56 288.776 9.016 290.312 9.016C291.698 9.016 292.861 9.42133 293.8 10.232V8.504L295.944 7.384V17.368C295.944 19.8 297.128 21.016 299.496 21.016ZM293.8 12.664C292.861 11.5333 291.72 10.968 290.376 10.968C289.309 10.968 288.434 11.4053 287.752 12.28C287.09 13.1333 286.76 14.2427 286.76 15.608C286.76 16.9947 287.09 18.104 287.752 18.936C288.434 19.768 289.32 20.184 290.408 20.184C291.794 20.184 292.946 19.576 293.864 18.36C293.821 17.976 293.8 17.6667 293.8 17.432V12.664ZM299.93 23V21.016H301.882C304.25 21.016 305.434 19.8 305.434 17.368V12.76L307.578 11.64V17.368C307.578 19.8 308.751 21.016 311.098 21.016H312.282C314.629 21.016 315.802 19.8 315.802 17.368V11.608L317.946 10.456V17.368C317.946 19.8 319.13 21.016 321.498 21.016H322.65C325.018 21.016 326.202 19.8 326.202 17.368V10.424L328.346 9.304V17.24C328.346 19.7573 329.562 21.016 331.994 21.016H333.85V23H331.77C329.743 23 328.261 22.2853 327.322 20.856C326.383 22.2853 324.933 23 322.97 23H321.21C319.226 23 317.786 22.296 316.89 20.888C315.973 22.296 314.543 23 312.602 23H310.842C308.858 23 307.407 22.296 306.49 20.888C305.594 22.296 304.154 23 302.17 23H299.93ZM343.419 21.016H344.539V23H343.163C341.201 23 339.739 22.328 338.779 20.984C337.777 22.328 336.294 23 334.331 23H333.211V21.016H334.107C336.539 21.016 337.755 19.7573 337.755 17.24V3.48L339.899 2.36V17.368C339.899 19.8 341.073 21.016 343.419 21.016ZM343.899 23V21.016H347.483C352.133 21.016 355.76 19.4373 358.363 16.28C356.464 12.6533 354.171 10.84 351.483 10.84C349.648 10.84 347.856 11.768 346.107 13.624V11.512C347.856 9.784 349.68 8.92 351.579 8.92H351.643C354.992 8.92 357.893 11.1813 360.347 15.704V17.016C357.232 21.0053 352.933 23 347.451 23H343.899ZM352.347 28.984C351.472 28.984 351.035 28.536 351.035 27.64C351.035 26.7867 351.472 26.36 352.347 26.36C353.179 26.36 353.595 26.7867 353.595 27.64C353.595 28.536 353.179 28.984 352.347 28.984ZM379.641 22.2C379.428 22.328 379.076 22.5307 378.585 22.808L378.521 22.84C376.772 23.8213 375.598 24.664 375.001 25.368C374.425 26.072 374.137 27.0107 374.137 28.184C374.137 29.592 374.617 30.744 375.577 31.64C376.558 32.5573 377.817 33.016 379.353 33.016H379.417C381.849 33.016 383.801 32.472 385.273 31.384V33.336C383.524 34.4453 381.55 35 379.353 35C377.049 35 375.214 34.2427 373.849 32.728C372.718 31.448 372.153 29.912 372.153 28.12C372.153 26.6053 372.526 25.3893 373.273 24.472C374.02 23.5547 375.524 22.4667 377.785 21.208C375.929 19.9493 373.966 17.848 371.897 14.904V13.592C374.116 10.4773 376.729 8.92 379.737 8.92C381.145 8.92 382.542 9.336 383.929 10.168C385.316 11 386.542 12.1627 387.609 13.656V14.904C386.137 16.9307 384.164 18.904 381.689 20.824C382.244 20.952 382.82 21.016 383.417 21.016H391.161V23H383.289C382.03 23 380.814 22.7333 379.641 22.2ZM373.753 14.296C375.993 17.24 377.966 19.16 379.673 20.056C381.87 18.52 383.897 16.5787 385.753 14.232C384.046 11.992 382.041 10.872 379.737 10.872H379.641C377.444 10.872 375.481 12.0133 373.753 14.296ZM398.364 5.176C397.489 5.176 397.052 4.728 397.052 3.832C397.052 2.97867 397.489 2.552 398.364 2.552C399.196 2.552 399.612 2.97867 399.612 3.832C399.612 4.728 399.196 5.176 398.364 5.176ZM402.012 5.176C401.137 5.176 400.7 4.728 400.7 3.832C400.7 2.97867 401.137 2.552 402.012 2.552C402.844 2.552 403.26 2.97867 403.26 3.832C403.26 4.728 402.844 5.176 402.012 5.176ZM390.524 23V21.016H395.964C394.79 19.8427 394.204 18.1573 394.204 15.96C394.204 13.656 394.801 11.8747 395.996 10.616C397.041 9.48533 398.428 8.92 400.156 8.92C401.926 8.92 403.292 9.47467 404.252 10.584C405.084 11.544 405.5 12.824 405.5 14.424V17.528C405.478 19.256 404.956 20.6107 403.932 21.592C402.993 22.5307 401.713 23 400.092 23H390.524ZM403.388 14.616C403.388 12.12 402.31 10.872 400.156 10.872C398.961 10.872 398.022 11.32 397.34 12.216C396.678 13.0907 396.348 14.328 396.348 15.928C396.348 17.4853 396.668 18.7227 397.308 19.64C397.969 20.5573 398.844 21.016 399.932 21.016C402.236 21.016 403.388 19.8213 403.388 17.432V14.616ZM410.943 23V3.48L413.087 2.36V23H410.943ZM432.897 21.016V23H429.505C429.483 24.408 429.025 25.6453 428.129 26.712C427.254 27.8 426.113 28.5147 424.705 28.856C424.193 29.0053 423.638 29.08 423.041 29.08C421.803 29.08 420.598 28.7813 419.425 28.184V26.296C420.534 26.8933 421.633 27.192 422.721 27.192C423.595 27.192 424.363 27 425.025 26.616C425.686 26.2747 426.241 25.752 426.689 25.048C427.137 24.3653 427.361 23.6827 427.361 23L424.641 22.904C422.273 22.7973 420.502 22.0507 419.329 20.664C418.369 19.4907 417.889 17.9227 417.889 15.96C417.889 13.656 418.486 11.8747 419.681 10.616C420.747 9.48533 422.177 8.92 423.969 8.92C425.825 8.92 427.243 9.47467 428.225 10.584C429.078 11.544 429.505 12.824 429.505 14.424V21.016H432.897ZM427.361 14.648C427.361 12.1307 426.23 10.872 423.969 10.872C422.71 10.872 421.729 11.32 421.025 12.216C420.342 13.0907 420.001 14.328 420.001 15.928C420.001 19.1067 421.569 20.7707 424.705 20.92C425.643 20.984 426.529 21.016 427.361 21.016V14.648ZM432.242 23V21.016H433.363C435.709 21.016 436.883 19.8 436.883 17.368V10.424L439.027 9.304V17.432C439.027 19.224 438.504 20.6213 437.459 21.624C436.499 22.5413 435.219 23 433.618 23H432.242ZM436.499 28.984C435.624 28.984 435.187 28.536 435.187 27.64C435.187 26.7867 435.624 26.36 436.499 26.36C437.331 26.36 437.747 26.7867 437.747 27.64C437.747 28.536 437.331 28.984 436.499 28.984ZM460.954 8.12C460.1 8.12 459.674 7.672 459.674 6.776C459.674 5.92267 460.1 5.496 460.954 5.496C461.807 5.496 462.234 5.92267 462.234 6.776C462.234 7.672 461.807 8.12 460.954 8.12ZM464.634 8.12C463.759 8.12 463.322 7.672 463.322 6.776C463.322 5.92267 463.759 5.496 464.634 5.496C465.466 5.496 465.882 5.92267 465.882 6.776C465.882 7.672 465.466 8.12 464.634 8.12ZM457.658 23C456.079 23 454.82 22.5093 453.882 21.528C452.943 20.5253 452.474 19.1813 452.474 17.496V13.304L454.618 12.184V17.24C454.618 19.7573 455.791 21.016 458.138 21.016H468.858C471.204 21.016 472.378 19.7573 472.378 17.24V10.424L474.522 9.304V17.496C474.522 19.3093 473.967 20.7173 472.858 21.72C471.898 22.5733 470.639 23 469.082 23H457.658ZM485.694 23C483.881 23 482.484 22.4133 481.502 21.24C480.692 20.2373 480.286 18.968 480.286 17.432V3.48L482.43 2.36V17.368C482.43 19.8 483.604 21.016 485.95 21.016H487.07V23H485.694ZM486.43 23V21.016H488.382C490.75 21.016 491.934 19.8 491.934 17.368V12.76L494.078 11.64V17.368C494.078 19.8 495.251 21.016 497.598 21.016H498.782C501.129 21.016 502.302 19.8 502.302 17.368V11.608L504.446 10.456V17.368C504.446 19.8 505.63 21.016 507.998 21.016H509.15C511.518 21.016 512.702 19.8 512.702 17.368V10.424L514.846 9.304V17.24C514.846 19.7573 516.062 21.016 518.494 21.016H520.35V23H518.27C516.243 23 514.761 22.2853 513.822 20.856C512.883 22.2853 511.433 23 509.47 23H507.71C505.726 23 504.286 22.296 503.39 20.888C502.473 22.296 501.043 23 499.102 23H497.342C495.358 23 493.907 22.296 492.99 20.888C492.094 22.296 490.654 23 488.67 23H486.43ZM529.919 21.016H531.039V23H529.663C527.701 23 526.239 22.328 525.279 20.984C524.277 22.328 522.794 23 520.831 23H519.711V21.016H520.607C523.039 21.016 524.255 19.7573 524.255 17.24V3.48L526.399 2.36V17.368C526.399 19.8 527.573 21.016 529.919 21.016ZM530.399 23V21.016H533.983C538.633 21.016 542.26 19.4373 544.863 16.28C542.964 12.6533 540.671 10.84 537.983 10.84C536.148 10.84 534.356 11.768 532.607 13.624V11.512C534.356 9.784 536.18 8.92 538.079 8.92H538.143C541.492 8.92 544.393 11.1813 546.847 15.704V17.016C543.732 21.0053 539.433 23 533.951 23H530.399ZM538.847 28.984C537.972 28.984 537.535 28.536 537.535 27.64C537.535 26.7867 537.972 26.36 538.847 26.36C539.679 26.36 540.095 26.7867 540.095 27.64C540.095 28.536 539.679 28.984 538.847 28.984ZM558.845 5.784L557.885 4.376C559.4 3.032 561.213 2.36 563.325 2.36C565.053 2.36 566.482 2.872 567.613 3.896C568.658 4.856 569.181 6.08267 569.181 7.576C569.181 8.64267 568.861 9.592 568.221 10.424C567.581 11.2347 566.738 11.768 565.693 12.024C567.037 12.344 568.093 12.9627 568.861 13.88C569.629 14.7973 570.013 15.9067 570.013 17.208C570.013 19.3627 569.202 21.0053 567.581 22.136C566.386 22.9467 564.978 23.352 563.357 23.352C561.309 23.352 559.4 22.648 557.629 21.24L558.653 19.864C559.997 20.8027 561.469 21.272 563.069 21.272C564.392 21.272 565.458 20.8987 566.269 20.152C567.08 19.4053 567.485 18.4133 567.485 17.176C567.485 14.552 565.917 13.24 562.781 13.24H560.157V11.224H562.781C563.976 11.224 564.914 10.9147 565.597 10.296C566.301 9.67733 566.653 8.824 566.653 7.736C566.653 5.496 565.405 4.376 562.909 4.376C561.608 4.376 560.253 4.84533 558.845 5.784ZM229.287 59.72C229.287 59.7413 229.287 59.7627 229.287 59.784C229.287 60.7013 228.849 61.16 227.975 61.16C227.057 61.16 226.599 60.6907 226.599 59.752C226.641 58.8773 227.1 58.44 227.975 58.44C228.849 58.44 229.287 58.8667 229.287 59.72ZM253.884 59.016H255.004V61H253.852C252.018 61 250.556 60.776 249.468 60.328C248.38 59.88 247.378 59.0907 246.46 57.96C245.714 58.2373 244.572 58.5253 243.036 58.824C240.519 59.3147 238.823 59.9973 237.948 60.872C236.903 61.9173 236.38 63.3893 236.38 65.288C236.38 67.1227 236.988 68.5733 238.204 69.64C239.228 70.5573 240.54 71.016 242.14 71.016H242.204C244.636 71.016 246.588 70.472 248.06 69.384V71.336C246.311 72.4453 244.327 73 242.108 73C239.719 73 237.799 72.2 236.348 70.6C235.047 69.1707 234.396 67.3787 234.396 65.224C234.396 62.92 235.1 61.032 236.508 59.56C237.148 58.8987 237.884 58.3973 238.716 58.056C239.548 57.6933 240.818 57.352 242.524 57.032C244.274 56.6907 245.554 56.3387 246.364 55.976C247.175 55.592 247.879 55.0373 248.476 54.312C246.62 50.664 244.327 48.84 241.596 48.84C239.74 48.84 237.948 49.768 236.22 51.624V49.512C237.97 47.784 239.794 46.92 241.692 46.92H241.756C245.106 46.92 248.007 49.1813 250.46 53.704V55.016C249.82 55.8907 249.01 56.616 248.028 57.192C248.711 57.8747 249.479 58.3547 250.332 58.632C251.207 58.888 252.391 59.016 253.884 59.016ZM240.988 65.224C240.988 64.4133 241.394 64.008 242.204 64.008C242.994 64.008 243.388 64.4133 243.388 65.224C243.388 66.056 242.994 66.472 242.204 66.472C241.394 66.472 240.988 66.056 240.988 65.224ZM264.015 59.016H265.135V61H263.759C261.839 61 260.399 60.3493 259.439 59.048C258.437 60.3493 256.986 61 255.087 61H253.711V59.016H254.831C257.178 59.016 258.351 57.8 258.351 55.368V48.424L260.495 47.304V55.368C260.495 57.8 261.669 59.016 264.015 59.016ZM256.751 64.36C257.605 64.36 258.031 64.7973 258.031 65.672C258.031 66.5467 257.605 66.984 256.751 66.984C255.898 66.984 255.471 66.5467 255.471 65.672C255.471 64.7973 255.898 64.36 256.751 64.36ZM260.399 64.36C261.253 64.36 261.679 64.7973 261.679 65.672C261.679 66.5467 261.253 66.984 260.399 66.984C259.546 66.984 259.119 66.5467 259.119 65.672C259.119 64.7973 259.546 64.36 260.399 64.36ZM264.492 61V59.016H268.077C272.727 59.016 276.354 57.4373 278.957 54.28C277.058 50.6533 274.765 48.84 272.077 48.84C270.242 48.84 268.45 49.768 266.701 51.624V49.512C268.45 47.784 270.274 46.92 272.173 46.92H272.237C275.586 46.92 278.487 49.1813 280.941 53.704V55.016C277.826 59.0053 273.527 61 268.045 61H264.492ZM272.941 66.984C272.066 66.984 271.629 66.536 271.629 65.64C271.629 64.7867 272.066 64.36 272.941 64.36C273.773 64.36 274.189 64.7867 274.189 65.64C274.189 66.536 273.773 66.984 272.941 66.984ZM289.324 43.08C288.449 43.08 288.012 42.632 288.012 41.736C288.012 40.8827 288.449 40.456 289.324 40.456C290.156 40.456 290.572 40.8827 290.572 41.736C290.572 42.632 290.156 43.08 289.324 43.08ZM294.124 59.016H295.244V61H293.868C292.545 61 291.447 60.68 290.572 60.04C290.401 63.5813 288.972 65.8213 286.284 66.76C285.601 66.9947 284.876 67.112 284.108 67.112C282.871 67.112 281.676 66.8133 280.524 66.216V64.328C281.612 64.9253 282.721 65.224 283.852 65.224C284.748 65.224 285.537 65.0213 286.22 64.616C287.713 63.72 288.46 62.0453 288.46 59.592V48.424L290.572 47.304V47.336L290.604 47.304V55.368C290.604 57.8 291.777 59.016 294.124 59.016ZM297.85 43.176C296.996 43.176 296.57 42.7387 296.57 41.864C296.57 40.9893 296.996 40.552 297.85 40.552C298.703 40.552 299.13 40.9893 299.13 41.864C299.13 42.7387 298.703 43.176 297.85 43.176ZM301.498 43.176C300.644 43.176 300.218 42.7387 300.218 41.864C300.218 40.9893 300.644 40.552 301.498 40.552C302.351 40.552 302.778 40.9893 302.778 41.864C302.778 42.7387 302.351 43.176 301.498 43.176ZM304.922 59.016H306.042V61H304.666C302.746 61 301.306 60.3493 300.346 59.048C299.343 60.3493 297.892 61 295.993 61H294.617V59.016H295.738C298.084 59.016 299.258 57.8 299.258 55.368V48.424L301.402 47.304V55.368C301.402 57.8 302.575 59.016 304.922 59.016ZM305.399 61V59.016H306.295C308.727 59.016 309.943 57.7573 309.943 55.24V41.48L312.087 40.36V55.272C312.087 57.0853 311.553 58.5147 310.487 59.56C309.484 60.52 308.161 61 306.519 61H305.399ZM317.849 61V41.48L319.993 40.36V61H317.849ZM340.579 60.2C340.365 60.328 340.013 60.5307 339.523 60.808L339.459 60.84C337.709 61.8213 336.536 62.664 335.939 63.368C335.363 64.072 335.075 65.0107 335.075 66.184C335.075 67.592 335.555 68.744 336.515 69.64C337.496 70.5573 338.755 71.016 340.291 71.016H340.355C342.787 71.016 344.739 70.472 346.211 69.384V71.336C344.461 72.4453 342.488 73 340.291 73C337.987 73 336.152 72.2427 334.786 70.728C333.656 69.448 333.091 67.912 333.091 66.12C333.091 64.6053 333.464 63.3893 334.211 62.472C334.957 61.5547 336.461 60.4667 338.723 59.208C336.867 57.9493 334.904 55.848 332.835 52.904V51.592C335.053 48.4773 337.667 46.92 340.675 46.92C342.083 46.92 343.48 47.336 344.867 48.168C346.253 49 347.48 50.1627 348.547 51.656V52.904C347.075 54.9307 345.101 56.904 342.627 58.824C343.181 58.952 343.757 59.016 344.355 59.016H352.099V61H344.227C342.968 61 341.752 60.7333 340.579 60.2ZM334.691 52.296C336.931 55.24 338.904 57.16 340.611 58.056C342.808 56.52 344.835 54.5787 346.691 52.232C344.984 49.992 342.979 48.872 340.675 48.872H340.579C338.381 48.872 336.419 50.0133 334.691 52.296ZM356.101 52.424C356.101 50.6107 356.645 49.2027 357.733 48.2C358.672 47.3467 359.909 46.92 361.445 46.92C363.429 46.92 364.955 47.6453 366.021 49.096C366.939 50.3333 367.397 51.9547 367.397 53.96C367.397 56.2427 366.811 58.024 365.637 59.304C364.613 60.4347 363.28 61 361.637 61C359.632 61 358.139 60.36 357.157 59.08C356.197 60.36 354.757 61 352.837 61H351.461V59.016H352.581C354.928 59.016 356.101 57.8 356.101 55.368V52.424ZM358.245 55.496C358.245 57.8427 359.397 59.016 361.701 59.016C362.811 59.016 363.685 58.568 364.325 57.672C364.965 56.776 365.285 55.528 365.285 53.928C365.285 52.3493 364.944 51.112 364.261 50.216C363.6 49.32 362.661 48.872 361.445 48.872C359.312 48.872 358.245 50.12 358.245 52.616V55.496ZM399.868 59.016H400.988V61H399.612C398.247 61 397.105 60.6587 396.188 59.976C396.017 62.2373 395.111 64.0187 393.468 65.32C391.996 66.4933 390.14 67.08 387.9 67.08C385.127 67.08 382.993 66.1307 381.5 64.232C380.327 62.76 379.74 61 379.74 58.952C379.74 57.096 380.209 55.528 381.148 54.248L383.26 53.768C382.215 55.304 381.692 56.9893 381.692 58.824C381.692 60.7013 382.3 62.2373 383.516 63.432C384.668 64.5627 386.129 65.128 387.9 65.128C389.948 65.128 391.537 64.5093 392.668 63.272C393.628 62.248 394.108 60.9147 394.108 59.272V41.48L396.22 40.36V55.4V55.464C396.22 57.832 397.436 59.016 399.868 59.016ZM410.64 59.016H411.76V61H410.384C408.464 61 407.024 60.3493 406.064 59.048C405.062 60.3493 403.611 61 401.712 61H400.336V59.016H401.456C403.803 59.016 404.976 57.8 404.976 55.368V48.424L407.12 47.304V55.368C407.12 57.8 408.294 59.016 410.64 59.016ZM403.376 64.36C404.23 64.36 404.656 64.7973 404.656 65.672C404.656 66.5467 404.23 66.984 403.376 66.984C402.523 66.984 402.096 66.5467 402.096 65.672C402.096 64.7973 402.523 64.36 403.376 64.36ZM407.024 64.36C407.878 64.36 408.304 64.7973 408.304 65.672C408.304 66.5467 407.878 66.984 407.024 66.984C406.171 66.984 405.744 66.5467 405.744 65.672C405.744 64.7973 406.171 64.36 407.024 64.36ZM428.11 59.016H428.91V61H427.854C425.934 61 424.494 60.3493 423.534 59.048C422.574 60.3493 421.123 61 419.182 61H411.117V59.016H418.958C421.283 59.016 422.446 57.768 422.446 55.272V54.952C422.446 53.2027 421.806 51.8907 420.526 51.016C419.502 50.2907 418.222 49.928 416.686 49.928C415.534 49.928 414.392 50.1307 413.262 50.536V48.424L420.526 40.36H422.734L416.174 47.784C416.387 47.7627 416.611 47.752 416.846 47.752C418.894 47.752 420.6 48.2747 421.966 49.32C423.715 50.664 424.59 52.5307 424.59 54.92V55.368C424.59 57.8 425.763 59.016 428.11 59.016ZM445.202 40.808C444.434 40.808 444.05 40.4027 444.05 39.592C444.05 38.824 444.434 38.44 445.202 38.44C445.97 38.44 446.354 38.824 446.354 39.592C446.354 40.4027 445.97 40.808 445.202 40.808ZM443.41 44.136C442.535 44.136 442.098 43.6987 442.098 42.824C442.098 41.9493 442.535 41.512 443.41 41.512C444.242 41.512 444.658 41.9493 444.658 42.824C444.658 43.6987 444.242 44.136 443.41 44.136ZM447.058 44.136C446.204 44.136 445.778 43.6987 445.778 42.824C445.778 41.9493 446.204 41.512 447.058 41.512C447.911 41.512 448.338 41.9493 448.338 42.824C448.338 43.6987 447.911 44.136 447.058 44.136ZM428.274 61V59.016H430.226C432.594 59.016 433.778 57.8 433.778 55.368V50.76L435.922 49.64V55.368C435.922 57.8 437.095 59.016 439.442 59.016H440.626C442.972 59.016 444.146 57.8 444.146 55.368V49.608L446.29 48.456V55.368C446.29 57.8 447.474 59.016 449.842 59.016H450.994C453.362 59.016 454.546 57.8 454.546 55.368V48.424L456.69 47.304V55.24C456.69 57.7573 457.906 59.016 460.338 59.016H462.194V61H460.114C458.087 61 456.604 60.2853 455.666 58.856C454.727 60.2853 453.276 61 451.314 61H449.554C447.57 61 446.13 60.296 445.234 58.888C444.316 60.296 442.887 61 440.946 61H439.186C437.202 61 435.751 60.296 434.834 58.888C433.938 60.296 432.498 61 430.514 61H428.274ZM463.475 43.08C462.6 43.08 462.163 42.632 462.163 41.736C462.163 40.8827 462.6 40.456 463.475 40.456C464.307 40.456 464.723 40.8827 464.723 41.736C464.723 42.632 464.307 43.08 463.475 43.08ZM467.123 43.08C466.248 43.08 465.811 42.632 465.811 41.736C465.811 40.8827 466.248 40.456 467.123 40.456C467.955 40.456 468.371 40.8827 468.371 41.736C468.371 42.632 467.955 43.08 467.123 43.08ZM461.555 61V59.016H462.675C465.022 59.016 466.195 57.8 466.195 55.368V48.424L468.339 47.304V55.432C468.339 57.224 467.816 58.6213 466.771 59.624C465.811 60.5413 464.531 61 462.931 61H461.555ZM489.114 46.344C488.24 46.344 487.802 45.896 487.802 45C487.802 44.1467 488.24 43.72 489.114 43.72C489.946 43.72 490.362 44.1467 490.362 45C490.362 45.896 489.946 46.344 489.114 46.344ZM500.954 59.016H502.074V61H500.698C499.376 61 498.277 60.6907 497.402 60.072C497.253 62.312 496.357 64.072 494.714 65.352C493.264 66.504 491.429 67.08 489.21 67.08C486.501 67.08 484.4 66.12 482.906 64.2C481.733 62.728 481.146 60.968 481.146 58.92C481.146 57.0853 481.616 55.5067 482.554 54.184L484.634 53.768C483.61 55.3253 483.098 56.9893 483.098 58.76C483.098 60.6373 483.706 62.184 484.922 63.4C486.053 64.5307 487.482 65.096 489.21 65.096C491.237 65.096 492.805 64.4987 493.914 63.304C494.832 62.3227 495.29 61.032 495.29 59.432V48.424L497.434 47.304V55.368C497.434 57.8 498.608 59.016 500.954 59.016ZM511.734 59.016H512.854V61H511.478C509.558 61 508.118 60.3493 507.158 59.048C506.155 60.3493 504.705 61 502.806 61H501.43V59.016H502.55C504.897 59.016 506.07 57.8 506.07 55.368V48.424L508.214 47.304V55.368C508.214 57.8 509.387 59.016 511.734 59.016ZM504.47 64.36C505.323 64.36 505.75 64.7973 505.75 65.672C505.75 66.5467 505.323 66.984 504.47 66.984C503.617 66.984 503.19 66.5467 503.19 65.672C503.19 64.7973 503.617 64.36 504.47 64.36ZM508.118 64.36C508.971 64.36 509.398 64.7973 509.398 65.672C509.398 66.5467 508.971 66.984 508.118 66.984C507.265 66.984 506.838 66.5467 506.838 65.672C506.838 64.7973 507.265 64.36 508.118 64.36ZM515.443 43.176C514.59 43.176 514.163 42.7387 514.163 41.864C514.163 40.9893 514.59 40.552 515.443 40.552C516.297 40.552 516.723 40.9893 516.723 41.864C516.723 42.7387 516.297 43.176 515.443 43.176ZM519.091 43.176C518.238 43.176 517.811 42.7387 517.811 41.864C517.811 40.9893 518.238 40.552 519.091 40.552C519.945 40.552 520.371 40.9893 520.371 41.864C520.371 42.7387 519.945 43.176 519.091 43.176ZM522.515 59.016H523.635V61H522.259C520.339 61 518.899 60.3493 517.939 59.048C516.937 60.3493 515.486 61 513.587 61H512.211V59.016H513.331C515.678 59.016 516.851 57.8 516.851 55.368V48.424L518.995 47.304V55.368C518.995 57.8 520.169 59.016 522.515 59.016ZM533.297 59.016H534.417V61H533.041C531.121 61 529.681 60.3493 528.721 59.048C527.718 60.3493 526.267 61 524.368 61H522.992V59.016H524.113C526.459 59.016 527.633 57.8 527.633 55.368V48.424L529.777 47.304V55.368C529.777 57.8 530.95 59.016 533.297 59.016ZM526.033 64.36C526.886 64.36 527.312 64.7973 527.312 65.672C527.312 66.5467 526.886 66.984 526.033 66.984C525.179 66.984 524.753 66.5467 524.753 65.672C524.753 64.7973 525.179 64.36 526.033 64.36ZM529.681 64.36C530.534 64.36 530.961 64.7973 530.961 65.672C530.961 66.5467 530.534 66.984 529.681 66.984C528.827 66.984 528.401 66.5467 528.401 65.672C528.401 64.7973 528.827 64.36 529.681 64.36ZM539.118 43.08C538.243 43.08 537.806 42.632 537.806 41.736C537.806 40.8827 538.243 40.456 539.118 40.456C539.95 40.456 540.366 40.8827 540.366 41.736C540.366 42.632 539.95 43.08 539.118 43.08ZM544.078 59.016H545.198V61H543.822C541.902 61 540.462 60.3493 539.502 59.048C538.499 60.3493 537.048 61 535.15 61H533.774V59.016H534.894C537.24 59.016 538.414 57.8 538.414 55.368V48.424L540.558 47.304V55.368C540.558 57.8 541.731 59.016 544.078 59.016ZM551.979 43.176C551.104 43.176 550.667 42.728 550.667 41.832C550.667 40.9787 551.104 40.552 551.979 40.552C552.811 40.552 553.227 40.9787 553.227 41.832C553.227 42.728 552.811 43.176 551.979 43.176ZM555.627 43.176C554.752 43.176 554.315 42.728 554.315 41.832C554.315 40.9787 554.752 40.552 555.627 40.552C556.459 40.552 556.875 40.9787 556.875 41.832C556.875 42.728 556.459 43.176 555.627 43.176ZM557.131 59.016H562.987V61H555.755C555.03 61 554.368 60.9253 553.771 60.776C553.174 60.9253 552.512 61 551.787 61H544.555V59.016H550.443C548.758 57.4587 547.915 55.6133 547.915 53.48C547.915 51.4107 548.491 49.768 549.643 48.552C550.688 47.464 552.064 46.92 553.771 46.92C555.712 46.92 557.216 47.624 558.283 49.032C559.179 50.2053 559.627 51.688 559.627 53.48C559.627 55.6347 558.795 57.48 557.131 59.016ZM553.899 58.728C554.987 58.344 555.872 57.6613 556.555 56.68C557.259 55.6773 557.611 54.6 557.611 53.448C557.611 52.04 557.259 50.9307 556.555 50.12C555.872 49.288 554.944 48.872 553.771 48.872C552.598 48.872 551.67 49.288 550.987 50.12C550.304 50.9307 549.963 52.0293 549.963 53.416C549.963 54.5893 550.304 55.6773 550.987 56.68C551.67 57.6613 552.555 58.344 553.643 58.728L553.771 58.76L553.835 58.728H553.899ZM564.256 43.08C563.382 43.08 562.944 42.632 562.944 41.736C562.944 40.8827 563.382 40.456 564.256 40.456C565.088 40.456 565.504 40.8827 565.504 41.736C565.504 42.632 565.088 43.08 564.256 43.08ZM567.904 43.08C567.03 43.08 566.592 42.632 566.592 41.736C566.592 40.8827 567.03 40.456 567.904 40.456C568.736 40.456 569.152 40.8827 569.152 41.736C569.152 42.632 568.736 43.08 567.904 43.08ZM562.336 61V59.016H563.456C565.803 59.016 566.976 57.8 566.976 55.368V48.424L569.12 47.304V55.432C569.12 57.224 568.598 58.6213 567.552 59.624C566.592 60.5413 565.312 61 563.712 61H562.336ZM202.052 122.344C201.177 122.344 200.74 121.896 200.74 121C200.74 120.147 201.177 119.72 202.052 119.72C202.884 119.72 203.3 120.147 203.3 121C203.3 121.896 202.884 122.344 202.052 122.344ZM213.892 135.016H215.012V137H213.636C212.313 137 211.214 136.691 210.34 136.072C210.19 138.312 209.294 140.072 207.652 141.352C206.201 142.504 204.366 143.08 202.148 143.08C199.438 143.08 197.337 142.12 195.844 140.2C194.67 138.728 194.084 136.968 194.084 134.92C194.084 133.085 194.553 131.507 195.492 130.184L197.572 129.768C196.548 131.325 196.036 132.989 196.036 134.76C196.036 136.637 196.644 138.184 197.86 139.4C198.99 140.531 200.42 141.096 202.148 141.096C204.174 141.096 205.742 140.499 206.852 139.304C207.769 138.323 208.228 137.032 208.228 135.432V124.424L210.372 123.304V131.368C210.372 133.8 211.545 135.016 213.892 135.016ZM224.672 135.016H225.792V137H224.416C222.496 137 221.056 136.349 220.096 135.048C219.093 136.349 217.642 137 215.743 137H214.367V135.016H215.488C217.834 135.016 219.008 133.8 219.008 131.368V124.424L221.152 123.304V131.368C221.152 133.8 222.325 135.016 224.672 135.016ZM217.408 140.36C218.261 140.36 218.688 140.797 218.688 141.672C218.688 142.547 218.261 142.984 217.408 142.984C216.554 142.984 216.128 142.547 216.128 141.672C216.128 140.797 216.554 140.36 217.408 140.36ZM221.056 140.36C221.909 140.36 222.336 140.797 222.336 141.672C222.336 142.547 221.909 142.984 221.056 142.984C220.202 142.984 219.776 142.547 219.776 141.672C219.776 140.797 220.202 140.36 221.056 140.36ZM230.205 123.784C230.418 123.763 230.642 123.752 230.877 123.752C232.797 123.752 234.439 124.221 235.805 125.16C237.682 126.504 238.621 128.424 238.621 130.92V131.528C238.621 133.32 238.066 134.717 236.957 135.72C235.997 136.573 234.749 137 233.213 137H225.149V135.016H232.989C235.314 135.016 236.477 133.768 236.477 131.272V130.952C236.477 129.224 235.858 127.933 234.621 127.08C233.597 126.312 232.295 125.928 230.717 125.928C229.565 125.928 228.423 126.131 227.293 126.536V124.424L234.557 116.36H236.765L230.205 123.784ZM247.603 135.464C247.603 139.347 246.174 141.779 243.315 142.76C242.633 142.995 241.907 143.112 241.139 143.112C239.902 143.112 238.707 142.813 237.555 142.216V140.328C238.643 140.925 239.753 141.224 240.883 141.224C241.779 141.224 242.569 141.021 243.251 140.616C244.745 139.72 245.491 138.045 245.491 135.592V124.424L247.603 123.304V135.464ZM258.757 137C256.943 137 255.546 136.413 254.565 135.24C253.754 134.237 253.349 132.968 253.349 131.432V117.48L255.493 116.36V131.368C255.493 133.8 256.666 135.016 259.013 135.016H260.133V137H258.757ZM276.421 116.808C275.653 116.808 275.269 116.403 275.269 115.592C275.269 114.824 275.653 114.44 276.421 114.44C277.189 114.44 277.573 114.824 277.573 115.592C277.573 116.403 277.189 116.808 276.421 116.808ZM274.629 120.136C273.754 120.136 273.317 119.699 273.317 118.824C273.317 117.949 273.754 117.512 274.629 117.512C275.461 117.512 275.877 117.949 275.877 118.824C275.877 119.699 275.461 120.136 274.629 120.136ZM278.277 120.136C277.423 120.136 276.997 119.699 276.997 118.824C276.997 117.949 277.423 117.512 278.277 117.512C279.13 117.512 279.557 117.949 279.557 118.824C279.557 119.699 279.13 120.136 278.277 120.136ZM259.492 137V135.016H261.445C263.813 135.016 264.997 133.8 264.997 131.368V126.76L267.141 125.64V131.368C267.141 133.8 268.314 135.016 270.661 135.016H271.845C274.191 135.016 275.365 133.8 275.365 131.368V125.608L277.509 124.456V131.368C277.509 133.8 278.693 135.016 281.061 135.016H282.213C284.581 135.016 285.765 133.8 285.765 131.368V124.424L287.909 123.304V131.24C287.909 133.757 289.125 135.016 291.557 135.016H293.413V137H291.333C289.306 137 287.823 136.285 286.885 134.856C285.946 136.285 284.495 137 282.533 137H280.773C278.789 137 277.349 136.296 276.453 134.888C275.535 136.296 274.106 137 272.165 137H270.405C268.421 137 266.97 136.296 266.053 134.888C265.157 136.296 263.717 137 261.733 137H259.492ZM297.414 128.424C297.414 126.611 297.958 125.203 299.046 124.2C299.984 123.347 301.222 122.92 302.758 122.92C304.742 122.92 306.267 123.645 307.334 125.096C308.251 126.333 308.71 127.955 308.71 129.96C308.71 132.243 308.123 134.024 306.95 135.304C305.926 136.435 304.592 137 302.95 137C300.944 137 299.451 136.36 298.47 135.08C297.51 136.36 296.07 137 294.15 137H292.774V135.016H293.894C296.24 135.016 297.414 133.8 297.414 131.368V128.424ZM299.558 131.496C299.558 133.843 300.71 135.016 303.014 135.016C304.123 135.016 304.998 134.568 305.638 133.672C306.278 132.776 306.598 131.528 306.598 129.928C306.598 128.349 306.256 127.112 305.574 126.216C304.912 125.32 303.974 124.872 302.758 124.872C300.624 124.872 299.558 126.12 299.558 128.616V131.496ZM330.301 126.696C333.095 127.443 334.493 129.171 334.493 131.88C334.493 133.736 333.703 135.165 332.125 136.168C330.823 136.979 329.213 137.384 327.293 137.384C325.053 137.384 323.261 136.851 321.917 135.784C320.658 134.803 320.029 133.491 320.029 131.848C320.029 130.312 320.573 129.032 321.661 128.008C322.471 127.24 323.378 126.792 324.381 126.664C322.055 125.96 320.893 124.477 320.893 122.216C320.893 120.296 321.639 118.792 323.133 117.704C324.327 116.808 325.789 116.36 327.517 116.36C329.479 116.36 331.09 116.957 332.349 118.152C333.522 119.283 334.109 120.712 334.109 122.44C334.109 123.443 333.746 124.339 333.021 125.128C332.317 125.917 331.41 126.44 330.301 126.696ZM327.453 125.224C328.178 125.011 328.775 124.616 329.245 124.04C329.714 123.443 329.949 122.813 329.949 122.152C329.949 121.384 329.725 120.765 329.277 120.296C328.85 119.827 328.295 119.592 327.613 119.592C326.823 119.592 326.183 119.837 325.693 120.328C325.223 120.797 324.989 121.427 324.989 122.216C324.989 123.667 325.81 124.669 327.453 125.224ZM327.549 128.104C326.589 128.339 325.821 128.776 325.245 129.416C324.669 130.035 324.381 130.749 324.381 131.56C324.381 132.307 324.658 132.925 325.213 133.416C325.767 133.885 326.471 134.12 327.325 134.12C328.135 134.12 328.797 133.896 329.309 133.448C329.842 132.979 330.109 132.381 330.109 131.656C330.109 130.845 329.863 130.109 329.373 129.448C328.903 128.787 328.295 128.339 327.549 128.104ZM344.775 130.984H336.199V127.784H344.775V130.984ZM358.626 120.104H351.554V124.2C351.81 124.093 352.162 124.04 352.61 124.04C354.957 124.04 356.781 124.627 358.082 125.8C359.319 126.931 359.938 128.477 359.938 130.44C359.938 132.509 359.17 134.227 357.634 135.592C356.29 136.787 354.658 137.384 352.738 137.384C350.178 137.384 347.949 136.456 346.05 134.6L347.778 131.944C349.335 133.117 350.839 133.704 352.29 133.704C354.53 133.704 355.65 132.701 355.65 130.696C355.65 128.456 354.21 127.336 351.33 127.336C350.327 127.336 349.015 127.517 347.394 127.88V116.744H358.626V120.104ZM374.412 128.04C374.412 128.061 374.412 128.083 374.412 128.104C374.412 129.021 373.974 129.48 373.1 129.48C372.182 129.48 371.724 129.011 371.724 128.072C371.766 127.197 372.225 126.76 373.1 126.76C373.974 126.76 374.412 127.187 374.412 128.04ZM374.412 135.72C374.412 135.741 374.412 135.763 374.412 135.784C374.412 136.701 373.974 137.16 373.1 137.16C372.182 137.16 371.724 136.691 371.724 135.752C371.766 134.877 372.225 134.44 373.1 134.44C373.974 134.44 374.412 134.867 374.412 135.72ZM381.952 118.92C381.077 118.92 380.64 118.472 380.64 117.576C380.64 116.723 381.077 116.296 381.952 116.296C382.784 116.296 383.2 116.723 383.2 117.576C383.2 118.472 382.784 118.92 381.952 118.92ZM385.6 118.92C384.725 118.92 384.288 118.472 384.288 117.576C384.288 116.723 384.725 116.296 385.6 116.296C386.432 116.296 386.848 116.723 386.848 117.576C386.848 118.472 386.432 118.92 385.6 118.92ZM391.808 135.016H392.896V137H391.52C389.237 137 387.648 136.104 386.752 134.312C385.643 135.464 384.277 136.04 382.656 136.04C380.821 136.04 379.371 135.347 378.304 133.96C377.408 132.787 376.96 131.325 376.96 129.576C376.96 127.528 377.557 125.885 378.752 124.648C379.797 123.56 381.088 123.016 382.624 123.016C384.011 123.016 385.173 123.421 386.112 124.232V122.504L388.256 121.384V131.368C388.256 133.8 389.44 135.016 391.808 135.016ZM386.112 126.664C385.173 125.533 384.032 124.968 382.688 124.968C381.621 124.968 380.747 125.405 380.064 126.28C379.403 127.133 379.072 128.243 379.072 129.608C379.072 130.995 379.403 132.104 380.064 132.936C380.747 133.768 381.632 134.184 382.72 134.184C384.107 134.184 385.259 133.576 386.176 132.36C386.133 131.976 386.112 131.667 386.112 131.432V126.664ZM408.627 135.016V137H392.242V135.016H397.619C396.275 133.651 395.603 131.837 395.603 129.576C395.603 127.421 396.339 125.715 397.811 124.456C398.984 123.453 400.36 122.941 401.939 122.92C404.136 122.92 405.853 123.784 407.091 125.512V127.624C405.811 125.789 404.168 124.872 402.163 124.872H402.067C400.787 124.872 399.741 125.309 398.931 126.184C398.141 127.059 397.747 128.211 397.747 129.64C397.747 131.283 398.237 132.595 399.219 133.576C400.157 134.536 401.416 135.016 402.995 135.016H408.627ZM427.147 135.016V137H423.755C423.733 138.408 423.275 139.645 422.379 140.712C421.504 141.8 420.363 142.515 418.955 142.856C418.443 143.005 417.888 143.08 417.291 143.08C416.053 143.08 414.848 142.781 413.675 142.184V140.296C414.784 140.893 415.883 141.192 416.971 141.192C417.845 141.192 418.613 141 419.275 140.616C419.936 140.275 420.491 139.752 420.939 139.048C421.387 138.365 421.611 137.683 421.611 137L418.891 136.904C416.523 136.797 414.752 136.051 413.579 134.664C412.619 133.491 412.139 131.923 412.139 129.96C412.139 127.656 412.736 125.875 413.931 124.616C414.997 123.485 416.427 122.92 418.219 122.92C420.075 122.92 421.493 123.475 422.475 124.584C423.328 125.544 423.755 126.824 423.755 128.424V135.016H427.147ZM421.611 128.648C421.611 126.131 420.48 124.872 418.219 124.872C416.96 124.872 415.979 125.32 415.275 126.216C414.592 127.091 414.251 128.328 414.251 129.928C414.251 133.107 415.819 134.771 418.955 134.92C419.893 134.984 420.779 135.016 421.611 135.016V128.648ZM446.621 135.016H447.709V137H446.333C444.391 137 442.941 136.328 441.981 134.984C440.914 136.755 439.293 137.64 437.117 137.64C434.919 137.64 433.298 136.765 432.253 135.016C431.271 136.339 429.81 137 427.868 137H426.492V135.016H427.613C429.959 135.016 431.133 133.8 431.133 131.368V130.28C431.133 127.827 431.73 125.949 432.925 124.648C433.97 123.496 435.367 122.92 437.117 122.92C439.122 122.92 440.647 123.667 441.693 125.16C442.61 126.44 443.069 128.147 443.069 130.28V131.368C443.069 133.8 444.253 135.016 446.621 135.016ZM437.117 135.656C438.29 135.656 439.218 135.176 439.901 134.216C440.583 133.235 440.925 131.912 440.925 130.248C440.925 126.664 439.655 124.872 437.117 124.872C434.557 124.872 433.277 126.664 433.277 130.248C433.277 133.853 434.557 135.656 437.117 135.656ZM467.279 135.016H468.399V137H467.247C465.476 137 464.058 136.797 462.991 136.392C461.946 135.987 460.975 135.272 460.079 134.248C457.348 136.083 454.191 137 450.607 137H447.055V135.016H450.639C455.29 135.016 458.916 133.437 461.519 130.28C459.62 126.653 457.327 124.84 454.639 124.84C452.804 124.84 451.012 125.768 449.263 127.624V125.512C451.012 123.784 452.836 122.92 454.735 122.92H454.799C458.148 122.92 461.05 125.181 463.503 129.704V131.016C462.842 131.869 462.138 132.605 461.391 133.224C462.074 133.885 462.842 134.355 463.695 134.632C464.57 134.888 465.764 135.016 467.279 135.016ZM455.503 140.36C456.335 140.36 456.751 140.787 456.751 141.64C456.751 142.536 456.335 142.984 455.503 142.984C454.628 142.984 454.191 142.536 454.191 141.64C454.191 140.787 454.628 140.36 455.503 140.36ZM487.902 135.016H488.99V137H487.614C485.672 137 484.222 136.328 483.262 134.984C482.195 136.755 480.574 137.64 478.398 137.64C476.2 137.64 474.579 136.765 473.534 135.016C472.552 136.339 471.091 137 469.15 137H467.774V135.016H468.894C471.24 135.016 472.414 133.8 472.414 131.368V130.28C472.414 127.827 473.011 125.949 474.206 124.648C475.251 123.496 476.648 122.92 478.398 122.92C480.403 122.92 481.928 123.667 482.974 125.16C483.891 126.44 484.35 128.147 484.35 130.28V131.368C484.35 133.8 485.534 135.016 487.902 135.016ZM478.398 135.656C479.571 135.656 480.499 135.176 481.182 134.216C481.864 133.235 482.206 131.912 482.206 130.248C482.206 126.664 480.936 124.872 478.398 124.872C475.838 124.872 474.558 126.664 474.558 130.248C474.558 133.853 475.838 135.656 478.398 135.656ZM488.336 137V135.016H489.232C491.664 135.016 492.88 133.757 492.88 131.24V117.48L495.024 116.36V131.272C495.024 133.085 494.491 134.515 493.424 135.56C492.422 136.52 491.099 137 489.456 137H488.336ZM500.786 137V117.48L502.93 116.36V137H500.786ZM532.796 135.016H533.884V137H532.508C530.609 137 529.18 136.36 528.22 135.08C527.239 136.339 525.788 136.979 523.868 137H519.804C517.457 137 516.284 138.216 516.284 140.648V145.96L514.14 147.08V140.584C514.14 138.813 514.663 137.427 515.708 136.424C516.647 135.507 517.895 135.037 519.452 135.016C518.449 133.736 517.948 132.051 517.948 129.96C517.948 127.656 518.545 125.875 519.74 124.616C520.785 123.485 522.172 122.92 523.9 122.92C525.671 122.92 527.036 123.475 527.996 124.584C528.828 125.544 529.244 126.824 529.244 128.424V131.368C529.244 133.8 530.428 135.016 532.796 135.016ZM527.1 131.496V128.616C527.1 126.12 526.033 124.872 523.9 124.872C522.684 124.872 521.735 125.32 521.052 126.216C520.391 127.112 520.06 128.349 520.06 129.928C520.06 131.528 520.38 132.776 521.02 133.672C521.66 134.568 522.545 135.016 523.676 135.016C525.959 135.016 527.1 133.843 527.1 131.496ZM553.467 135.016H554.587V137H553.435C551.664 137 550.245 136.797 549.179 136.392C548.133 135.987 547.163 135.272 546.267 134.248C543.536 136.083 540.379 137 536.795 137H533.242V135.016H536.827C541.477 135.016 545.104 133.437 547.707 130.28C545.808 126.653 543.515 124.84 540.827 124.84C538.992 124.84 537.2 125.768 535.451 127.624V125.512C537.2 123.784 539.024 122.92 540.923 122.92H540.987C544.336 122.92 547.237 125.181 549.691 129.704V131.016C549.029 131.869 548.325 132.605 547.579 133.224C548.261 133.885 549.029 134.355 549.883 134.632C550.757 134.888 551.952 135.016 553.467 135.016ZM541.691 140.36C542.523 140.36 542.939 140.787 542.939 141.64C542.939 142.536 542.523 142.984 541.691 142.984C540.816 142.984 540.379 142.536 540.379 141.64C540.379 140.787 540.816 140.36 541.691 140.36ZM553.961 137V135.016H557.545C562.196 135.016 565.823 133.437 568.425 130.28C566.527 126.653 564.233 124.84 561.545 124.84C559.711 124.84 557.919 125.768 556.169 127.624V125.512C557.919 123.784 559.743 122.92 561.641 122.92H561.705C565.055 122.92 567.956 125.181 570.409 129.704V131.016C567.295 135.005 562.996 137 557.513 137H553.961ZM198.329 160.12C197.475 160.12 197.049 159.672 197.049 158.776C197.049 157.923 197.475 157.496 198.329 157.496C199.182 157.496 199.609 157.923 199.609 158.776C199.609 159.672 199.182 160.12 198.329 160.12ZM202.009 160.12C201.134 160.12 200.697 159.672 200.697 158.776C200.697 157.923 201.134 157.496 202.009 157.496C202.841 157.496 203.257 157.923 203.257 158.776C203.257 159.672 202.841 160.12 202.009 160.12ZM195.033 175C193.454 175 192.195 174.509 191.257 173.528C190.318 172.525 189.849 171.181 189.849 169.496V165.304L191.993 164.184V169.24C191.993 171.757 193.166 173.016 195.513 173.016H206.233C208.579 173.016 209.753 171.757 209.753 169.24V162.424L211.897 161.304V169.496C211.897 171.309 211.342 172.717 210.233 173.72C209.273 174.573 208.014 175 206.457 175H195.033ZM223.069 175C221.256 175 219.859 174.413 218.877 173.24C218.067 172.237 217.661 170.968 217.661 169.432V155.48L219.805 154.36V169.368C219.805 171.8 220.979 173.016 223.325 173.016H224.445V175H223.069ZM240.189 173.016V175H223.805V173.016H229.181C227.837 171.651 227.165 169.837 227.165 167.576C227.165 165.421 227.901 163.715 229.373 162.456C230.546 161.453 231.922 160.941 233.501 160.92C235.698 160.92 237.416 161.784 238.653 163.512V165.624C237.373 163.789 235.73 162.872 233.725 162.872H233.629C232.349 162.872 231.304 163.309 230.493 164.184C229.704 165.059 229.309 166.211 229.309 167.64C229.309 169.283 229.8 170.595 230.781 171.576C231.72 172.536 232.978 173.016 234.557 173.016H240.189ZM250.069 175C248.256 175 246.859 174.413 245.877 173.24C245.067 172.237 244.661 170.968 244.661 169.432V155.48L246.805 154.36V169.368C246.805 171.8 247.979 173.016 250.325 173.016H251.445V175H250.069ZM250.805 175V173.016H252.757C255.125 173.016 256.309 171.8 256.309 169.368V164.76L258.453 163.64V169.368C258.453 171.8 259.626 173.016 261.973 173.016H263.157C265.504 173.016 266.677 171.8 266.677 169.368V163.608L268.821 162.456V169.368C268.821 171.8 270.005 173.016 272.373 173.016H273.525C275.893 173.016 277.077 171.8 277.077 169.368V162.424L279.221 161.304V169.432C279.221 171.203 278.698 172.589 277.653 173.592C276.714 174.509 275.445 174.979 273.845 175H272.085C270.101 175 268.661 174.296 267.765 172.888C266.848 174.296 265.418 175 263.477 175H261.717C259.733 175 258.282 174.296 257.365 172.888C256.469 174.296 255.029 175 253.045 175H250.805ZM301.493 167C300.768 167.661 299.691 167.992 298.261 167.992C296.341 167.992 294.805 167.437 293.653 166.328C292.459 165.176 291.861 163.501 291.861 161.304C291.861 159.448 292.469 157.837 293.685 156.472C294.944 155.064 296.64 154.36 298.773 154.36C301.568 154.36 303.541 155.587 304.693 158.04C305.419 159.597 305.781 161.571 305.781 163.96C305.781 171.576 303.189 175.384 298.005 175.384C297.024 175.384 296.021 175.203 294.997 174.84C293.995 174.456 293.195 173.976 292.597 173.4L294.037 170.776C295.445 171.459 296.725 171.8 297.877 171.8C298.965 171.8 299.84 171.363 300.501 170.488C301.163 169.613 301.493 168.451 301.493 167ZM301.525 164.024C301.419 161.805 301.237 160.291 300.981 159.48C300.576 158.243 299.861 157.624 298.837 157.624C298.133 157.624 297.525 157.987 297.013 158.712C296.501 159.437 296.245 160.301 296.245 161.304C296.245 163.757 297.227 164.984 299.189 164.984C300.107 164.984 300.885 164.664 301.525 164.024ZM319.599 166.04C319.599 166.061 319.599 166.083 319.599 166.104C319.599 167.021 319.162 167.48 318.287 167.48C317.37 167.48 316.911 167.011 316.911 166.072C316.954 165.197 317.413 164.76 318.287 164.76C319.162 164.76 319.599 165.187 319.599 166.04ZM319.599 173.72C319.599 173.741 319.599 173.763 319.599 173.784C319.599 174.701 319.162 175.16 318.287 175.16C317.37 175.16 316.911 174.691 316.911 173.752C316.954 172.877 317.413 172.44 318.287 172.44C319.162 172.44 319.599 172.867 319.599 173.72ZM327.14 156.92C326.265 156.92 325.828 156.472 325.828 155.576C325.828 154.723 326.265 154.296 327.14 154.296C327.972 154.296 328.388 154.723 328.388 155.576C328.388 156.472 327.972 156.92 327.14 156.92ZM330.788 156.92C329.913 156.92 329.476 156.472 329.476 155.576C329.476 154.723 329.913 154.296 330.788 154.296C331.62 154.296 332.036 154.723 332.036 155.576C332.036 156.472 331.62 156.92 330.788 156.92ZM336.996 173.016H338.083V175H336.708C334.425 175 332.836 174.104 331.94 172.312C330.83 173.464 329.465 174.04 327.844 174.04C326.009 174.04 324.558 173.347 323.492 171.96C322.596 170.787 322.148 169.325 322.148 167.576C322.148 165.528 322.745 163.885 323.94 162.648C324.985 161.56 326.276 161.016 327.812 161.016C329.198 161.016 330.361 161.421 331.3 162.232V160.504L333.444 159.384V169.368C333.444 171.8 334.628 173.016 336.996 173.016ZM331.3 164.664C330.361 163.533 329.22 162.968 327.876 162.968C326.809 162.968 325.934 163.405 325.252 164.28C324.59 165.133 324.26 166.243 324.26 167.608C324.26 168.995 324.59 170.104 325.252 170.936C325.934 171.768 326.82 172.184 327.908 172.184C329.294 172.184 330.446 171.576 331.364 170.36C331.321 169.976 331.3 169.667 331.3 169.432V164.664ZM347.734 173.016H348.854V175H347.478C345.558 175 344.118 174.349 343.158 173.048C342.155 174.349 340.705 175 338.806 175H337.43V173.016H338.55C340.897 173.016 342.07 171.8 342.07 169.368V162.424L344.214 161.304V169.368C344.214 171.8 345.387 173.016 347.734 173.016ZM340.47 178.36C341.323 178.36 341.75 178.797 341.75 179.672C341.75 180.547 341.323 180.984 340.47 180.984C339.617 180.984 339.19 180.547 339.19 179.672C339.19 178.797 339.617 178.36 340.47 178.36ZM344.118 178.36C344.971 178.36 345.398 178.797 345.398 179.672C345.398 180.547 344.971 180.984 344.118 180.984C343.265 180.984 342.838 180.547 342.838 179.672C342.838 178.797 343.265 178.36 344.118 178.36ZM358.419 173.016H359.539V175H358.163C356.201 175 354.739 174.328 353.779 172.984C352.777 174.328 351.294 175 349.331 175H348.211V173.016H349.107C351.539 173.016 352.755 171.757 352.755 169.24V155.48L354.899 154.36V169.368C354.899 171.8 356.073 173.016 358.419 173.016ZM375.891 173.016H376.691V175H375.635C373.715 175 372.275 174.349 371.315 173.048C370.355 174.349 368.904 175 366.963 175H358.899V173.016H366.739C369.064 173.016 370.227 171.768 370.227 169.272V168.952C370.227 167.203 369.587 165.891 368.307 165.016C367.283 164.291 366.003 163.928 364.467 163.928C363.315 163.928 362.173 164.131 361.043 164.536V162.424L368.307 154.36H370.515L363.955 161.784C364.168 161.763 364.392 161.752 364.627 161.752C366.675 161.752 368.381 162.275 369.747 163.32C371.496 164.664 372.371 166.531 372.371 168.92V169.368C372.371 171.8 373.544 173.016 375.891 173.016ZM376.055 175V173.016H376.951C379.383 173.016 380.599 171.757 380.599 169.24V155.48L382.743 154.36V169.272C382.743 171.085 382.21 172.515 381.143 173.56C380.14 174.52 378.818 175 377.175 175H376.055ZM388.505 175V155.48L390.649 154.36V175H388.505ZM412.579 160.12C411.725 160.12 411.299 159.672 411.299 158.776C411.299 157.923 411.725 157.496 412.579 157.496C413.432 157.496 413.859 157.923 413.859 158.776C413.859 159.672 413.432 160.12 412.579 160.12ZM416.259 160.12C415.384 160.12 414.947 159.672 414.947 158.776C414.947 157.923 415.384 157.496 416.259 157.496C417.091 157.496 417.507 157.923 417.507 158.776C417.507 159.672 417.091 160.12 416.259 160.12ZM409.283 175C407.704 175 406.445 174.509 405.507 173.528C404.568 172.525 404.099 171.181 404.099 169.496V165.304L406.243 164.184V169.24C406.243 171.757 407.416 173.016 409.763 173.016H420.483C422.829 173.016 424.003 171.757 424.003 169.24V162.424L426.147 161.304V169.496C426.147 171.309 425.592 172.717 424.483 173.72C423.523 174.573 422.264 175 420.707 175H409.283ZM437.319 175C435.506 175 434.109 174.413 433.127 173.24C432.317 172.237 431.911 170.968 431.911 169.432V155.48L434.055 154.36V169.368C434.055 171.8 435.229 173.016 437.575 173.016H438.695V175H437.319ZM454.439 173.016V175H438.055V173.016H443.431C442.087 171.651 441.415 169.837 441.415 167.576C441.415 165.421 442.151 163.715 443.623 162.456C444.796 161.453 446.172 160.941 447.751 160.92C449.948 160.92 451.666 161.784 452.903 163.512V165.624C451.623 163.789 449.98 162.872 447.975 162.872H447.879C446.599 162.872 445.554 163.309 444.743 164.184C443.954 165.059 443.559 166.211 443.559 167.64C443.559 169.283 444.05 170.595 445.031 171.576C445.97 172.536 447.228 173.016 448.807 173.016H454.439ZM464.319 175C462.506 175 461.109 174.413 460.127 173.24C459.317 172.237 458.911 170.968 458.911 169.432V155.48L461.055 154.36V169.368C461.055 171.8 462.229 173.016 464.575 173.016H465.695V175H464.319ZM465.055 175V173.016H467.007C469.375 173.016 470.559 171.8 470.559 169.368V164.76L472.703 163.64V169.368C472.703 171.8 473.876 173.016 476.223 173.016H477.407C479.754 173.016 480.927 171.8 480.927 169.368V163.608L483.071 162.456V169.368C483.071 171.8 484.255 173.016 486.623 173.016H487.775C490.143 173.016 491.327 171.8 491.327 169.368V162.424L493.471 161.304V169.24C493.471 171.757 494.687 173.016 497.119 173.016H498.975V175H496.895C494.868 175 493.386 174.285 492.447 172.856C491.508 174.285 490.058 175 488.095 175H486.335C484.351 175 482.911 174.296 482.015 172.888C481.098 174.296 479.668 175 477.727 175H475.967C473.983 175 472.532 174.296 471.615 172.888C470.719 174.296 469.279 175 467.295 175H465.055ZM498.336 175V173.016H499.232C501.664 173.016 502.88 171.757 502.88 169.24V155.48L505.024 154.36V169.272C505.024 171.085 504.491 172.515 503.424 173.56C502.422 174.52 501.099 175 499.456 175H498.336ZM510.786 175V155.48L512.93 154.36V175H510.786ZM523.82 175L524.844 173.016H530.86C531.841 173.016 532.524 172.771 532.908 172.28C533.313 171.789 533.516 170.936 533.516 169.72C533.516 166.605 532.151 164.269 529.42 162.712L530.444 160.952C533.921 162.979 535.66 165.912 535.66 169.752C535.66 173.251 534.177 175 531.212 175H523.82ZM538.195 175L539.219 173.016H545.235C546.216 173.016 546.899 172.771 547.283 172.28C547.688 171.789 547.891 170.936 547.891 169.72C547.891 166.584 546.515 164.248 543.763 162.712L544.819 160.952C548.211 162.915 549.939 165.677 550.003 169.24C550.024 171.757 551.251 173.016 553.683 173.016H554.675V175H553.459C551.603 175 550.184 174.381 549.203 173.144C548.478 174.381 547.272 175 545.587 175H538.195ZM570.408 173.016V175H554.024V173.016H559.4C558.056 171.651 557.384 169.837 557.384 167.576C557.384 165.421 558.12 163.715 559.592 162.456C560.765 161.453 562.141 160.941 563.72 160.92C565.917 160.92 567.634 161.784 568.872 163.512V165.624C567.592 163.789 565.949 162.872 563.944 162.872H563.848C562.568 162.872 561.522 163.309 560.712 164.184C559.922 165.059 559.528 166.211 559.528 167.64C559.528 169.283 560.018 170.595 561 171.576C561.938 172.536 563.197 173.016 564.776 173.016H570.408ZM276.631 242.04C276.631 242.061 276.631 242.083 276.631 242.104C276.631 243.021 276.193 243.48 275.319 243.48C274.401 243.48 273.943 243.011 273.943 242.072C273.985 241.197 274.444 240.76 275.319 240.76C276.193 240.76 276.631 241.187 276.631 242.04ZM276.631 249.72C276.631 249.741 276.631 249.763 276.631 249.784C276.631 250.701 276.193 251.16 275.319 251.16C274.401 251.16 273.943 250.691 273.943 249.752C273.985 248.877 274.444 248.44 275.319 248.44C276.193 248.44 276.631 248.867 276.631 249.72ZM278.539 251L279.563 249.016H285.579C286.56 249.016 287.243 248.771 287.627 248.28C288.032 247.789 288.235 246.936 288.235 245.72C288.235 242.584 286.859 240.248 284.107 238.712L285.163 236.952C288.555 238.915 290.283 241.677 290.347 245.24C290.368 247.757 291.595 249.016 294.027 249.016H295.019V251H293.803C291.947 251 290.528 250.381 289.547 249.144C288.821 250.381 287.616 251 285.931 251H278.539ZM294.367 251V249.016H297.952C302.602 249.016 306.229 247.437 308.832 244.28C306.933 240.653 304.64 238.84 301.952 238.84C300.117 238.84 298.325 239.768 296.576 241.624V239.512C298.325 237.784 300.149 236.92 302.048 236.92H302.112C305.461 236.92 308.362 239.181 310.816 243.704V245.016C307.701 249.005 303.402 251 297.92 251H294.367ZM315.286 251V231.48L317.43 230.36V251H315.286ZM337.241 249.016V251H333.849C333.827 252.408 333.369 253.645 332.473 254.712C331.598 255.8 330.457 256.515 329.049 256.856C328.537 257.005 327.982 257.08 327.385 257.08C326.147 257.08 324.942 256.781 323.769 256.184V254.296C324.878 254.893 325.977 255.192 327.065 255.192C327.939 255.192 328.707 255 329.369 254.616C330.03 254.275 330.585 253.752 331.033 253.048C331.481 252.365 331.705 251.683 331.705 251L328.985 250.904C326.617 250.797 324.846 250.051 323.673 248.664C322.713 247.491 322.233 245.923 322.233 243.96C322.233 241.656 322.83 239.875 324.025 238.616C325.091 237.485 326.521 236.92 328.312 236.92C330.169 236.92 331.587 237.475 332.569 238.584C333.422 239.544 333.849 240.824 333.849 242.424V249.016H337.241ZM331.705 242.648C331.705 240.131 330.574 238.872 328.312 238.872C327.054 238.872 326.073 239.32 325.369 240.216C324.686 241.091 324.345 242.328 324.345 243.928C324.345 247.107 325.913 248.771 329.049 248.92C329.987 248.984 330.873 249.016 331.705 249.016V242.648ZM336.586 251V249.016H337.482C339.914 249.016 341.13 247.757 341.13 245.24V231.48L343.274 230.36V245.272C343.274 247.085 342.741 248.515 341.674 249.56C340.672 250.52 339.349 251 337.706 251H336.586ZM349.036 251V231.48L351.18 230.36V251H349.036ZM405.494 249.016H406.614V251H405.238C403.318 251 401.878 250.349 400.918 249.048C399.958 250.349 398.507 251 396.566 251H383.542C382.283 251 381.185 250.691 380.246 250.072C380.097 252.312 379.201 254.072 377.558 255.352C376.107 256.504 374.273 257.08 372.054 257.08C369.345 257.08 367.243 256.12 365.75 254.2C364.577 252.728 363.99 250.968 363.99 248.92C363.99 247.085 364.459 245.507 365.398 244.184L367.478 243.768C366.454 245.325 365.942 246.989 365.942 248.76C365.942 250.637 366.55 252.184 367.766 253.4C368.897 254.531 370.326 255.096 372.054 255.096C374.081 255.096 375.649 254.499 376.758 253.304C377.675 252.323 378.134 251.032 378.134 249.432V240.76L380.278 239.64V245.368C380.278 247.373 381.057 248.547 382.614 248.888C383.382 245.624 384.758 242.872 386.742 240.632C388.939 238.157 391.521 236.92 394.486 236.92C396.875 236.92 398.774 237.741 400.182 239.384C401.377 240.792 401.974 242.531 401.974 244.6V245.432C401.974 247.821 403.147 249.016 405.494 249.016ZM396.406 249.016C398.689 249.016 399.83 247.757 399.83 245.24V244.6C399.83 242.808 399.265 241.368 398.134 240.28C397.174 239.341 395.969 238.872 394.518 238.872C392.001 238.872 389.782 240.045 387.862 242.392C386.39 244.163 385.291 246.371 384.566 249.016H396.406ZM414.921 233.08C414.047 233.08 413.609 232.632 413.609 231.736C413.609 230.883 414.047 230.456 414.921 230.456C415.753 230.456 416.169 230.883 416.169 231.736C416.169 232.632 415.753 233.08 414.921 233.08ZM426.185 249.016H427.305V251H426.153C424.383 251 422.964 250.797 421.897 250.392C420.852 249.987 419.881 249.272 418.985 248.248C416.255 250.083 413.097 251 409.513 251H405.961V249.016H409.545C414.196 249.016 417.823 247.437 420.425 244.28C418.527 240.653 416.233 238.84 413.545 238.84C411.711 238.84 409.919 239.768 408.169 241.624V239.512C409.919 237.784 411.743 236.92 413.641 236.92H413.705C417.055 236.92 419.956 239.181 422.409 243.704V245.016C421.748 245.869 421.044 246.605 420.297 247.224C420.98 247.885 421.748 248.355 422.601 248.632C423.476 248.888 424.671 249.016 426.185 249.016ZM443.608 230.808C442.84 230.808 442.456 230.403 442.456 229.592C442.456 228.824 442.84 228.44 443.608 228.44C444.376 228.44 444.76 228.824 444.76 229.592C444.76 230.403 444.376 230.808 443.608 230.808ZM441.816 234.136C440.941 234.136 440.504 233.699 440.504 232.824C440.504 231.949 440.941 231.512 441.816 231.512C442.648 231.512 443.064 231.949 443.064 232.824C443.064 233.699 442.648 234.136 441.816 234.136ZM445.464 234.136C444.611 234.136 444.184 233.699 444.184 232.824C444.184 231.949 444.611 231.512 445.464 231.512C446.317 231.512 446.744 231.949 446.744 232.824C446.744 233.699 446.317 234.136 445.464 234.136ZM426.68 251V249.016H428.632C431 249.016 432.184 247.8 432.184 245.368V240.76L434.328 239.64V245.368C434.328 247.8 435.501 249.016 437.848 249.016H439.032C441.379 249.016 442.552 247.8 442.552 245.368V239.608L444.696 238.456V245.368C444.696 247.8 445.88 249.016 448.248 249.016H449.4C451.768 249.016 452.952 247.8 452.952 245.368V238.424L455.096 237.304V245.24C455.096 247.757 456.312 249.016 458.744 249.016H460.6V251H458.52C456.493 251 455.011 250.285 454.072 248.856C453.133 250.285 451.683 251 449.72 251H447.96C445.976 251 444.536 250.296 443.64 248.888C442.723 250.296 441.293 251 439.352 251H437.592C435.608 251 434.157 250.296 433.24 248.888C432.344 250.296 430.904 251 428.92 251H426.68ZM470.169 249.016H471.289V251H469.913C467.951 251 466.489 250.328 465.529 248.984C464.527 250.328 463.044 251 461.081 251H459.961V249.016H460.857C463.289 249.016 464.505 247.757 464.505 245.24V231.48L466.649 230.36V245.368C466.649 247.8 467.823 249.016 470.169 249.016ZM470.649 251V249.016H471.545C473.977 249.016 475.193 247.757 475.193 245.24V231.48L477.337 230.36V245.272C477.337 247.085 476.803 248.515 475.737 249.56C474.734 250.52 473.411 251 471.769 251H470.649ZM498.53 249.016H499.65V251H498.274C496.952 251 495.853 250.68 494.978 250.04C494.808 253.581 493.378 255.821 490.69 256.76C490.008 256.995 489.282 257.112 488.514 257.112C487.277 257.112 486.082 256.813 484.93 256.216V254.328C486.018 254.925 487.128 255.224 488.258 255.224C489.154 255.224 489.944 255.021 490.626 254.616C492.12 253.72 492.866 252.045 492.866 249.592V238.424L494.978 237.304V237.336L495.01 237.304V245.368C495.01 247.8 496.184 249.016 498.53 249.016ZM521.872 251H513.968C512.816 251 511.642 250.755 510.448 250.264C509.232 250.755 508.048 251 506.896 251H499.024V249.016H506.768C507.194 249.016 507.632 248.984 508.08 248.92C506.394 247.704 504.56 245.699 502.576 242.904V241.592C504.794 238.477 507.408 236.92 510.416 236.92C513.402 236.92 516.026 238.499 518.288 241.656V242.904C516.304 245.699 514.48 247.704 512.816 248.92C513.242 248.984 513.669 249.016 514.096 249.016H521.84L521.872 251ZM504.432 242.264C506.672 245.251 508.666 247.192 510.416 248.088C512.144 247.192 514.149 245.24 516.432 242.232C514.725 239.992 512.72 238.872 510.416 238.872H510.32C508.144 238.872 506.181 240.003 504.432 242.264ZM521.242 251V249.016H523.195C525.563 249.016 526.747 247.8 526.747 245.368V240.76L528.891 239.64V245.368C528.891 247.8 530.064 249.016 532.411 249.016H533.595C535.941 249.016 537.115 247.8 537.115 245.368V239.608L539.259 238.456V245.368C539.259 247.8 540.443 249.016 542.811 249.016H543.963C546.331 249.016 547.515 247.8 547.515 245.368V238.424L549.659 237.304V245.24C549.659 247.757 550.875 249.016 553.307 249.016H555.163V251H553.083C551.056 251 549.573 250.285 548.635 248.856C547.696 250.285 546.245 251 544.283 251H542.523C540.539 251 539.099 250.296 538.203 248.888C537.285 250.296 535.856 251 533.915 251H532.155C530.171 251 528.72 250.296 527.803 248.888C526.907 250.296 525.467 251 523.483 251H521.242ZM554.524 251V249.016H555.42C557.852 249.016 559.068 247.757 559.068 245.24V231.48L561.212 230.36V245.272C561.212 247.085 560.678 248.515 559.612 249.56C558.609 250.52 557.286 251 555.644 251H554.524ZM566.974 251V231.48L569.118 230.36V251H566.974ZM420.842 268.744V289H416.65V273.512C416.351 273.704 415.914 273.971 415.338 274.312C414.506 274.803 413.908 275.176 413.546 275.432C413.268 274.963 412.799 274.184 412.138 273.096L411.946 272.808C411.796 272.531 411.679 272.328 411.594 272.2C412.276 271.709 413.354 270.973 414.826 269.992C415.594 269.48 416.202 269.064 416.65 268.744H420.842ZM424.686 289V285.448C425.198 284.872 425.881 284.093 426.734 283.112C428.078 281.619 429.07 280.488 429.71 279.72C431.14 278.013 432.036 276.851 432.398 276.232C432.761 275.592 432.942 274.888 432.942 274.12C432.942 273.48 432.708 272.947 432.238 272.52C431.769 272.093 431.172 271.88 430.446 271.88C429.188 271.88 427.801 272.392 426.286 273.416L424.526 270.856C426.66 269.171 428.889 268.328 431.214 268.328C433.07 268.328 434.553 268.829 435.662 269.832C436.75 270.813 437.294 272.168 437.294 273.896C437.294 275.176 436.868 276.52 436.014 277.928C435.182 279.315 433.55 281.384 431.118 284.136C430.521 284.819 430.084 285.32 429.806 285.64H437.07V289H424.686ZM451.689 272.104H444.617V276.2C444.873 276.093 445.225 276.04 445.673 276.04C448.019 276.04 449.843 276.627 451.145 277.8C452.382 278.931 453.001 280.477 453.001 282.44C453.001 284.509 452.233 286.227 450.697 287.592C449.353 288.787 447.721 289.384 445.801 289.384C443.241 289.384 441.011 288.456 439.113 286.6L440.841 283.944C442.398 285.117 443.902 285.704 445.353 285.704C447.593 285.704 448.713 284.701 448.713 282.696C448.713 280.456 447.273 279.336 444.393 279.336C443.39 279.336 442.078 279.517 440.457 279.88V268.744H451.689V272.104ZM456.171 292.36L455.147 290.472C456.085 290.109 456.555 289.619 456.555 289C455.531 289 455.019 288.392 455.019 287.176C455.019 286.557 455.221 286.045 455.627 285.64C456.053 285.235 456.597 285.032 457.259 285.032C457.92 285.032 458.464 285.299 458.891 285.832C459.317 286.344 459.531 286.995 459.531 287.784C459.531 288.915 459.211 289.907 458.571 290.76C457.952 291.613 457.152 292.147 456.171 292.36ZM468.804 268.36C471.278 268.36 473.262 269.544 474.756 271.912C476.014 273.875 476.644 276.211 476.644 278.92C476.644 282.184 475.844 284.797 474.244 286.76C472.836 288.509 471.022 289.384 468.804 289.384C466.265 289.384 464.281 288.253 462.852 285.992C461.657 284.115 461.06 281.757 461.06 278.92C461.06 275.763 461.849 273.171 463.428 271.144C464.857 269.288 466.649 268.36 468.804 268.36ZM468.868 271.944C466.564 271.944 465.412 274.205 465.412 278.728C465.412 281.011 465.742 282.803 466.404 284.104C467.001 285.277 467.79 285.864 468.772 285.864C469.86 285.864 470.713 285.235 471.332 283.976C471.972 282.696 472.292 280.947 472.292 278.728C472.292 274.205 471.15 271.944 468.868 271.944ZM486.835 268.36C489.31 268.36 491.294 269.544 492.787 271.912C494.046 273.875 494.675 276.211 494.675 278.92C494.675 282.184 493.875 284.797 492.275 286.76C490.867 288.509 489.054 289.384 486.835 289.384C484.296 289.384 482.312 288.253 480.883 285.992C479.688 284.115 479.091 281.757 479.091 278.92C479.091 275.763 479.88 273.171 481.459 271.144C482.888 269.288 484.68 268.36 486.835 268.36ZM486.899 271.944C484.595 271.944 483.443 274.205 483.443 278.728C483.443 281.011 483.774 282.803 484.435 284.104C485.032 285.277 485.822 285.864 486.803 285.864C487.891 285.864 488.744 285.235 489.363 283.976C490.003 282.696 490.323 280.947 490.323 278.728C490.323 274.205 489.182 271.944 486.899 271.944ZM504.866 268.36C507.341 268.36 509.325 269.544 510.818 271.912C512.077 273.875 512.706 276.211 512.706 278.92C512.706 282.184 511.906 284.797 510.306 286.76C508.898 288.509 507.085 289.384 504.866 289.384C502.328 289.384 500.344 288.253 498.914 285.992C497.72 284.115 497.122 281.757 497.122 278.92C497.122 275.763 497.912 273.171 499.49 271.144C500.92 269.288 502.712 268.36 504.866 268.36ZM504.93 271.944C502.626 271.944 501.474 274.205 501.474 278.728C501.474 281.011 501.805 282.803 502.466 284.104C503.064 285.277 503.853 285.864 504.834 285.864C505.922 285.864 506.776 285.235 507.394 283.976C508.034 282.696 508.354 280.947 508.354 278.728C508.354 274.205 507.213 271.944 504.93 271.944ZM528.313 268.744V289H524.185V268.744H528.313ZM543.003 289.256C542.406 289.341 541.851 289.384 541.339 289.384C538.203 289.384 535.803 288.253 534.139 285.992C532.816 284.179 532.155 281.928 532.155 279.24C532.155 275.891 533.051 273.203 534.843 271.176C536.486 269.299 538.651 268.36 541.339 268.36C544.454 268.36 546.854 269.619 548.539 272.136C549.862 274.099 550.523 276.467 550.523 279.24C550.523 283.208 549.211 286.12 546.587 287.976C547.824 289.363 549.179 290.845 550.651 292.424H545.755L543.003 289.256ZM541.339 285.864C544.539 285.864 546.139 283.656 546.139 279.24C546.139 276.851 545.68 275.005 544.763 273.704C543.91 272.531 542.768 271.944 541.339 271.944C539.803 271.944 538.608 272.584 537.755 273.864C536.923 275.144 536.507 276.936 536.507 279.24C536.507 283.656 538.118 285.864 541.339 285.864ZM554.373 268.776C555.418 268.499 557.263 268.36 559.909 268.36C563.557 268.36 566.341 269.427 568.26 271.56C569.903 273.373 570.725 275.741 570.725 278.664C570.725 282.312 569.679 285.053 567.589 286.888C565.69 288.552 563.045 289.384 559.653 289.384C557.519 289.384 555.759 289.245 554.373 288.968V268.776ZM558.565 285.928C558.991 286.035 559.525 286.088 560.165 286.088C564.282 286.088 566.341 283.656 566.341 278.792C566.341 276.381 565.658 274.536 564.293 273.256C563.183 272.232 561.775 271.72 560.069 271.72C559.578 271.72 559.077 271.773 558.565 271.88V285.928ZM112.396 327C112.225 328.835 111.265 330.317 109.516 331.448C107.831 332.536 105.665 333.08 103.02 333.08C99.7347 333.08 97.26 332.12 95.596 330.2C94.3587 328.771 93.74 327.011 93.74 324.92C93.74 323.085 94.2093 321.507 95.148 320.184L97.228 319.768C96.204 321.325 95.692 322.989 95.692 324.76C95.692 326.723 96.364 328.291 97.708 329.464C98.988 330.595 100.759 331.16 103.02 331.16C105.345 331.16 107.169 330.669 108.492 329.688C109.473 328.963 110.049 328.067 110.22 327H106.956L107.98 325.016H112.492V327H112.396ZM101.004 338.36C100.129 338.36 99.692 337.923 99.692 337.048C99.692 336.173 100.129 335.736 101.004 335.736C101.836 335.736 102.252 336.173 102.252 337.048C102.252 337.923 101.836 338.36 101.004 338.36ZM104.652 338.36C103.799 338.36 103.372 337.923 103.372 337.048C103.372 336.173 103.799 335.736 104.652 335.736C105.505 335.736 105.932 336.173 105.932 337.048C105.932 337.923 105.505 338.36 104.652 338.36ZM113.446 309.016L114.054 307.896H114.886C114.673 307.512 114.566 307.117 114.566 306.712C114.566 306.115 114.79 305.603 115.238 305.176C115.686 304.728 116.219 304.504 116.838 304.504C117.307 304.504 117.766 304.653 118.214 304.952V306.136C117.787 305.837 117.371 305.688 116.966 305.688C116.625 305.688 116.337 305.805 116.102 306.04C115.867 306.253 115.75 306.509 115.75 306.808C115.75 307.171 115.899 307.533 116.198 307.896H119.014L118.406 309.016H113.446ZM111.43 327V325.016H112.55C114.897 325.016 116.07 323.8 116.07 321.368V314.424L118.214 313.304V321.432C118.214 323.224 117.691 324.621 116.646 325.624C115.686 326.541 114.406 327 112.806 327H111.43ZM128.851 327C127.037 327 125.64 326.413 124.659 325.24C123.848 324.237 123.443 322.968 123.443 321.432V307.48L125.587 306.36V321.368C125.587 323.8 126.76 325.016 129.107 325.016H130.227V327H128.851ZM150.706 325.016H151.826V327H150.45C148.509 327 147.058 326.349 146.098 325.048C145.138 326.349 143.688 327 141.746 327H138.578C137.832 327 137.138 326.893 136.498 326.68C135.858 326.893 135.186 327 134.482 327H129.586V325.016H133.682C132.53 323.864 131.954 322.445 131.954 320.76C131.954 319.523 132.242 318.477 132.818 317.624C133.266 315.853 134.109 314.456 135.346 313.432C136.605 312.387 138.077 311.864 139.762 311.864C141.917 311.864 143.709 312.621 145.138 314.136C146.482 315.587 147.154 317.432 147.154 319.672V321.368C147.154 323.8 148.338 325.016 150.706 325.016ZM141.586 325.016C143.89 325.016 145.042 323.757 145.042 321.24V319.672C145.042 317.752 144.424 316.237 143.186 315.128C142.184 314.253 141.01 313.816 139.666 313.816C137.874 313.816 136.509 314.509 135.57 315.896C135.89 315.832 136.21 315.8 136.53 315.8C137.896 315.8 138.994 316.259 139.826 317.176C140.658 318.072 141.074 319.267 141.074 320.76C141.074 322.445 140.498 323.864 139.346 325.016H141.586ZM136.53 324.728C138.472 324.088 139.442 322.744 139.442 320.696C139.442 319.693 139.176 318.893 138.642 318.296C138.13 317.677 137.426 317.368 136.53 317.368C135.634 317.368 134.92 317.667 134.386 318.264C133.853 318.861 133.586 319.672 133.586 320.696C133.586 322.744 134.568 324.088 136.53 324.728ZM156.524 309.08C155.649 309.08 155.212 308.632 155.212 307.736C155.212 306.883 155.649 306.456 156.524 306.456C157.356 306.456 157.772 306.883 157.772 307.736C157.772 308.632 157.356 309.08 156.524 309.08ZM161.484 325.016H162.604V327H161.228C159.308 327 157.868 326.349 156.908 325.048C155.905 326.349 154.455 327 152.556 327H151.18V325.016H152.3C154.647 325.016 155.82 323.8 155.82 321.368V314.424L157.964 313.304V321.368C157.964 323.8 159.137 325.016 161.484 325.016ZM161.961 327V325.016H162.857C165.289 325.016 166.505 323.757 166.505 321.24V307.48L168.649 306.36V321.272C168.649 323.085 168.116 324.515 167.049 325.56C166.047 326.52 164.724 327 163.081 327H161.961ZM174.411 327V307.48L176.555 306.36V327H174.411ZM208.853 325.016H209.973V327H208.821C206.986 327 205.525 326.776 204.437 326.328C203.349 325.88 202.346 325.091 201.429 323.96C200.682 324.237 199.541 324.525 198.005 324.824C195.488 325.315 193.792 325.997 192.917 326.872C191.872 327.917 191.349 329.389 191.349 331.288C191.349 333.123 191.957 334.573 193.173 335.64C194.197 336.557 195.509 337.016 197.109 337.016H197.173C199.605 337.016 201.557 336.472 203.029 335.384V337.336C201.28 338.445 199.296 339 197.077 339C194.688 339 192.768 338.2 191.317 336.6C190.016 335.171 189.365 333.379 189.365 331.224C189.365 328.92 190.069 327.032 191.477 325.56C192.117 324.899 192.853 324.397 193.685 324.056C194.517 323.693 195.786 323.352 197.493 323.032C199.242 322.691 200.522 322.339 201.333 321.976C202.144 321.592 202.848 321.037 203.445 320.312C201.589 316.664 199.296 314.84 196.565 314.84C194.709 314.84 192.917 315.768 191.189 317.624V315.512C192.938 313.784 194.762 312.92 196.661 312.92H196.725C200.074 312.92 202.976 315.181 205.429 319.704V321.016C204.789 321.891 203.978 322.616 202.997 323.192C203.68 323.875 204.448 324.355 205.301 324.632C206.176 324.888 207.36 325.016 208.853 325.016ZM195.957 331.224C195.957 330.413 196.362 330.008 197.173 330.008C197.962 330.008 198.357 330.413 198.357 331.224C198.357 332.056 197.962 332.472 197.173 332.472C196.362 332.472 195.957 332.056 195.957 331.224ZM211.912 309.176C211.059 309.176 210.632 308.739 210.632 307.864C210.632 306.989 211.059 306.552 211.912 306.552C212.765 306.552 213.192 306.989 213.192 307.864C213.192 308.739 212.765 309.176 211.912 309.176ZM215.56 309.176C214.707 309.176 214.28 308.739 214.28 307.864C214.28 306.989 214.707 306.552 215.56 306.552C216.413 306.552 216.84 306.989 216.84 307.864C216.84 308.739 216.413 309.176 215.56 309.176ZM218.984 325.016H220.104V327H218.728C216.808 327 215.368 326.349 214.408 325.048C213.405 326.349 211.955 327 210.056 327H208.68V325.016H209.8C212.147 325.016 213.32 323.8 213.32 321.368V314.424L215.464 313.304V321.368C215.464 323.8 216.637 325.016 218.984 325.016ZM224.805 309.08C223.931 309.08 223.493 308.632 223.493 307.736C223.493 306.883 223.931 306.456 224.805 306.456C225.637 306.456 226.053 306.883 226.053 307.736C226.053 308.632 225.637 309.08 224.805 309.08ZM229.765 325.016H230.885V327H229.509C227.589 327 226.149 326.349 225.189 325.048C224.187 326.349 222.736 327 220.837 327H219.461V325.016H220.581C222.928 325.016 224.101 323.8 224.101 321.368V314.424L226.245 313.304V321.368C226.245 323.8 227.419 325.016 229.765 325.016ZM250.371 325.016H251.459V327H250.083C248.141 327 246.691 326.328 245.731 324.984C244.664 326.755 243.043 327.64 240.867 327.64C238.669 327.64 237.048 326.765 236.003 325.016C235.021 326.339 233.56 327 231.618 327H230.242V325.016H231.363C233.709 325.016 234.883 323.8 234.883 321.368V320.28C234.883 317.827 235.48 315.949 236.675 314.648C237.72 313.496 239.117 312.92 240.867 312.92C242.872 312.92 244.397 313.667 245.443 315.16C246.36 316.44 246.819 318.147 246.819 320.28V321.368C246.819 323.8 248.003 325.016 250.371 325.016ZM240.867 325.656C242.04 325.656 242.968 325.176 243.651 324.216C244.333 323.235 244.675 321.912 244.675 320.248C244.675 316.664 243.405 314.872 240.867 314.872C238.307 314.872 237.027 316.664 237.027 320.248C237.027 323.853 238.307 325.656 240.867 325.656ZM250.805 327V325.016H251.701C254.133 325.016 255.349 323.757 255.349 321.24V307.48L257.493 306.36V321.272C257.493 323.085 256.96 324.515 255.893 325.56C254.89 326.52 253.568 327 251.925 327H250.805ZM263.255 327V307.48L265.399 306.36V327H263.255ZM281.921 325.016C280.918 323.736 280.417 322.051 280.417 319.96C280.417 317.656 281.014 315.875 282.209 314.616C283.254 313.485 284.641 312.92 286.369 312.92C288.139 312.92 289.505 313.475 290.465 314.584C291.297 315.544 291.713 316.824 291.713 318.424V321.688C291.713 323.309 291.233 324.6 290.273 325.56C289.313 326.499 288.001 326.979 286.337 327H282.273C279.926 327 278.753 328.216 278.753 330.648V335.96L276.609 337.08V330.584C276.609 328.813 277.131 327.427 278.177 326.424C279.115 325.507 280.363 325.037 281.921 325.016ZM289.569 321.496V318.616C289.569 316.12 288.502 314.872 286.369 314.872C285.153 314.872 284.203 315.32 283.521 316.216C282.859 317.112 282.529 318.349 282.529 319.928C282.529 321.528 282.849 322.776 283.489 323.672C284.129 324.568 285.014 325.016 286.145 325.016C288.427 325.016 289.569 323.843 289.569 321.496ZM314.505 325.016H315.625V327H314.249C312.287 327 310.825 326.328 309.865 324.984C308.863 326.328 307.38 327 305.417 327H294.921L295.945 325.016H300.841V311.64L302.953 310.52V325.016H305.193C307.625 325.016 308.841 323.757 308.841 321.24V307.48L310.953 306.36V313.336L310.985 313.304V321.368C310.985 323.8 312.159 325.016 314.505 325.016ZM318.225 309.176C317.371 309.176 316.945 308.739 316.945 307.864C316.945 306.989 317.371 306.552 318.225 306.552C319.078 306.552 319.505 306.989 319.505 307.864C319.505 308.739 319.078 309.176 318.225 309.176ZM321.873 309.176C321.019 309.176 320.593 308.739 320.593 307.864C320.593 306.989 321.019 306.552 321.873 306.552C322.726 306.552 323.153 306.989 323.153 307.864C323.153 308.739 322.726 309.176 321.873 309.176ZM325.297 325.016H326.417V327H325.041C323.121 327 321.681 326.349 320.721 325.048C319.718 326.349 318.267 327 316.368 327H314.992V325.016H316.113C318.459 325.016 319.633 323.8 319.633 321.368V314.424L321.777 313.304V321.368C321.777 323.8 322.95 325.016 325.297 325.016ZM325.774 327V325.016H327.726C330.094 325.016 331.278 323.8 331.278 321.368V316.76L333.422 315.64V321.368C333.422 323.8 334.595 325.016 336.942 325.016H338.126C340.472 325.016 341.646 323.8 341.646 321.368V315.608L343.79 314.456V321.368C343.79 323.8 344.974 325.016 347.342 325.016H348.494C350.862 325.016 352.046 323.8 352.046 321.368V314.424L354.19 313.304V321.432C354.19 323.203 353.667 324.589 352.622 325.592C351.683 326.509 350.414 326.979 348.814 327H347.054C345.07 327 343.63 326.296 342.734 324.888C341.816 326.296 340.387 327 338.446 327H336.686C334.702 327 333.251 326.296 332.334 324.888C331.438 326.296 329.998 327 328.014 327H325.774ZM359.943 327V307.48L362.087 306.36V327H359.943ZM383.728 325.816C382.832 326.328 381.68 326.584 380.272 326.584C378.416 326.584 376.966 325.869 375.92 324.44C375.024 323.224 374.576 321.688 374.576 319.832C374.576 317.592 375.174 315.843 376.368 314.584C377.414 313.475 378.8 312.92 380.528 312.92C382.299 312.92 383.664 313.475 384.624 314.584C385.456 315.544 385.872 316.824 385.872 318.424V325.464C385.872 327.448 385.456 329.08 384.624 330.36C383.792 331.661 382.608 332.493 381.072 332.856C380.56 333.005 380.006 333.08 379.408 333.08C378.171 333.08 376.966 332.781 375.792 332.184V330.296C376.902 330.893 378 331.192 379.088 331.192C379.963 331.192 380.731 331 381.392 330.616C382.886 329.869 383.664 328.269 383.728 325.816ZM383.728 318.616C383.728 316.12 382.662 314.872 380.528 314.872C379.334 314.872 378.384 315.309 377.68 316.184C376.998 317.059 376.656 318.264 376.656 319.8C376.656 321.293 376.987 322.488 377.648 323.384C378.31 324.259 379.206 324.696 380.336 324.696C382.022 324.696 383.152 324.227 383.728 323.288V318.616ZM409.949 309.176C409.074 309.176 408.637 308.728 408.637 307.832C408.637 306.979 409.074 306.552 409.949 306.552C410.781 306.552 411.197 306.979 411.197 307.832C411.197 308.728 410.781 309.176 409.949 309.176ZM413.597 309.176C412.722 309.176 412.285 308.728 412.285 307.832C412.285 306.979 412.722 306.552 413.597 306.552C414.429 306.552 414.845 306.979 414.845 307.832C414.845 308.728 414.429 309.176 413.597 309.176ZM417.053 325.432C417.053 327.907 416.157 329.827 414.365 331.192C412.722 332.451 410.482 333.08 407.645 333.08C404.36 333.08 401.885 332.12 400.221 330.2C398.984 328.771 398.365 327.011 398.365 324.92C398.365 323.085 398.834 321.507 399.773 320.184L401.853 319.768C400.829 321.325 400.317 322.989 400.317 324.76C400.317 326.701 400.989 328.248 402.333 329.4C403.634 330.531 405.405 331.096 407.645 331.096C410.205 331.096 412.104 330.509 413.341 329.336C414.365 328.376 414.877 327.096 414.877 325.496C414.088 326.221 412.946 326.584 411.453 326.584C409.618 326.584 408.168 325.859 407.101 324.408C406.205 323.192 405.757 321.667 405.757 319.832C405.757 317.592 406.354 315.843 407.549 314.584C408.594 313.475 409.981 312.92 411.709 312.92C413.48 312.92 414.845 313.475 415.805 314.584C416.637 315.544 417.053 316.824 417.053 318.424V325.432ZM414.909 318.616C414.909 316.12 413.842 314.872 411.709 314.872C410.514 314.872 409.576 315.309 408.893 316.184C408.21 317.059 407.869 318.264 407.869 319.8C407.869 321.315 408.189 322.509 408.829 323.384C409.49 324.259 410.386 324.696 411.517 324.696C413.245 324.696 414.376 324.205 414.909 323.224V318.616ZM432.343 325.016H433.463V327H432.087C430.764 327 429.665 326.68 428.791 326.04C428.62 329.581 427.191 331.821 424.503 332.76C423.82 332.995 423.095 333.112 422.327 333.112C421.089 333.112 419.895 332.813 418.743 332.216V330.328C419.831 330.925 420.94 331.224 422.071 331.224C422.967 331.224 423.756 331.021 424.439 330.616C425.932 329.72 426.679 328.045 426.679 325.592V314.424L428.791 313.304V313.336L428.823 313.304V321.368C428.823 323.8 429.996 325.016 432.343 325.016ZM453.06 325.016H454.18V327H453.028C451.258 327 449.839 326.797 448.772 326.392C447.727 325.987 446.756 325.272 445.86 324.248C443.13 326.083 439.972 327 436.388 327H432.836V325.016H436.42C441.071 325.016 444.698 323.437 447.3 320.28C445.402 316.653 443.108 314.84 440.42 314.84C438.586 314.84 436.794 315.768 435.044 317.624V315.512C436.794 313.784 438.618 312.92 440.516 312.92H440.58C443.93 312.92 446.831 315.181 449.284 319.704V321.016C448.623 321.869 447.919 322.605 447.172 323.224C447.855 323.885 448.623 324.355 449.476 324.632C450.351 324.888 451.546 325.016 453.06 325.016ZM453.555 327V325.016H454.451C456.883 325.016 458.099 323.757 458.099 321.24V307.48L460.243 306.36V321.272C460.243 323.085 459.71 324.515 458.643 325.56C457.64 326.52 456.318 327 454.675 327H453.555ZM466.005 327V307.48L468.149 306.36V327H466.005ZM484.671 308.92C483.796 308.92 483.359 308.472 483.359 307.576C483.359 306.723 483.796 306.296 484.671 306.296C485.503 306.296 485.919 306.723 485.919 307.576C485.919 308.472 485.503 308.92 484.671 308.92ZM488.319 308.92C487.444 308.92 487.007 308.472 487.007 307.576C487.007 306.723 487.444 306.296 488.319 306.296C489.151 306.296 489.567 306.723 489.567 307.576C489.567 308.472 489.151 308.92 488.319 308.92ZM494.527 325.016H495.615V327H494.239C491.956 327 490.367 326.104 489.471 324.312C488.361 325.464 486.996 326.04 485.375 326.04C483.54 326.04 482.089 325.347 481.023 323.96C480.127 322.787 479.679 321.325 479.679 319.576C479.679 317.528 480.276 315.885 481.471 314.648C482.516 313.56 483.807 313.016 485.343 313.016C486.729 313.016 487.892 313.421 488.831 314.232V312.504L490.975 311.384V321.368C490.975 323.8 492.159 325.016 494.527 325.016ZM488.831 316.664C487.892 315.533 486.751 314.968 485.407 314.968C484.34 314.968 483.465 315.405 482.783 316.28C482.121 317.133 481.791 318.243 481.791 319.608C481.791 320.995 482.121 322.104 482.783 322.936C483.465 323.768 484.351 324.184 485.439 324.184C486.825 324.184 487.977 323.576 488.895 322.36C488.852 321.976 488.831 321.667 488.831 321.432V316.664ZM505.169 325.016H506.289V327H504.913C502.951 327 501.489 326.328 500.529 324.984C499.527 326.328 498.044 327 496.081 327H494.961V325.016H495.857C498.289 325.016 499.505 323.757 499.505 321.24V307.48L501.649 306.36V321.368C501.649 323.8 502.823 325.016 505.169 325.016ZM510.289 318.424C510.289 316.611 510.833 315.203 511.921 314.2C512.859 313.347 514.097 312.92 515.633 312.92C517.617 312.92 519.142 313.645 520.209 315.096C521.126 316.333 521.585 317.955 521.585 319.96C521.585 322.243 520.998 324.024 519.825 325.304C518.801 326.435 517.467 327 515.825 327C513.819 327 512.326 326.36 511.345 325.08C510.385 326.36 508.945 327 507.025 327H505.649V325.016H506.769C509.115 325.016 510.289 323.8 510.289 321.368V318.424ZM512.433 321.496C512.433 323.843 513.585 325.016 515.889 325.016C516.998 325.016 517.873 324.568 518.513 323.672C519.153 322.776 519.473 321.528 519.473 319.928C519.473 318.349 519.131 317.112 518.449 316.216C517.787 315.32 516.849 314.872 515.633 314.872C513.499 314.872 512.433 316.12 512.433 318.616V321.496ZM532.288 327C530.475 327 529.077 326.413 528.096 325.24C527.285 324.237 526.88 322.968 526.88 321.432V307.48L529.024 306.36V321.368C529.024 323.8 530.197 325.016 532.544 325.016H533.664V327H532.288ZM549.952 306.808C549.184 306.808 548.8 306.403 548.8 305.592C548.8 304.824 549.184 304.44 549.952 304.44C550.72 304.44 551.104 304.824 551.104 305.592C551.104 306.403 550.72 306.808 549.952 306.808ZM548.16 310.136C547.285 310.136 546.848 309.699 546.848 308.824C546.848 307.949 547.285 307.512 548.16 307.512C548.992 307.512 549.408 307.949 549.408 308.824C549.408 309.699 548.992 310.136 548.16 310.136ZM551.808 310.136C550.954 310.136 550.528 309.699 550.528 308.824C550.528 307.949 550.954 307.512 551.808 307.512C552.661 307.512 553.088 307.949 553.088 308.824C553.088 309.699 552.661 310.136 551.808 310.136ZM533.024 327V325.016H534.976C537.344 325.016 538.528 323.8 538.528 321.368V316.76L540.672 315.64V321.368C540.672 323.8 541.845 325.016 544.192 325.016H545.376C547.722 325.016 548.896 323.8 548.896 321.368V315.608L551.04 314.456V321.368C551.04 323.8 552.224 325.016 554.592 325.016H555.744C558.112 325.016 559.296 323.8 559.296 321.368V314.424L561.44 313.304V321.432C561.44 323.203 560.917 324.589 559.872 325.592C558.933 326.509 557.664 326.979 556.064 327H554.304C552.32 327 550.88 326.296 549.984 324.888C549.066 326.296 547.637 327 545.696 327H543.936C541.952 327 540.501 326.296 539.584 324.888C538.688 326.296 537.248 327 535.264 327H533.024Z" fill="black"/>
</svg>
