<svg width="542" height="301" viewBox="0 0 542 301" fill="none" xmlns="http://www.w3.org/2000/svg">
<path d="M32.1085 21.016H33.1965V23H31.8205C29.9218 23 28.4925 22.36 27.5325 21.08C26.5512 22.3387 25.1005 22.9787 23.1805 23H19.1165C16.7698 23 15.5965 24.216 15.5965 26.648V31.96L13.4525 33.08V26.584C13.4525 24.8133 13.9752 23.4267 15.0205 22.424C15.9592 21.5067 17.2072 21.0373 18.7645 21.016C17.7618 19.736 17.2605 18.0507 17.2605 15.96C17.2605 13.656 17.8578 11.8747 19.0525 10.616C20.0978 9.48533 21.4845 8.92 23.2125 8.92C24.9832 8.92 26.3485 9.47467 27.3085 10.584C28.1405 11.544 28.5565 12.824 28.5565 14.424V17.368C28.5565 19.8 29.7405 21.016 32.1085 21.016ZM26.4125 17.496V14.616C26.4125 12.12 25.3458 10.872 23.2125 10.872C21.9965 10.872 21.0472 11.32 20.3645 12.216C19.7032 13.112 19.3725 14.3493 19.3725 15.928C19.3725 17.528 19.6925 18.776 20.3325 19.672C20.9725 20.568 21.8578 21.016 22.9885 21.016C25.2712 21.016 26.4125 19.8427 26.4125 17.496ZM35.787 5.176C34.9337 5.176 34.507 4.73867 34.507 3.864C34.507 2.98933 34.9337 2.552 35.787 2.552C36.6403 2.552 37.067 2.98933 37.067 3.864C37.067 4.73867 36.6403 5.176 35.787 5.176ZM39.435 5.176C38.5817 5.176 38.155 4.73867 38.155 3.864C38.155 2.98933 38.5817 2.552 39.435 2.552C40.2883 2.552 40.715 2.98933 40.715 3.864C40.715 4.73867 40.2883 5.176 39.435 5.176ZM42.859 21.016H43.979V23H42.603C40.683 23 39.243 22.3493 38.283 21.048C37.2803 22.3493 35.8297 23 33.931 23H32.555V21.016H33.675C36.0217 21.016 37.195 19.8 37.195 17.368V10.424L39.339 9.304V17.368C39.339 19.8 40.5123 21.016 42.859 21.016ZM43.3362 23V21.016H44.4563C46.8029 21.016 47.9763 19.8 47.9763 17.368V10.424L50.1203 9.304V17.432C50.1203 19.224 49.5976 20.6213 48.5523 21.624C47.5923 22.5413 46.3123 23 44.7122 23H43.3362ZM44.3923 28.984C43.5176 28.984 43.0802 28.536 43.0802 27.64C43.0802 26.7867 43.5176 26.36 44.3923 26.36C45.2243 26.36 45.6403 26.7867 45.6403 27.64C45.6403 28.536 45.2243 28.984 44.3923 28.984ZM48.0403 28.984C47.1656 28.984 46.7283 28.536 46.7283 27.64C46.7283 26.7867 47.1656 26.36 48.0403 26.36C48.8723 26.36 49.2883 26.7867 49.2883 27.64C49.2883 28.536 48.8723 28.984 48.0403 28.984ZM68.1115 2.36H70.0315C67.2368 6.328 65.8395 10.4987 65.8395 14.872C65.8395 19.48 67.2368 23.6827 70.0315 27.48H68.1115C66.8315 26.2 65.7542 24.344 64.8795 21.912C64.0262 19.48 63.5995 17.1333 63.5995 14.872C63.5995 12.632 64.0262 10.328 64.8795 7.96C65.7328 5.57067 66.8102 3.704 68.1115 2.36ZM102.421 21.016V23H101.045C99.2528 23 97.8661 22.424 96.8848 21.272C96.1168 22.424 94.8794 23 93.1728 23H73.1088L74.1648 21.016H78.3888V3.48L80.3728 2.36V15.8C82.8688 11.2133 86.1754 8.92 90.2928 8.92C92.6821 8.92 94.5808 9.74133 95.9888 11.384C97.1834 12.792 97.7808 14.5307 97.7808 16.6V17.432C97.7808 19.8213 98.9648 21.016 101.333 21.016H102.421ZM95.6368 16.6C95.6368 14.808 95.0714 13.368 93.9408 12.28C92.9808 11.3413 91.7754 10.872 90.3248 10.872C87.8288 10.872 85.6101 12.0773 83.6688 14.488C82.1968 16.3013 81.1088 18.4773 80.4048 21.016H92.9488C93.9728 21.016 94.6768 20.7813 95.0608 20.312C95.4448 19.8213 95.6368 18.936 95.6368 17.656V16.6ZM109.198 5.176C108.323 5.176 107.886 4.728 107.886 3.832C107.886 2.97867 108.323 2.552 109.198 2.552C110.03 2.552 110.446 2.97867 110.446 3.832C110.446 4.728 110.03 5.176 109.198 5.176ZM112.846 5.176C111.971 5.176 111.534 4.728 111.534 3.832C111.534 2.97867 111.971 2.552 112.846 2.552C113.678 2.552 114.094 2.97867 114.094 3.832C114.094 4.728 113.678 5.176 112.846 5.176ZM114.35 21.016H120.206V23H112.974C112.248 23 111.587 22.9253 110.99 22.776C110.392 22.9253 109.731 23 109.006 23H101.774V21.016H107.662C105.976 19.4587 105.134 17.6133 105.134 15.48C105.134 13.4107 105.71 11.768 106.862 10.552C107.907 9.464 109.283 8.92 110.99 8.92C112.931 8.92 114.435 9.624 115.502 11.032C116.398 12.2053 116.846 13.688 116.846 15.48C116.846 17.6347 116.014 19.48 114.35 21.016ZM111.118 20.728C112.206 20.344 113.091 19.6613 113.774 18.68C114.478 17.6773 114.83 16.6 114.83 15.448C114.83 14.04 114.478 12.9307 113.774 12.12C113.091 11.288 112.163 10.872 110.99 10.872C109.816 10.872 108.888 11.288 108.206 12.12C107.523 12.9307 107.182 14.0293 107.182 15.416C107.182 16.5893 107.523 17.6773 108.206 18.68C108.888 19.6613 109.774 20.344 110.862 20.728L110.99 20.76L111.054 20.728H111.118ZM129.283 5.144C128.408 5.144 127.971 4.696 127.971 3.8C127.971 2.94667 128.408 2.52 129.283 2.52C130.115 2.52 130.531 2.94667 130.531 3.8C130.531 4.696 130.115 5.144 129.283 5.144ZM119.555 23V21.016H124.995C123.822 19.8427 123.235 18.1573 123.235 15.96C123.235 13.656 123.832 11.8747 125.027 10.616C126.072 9.48533 127.459 8.92 129.187 8.92C130.958 8.92 132.323 9.47467 133.283 10.584C134.115 11.544 134.531 12.824 134.531 14.424V17.528C134.51 19.256 133.987 20.6107 132.963 21.592C132.024 22.5307 130.744 23 129.123 23H119.555ZM132.419 14.616C132.419 12.12 131.342 10.872 129.187 10.872C127.992 10.872 127.054 11.32 126.371 12.216C125.71 13.0907 125.379 14.328 125.379 15.928C125.379 17.4853 125.699 18.7227 126.339 19.64C127 20.5573 127.875 21.016 128.963 21.016C131.267 21.016 132.419 19.8213 132.419 17.432V14.616ZM145.101 23L146.125 21.016H152.141C153.123 21.016 153.805 20.7707 154.189 20.28C154.595 19.7893 154.797 18.936 154.797 17.72C154.797 14.584 153.421 12.248 150.669 10.712L151.725 8.952C155.117 10.9147 156.845 13.6773 156.909 17.24C156.931 19.7573 158.157 21.016 160.589 21.016H161.581V23H160.365C158.509 23 157.091 22.3813 156.109 21.144C155.384 22.3813 154.179 23 152.493 23H145.101ZM160.93 23V21.016H164.514C169.165 21.016 172.791 19.4373 175.394 16.28C173.495 12.6533 171.202 10.84 168.514 10.84C166.679 10.84 164.887 11.768 163.138 13.624V11.512C164.887 9.784 166.711 8.92 168.61 8.92H168.674C172.023 8.92 174.925 11.1813 177.378 15.704V17.016C174.263 21.0053 169.965 23 164.482 23H160.93ZM181.849 23V3.48L183.993 2.36V23H181.849ZM197.947 21.816C197.051 22.328 195.899 22.584 194.491 22.584C192.635 22.584 191.184 21.8693 190.139 20.44C189.243 19.224 188.795 17.688 188.795 15.832C188.795 13.592 189.392 11.8427 190.587 10.584C191.632 9.47467 193.019 8.92 194.747 8.92C196.518 8.92 197.883 9.47467 198.843 10.584C199.675 11.544 200.091 12.824 200.091 14.424V21.464C200.091 23.448 199.675 25.08 198.843 26.36C198.011 27.6613 196.827 28.4933 195.291 28.856C194.779 29.0053 194.224 29.08 193.627 29.08C192.39 29.08 191.184 28.7813 190.011 28.184V26.296C191.12 26.8933 192.219 27.192 193.307 27.192C194.182 27.192 194.95 27 195.611 26.616C197.104 25.8693 197.883 24.2693 197.947 21.816ZM197.947 14.616C197.947 12.12 196.88 10.872 194.747 10.872C193.552 10.872 192.603 11.3093 191.899 12.184C191.216 13.0587 190.875 14.264 190.875 15.8C190.875 17.2933 191.206 18.488 191.867 19.384C192.528 20.2587 193.424 20.696 194.555 20.696C196.24 20.696 197.371 20.2267 197.947 19.288V14.616ZM233.096 3.48L235.24 2.36V17.496C235.24 19.3093 234.685 20.7173 233.576 21.72C232.637 22.5733 231.389 23 229.832 23H218.408C216.829 23 215.57 22.5093 214.632 21.528C213.693 20.5253 213.224 19.1813 213.224 17.496V13.304L215.368 12.184V17.24C215.368 19.7573 216.541 21.016 218.888 21.016H229.608C231.933 21.016 233.096 19.7573 233.096 17.24V3.48ZM224.104 7.736C224.978 7.736 225.672 7.97067 226.184 8.44C226.696 8.90933 226.952 9.53867 226.952 10.328C226.952 11.032 226.738 11.5973 226.312 12.024C225.906 12.4293 225.362 12.632 224.68 12.632H220.712L221.32 11.512H224.584C225.394 11.512 225.8 11.1067 225.8 10.296C225.8 9.31467 225.181 8.824 223.944 8.824C223.304 8.824 222.76 8.952 222.312 9.208V8.12L224.936 5.176H226.28L224.072 7.736H224.104ZM248.749 21.016H249.869V23H248.493C247.17 23 246.072 22.68 245.197 22.04C245.026 25.5813 243.597 27.8213 240.909 28.76C240.226 28.9947 239.501 29.112 238.733 29.112C237.496 29.112 236.301 28.8133 235.149 28.216V26.328C236.237 26.9253 237.346 27.224 238.477 27.224C239.373 27.224 240.162 27.0213 240.845 26.616C242.338 25.72 243.085 24.0453 243.085 21.592V10.424L245.197 9.304V9.336L245.229 9.304V17.368C245.229 19.8 246.402 21.016 248.749 21.016ZM252.475 5.176C251.621 5.176 251.195 4.73867 251.195 3.864C251.195 2.98933 251.621 2.552 252.475 2.552C253.328 2.552 253.755 2.98933 253.755 3.864C253.755 4.73867 253.328 5.176 252.475 5.176ZM256.123 5.176C255.269 5.176 254.843 4.73867 254.843 3.864C254.843 2.98933 255.269 2.552 256.123 2.552C256.976 2.552 257.403 2.98933 257.403 3.864C257.403 4.73867 256.976 5.176 256.123 5.176ZM259.547 21.016H260.667V23H259.291C257.371 23 255.931 22.3493 254.971 21.048C253.968 22.3493 252.517 23 250.618 23H249.242V21.016H250.363C252.709 21.016 253.883 19.8 253.883 17.368V10.424L256.027 9.304V17.368C256.027 19.8 257.2 21.016 259.547 21.016ZM276.952 2.808C276.184 2.808 275.8 2.40267 275.8 1.592C275.8 0.823999 276.184 0.439999 276.952 0.439999C277.72 0.439999 278.104 0.823999 278.104 1.592C278.104 2.40267 277.72 2.808 276.952 2.808ZM275.16 6.136C274.285 6.136 273.848 5.69867 273.848 4.824C273.848 3.94933 274.285 3.512 275.16 3.512C275.992 3.512 276.408 3.94933 276.408 4.824C276.408 5.69867 275.992 6.136 275.16 6.136ZM278.808 6.136C277.954 6.136 277.528 5.69867 277.528 4.824C277.528 3.94933 277.954 3.512 278.808 3.512C279.661 3.512 280.088 3.94933 280.088 4.824C280.088 5.69867 279.661 6.136 278.808 6.136ZM260.024 23V21.016H261.976C264.344 21.016 265.528 19.8 265.528 17.368V12.76L267.672 11.64V17.368C267.672 19.8 268.845 21.016 271.192 21.016H272.376C274.722 21.016 275.896 19.8 275.896 17.368V11.608L278.04 10.456V17.368C278.04 19.8 279.224 21.016 281.592 21.016H282.744C285.112 21.016 286.296 19.8 286.296 17.368V10.424L288.44 9.304V17.24C288.44 19.7573 289.656 21.016 292.088 21.016H293.944V23H291.864C289.837 23 288.354 22.2853 287.416 20.856C286.477 22.2853 285.026 23 283.064 23H281.304C279.32 23 277.88 22.296 276.984 20.888C276.066 22.296 274.637 23 272.696 23H270.936C268.952 23 267.501 22.296 266.584 20.888C265.688 22.296 264.248 23 262.264 23H260.024ZM297.945 14.424C297.945 12.6107 298.489 11.2027 299.577 10.2C300.516 9.34667 301.753 8.92 303.289 8.92C305.273 8.92 306.798 9.64533 307.865 11.096C308.782 12.3333 309.241 13.9547 309.241 15.96C309.241 18.2427 308.654 20.024 307.481 21.304C306.457 22.4347 305.124 23 303.481 23C301.476 23 299.982 22.36 299.001 21.08C298.041 22.36 296.601 23 294.681 23H293.305V21.016H294.425C296.772 21.016 297.945 19.8 297.945 17.368V14.424ZM300.089 17.496C300.089 19.8427 301.241 21.016 303.545 21.016C304.654 21.016 305.529 20.568 306.169 19.672C306.809 18.776 307.129 17.528 307.129 15.928C307.129 14.3493 306.788 13.112 306.105 12.216C305.444 11.32 304.505 10.872 303.289 10.872C301.156 10.872 300.089 12.12 300.089 14.616V17.496ZM314.024 2.36H315.944C317.224 3.704 318.291 5.57067 319.144 7.96C320.019 10.328 320.456 12.632 320.456 14.872C320.456 17.752 319.827 20.568 318.568 23.32C317.736 25.176 316.862 26.5627 315.944 27.48H314.024C316.819 23.6827 318.216 19.48 318.216 14.872C318.216 10.4987 316.819 6.328 314.024 2.36ZM337.077 4.92C336.202 4.92 335.765 4.472 335.765 3.576C335.765 2.72267 336.202 2.296 337.077 2.296C337.909 2.296 338.325 2.72267 338.325 3.576C338.325 4.472 337.909 4.92 337.077 4.92ZM340.725 4.92C339.85 4.92 339.413 4.472 339.413 3.576C339.413 2.72267 339.85 2.296 340.725 2.296C341.557 2.296 341.973 2.72267 341.973 3.576C341.973 4.472 341.557 4.92 340.725 4.92ZM346.933 21.016H348.021V23H346.645C344.362 23 342.773 22.104 341.877 20.312C340.768 21.464 339.402 22.04 337.781 22.04C335.946 22.04 334.496 21.3467 333.429 19.96C332.533 18.7867 332.085 17.3253 332.085 15.576C332.085 13.528 332.682 11.8853 333.877 10.648C334.922 9.56 336.213 9.016 337.749 9.016C339.136 9.016 340.298 9.42133 341.237 10.232V8.504L343.381 7.384V17.368C343.381 19.8 344.565 21.016 346.933 21.016ZM341.237 12.664C340.298 11.5333 339.157 10.968 337.813 10.968C336.746 10.968 335.872 11.4053 335.189 12.28C334.528 13.1333 334.197 14.2427 334.197 15.608C334.197 16.9947 334.528 18.104 335.189 18.936C335.872 19.768 336.757 20.184 337.845 20.184C339.232 20.184 340.384 19.576 341.301 18.36C341.258 17.976 341.237 17.6667 341.237 17.432V12.664ZM356.488 20.888C357.277 17.6027 358.653 14.8507 360.616 12.632C362.813 10.1573 365.394 8.92 368.36 8.92C370.749 8.92 372.648 9.74133 374.056 11.384C375.25 12.792 375.848 14.5307 375.848 16.6V17.496C375.848 19.3093 375.293 20.7173 374.184 21.72C373.245 22.5733 371.997 23 370.44 23H357.416C355.496 23 354.056 22.3493 353.096 21.048C352.093 22.3493 350.642 23 348.743 23H347.367V21.016H348.488C350.834 21.016 352.008 19.8 352.008 17.368V12.76L354.152 11.64V17.368C354.152 19.3733 354.93 20.5467 356.488 20.888ZM373.704 17.24V16.6C373.704 14.808 373.138 13.368 372.008 12.28C371.048 11.3413 369.842 10.872 368.392 10.872C365.896 10.872 363.677 12.0453 361.736 14.392C360.264 16.184 359.154 18.392 358.408 21.016H370.28C372.562 21.016 373.704 19.7573 373.704 17.24ZM386.444 23C384.631 23 383.234 22.4133 382.252 21.24C381.442 20.2373 381.036 18.968 381.036 17.432V3.48L383.18 2.36V17.368C383.18 19.8 384.354 21.016 386.7 21.016H387.82V23H386.444ZM396.14 5.08C395.265 5.08 394.828 4.632 394.828 3.736C394.828 2.88267 395.265 2.456 396.14 2.456C396.972 2.456 397.388 2.88267 397.388 3.736C397.388 4.632 396.972 5.08 396.14 5.08ZM387.18 23V21.016H390.764C395.415 21.016 399.041 19.4373 401.644 16.28C399.745 12.6533 397.452 10.84 394.764 10.84C392.929 10.84 391.137 11.768 389.388 13.624V11.512C391.137 9.784 392.961 8.92 394.86 8.92H394.924C398.273 8.92 401.175 11.1813 403.628 15.704V17.016C400.513 21.0053 396.215 23 390.732 23H387.18ZM424.266 8.12C423.413 8.12 422.986 7.672 422.986 6.776C422.986 5.92267 423.413 5.496 424.266 5.496C425.12 5.496 425.546 5.92267 425.546 6.776C425.546 7.672 425.12 8.12 424.266 8.12ZM427.946 8.12C427.072 8.12 426.634 7.672 426.634 6.776C426.634 5.92267 427.072 5.496 427.946 5.496C428.778 5.496 429.194 5.92267 429.194 6.776C429.194 7.672 428.778 8.12 427.946 8.12ZM420.97 23C419.392 23 418.133 22.5093 417.194 21.528C416.256 20.5253 415.786 19.1813 415.786 17.496V13.304L417.93 12.184V17.24C417.93 19.7573 419.104 21.016 421.45 21.016H432.17C434.517 21.016 435.69 19.7573 435.69 17.24V10.424L437.834 9.304V17.496C437.834 19.3093 437.28 20.7173 436.17 21.72C435.21 22.5733 433.952 23 432.394 23H420.97ZM449.007 23C447.193 23 445.796 22.4133 444.815 21.24C444.004 20.2373 443.599 18.968 443.599 17.432V3.48L445.743 2.36V17.368C445.743 19.8 446.916 21.016 449.263 21.016H450.383V23H449.007ZM449.742 23V21.016H451.695C454.063 21.016 455.247 19.8 455.247 17.368V12.76L457.391 11.64V17.368C457.391 19.8 458.564 21.016 460.911 21.016H462.095C464.441 21.016 465.615 19.8 465.615 17.368V11.608L467.759 10.456V17.368C467.759 19.8 468.943 21.016 471.311 21.016H472.463C474.831 21.016 476.015 19.8 476.015 17.368V10.424L478.159 9.304V17.24C478.159 19.7573 479.375 21.016 481.807 21.016H483.663V23H481.583C479.556 23 478.073 22.2853 477.135 20.856C476.196 22.2853 474.745 23 472.783 23H471.023C469.039 23 467.599 22.296 466.703 20.888C465.785 22.296 464.356 23 462.415 23H460.655C458.671 23 457.22 22.296 456.303 20.888C455.407 22.296 453.967 23 451.983 23H449.742ZM493.232 21.016H494.352V23H492.976C491.013 23 489.552 22.328 488.592 20.984C487.589 22.328 486.106 23 484.144 23H483.024V21.016H483.92C486.352 21.016 487.568 19.7573 487.568 17.24V3.48L489.712 2.36V17.368C489.712 19.8 490.885 21.016 493.232 21.016ZM493.711 23V21.016H497.295C501.946 21.016 505.573 19.4373 508.175 16.28C506.277 12.6533 503.983 10.84 501.295 10.84C499.461 10.84 497.669 11.768 495.919 13.624V11.512C497.669 9.784 499.493 8.92 501.391 8.92H501.455C504.805 8.92 507.706 11.1813 510.159 15.704V17.016C507.045 21.0053 502.746 23 497.263 23H493.711ZM502.159 28.984C501.285 28.984 500.847 28.536 500.847 27.64C500.847 26.7867 501.285 26.36 502.159 26.36C502.991 26.36 503.407 26.7867 503.407 27.64C503.407 28.536 502.991 28.984 502.159 28.984ZM522.158 5.784L521.198 4.376C522.712 3.032 524.526 2.36 526.638 2.36C528.366 2.36 529.795 2.872 530.926 3.896C531.971 4.856 532.494 6.08267 532.494 7.576C532.494 8.64267 532.174 9.592 531.534 10.424C530.894 11.2347 530.051 11.768 529.006 12.024C530.35 12.344 531.406 12.9627 532.174 13.88C532.942 14.7973 533.326 15.9067 533.326 17.208C533.326 19.3627 532.515 21.0053 530.894 22.136C529.699 22.9467 528.291 23.352 526.67 23.352C524.622 23.352 522.712 22.648 520.942 21.24L521.966 19.864C523.31 20.8027 524.782 21.272 526.382 21.272C527.704 21.272 528.771 20.8987 529.582 20.152C530.392 19.4053 530.798 18.4133 530.798 17.176C530.798 14.552 529.23 13.24 526.094 13.24H523.47V11.224H526.094C527.288 11.224 528.227 10.9147 528.91 10.296C529.614 9.67733 529.966 8.824 529.966 7.736C529.966 5.496 528.718 4.376 526.222 4.376C524.92 4.376 523.566 4.84533 522.158 5.784ZM123.537 59.72C123.537 59.7413 123.537 59.7627 123.537 59.784C123.537 60.7013 123.099 61.16 122.225 61.16C121.307 61.16 120.849 60.6907 120.849 59.752C120.891 58.8773 121.35 58.44 122.225 58.44C123.099 58.44 123.537 58.8667 123.537 59.72ZM136.614 46.344C135.74 46.344 135.302 45.896 135.302 45C135.302 44.1467 135.74 43.72 136.614 43.72C137.446 43.72 137.862 44.1467 137.862 45C137.862 45.896 137.446 46.344 136.614 46.344ZM148.454 59.016H149.574V61H148.198C146.876 61 145.777 60.6907 144.902 60.072C144.753 62.312 143.857 64.072 142.214 65.352C140.764 66.504 138.929 67.08 136.71 67.08C134.001 67.08 131.9 66.12 130.406 64.2C129.233 62.728 128.646 60.968 128.646 58.92C128.646 57.0853 129.116 55.5067 130.054 54.184L132.134 53.768C131.11 55.3253 130.598 56.9893 130.598 58.76C130.598 60.6373 131.206 62.184 132.422 63.4C133.553 64.5307 134.982 65.096 136.71 65.096C138.737 65.096 140.305 64.4987 141.414 63.304C142.332 62.3227 142.79 61.032 142.79 59.432V48.424L144.934 47.304V55.368C144.934 57.8 146.108 59.016 148.454 59.016ZM159.234 59.016H160.354V61H158.978C157.058 61 155.618 60.3493 154.658 59.048C153.655 60.3493 152.205 61 150.306 61H148.93V59.016H150.05C152.397 59.016 153.57 57.8 153.57 55.368V48.424L155.714 47.304V55.368C155.714 57.8 156.887 59.016 159.234 59.016ZM151.97 64.36C152.823 64.36 153.25 64.7973 153.25 65.672C153.25 66.5467 152.823 66.984 151.97 66.984C151.117 66.984 150.69 66.5467 150.69 65.672C150.69 64.7973 151.117 64.36 151.97 64.36ZM155.618 64.36C156.471 64.36 156.898 64.7973 156.898 65.672C156.898 66.5467 156.471 66.984 155.618 66.984C154.765 66.984 154.338 66.5467 154.338 65.672C154.338 64.7973 154.765 64.36 155.618 64.36ZM164.767 47.784C164.981 47.7627 165.205 47.752 165.439 47.752C167.359 47.752 169.002 48.2213 170.367 49.16C172.245 50.504 173.183 52.424 173.183 54.92V55.528C173.183 57.32 172.629 58.7173 171.519 59.72C170.559 60.5733 169.311 61 167.775 61H159.711V59.016H167.551C169.877 59.016 171.039 57.768 171.039 55.272V54.952C171.039 53.224 170.421 51.9333 169.183 51.08C168.159 50.312 166.858 49.928 165.279 49.928C164.127 49.928 162.986 50.1307 161.855 50.536V48.424L169.119 40.36H171.327L164.767 47.784ZM185.718 59.016H186.838V61H185.462C184.139 61 183.04 60.68 182.166 60.04C181.995 63.5813 180.566 65.8213 177.878 66.76C177.195 66.9947 176.47 67.112 175.702 67.112C174.464 67.112 173.27 66.8133 172.118 66.216V64.328C173.206 64.9253 174.315 65.224 175.446 65.224C176.342 65.224 177.131 65.0213 177.814 64.616C179.307 63.72 180.054 62.0453 180.054 59.592V48.424L182.166 47.304V47.336L182.198 47.304V55.368C182.198 57.8 183.371 59.016 185.718 59.016ZM189.443 43.176C188.59 43.176 188.163 42.7387 188.163 41.864C188.163 40.9893 188.59 40.552 189.443 40.552C190.297 40.552 190.723 40.9893 190.723 41.864C190.723 42.7387 190.297 43.176 189.443 43.176ZM193.091 43.176C192.238 43.176 191.811 42.7387 191.811 41.864C191.811 40.9893 192.238 40.552 193.091 40.552C193.945 40.552 194.371 40.9893 194.371 41.864C194.371 42.7387 193.945 43.176 193.091 43.176ZM196.515 59.016H197.635V61H196.259C194.339 61 192.899 60.3493 191.939 59.048C190.937 60.3493 189.486 61 187.587 61H186.211V59.016H187.331C189.678 59.016 190.851 57.8 190.851 55.368V48.424L192.995 47.304V55.368C192.995 57.8 194.169 59.016 196.515 59.016ZM213.921 40.808C213.153 40.808 212.769 40.4027 212.769 39.592C212.769 38.824 213.153 38.44 213.921 38.44C214.689 38.44 215.073 38.824 215.073 39.592C215.073 40.4027 214.689 40.808 213.921 40.808ZM212.129 44.136C211.254 44.136 210.817 43.6987 210.817 42.824C210.817 41.9493 211.254 41.512 212.129 41.512C212.961 41.512 213.377 41.9493 213.377 42.824C213.377 43.6987 212.961 44.136 212.129 44.136ZM215.777 44.136C214.923 44.136 214.497 43.6987 214.497 42.824C214.497 41.9493 214.923 41.512 215.777 41.512C216.63 41.512 217.057 41.9493 217.057 42.824C217.057 43.6987 216.63 44.136 215.777 44.136ZM196.992 61V59.016H198.945C201.313 59.016 202.497 57.8 202.497 55.368V50.76L204.641 49.64V55.368C204.641 57.8 205.814 59.016 208.161 59.016H209.345C211.691 59.016 212.865 57.8 212.865 55.368V49.608L215.009 48.456V55.368C215.009 57.8 216.193 59.016 218.561 59.016H219.713C222.081 59.016 223.265 57.8 223.265 55.368V48.424L225.409 47.304V55.24C225.409 57.7573 226.625 59.016 229.057 59.016H230.913V61H228.833C226.806 61 225.323 60.2853 224.385 58.856C223.446 60.2853 221.995 61 220.033 61H218.273C216.289 61 214.849 60.296 213.953 58.888C213.035 60.296 211.606 61 209.665 61H207.905C205.921 61 204.47 60.296 203.553 58.888C202.657 60.296 201.217 61 199.233 61H196.992ZM250.402 59.016H251.49V61H250.114C248.172 61 246.722 60.328 245.762 58.984C244.695 60.7547 243.074 61.64 240.898 61.64C238.7 61.64 237.079 60.7653 236.034 59.016C235.052 60.3387 233.591 61 231.65 61H230.274V59.016H231.394C233.74 59.016 234.914 57.8 234.914 55.368V54.28C234.914 51.8267 235.511 49.9493 236.706 48.648C237.751 47.496 239.148 46.92 240.898 46.92C242.903 46.92 244.428 47.6667 245.474 49.16C246.391 50.44 246.85 52.1467 246.85 54.28V55.368C246.85 57.8 248.034 59.016 250.402 59.016ZM240.898 59.656C242.071 59.656 242.999 59.176 243.682 58.216C244.364 57.2347 244.706 55.912 244.706 54.248C244.706 50.664 243.436 48.872 240.898 48.872C238.338 48.872 237.058 50.664 237.058 54.248C237.058 57.8533 238.338 59.656 240.898 59.656ZM250.836 61V59.016H251.732C254.164 59.016 255.38 57.7573 255.38 55.24V41.48L257.524 40.36V55.272C257.524 57.0853 256.991 58.5147 255.924 59.56C254.922 60.52 253.599 61 251.956 61H250.836ZM263.286 61V41.48L265.43 40.36V61H263.286ZM298.368 59.016H299.488V61H298.112C296.747 61 295.605 60.6587 294.688 59.976C294.517 62.2373 293.611 64.0187 291.968 65.32C290.496 66.4933 288.64 67.08 286.4 67.08C283.627 67.08 281.493 66.1307 280 64.232C278.827 62.76 278.24 61 278.24 58.952C278.24 57.096 278.709 55.528 279.648 54.248L281.76 53.768C280.715 55.304 280.192 56.9893 280.192 58.824C280.192 60.7013 280.8 62.2373 282.016 63.432C283.168 64.5627 284.629 65.128 286.4 65.128C288.448 65.128 290.037 64.5093 291.168 63.272C292.128 62.248 292.608 60.9147 292.608 59.272V41.48L294.72 40.36V55.4V55.464C294.72 57.832 295.936 59.016 298.368 59.016ZM309.14 59.016H310.26V61H308.884C306.964 61 305.524 60.3493 304.564 59.048C303.562 60.3493 302.111 61 300.212 61H298.836V59.016H299.956C302.303 59.016 303.476 57.8 303.476 55.368V48.424L305.62 47.304V55.368C305.62 57.8 306.794 59.016 309.14 59.016ZM304.212 64.36C305.044 64.36 305.46 64.7867 305.46 65.64C305.46 66.536 305.044 66.984 304.212 66.984C303.338 66.984 302.9 66.536 302.9 65.64C302.9 64.7867 303.338 64.36 304.212 64.36ZM317.458 43.176C316.583 43.176 316.146 42.728 316.146 41.832C316.146 40.9787 316.583 40.552 317.458 40.552C318.29 40.552 318.706 40.9787 318.706 41.832C318.706 42.728 318.29 43.176 317.458 43.176ZM321.106 43.176C320.231 43.176 319.794 42.728 319.794 41.832C319.794 40.9787 320.231 40.552 321.106 40.552C321.938 40.552 322.354 40.9787 322.354 41.832C322.354 42.728 321.938 43.176 321.106 43.176ZM309.617 61V59.016H315.058C313.884 57.8427 313.298 56.1573 313.298 53.96C313.298 51.656 313.895 49.8747 315.09 48.616C316.135 47.4853 317.522 46.92 319.25 46.92C321.02 46.92 322.386 47.4747 323.346 48.584C324.178 49.544 324.594 50.824 324.594 52.424V55.528C324.572 57.256 324.05 58.6107 323.026 59.592C322.087 60.5307 320.807 61 319.186 61H309.617ZM322.482 52.616C322.482 50.12 321.404 48.872 319.25 48.872C318.055 48.872 317.116 49.32 316.434 50.216C315.772 51.0907 315.442 52.328 315.442 53.928C315.442 55.4853 315.762 56.7227 316.402 57.64C317.063 58.5573 317.938 59.016 319.026 59.016C321.33 59.016 322.482 57.8213 322.482 55.432V52.616ZM345.052 46.344C344.177 46.344 343.74 45.896 343.74 45C343.74 44.1467 344.177 43.72 345.052 43.72C345.884 43.72 346.3 44.1467 346.3 45C346.3 45.896 345.884 46.344 345.052 46.344ZM356.892 59.016H358.012V61H356.636C355.313 61 354.214 60.6907 353.34 60.072C353.19 62.312 352.294 64.072 350.652 65.352C349.201 66.504 347.366 67.08 345.148 67.08C342.438 67.08 340.337 66.12 338.844 64.2C337.67 62.728 337.084 60.968 337.084 58.92C337.084 57.0853 337.553 55.5067 338.492 54.184L340.572 53.768C339.548 55.3253 339.036 56.9893 339.036 58.76C339.036 60.6373 339.644 62.184 340.86 63.4C341.99 64.5307 343.42 65.096 345.148 65.096C347.174 65.096 348.742 64.4987 349.852 63.304C350.769 62.3227 351.228 61.032 351.228 59.432V48.424L353.372 47.304V55.368C353.372 57.8 354.545 59.016 356.892 59.016ZM362.008 52.424C362.008 50.6107 362.552 49.2027 363.64 48.2C364.578 47.3467 365.816 46.92 367.352 46.92C369.336 46.92 370.861 47.6453 371.928 49.096C372.845 50.3333 373.304 51.9547 373.304 53.96C373.304 56.2427 372.717 58.024 371.544 59.304C370.52 60.4347 369.186 61 367.544 61C365.538 61 364.045 60.36 363.064 59.08C362.104 60.36 360.664 61 358.743 61H357.367V59.016H358.488C360.834 59.016 362.008 57.8 362.008 55.368V52.424ZM364.152 55.496C364.152 57.8427 365.304 59.016 367.608 59.016C368.717 59.016 369.592 58.568 370.232 57.672C370.872 56.776 371.192 55.528 371.192 53.928C371.192 52.3493 370.85 51.112 370.168 50.216C369.506 49.32 368.568 48.872 367.352 48.872C365.218 48.872 364.152 50.12 364.152 52.616V55.496ZM394.766 46.12C393.913 46.12 393.486 45.672 393.486 44.776C393.486 43.9227 393.913 43.496 394.766 43.496C395.62 43.496 396.046 43.9227 396.046 44.776C396.046 45.672 395.62 46.12 394.766 46.12ZM398.446 46.12C397.572 46.12 397.134 45.672 397.134 44.776C397.134 43.9227 397.572 43.496 398.446 43.496C399.278 43.496 399.694 43.9227 399.694 44.776C399.694 45.672 399.278 46.12 398.446 46.12ZM411.854 59.016H412.974V61H411.598C409.678 61 408.238 60.3493 407.278 59.048C406.276 60.3493 404.814 61 402.894 61H391.47C389.892 61 388.633 60.5093 387.694 59.528C386.756 58.5253 386.286 57.1813 386.286 55.496V51.304L388.43 50.184V55.24C388.43 57.7573 389.604 59.016 391.95 59.016H402.67C405.017 59.016 406.19 57.7573 406.19 55.24V48.424L408.334 47.304V55.368C408.334 57.8 409.508 59.016 411.854 59.016ZM419.52 43.176C418.645 43.176 418.208 42.728 418.208 41.832C418.208 40.9787 418.645 40.552 419.52 40.552C420.352 40.552 420.768 40.9787 420.768 41.832C420.768 42.728 420.352 43.176 419.52 43.176ZM423.168 43.176C422.293 43.176 421.856 42.728 421.856 41.832C421.856 40.9787 422.293 40.552 423.168 40.552C424 40.552 424.416 40.9787 424.416 41.832C424.416 42.728 424 43.176 423.168 43.176ZM411.68 61V59.016H417.12C415.947 57.8427 415.36 56.1573 415.36 53.96C415.36 51.656 415.957 49.8747 417.152 48.616C418.197 47.4853 419.584 46.92 421.312 46.92C423.083 46.92 424.448 47.4747 425.408 48.584C426.24 49.544 426.656 50.824 426.656 52.424V55.528C426.635 57.256 426.112 58.6107 425.088 59.592C424.149 60.5307 422.869 61 421.248 61H411.68ZM424.544 52.616C424.544 50.12 423.467 48.872 421.312 48.872C420.117 48.872 419.179 49.32 418.496 50.216C417.835 51.0907 417.504 52.328 417.504 53.928C417.504 55.4853 417.824 56.7227 418.464 57.64C419.125 58.5573 420 59.016 421.088 59.016C423.392 59.016 424.544 57.8213 424.544 55.432V52.616ZM446.147 59.016V61H442.755C442.733 62.408 442.275 63.6453 441.379 64.712C440.504 65.8 439.363 66.5147 437.955 66.856C437.443 67.0053 436.888 67.08 436.291 67.08C435.053 67.08 433.848 66.7813 432.675 66.184V64.296C433.784 64.8933 434.883 65.192 435.971 65.192C436.845 65.192 437.613 65 438.275 64.616C438.936 64.2747 439.491 63.752 439.939 63.048C440.387 62.3653 440.611 61.6827 440.611 61L437.891 60.904C435.523 60.7973 433.752 60.0507 432.579 58.664C431.619 57.4907 431.139 55.9227 431.139 53.96C431.139 51.656 431.736 49.8747 432.931 48.616C433.997 47.4853 435.427 46.92 437.219 46.92C439.075 46.92 440.493 47.4747 441.475 48.584C442.328 49.544 442.755 50.824 442.755 52.424V59.016H446.147ZM440.611 52.648C440.611 50.1307 439.48 48.872 437.219 48.872C435.96 48.872 434.979 49.32 434.275 50.216C433.592 51.0907 433.251 52.328 433.251 53.928C433.251 57.1067 434.819 58.7707 437.955 58.92C438.893 58.984 439.779 59.016 440.611 59.016V52.648ZM445.492 61V59.016H446.389C448.82 59.016 450.036 57.7573 450.036 55.24V41.48L452.181 40.36V55.272C452.181 57.0853 451.647 58.5147 450.581 59.56C449.578 60.52 448.255 61 446.613 61H445.492ZM457.943 61V41.48L460.087 40.36V61H457.943ZM470.976 61L472 59.016H478.016C478.998 59.016 479.68 58.7707 480.064 58.28C480.47 57.7893 480.672 56.936 480.672 55.72C480.672 52.584 479.296 50.248 476.544 48.712L477.6 46.952C480.992 48.9147 482.72 51.6773 482.784 55.24C482.806 57.7573 484.032 59.016 486.464 59.016H487.456V61H486.24C484.384 61 482.966 60.3813 481.984 59.144C481.259 60.3813 480.054 61 478.368 61H470.976ZM486.805 61V59.016H487.925C490.272 59.016 491.445 57.8 491.445 55.368V48.424L493.589 47.304V55.432C493.589 57.224 493.066 58.6213 492.021 59.624C491.061 60.5413 489.781 61 488.181 61H486.805ZM487.861 66.984C486.986 66.984 486.549 66.536 486.549 65.64C486.549 64.7867 486.986 64.36 487.861 64.36C488.693 64.36 489.109 64.7867 489.109 65.64C489.109 66.536 488.693 66.984 487.861 66.984ZM491.509 66.984C490.634 66.984 490.197 66.536 490.197 65.64C490.197 64.7867 490.634 64.36 491.509 64.36C492.341 64.36 492.757 64.7867 492.757 65.64C492.757 66.536 492.341 66.984 491.509 66.984ZM496.789 61L497.813 59.016H503.829C504.81 59.016 505.493 58.7707 505.877 58.28C506.282 57.7893 506.485 56.936 506.485 55.72C506.485 52.584 505.109 50.248 502.357 48.712L503.413 46.952C506.805 48.9147 508.533 51.6773 508.597 55.24C508.618 57.7573 509.845 59.016 512.277 59.016H513.269V61H512.053C510.197 61 508.778 60.3813 507.797 59.144C507.071 60.3813 505.866 61 504.181 61H496.789ZM532.842 59.016H533.962V61H532.81C531.039 61 529.62 60.7973 528.554 60.392C527.508 59.9867 526.538 59.272 525.642 58.248C522.911 60.0827 519.754 61 516.17 61H512.617V59.016H516.202C520.852 59.016 524.479 57.4373 527.082 54.28C525.183 50.6533 522.89 48.84 520.202 48.84C518.367 48.84 516.575 49.768 514.826 51.624V49.512C516.575 47.784 518.399 46.92 520.298 46.92H520.362C523.711 46.92 526.612 49.1813 529.066 53.704V55.016C528.404 55.8693 527.7 56.6053 526.954 57.224C527.636 57.8853 528.404 58.3547 529.258 58.632C530.132 58.888 531.327 59.016 532.842 59.016ZM535.256 43.08C534.382 43.08 533.944 42.632 533.944 41.736C533.944 40.8827 534.382 40.456 535.256 40.456C536.088 40.456 536.504 40.8827 536.504 41.736C536.504 42.632 536.088 43.08 535.256 43.08ZM538.904 43.08C538.03 43.08 537.592 42.632 537.592 41.736C537.592 40.8827 538.03 40.456 538.904 40.456C539.736 40.456 540.152 40.8827 540.152 41.736C540.152 42.632 539.736 43.08 538.904 43.08ZM533.336 61V59.016H534.456C536.803 59.016 537.976 57.8 537.976 55.368V48.424L540.12 47.304V55.432C540.12 57.224 539.598 58.6213 538.552 59.624C537.592 60.5413 536.312 61 534.712 61H533.336ZM154.883 137L156.899 133.128H161.955C163.043 133.128 163.587 132.499 163.587 131.24C163.587 128.893 162.456 127.091 160.195 125.832L162.179 122.408C165.507 124.349 167.299 126.984 167.555 130.312C167.64 131.379 167.875 132.115 168.259 132.52C168.664 132.925 169.347 133.128 170.307 133.128H172.739V137H170.083C168.504 137 167.171 136.563 166.083 135.688C165.293 136.563 164.163 137 162.691 137H154.883ZM170.821 137V133.128H175.589C179.344 133.128 182.331 132.008 184.549 129.768C183.099 127.229 181.339 125.96 179.269 125.96C177.563 125.96 175.696 126.888 173.669 128.744V125.192C175.461 123.229 177.488 122.248 179.749 122.248C181.413 122.248 183.035 122.856 184.613 124.072C186.192 125.288 187.589 127.016 188.805 129.256V130.856C187.269 132.819 185.349 134.333 183.045 135.4C180.763 136.467 178.267 137 175.557 137H170.821ZM193.286 137V118.504L197.318 116.36V137H193.286ZM210.3 136.072C209.638 136.2 208.956 136.264 208.252 136.264C206.289 136.264 204.721 135.528 203.548 134.056C202.588 132.819 202.108 131.325 202.108 129.576C202.108 127.229 202.748 125.384 204.028 124.04C205.158 122.845 206.652 122.248 208.508 122.248C210.406 122.248 211.889 122.856 212.956 124.072C213.873 125.117 214.332 126.483 214.332 128.168V135.016C214.332 137.533 213.67 139.517 212.348 140.968C211.11 142.333 209.425 143.016 207.292 143.016C205.948 143.016 204.636 142.653 203.356 141.928V138.44C204.508 139.101 205.66 139.432 206.812 139.432C208.881 139.432 210.044 138.312 210.3 136.072ZM210.332 128.104C210.332 126.696 209.724 125.992 208.508 125.992C207.74 125.992 207.132 126.301 206.684 126.92C206.257 127.539 206.044 128.381 206.044 129.448C206.044 131.709 206.854 132.84 208.476 132.84C209.329 132.84 209.948 132.627 210.332 132.2V128.104ZM246.418 118.472L250.418 116.36V131.048C250.418 132.989 249.81 134.504 248.594 135.592C247.548 136.531 246.194 137 244.53 137H233.106C231.292 137 229.874 136.392 228.85 135.176C227.932 134.109 227.474 132.733 227.474 131.048V127.784L231.474 125.672V130.792C231.474 131.645 231.644 132.253 231.986 132.616C232.348 132.957 232.935 133.128 233.746 133.128H244.178C244.988 133.128 245.564 132.947 245.906 132.584C246.247 132.221 246.418 131.624 246.418 130.792V118.472ZM239.794 121C241.33 121.256 242.098 122.163 242.098 123.72C242.098 125.469 241.255 126.344 239.57 126.344H234.834L235.826 124.488H239.378C239.954 124.488 240.242 124.2 240.242 123.624C240.242 122.899 239.762 122.536 238.802 122.536C238.162 122.536 237.564 122.707 237.01 123.048V121.448L239.762 118.408H242.098L239.794 121ZM264.225 133.128H267.105V137H263.841C263.115 137 262.443 136.904 261.825 136.712C261.547 138.76 260.726 140.381 259.361 141.576C258.123 142.643 256.641 143.176 254.913 143.176C253.569 143.176 252.256 142.835 250.976 142.152V138.632C252.086 139.251 253.174 139.56 254.241 139.56C255.414 139.56 256.321 139.176 256.961 138.408C257.622 137.661 257.953 136.616 257.953 135.272V124.904L260.577 123.528L261.953 122.792V122.824L261.985 122.792V130.824C261.985 131.656 262.155 132.253 262.497 132.616C262.838 132.957 263.414 133.128 264.225 133.128ZM268.236 119.976C267.596 119.976 267.084 119.784 266.7 119.4C266.316 119.016 266.124 118.493 266.124 117.832C266.124 117.213 266.316 116.712 266.7 116.328C267.084 115.944 267.596 115.752 268.236 115.752C268.876 115.752 269.378 115.944 269.74 116.328C270.124 116.691 270.316 117.192 270.316 117.832C270.316 119.261 269.623 119.976 268.236 119.976ZM273.132 119.976C272.492 119.976 271.98 119.784 271.596 119.4C271.212 118.995 271.02 118.472 271.02 117.832C271.02 117.213 271.212 116.712 271.596 116.328C272.002 115.944 272.514 115.752 273.132 115.752C273.772 115.752 274.274 115.944 274.636 116.328C275.02 116.691 275.212 117.192 275.212 117.832C275.212 119.261 274.519 119.976 273.132 119.976ZM276.588 133.128H279.468V137H276.204C274.647 137 273.356 136.584 272.332 135.752C271.308 136.584 270.018 137 268.46 137H265.196V133.128H268.076C268.887 133.128 269.463 132.957 269.804 132.616C270.146 132.253 270.316 131.656 270.316 130.824V124.904L274.348 122.792V130.824C274.348 131.656 274.519 132.253 274.86 132.616C275.202 132.957 275.778 133.128 276.588 133.128ZM295.716 115.272C294.436 115.272 293.796 114.621 293.796 113.32C293.796 112.061 294.436 111.432 295.716 111.432C296.975 111.432 297.604 112.061 297.604 113.32C297.604 114.621 296.975 115.272 295.716 115.272ZM293.284 119.976C292.644 119.976 292.132 119.784 291.748 119.4C291.364 119.016 291.172 118.493 291.172 117.832C291.172 117.213 291.364 116.712 291.748 116.328C292.132 115.944 292.644 115.752 293.284 115.752C293.924 115.752 294.425 115.944 294.788 116.328C295.172 116.691 295.364 117.192 295.364 117.832C295.364 119.261 294.671 119.976 293.284 119.976ZM298.212 119.976C297.572 119.976 297.06 119.784 296.676 119.4C296.292 119.016 296.1 118.493 296.1 117.832C296.1 117.213 296.292 116.712 296.676 116.328C297.06 115.944 297.572 115.752 298.212 115.752C298.852 115.752 299.353 115.944 299.716 116.328C300.1 116.691 300.292 117.192 300.292 117.832C300.292 119.261 299.599 119.976 298.212 119.976ZM277.54 137V133.128H280.932C281.743 133.128 282.319 132.957 282.66 132.616C283.023 132.253 283.204 131.656 283.204 130.824V126.6L287.236 124.488V130.824C287.236 131.656 287.407 132.253 287.748 132.616C288.089 132.957 288.665 133.128 289.476 133.128H291.652C292.463 133.128 293.039 132.957 293.38 132.616C293.721 132.253 293.892 131.656 293.892 130.824V125.768L297.924 123.624V130.824C297.924 131.656 298.095 132.253 298.436 132.616C298.799 132.957 299.385 133.128 300.196 133.128H302.372C303.183 133.128 303.759 132.957 304.1 132.616C304.441 132.253 304.612 131.656 304.612 130.824V124.904L308.644 122.792V130.312C308.644 131.336 308.847 132.061 309.252 132.488C309.679 132.915 310.383 133.128 311.364 133.128H314.308V137H311.14C309.348 137 307.908 136.488 306.82 135.464C305.86 136.467 304.569 136.979 302.948 137H299.78C298.201 137 296.911 136.531 295.908 135.592C294.991 136.509 293.775 136.979 292.26 137H289.092C287.513 137 286.223 136.531 285.22 135.592C284.217 136.531 282.927 137 281.348 137H277.54ZM317.504 128.168C317.504 126.248 318.101 124.744 319.296 123.656C320.341 122.717 321.685 122.248 323.328 122.248C325.44 122.248 327.082 123.027 328.256 124.584C329.258 125.885 329.76 127.56 329.76 129.608C329.76 131.976 329.13 133.843 327.872 135.208C326.741 136.403 325.301 137 323.552 137C321.845 137 320.448 136.627 319.36 135.88C318.336 136.627 317.098 137 315.648 137H312.384V133.128H315.264C316.074 133.128 316.65 132.957 316.992 132.616C317.333 132.253 317.504 131.656 317.504 130.824V128.168ZM321.536 131.336C321.536 132.531 322.165 133.128 323.424 133.128C325.002 133.128 325.792 131.912 325.792 129.48C325.792 127.155 324.97 125.992 323.328 125.992C322.133 125.992 321.536 126.696 321.536 128.104V131.336ZM345.412 128.04C345.412 128.061 345.412 128.083 345.412 128.104C345.412 129.021 344.974 129.48 344.1 129.48C343.182 129.48 342.724 129.011 342.724 128.072C342.766 127.197 343.225 126.76 344.1 126.76C344.974 126.76 345.412 127.187 345.412 128.04ZM345.412 135.72C345.412 135.741 345.412 135.763 345.412 135.784C345.412 136.701 344.974 137.16 344.1 137.16C343.182 137.16 342.724 136.691 342.724 135.752C342.766 134.877 343.225 134.44 344.1 134.44C344.974 134.44 345.412 134.867 345.412 135.72ZM352.952 118.92C352.077 118.92 351.64 118.472 351.64 117.576C351.64 116.723 352.077 116.296 352.952 116.296C353.784 116.296 354.2 116.723 354.2 117.576C354.2 118.472 353.784 118.92 352.952 118.92ZM356.6 118.92C355.725 118.92 355.288 118.472 355.288 117.576C355.288 116.723 355.725 116.296 356.6 116.296C357.432 116.296 357.848 116.723 357.848 117.576C357.848 118.472 357.432 118.92 356.6 118.92ZM362.808 135.016H363.896V137H362.52C360.237 137 358.648 136.104 357.752 134.312C356.643 135.464 355.277 136.04 353.656 136.04C351.821 136.04 350.371 135.347 349.304 133.96C348.408 132.787 347.96 131.325 347.96 129.576C347.96 127.528 348.557 125.885 349.752 124.648C350.797 123.56 352.088 123.016 353.624 123.016C355.011 123.016 356.173 123.421 357.112 124.232V122.504L359.256 121.384V131.368C359.256 133.8 360.44 135.016 362.808 135.016ZM357.112 126.664C356.173 125.533 355.032 124.968 353.688 124.968C352.621 124.968 351.747 125.405 351.064 126.28C350.403 127.133 350.072 128.243 350.072 129.608C350.072 130.995 350.403 132.104 351.064 132.936C351.747 133.768 352.632 134.184 353.72 134.184C355.107 134.184 356.259 133.576 357.176 132.36C357.133 131.976 357.112 131.667 357.112 131.432V126.664ZM379.627 135.016V137H363.242V135.016H368.619C367.275 133.651 366.603 131.837 366.603 129.576C366.603 127.421 367.339 125.715 368.811 124.456C369.984 123.453 371.36 122.941 372.939 122.92C375.136 122.92 376.853 123.784 378.091 125.512V127.624C376.811 125.789 375.168 124.872 373.163 124.872H373.067C371.787 124.872 370.741 125.309 369.931 126.184C369.141 127.059 368.747 128.211 368.747 129.64C368.747 131.283 369.237 132.595 370.219 133.576C371.157 134.536 372.416 135.016 373.995 135.016H379.627ZM398.147 135.016V137H394.755C394.733 138.408 394.275 139.645 393.379 140.712C392.504 141.8 391.363 142.515 389.955 142.856C389.443 143.005 388.888 143.08 388.291 143.08C387.053 143.08 385.848 142.781 384.675 142.184V140.296C385.784 140.893 386.883 141.192 387.971 141.192C388.845 141.192 389.613 141 390.275 140.616C390.936 140.275 391.491 139.752 391.939 139.048C392.387 138.365 392.611 137.683 392.611 137L389.891 136.904C387.523 136.797 385.752 136.051 384.579 134.664C383.619 133.491 383.139 131.923 383.139 129.96C383.139 127.656 383.736 125.875 384.931 124.616C385.997 123.485 387.427 122.92 389.219 122.92C391.075 122.92 392.493 123.475 393.475 124.584C394.328 125.544 394.755 126.824 394.755 128.424V135.016H398.147ZM392.611 128.648C392.611 126.131 391.48 124.872 389.219 124.872C387.96 124.872 386.979 125.32 386.275 126.216C385.592 127.091 385.251 128.328 385.251 129.928C385.251 133.107 386.819 134.771 389.955 134.92C390.893 134.984 391.779 135.016 392.611 135.016V128.648ZM417.621 135.016H418.709V137H417.333C415.391 137 413.941 136.328 412.981 134.984C411.914 136.755 410.293 137.64 408.117 137.64C405.919 137.64 404.298 136.765 403.253 135.016C402.271 136.339 400.81 137 398.868 137H397.492V135.016H398.613C400.959 135.016 402.133 133.8 402.133 131.368V130.28C402.133 127.827 402.73 125.949 403.925 124.648C404.97 123.496 406.367 122.92 408.117 122.92C410.122 122.92 411.647 123.667 412.693 125.16C413.61 126.44 414.069 128.147 414.069 130.28V131.368C414.069 133.8 415.253 135.016 417.621 135.016ZM408.117 135.656C409.29 135.656 410.218 135.176 410.901 134.216C411.583 133.235 411.925 131.912 411.925 130.248C411.925 126.664 410.655 124.872 408.117 124.872C405.557 124.872 404.277 126.664 404.277 130.248C404.277 133.853 405.557 135.656 408.117 135.656ZM438.279 135.016H439.399V137H438.247C436.476 137 435.058 136.797 433.991 136.392C432.946 135.987 431.975 135.272 431.079 134.248C428.348 136.083 425.191 137 421.607 137H418.055V135.016H421.639C426.29 135.016 429.916 133.437 432.519 130.28C430.62 126.653 428.327 124.84 425.639 124.84C423.804 124.84 422.012 125.768 420.263 127.624V125.512C422.012 123.784 423.836 122.92 425.735 122.92H425.799C429.148 122.92 432.05 125.181 434.503 129.704V131.016C433.842 131.869 433.138 132.605 432.391 133.224C433.074 133.885 433.842 134.355 434.695 134.632C435.57 134.888 436.764 135.016 438.279 135.016ZM426.503 140.36C427.335 140.36 427.751 140.787 427.751 141.64C427.751 142.536 427.335 142.984 426.503 142.984C425.628 142.984 425.191 142.536 425.191 141.64C425.191 140.787 425.628 140.36 426.503 140.36ZM458.902 135.016H459.99V137H458.614C456.672 137 455.222 136.328 454.262 134.984C453.195 136.755 451.574 137.64 449.398 137.64C447.2 137.64 445.579 136.765 444.534 135.016C443.552 136.339 442.091 137 440.15 137H438.774V135.016H439.894C442.24 135.016 443.414 133.8 443.414 131.368V130.28C443.414 127.827 444.011 125.949 445.206 124.648C446.251 123.496 447.648 122.92 449.398 122.92C451.403 122.92 452.928 123.667 453.974 125.16C454.891 126.44 455.35 128.147 455.35 130.28V131.368C455.35 133.8 456.534 135.016 458.902 135.016ZM449.398 135.656C450.571 135.656 451.499 135.176 452.182 134.216C452.864 133.235 453.206 131.912 453.206 130.248C453.206 126.664 451.936 124.872 449.398 124.872C446.838 124.872 445.558 126.664 445.558 130.248C445.558 133.853 446.838 135.656 449.398 135.656ZM459.336 137V135.016H460.232C462.664 135.016 463.88 133.757 463.88 131.24V117.48L466.024 116.36V131.272C466.024 133.085 465.491 134.515 464.424 135.56C463.422 136.52 462.099 137 460.456 137H459.336ZM471.786 137V117.48L473.93 116.36V137H471.786ZM503.796 135.016H504.884V137H503.508C501.609 137 500.18 136.36 499.22 135.08C498.239 136.339 496.788 136.979 494.868 137H490.804C488.457 137 487.284 138.216 487.284 140.648V145.96L485.14 147.08V140.584C485.14 138.813 485.663 137.427 486.708 136.424C487.647 135.507 488.895 135.037 490.452 135.016C489.449 133.736 488.948 132.051 488.948 129.96C488.948 127.656 489.545 125.875 490.74 124.616C491.785 123.485 493.172 122.92 494.9 122.92C496.671 122.92 498.036 123.475 498.996 124.584C499.828 125.544 500.244 126.824 500.244 128.424V131.368C500.244 133.8 501.428 135.016 503.796 135.016ZM498.1 131.496V128.616C498.1 126.12 497.033 124.872 494.9 124.872C493.684 124.872 492.735 125.32 492.052 126.216C491.391 127.112 491.06 128.349 491.06 129.928C491.06 131.528 491.38 132.776 492.02 133.672C492.66 134.568 493.545 135.016 494.676 135.016C496.959 135.016 498.1 133.843 498.1 131.496ZM524.467 135.016H525.587V137H524.435C522.664 137 521.245 136.797 520.179 136.392C519.133 135.987 518.163 135.272 517.267 134.248C514.536 136.083 511.379 137 507.795 137H504.242V135.016H507.827C512.477 135.016 516.104 133.437 518.707 130.28C516.808 126.653 514.515 124.84 511.827 124.84C509.992 124.84 508.2 125.768 506.451 127.624V125.512C508.2 123.784 510.024 122.92 511.923 122.92H511.987C515.336 122.92 518.237 125.181 520.691 129.704V131.016C520.029 131.869 519.325 132.605 518.579 133.224C519.261 133.885 520.029 134.355 520.883 134.632C521.757 134.888 522.952 135.016 524.467 135.016ZM512.691 140.36C513.523 140.36 513.939 140.787 513.939 141.64C513.939 142.536 513.523 142.984 512.691 142.984C511.816 142.984 511.379 142.536 511.379 141.64C511.379 140.787 511.816 140.36 512.691 140.36ZM524.961 137V135.016H528.545C533.196 135.016 536.823 133.437 539.425 130.28C537.527 126.653 535.233 124.84 532.545 124.84C530.711 124.84 528.919 125.768 527.169 127.624V125.512C528.919 123.784 530.743 122.92 532.641 122.92H532.705C536.055 122.92 538.956 125.181 541.409 129.704V131.016C538.295 135.005 533.996 137 528.513 137H524.961ZM169.329 160.12C168.475 160.12 168.049 159.672 168.049 158.776C168.049 157.923 168.475 157.496 169.329 157.496C170.182 157.496 170.609 157.923 170.609 158.776C170.609 159.672 170.182 160.12 169.329 160.12ZM173.009 160.12C172.134 160.12 171.697 159.672 171.697 158.776C171.697 157.923 172.134 157.496 173.009 157.496C173.841 157.496 174.257 157.923 174.257 158.776C174.257 159.672 173.841 160.12 173.009 160.12ZM166.033 175C164.454 175 163.195 174.509 162.257 173.528C161.318 172.525 160.849 171.181 160.849 169.496V165.304L162.993 164.184V169.24C162.993 171.757 164.166 173.016 166.513 173.016H177.233C179.579 173.016 180.753 171.757 180.753 169.24V162.424L182.897 161.304V169.496C182.897 171.309 182.342 172.717 181.233 173.72C180.273 174.573 179.014 175 177.457 175H166.033ZM194.069 175C192.256 175 190.859 174.413 189.877 173.24C189.067 172.237 188.661 170.968 188.661 169.432V155.48L190.805 154.36V169.368C190.805 171.8 191.979 173.016 194.325 173.016H195.445V175H194.069ZM211.189 173.016V175H194.805V173.016H200.181C198.837 171.651 198.165 169.837 198.165 167.576C198.165 165.421 198.901 163.715 200.373 162.456C201.546 161.453 202.922 160.941 204.501 160.92C206.698 160.92 208.416 161.784 209.653 163.512V165.624C208.373 163.789 206.73 162.872 204.725 162.872H204.629C203.349 162.872 202.304 163.309 201.493 164.184C200.704 165.059 200.309 166.211 200.309 167.64C200.309 169.283 200.8 170.595 201.781 171.576C202.72 172.536 203.978 173.016 205.557 173.016H211.189ZM221.069 175C219.256 175 217.859 174.413 216.877 173.24C216.067 172.237 215.661 170.968 215.661 169.432V155.48L217.805 154.36V169.368C217.805 171.8 218.979 173.016 221.325 173.016H222.445V175H221.069ZM221.805 175V173.016H223.757C226.125 173.016 227.309 171.8 227.309 169.368V164.76L229.453 163.64V169.368C229.453 171.8 230.626 173.016 232.973 173.016H234.157C236.504 173.016 237.677 171.8 237.677 169.368V163.608L239.821 162.456V169.368C239.821 171.8 241.005 173.016 243.373 173.016H244.525C246.893 173.016 248.077 171.8 248.077 169.368V162.424L250.221 161.304V169.432C250.221 171.203 249.698 172.589 248.653 173.592C247.714 174.509 246.445 174.979 244.845 175H243.085C241.101 175 239.661 174.296 238.765 172.888C237.848 174.296 236.418 175 234.477 175H232.717C230.733 175 229.282 174.296 228.365 172.888C227.469 174.296 226.029 175 224.045 175H221.805ZM266.285 162.744C267.011 162.083 268.088 161.752 269.517 161.752C271.437 161.752 272.973 162.307 274.125 163.416C275.32 164.568 275.917 166.243 275.917 168.44C275.917 170.296 275.309 171.907 274.093 173.272C272.835 174.68 271.139 175.384 269.005 175.384C266.211 175.384 264.237 174.157 263.085 171.704C262.36 170.147 261.997 168.173 261.997 165.784C261.997 158.168 264.589 154.36 269.773 154.36C270.755 154.36 271.747 154.552 272.749 154.936C273.773 155.299 274.584 155.768 275.181 156.344L273.741 158.968C272.333 158.285 271.053 157.944 269.901 157.944C268.813 157.944 267.939 158.381 267.277 159.256C266.616 160.131 266.285 161.293 266.285 162.744ZM266.253 165.72C266.36 167.939 266.541 169.453 266.797 170.264C267.203 171.501 267.917 172.12 268.941 172.12C269.645 172.12 270.253 171.757 270.765 171.032C271.277 170.307 271.533 169.443 271.533 168.44C271.533 165.987 270.552 164.76 268.589 164.76C267.672 164.76 266.893 165.08 266.253 165.72ZM290.599 166.04C290.599 166.061 290.599 166.083 290.599 166.104C290.599 167.021 290.162 167.48 289.287 167.48C288.37 167.48 287.911 167.011 287.911 166.072C287.954 165.197 288.413 164.76 289.287 164.76C290.162 164.76 290.599 165.187 290.599 166.04ZM290.599 173.72C290.599 173.741 290.599 173.763 290.599 173.784C290.599 174.701 290.162 175.16 289.287 175.16C288.37 175.16 287.911 174.691 287.911 173.752C287.954 172.877 288.413 172.44 289.287 172.44C290.162 172.44 290.599 172.867 290.599 173.72ZM298.14 156.92C297.265 156.92 296.828 156.472 296.828 155.576C296.828 154.723 297.265 154.296 298.14 154.296C298.972 154.296 299.388 154.723 299.388 155.576C299.388 156.472 298.972 156.92 298.14 156.92ZM301.788 156.92C300.913 156.92 300.476 156.472 300.476 155.576C300.476 154.723 300.913 154.296 301.788 154.296C302.62 154.296 303.036 154.723 303.036 155.576C303.036 156.472 302.62 156.92 301.788 156.92ZM307.996 173.016H309.083V175H307.708C305.425 175 303.836 174.104 302.94 172.312C301.83 173.464 300.465 174.04 298.844 174.04C297.009 174.04 295.558 173.347 294.492 171.96C293.596 170.787 293.148 169.325 293.148 167.576C293.148 165.528 293.745 163.885 294.94 162.648C295.985 161.56 297.276 161.016 298.812 161.016C300.198 161.016 301.361 161.421 302.3 162.232V160.504L304.444 159.384V169.368C304.444 171.8 305.628 173.016 307.996 173.016ZM302.3 164.664C301.361 163.533 300.22 162.968 298.876 162.968C297.809 162.968 296.934 163.405 296.252 164.28C295.59 165.133 295.26 166.243 295.26 167.608C295.26 168.995 295.59 170.104 296.252 170.936C296.934 171.768 297.82 172.184 298.908 172.184C300.294 172.184 301.446 171.576 302.364 170.36C302.321 169.976 302.3 169.667 302.3 169.432V164.664ZM318.734 173.016H319.854V175H318.478C316.558 175 315.118 174.349 314.158 173.048C313.155 174.349 311.705 175 309.806 175H308.43V173.016H309.55C311.897 173.016 313.07 171.8 313.07 169.368V162.424L315.214 161.304V169.368C315.214 171.8 316.387 173.016 318.734 173.016ZM311.47 178.36C312.323 178.36 312.75 178.797 312.75 179.672C312.75 180.547 312.323 180.984 311.47 180.984C310.617 180.984 310.19 180.547 310.19 179.672C310.19 178.797 310.617 178.36 311.47 178.36ZM315.118 178.36C315.971 178.36 316.398 178.797 316.398 179.672C316.398 180.547 315.971 180.984 315.118 180.984C314.265 180.984 313.838 180.547 313.838 179.672C313.838 178.797 314.265 178.36 315.118 178.36ZM329.419 173.016H330.539V175H329.163C327.201 175 325.739 174.328 324.779 172.984C323.777 174.328 322.294 175 320.331 175H319.211V173.016H320.107C322.539 173.016 323.755 171.757 323.755 169.24V155.48L325.899 154.36V169.368C325.899 171.8 327.073 173.016 329.419 173.016ZM346.891 173.016H347.691V175H346.635C344.715 175 343.275 174.349 342.315 173.048C341.355 174.349 339.904 175 337.963 175H329.899V173.016H337.739C340.064 173.016 341.227 171.768 341.227 169.272V168.952C341.227 167.203 340.587 165.891 339.307 165.016C338.283 164.291 337.003 163.928 335.467 163.928C334.315 163.928 333.173 164.131 332.043 164.536V162.424L339.307 154.36H341.515L334.955 161.784C335.168 161.763 335.392 161.752 335.627 161.752C337.675 161.752 339.381 162.275 340.747 163.32C342.496 164.664 343.371 166.531 343.371 168.92V169.368C343.371 171.8 344.544 173.016 346.891 173.016ZM347.055 175V173.016H347.951C350.383 173.016 351.599 171.757 351.599 169.24V155.48L353.743 154.36V169.272C353.743 171.085 353.21 172.515 352.143 173.56C351.14 174.52 349.818 175 348.175 175H347.055ZM359.505 175V155.48L361.649 154.36V175H359.505ZM383.579 160.12C382.725 160.12 382.299 159.672 382.299 158.776C382.299 157.923 382.725 157.496 383.579 157.496C384.432 157.496 384.859 157.923 384.859 158.776C384.859 159.672 384.432 160.12 383.579 160.12ZM387.259 160.12C386.384 160.12 385.947 159.672 385.947 158.776C385.947 157.923 386.384 157.496 387.259 157.496C388.091 157.496 388.507 157.923 388.507 158.776C388.507 159.672 388.091 160.12 387.259 160.12ZM380.283 175C378.704 175 377.445 174.509 376.507 173.528C375.568 172.525 375.099 171.181 375.099 169.496V165.304L377.243 164.184V169.24C377.243 171.757 378.416 173.016 380.763 173.016H391.483C393.829 173.016 395.003 171.757 395.003 169.24V162.424L397.147 161.304V169.496C397.147 171.309 396.592 172.717 395.483 173.72C394.523 174.573 393.264 175 391.707 175H380.283ZM408.319 175C406.506 175 405.109 174.413 404.127 173.24C403.317 172.237 402.911 170.968 402.911 169.432V155.48L405.055 154.36V169.368C405.055 171.8 406.229 173.016 408.575 173.016H409.695V175H408.319ZM425.439 173.016V175H409.055V173.016H414.431C413.087 171.651 412.415 169.837 412.415 167.576C412.415 165.421 413.151 163.715 414.623 162.456C415.796 161.453 417.172 160.941 418.751 160.92C420.948 160.92 422.666 161.784 423.903 163.512V165.624C422.623 163.789 420.98 162.872 418.975 162.872H418.879C417.599 162.872 416.554 163.309 415.743 164.184C414.954 165.059 414.559 166.211 414.559 167.64C414.559 169.283 415.05 170.595 416.031 171.576C416.97 172.536 418.228 173.016 419.807 173.016H425.439ZM435.319 175C433.506 175 432.109 174.413 431.127 173.24C430.317 172.237 429.911 170.968 429.911 169.432V155.48L432.055 154.36V169.368C432.055 171.8 433.229 173.016 435.575 173.016H436.695V175H435.319ZM436.055 175V173.016H438.007C440.375 173.016 441.559 171.8 441.559 169.368V164.76L443.703 163.64V169.368C443.703 171.8 444.876 173.016 447.223 173.016H448.407C450.754 173.016 451.927 171.8 451.927 169.368V163.608L454.071 162.456V169.368C454.071 171.8 455.255 173.016 457.623 173.016H458.775C461.143 173.016 462.327 171.8 462.327 169.368V162.424L464.471 161.304V169.24C464.471 171.757 465.687 173.016 468.119 173.016H469.975V175H467.895C465.868 175 464.386 174.285 463.447 172.856C462.508 174.285 461.058 175 459.095 175H457.335C455.351 175 453.911 174.296 453.015 172.888C452.098 174.296 450.668 175 448.727 175H446.967C444.983 175 443.532 174.296 442.615 172.888C441.719 174.296 440.279 175 438.295 175H436.055ZM469.336 175V173.016H470.232C472.664 173.016 473.88 171.757 473.88 169.24V155.48L476.024 154.36V169.272C476.024 171.085 475.491 172.515 474.424 173.56C473.422 174.52 472.099 175 470.456 175H469.336ZM481.786 175V155.48L483.93 154.36V175H481.786ZM494.82 175L495.844 173.016H501.86C502.841 173.016 503.524 172.771 503.908 172.28C504.313 171.789 504.516 170.936 504.516 169.72C504.516 166.605 503.151 164.269 500.42 162.712L501.444 160.952C504.921 162.979 506.66 165.912 506.66 169.752C506.66 173.251 505.177 175 502.212 175H494.82ZM509.195 175L510.219 173.016H516.235C517.216 173.016 517.899 172.771 518.283 172.28C518.688 171.789 518.891 170.936 518.891 169.72C518.891 166.584 517.515 164.248 514.763 162.712L515.819 160.952C519.211 162.915 520.939 165.677 521.003 169.24C521.024 171.757 522.251 173.016 524.683 173.016H525.675V175H524.459C522.603 175 521.184 174.381 520.203 173.144C519.478 174.381 518.272 175 516.587 175H509.195ZM541.408 173.016V175H525.024V173.016H530.4C529.056 171.651 528.384 169.837 528.384 167.576C528.384 165.421 529.12 163.715 530.592 162.456C531.765 161.453 533.141 160.941 534.72 160.92C536.917 160.92 538.634 161.784 539.872 163.512V165.624C538.592 163.789 536.949 162.872 534.944 162.872H534.848C533.568 162.872 532.522 163.309 531.712 164.184C530.922 165.059 530.528 166.211 530.528 167.64C530.528 169.283 531.018 170.595 532 171.576C532.938 172.536 534.197 173.016 535.776 173.016H541.408ZM449.631 242.04C449.631 242.061 449.631 242.083 449.631 242.104C449.631 243.021 449.193 243.48 448.319 243.48C447.401 243.48 446.943 243.011 446.943 242.072C446.985 241.197 447.444 240.76 448.319 240.76C449.193 240.76 449.631 241.187 449.631 242.04ZM449.631 249.72C449.631 249.741 449.631 249.763 449.631 249.784C449.631 250.701 449.193 251.16 448.319 251.16C447.401 251.16 446.943 250.691 446.943 249.752C446.985 248.877 447.444 248.44 448.319 248.44C449.193 248.44 449.631 248.867 449.631 249.72ZM469.53 249.016H470.65V251H469.274C467.952 251 466.853 250.68 465.978 250.04C465.808 253.581 464.378 255.821 461.69 256.76C461.008 256.995 460.282 257.112 459.514 257.112C458.277 257.112 457.082 256.813 455.93 256.216V254.328C457.018 254.925 458.128 255.224 459.258 255.224C460.154 255.224 460.944 255.021 461.626 254.616C463.12 253.72 463.866 252.045 463.866 249.592V238.424L465.978 237.304V237.336L466.01 237.304V245.368C466.01 247.8 467.184 249.016 469.53 249.016ZM492.872 251H484.968C483.816 251 482.642 250.755 481.448 250.264C480.232 250.755 479.048 251 477.896 251H470.024V249.016H477.768C478.194 249.016 478.632 248.984 479.08 248.92C477.394 247.704 475.56 245.699 473.576 242.904V241.592C475.794 238.477 478.408 236.92 481.416 236.92C484.402 236.92 487.026 238.499 489.288 241.656V242.904C487.304 245.699 485.48 247.704 483.816 248.92C484.242 248.984 484.669 249.016 485.096 249.016H492.84L492.872 251ZM475.432 242.264C477.672 245.251 479.666 247.192 481.416 248.088C483.144 247.192 485.149 245.24 487.432 242.232C485.725 239.992 483.72 238.872 481.416 238.872H481.32C479.144 238.872 477.181 240.003 475.432 242.264ZM492.242 251V249.016H494.195C496.563 249.016 497.747 247.8 497.747 245.368V240.76L499.891 239.64V245.368C499.891 247.8 501.064 249.016 503.411 249.016H504.595C506.941 249.016 508.115 247.8 508.115 245.368V239.608L510.259 238.456V245.368C510.259 247.8 511.443 249.016 513.811 249.016H514.963C517.331 249.016 518.515 247.8 518.515 245.368V238.424L520.659 237.304V245.24C520.659 247.757 521.875 249.016 524.307 249.016H526.163V251H524.083C522.056 251 520.573 250.285 519.635 248.856C518.696 250.285 517.245 251 515.283 251H513.523C511.539 251 510.099 250.296 509.203 248.888C508.285 250.296 506.856 251 504.915 251H503.155C501.171 251 499.72 250.296 498.803 248.888C497.907 250.296 496.467 251 494.483 251H492.242ZM525.524 251V249.016H526.42C528.852 249.016 530.068 247.757 530.068 245.24V231.48L532.212 230.36V245.272C532.212 247.085 531.678 248.515 530.612 249.56C529.609 250.52 528.286 251 526.644 251H525.524ZM537.974 251V231.48L540.118 230.36V251H537.974ZM19.4898 289C19.3191 290.835 18.3591 292.317 16.6098 293.448C14.9244 294.536 12.7591 295.08 10.1138 295.08C6.82842 295.08 4.35375 294.12 2.68975 292.2C1.45242 290.771 0.83375 289.011 0.83375 286.92C0.83375 285.085 1.30308 283.507 2.24175 282.184L4.32175 281.768C3.29775 283.325 2.78575 284.989 2.78575 286.76C2.78575 288.723 3.45775 290.291 4.80175 291.464C6.08175 292.595 7.85242 293.16 10.1138 293.16C12.4391 293.16 14.2631 292.669 15.5858 291.688C16.5671 290.963 17.1431 290.067 17.3138 289H14.0498L15.0738 287.016H19.5858V289H19.4898ZM8.09775 300.36C7.22308 300.36 6.78575 299.923 6.78575 299.048C6.78575 298.173 7.22308 297.736 8.09775 297.736C8.92975 297.736 9.34575 298.173 9.34575 299.048C9.34575 299.923 8.92975 300.36 8.09775 300.36ZM11.7458 300.36C10.8924 300.36 10.4658 299.923 10.4658 299.048C10.4658 298.173 10.8924 297.736 11.7458 297.736C12.5991 297.736 13.0258 298.173 13.0258 299.048C13.0258 299.923 12.5991 300.36 11.7458 300.36ZM20.5398 271.016L21.1478 269.896H21.9798C21.7664 269.512 21.6598 269.117 21.6598 268.712C21.6598 268.115 21.8838 267.603 22.3318 267.176C22.7798 266.728 23.3131 266.504 23.9318 266.504C24.4011 266.504 24.8598 266.653 25.3078 266.952V268.136C24.8811 267.837 24.4651 267.688 24.0598 267.688C23.7184 267.688 23.4304 267.805 23.1958 268.04C22.9611 268.253 22.8438 268.509 22.8438 268.808C22.8438 269.171 22.9931 269.533 23.2918 269.896H26.1078L25.4998 271.016H20.5398ZM18.5237 289V287.016H19.6438C21.9904 287.016 23.1638 285.8 23.1638 283.368V276.424L25.3078 275.304V283.432C25.3078 285.224 24.7851 286.621 23.7398 287.624C22.7798 288.541 21.4998 289 19.8997 289H18.5237ZM35.9443 289C34.1309 289 32.7336 288.413 31.7523 287.24C30.9416 286.237 30.5363 284.968 30.5363 283.432V269.48L32.6803 268.36V283.368C32.6803 285.8 33.8536 287.016 36.2003 287.016H37.3203V289H35.9443ZM57.8 287.016H58.92V289H57.544C55.6027 289 54.152 288.349 53.192 287.048C52.232 288.349 50.7813 289 48.84 289H45.672C44.9253 289 44.232 288.893 43.592 288.68C42.952 288.893 42.28 289 41.576 289H36.68V287.016H40.776C39.624 285.864 39.048 284.445 39.048 282.76C39.048 281.523 39.336 280.477 39.912 279.624C40.36 277.853 41.2027 276.456 42.44 275.432C43.6987 274.387 45.1707 273.864 46.856 273.864C49.0107 273.864 50.8027 274.621 52.232 276.136C53.576 277.587 54.248 279.432 54.248 281.672V283.368C54.248 285.8 55.432 287.016 57.8 287.016ZM48.68 287.016C50.984 287.016 52.136 285.757 52.136 283.24V281.672C52.136 279.752 51.5173 278.237 50.28 277.128C49.2773 276.253 48.104 275.816 46.76 275.816C44.968 275.816 43.6027 276.509 42.664 277.896C42.984 277.832 43.304 277.8 43.624 277.8C44.9893 277.8 46.088 278.259 46.92 279.176C47.752 280.072 48.168 281.267 48.168 282.76C48.168 284.445 47.592 285.864 46.44 287.016H48.68ZM43.624 286.728C45.5653 286.088 46.536 284.744 46.536 282.696C46.536 281.693 46.2693 280.893 45.736 280.296C45.224 279.677 44.52 279.368 43.624 279.368C42.728 279.368 42.0133 279.667 41.48 280.264C40.9467 280.861 40.68 281.672 40.68 282.696C40.68 284.744 41.6613 286.088 43.624 286.728ZM63.6178 271.08C62.7431 271.08 62.3058 270.632 62.3058 269.736C62.3058 268.883 62.7431 268.456 63.6178 268.456C64.4498 268.456 64.8658 268.883 64.8658 269.736C64.8658 270.632 64.4498 271.08 63.6178 271.08ZM68.5778 287.016H69.6978V289H68.3218C66.4018 289 64.9618 288.349 64.0018 287.048C62.9991 288.349 61.5484 289 59.6497 289H58.2737V287.016H59.3938C61.7404 287.016 62.9138 285.8 62.9138 283.368V276.424L65.0578 275.304V283.368C65.0578 285.8 66.2311 287.016 68.5778 287.016ZM69.055 289V287.016H69.951C72.383 287.016 73.599 285.757 73.599 283.24V269.48L75.743 268.36V283.272C75.743 285.085 75.2097 286.515 74.143 287.56C73.1403 288.52 71.8177 289 70.175 289H69.055ZM81.505 289V269.48L83.649 268.36V289H81.505ZM115.947 287.016H117.067V289H115.915C114.08 289 112.619 288.776 111.531 288.328C110.443 287.88 109.44 287.091 108.523 285.96C107.776 286.237 106.635 286.525 105.099 286.824C102.581 287.315 100.885 287.997 100.011 288.872C98.9654 289.917 98.4427 291.389 98.4427 293.288C98.4427 295.123 99.0508 296.573 100.267 297.64C101.291 298.557 102.603 299.016 104.203 299.016H104.267C106.699 299.016 108.651 298.472 110.123 297.384V299.336C108.373 300.445 106.389 301 104.171 301C101.781 301 99.8614 300.2 98.4108 298.6C97.1094 297.171 96.4588 295.379 96.4588 293.224C96.4588 290.92 97.1628 289.032 98.5708 287.56C99.2108 286.899 99.9468 286.397 100.779 286.056C101.611 285.693 102.88 285.352 104.587 285.032C106.336 284.691 107.616 284.339 108.427 283.976C109.237 283.592 109.941 283.037 110.539 282.312C108.683 278.664 106.389 276.84 103.659 276.84C101.803 276.84 100.011 277.768 98.2828 279.624V277.512C100.032 275.784 101.856 274.92 103.755 274.92H103.819C107.168 274.92 110.069 277.181 112.523 281.704V283.016C111.883 283.891 111.072 284.616 110.091 285.192C110.773 285.875 111.541 286.355 112.395 286.632C113.269 286.888 114.453 287.016 115.947 287.016ZM103.051 293.224C103.051 292.413 103.456 292.008 104.267 292.008C105.056 292.008 105.451 292.413 105.451 293.224C105.451 294.056 105.056 294.472 104.267 294.472C103.456 294.472 103.051 294.056 103.051 293.224ZM119.006 271.176C118.152 271.176 117.726 270.739 117.726 269.864C117.726 268.989 118.152 268.552 119.006 268.552C119.859 268.552 120.286 268.989 120.286 269.864C120.286 270.739 119.859 271.176 119.006 271.176ZM122.654 271.176C121.8 271.176 121.374 270.739 121.374 269.864C121.374 268.989 121.8 268.552 122.654 268.552C123.507 268.552 123.934 268.989 123.934 269.864C123.934 270.739 123.507 271.176 122.654 271.176ZM126.078 287.016H127.198V289H125.822C123.902 289 122.462 288.349 121.502 287.048C120.499 288.349 119.048 289 117.15 289H115.774V287.016H116.894C119.24 287.016 120.414 285.8 120.414 283.368V276.424L122.558 275.304V283.368C122.558 285.8 123.731 287.016 126.078 287.016ZM131.899 271.08C131.024 271.08 130.587 270.632 130.587 269.736C130.587 268.883 131.024 268.456 131.899 268.456C132.731 268.456 133.147 268.883 133.147 269.736C133.147 270.632 132.731 271.08 131.899 271.08ZM136.859 287.016H137.979V289H136.603C134.683 289 133.243 288.349 132.283 287.048C131.28 288.349 129.83 289 127.931 289H126.555V287.016H127.675C130.022 287.016 131.195 285.8 131.195 283.368V276.424L133.339 275.304V283.368C133.339 285.8 134.512 287.016 136.859 287.016ZM157.464 287.016H158.552V289H157.176C155.235 289 153.784 288.328 152.824 286.984C151.758 288.755 150.136 289.64 147.96 289.64C145.763 289.64 144.142 288.765 143.096 287.016C142.115 288.339 140.654 289 138.712 289H137.336V287.016H138.456C140.803 287.016 141.976 285.8 141.976 283.368V282.28C141.976 279.827 142.574 277.949 143.768 276.648C144.814 275.496 146.211 274.92 147.96 274.92C149.966 274.92 151.491 275.667 152.536 277.16C153.454 278.44 153.912 280.147 153.912 282.28V283.368C153.912 285.8 155.096 287.016 157.464 287.016ZM147.96 287.656C149.134 287.656 150.062 287.176 150.744 286.216C151.427 285.235 151.768 283.912 151.768 282.248C151.768 278.664 150.499 276.872 147.96 276.872C145.4 276.872 144.12 278.664 144.12 282.248C144.12 285.853 145.4 287.656 147.96 287.656ZM157.899 289V287.016H158.795C161.227 287.016 162.443 285.757 162.443 283.24V269.48L164.587 268.36V283.272C164.587 285.085 164.053 286.515 162.987 287.56C161.984 288.52 160.661 289 159.019 289H157.899ZM170.349 289V269.48L172.493 268.36V289H170.349ZM189.015 287.016C188.012 285.736 187.511 284.051 187.511 281.96C187.511 279.656 188.108 277.875 189.303 276.616C190.348 275.485 191.735 274.92 193.463 274.92C195.233 274.92 196.599 275.475 197.559 276.584C198.391 277.544 198.807 278.824 198.807 280.424V283.688C198.807 285.309 198.327 286.6 197.367 287.56C196.407 288.499 195.095 288.979 193.431 289H189.367C187.02 289 185.847 290.216 185.847 292.648V297.96L183.703 299.08V292.584C183.703 290.813 184.225 289.427 185.271 288.424C186.209 287.507 187.457 287.037 189.015 287.016ZM196.663 283.496V280.616C196.663 278.12 195.596 276.872 193.463 276.872C192.247 276.872 191.297 277.32 190.615 278.216C189.953 279.112 189.623 280.349 189.623 281.928C189.623 283.528 189.943 284.776 190.583 285.672C191.223 286.568 192.108 287.016 193.239 287.016C195.521 287.016 196.663 285.843 196.663 283.496ZM221.599 287.016H222.719V289H221.343C219.38 289 217.919 288.328 216.959 286.984C215.956 288.328 214.474 289 212.511 289H202.015L203.039 287.016H207.935V273.64L210.047 272.52V287.016H212.287C214.719 287.016 215.935 285.757 215.935 283.24V269.48L218.047 268.36V275.336L218.079 275.304V283.368C218.079 285.8 219.252 287.016 221.599 287.016ZM225.318 271.176C224.465 271.176 224.038 270.739 224.038 269.864C224.038 268.989 224.465 268.552 225.318 268.552C226.172 268.552 226.598 268.989 226.598 269.864C226.598 270.739 226.172 271.176 225.318 271.176ZM228.966 271.176C228.113 271.176 227.686 270.739 227.686 269.864C227.686 268.989 228.113 268.552 228.966 268.552C229.82 268.552 230.246 268.989 230.246 269.864C230.246 270.739 229.82 271.176 228.966 271.176ZM232.39 287.016H233.51V289H232.134C230.214 289 228.774 288.349 227.814 287.048C226.812 288.349 225.361 289 223.462 289H222.086V287.016H223.206C225.553 287.016 226.726 285.8 226.726 283.368V276.424L228.87 275.304V283.368C228.87 285.8 230.044 287.016 232.39 287.016ZM232.867 289V287.016H234.82C237.188 287.016 238.372 285.8 238.372 283.368V278.76L240.516 277.64V283.368C240.516 285.8 241.689 287.016 244.036 287.016H245.22C247.566 287.016 248.74 285.8 248.74 283.368V277.608L250.884 276.456V283.368C250.884 285.8 252.068 287.016 254.436 287.016H255.588C257.956 287.016 259.14 285.8 259.14 283.368V276.424L261.284 275.304V283.432C261.284 285.203 260.761 286.589 259.716 287.592C258.777 288.509 257.508 288.979 255.908 289H254.148C252.164 289 250.724 288.296 249.828 286.888C248.91 288.296 247.481 289 245.54 289H243.78C241.796 289 240.345 288.296 239.428 286.888C238.532 288.296 237.092 289 235.108 289H232.867ZM267.036 289V269.48L269.18 268.36V289H267.036ZM290.822 287.816C289.926 288.328 288.774 288.584 287.366 288.584C285.51 288.584 284.059 287.869 283.014 286.44C282.118 285.224 281.67 283.688 281.67 281.832C281.67 279.592 282.267 277.843 283.462 276.584C284.507 275.475 285.894 274.92 287.622 274.92C289.393 274.92 290.758 275.475 291.718 276.584C292.55 277.544 292.966 278.824 292.966 280.424V287.464C292.966 289.448 292.55 291.08 291.718 292.36C290.886 293.661 289.702 294.493 288.166 294.856C287.654 295.005 287.099 295.08 286.502 295.08C285.265 295.08 284.059 294.781 282.886 294.184V292.296C283.995 292.893 285.094 293.192 286.182 293.192C287.057 293.192 287.825 293 288.486 292.616C289.979 291.869 290.758 290.269 290.822 287.816ZM290.822 280.616C290.822 278.12 289.755 276.872 287.622 276.872C286.427 276.872 285.478 277.309 284.774 278.184C284.091 279.059 283.75 280.264 283.75 281.8C283.75 283.293 284.081 284.488 284.742 285.384C285.403 286.259 286.299 286.696 287.43 286.696C289.115 286.696 290.246 286.227 290.822 285.288V280.616ZM317.043 271.176C316.168 271.176 315.731 270.728 315.731 269.832C315.731 268.979 316.168 268.552 317.043 268.552C317.875 268.552 318.291 268.979 318.291 269.832C318.291 270.728 317.875 271.176 317.043 271.176ZM320.691 271.176C319.816 271.176 319.379 270.728 319.379 269.832C319.379 268.979 319.816 268.552 320.691 268.552C321.523 268.552 321.939 268.979 321.939 269.832C321.939 270.728 321.523 271.176 320.691 271.176ZM324.147 287.432C324.147 289.907 323.251 291.827 321.459 293.192C319.816 294.451 317.576 295.08 314.739 295.08C311.453 295.08 308.979 294.12 307.315 292.2C306.077 290.771 305.459 289.011 305.459 286.92C305.459 285.085 305.928 283.507 306.867 282.184L308.947 281.768C307.923 283.325 307.411 284.989 307.411 286.76C307.411 288.701 308.083 290.248 309.427 291.4C310.728 292.531 312.499 293.096 314.739 293.096C317.299 293.096 319.197 292.509 320.435 291.336C321.459 290.376 321.971 289.096 321.971 287.496C321.181 288.221 320.04 288.584 318.547 288.584C316.712 288.584 315.261 287.859 314.195 286.408C313.299 285.192 312.851 283.667 312.851 281.832C312.851 279.592 313.448 277.843 314.643 276.584C315.688 275.475 317.075 274.92 318.803 274.92C320.573 274.92 321.939 275.475 322.899 276.584C323.731 277.544 324.147 278.824 324.147 280.424V287.432ZM322.003 280.616C322.003 278.12 320.936 276.872 318.803 276.872C317.608 276.872 316.669 277.309 315.987 278.184C315.304 279.059 314.963 280.264 314.963 281.8C314.963 283.315 315.283 284.509 315.923 285.384C316.584 286.259 317.48 286.696 318.611 286.696C320.339 286.696 321.469 286.205 322.003 285.224V280.616ZM339.437 287.016H340.557V289H339.181C337.858 289 336.759 288.68 335.885 288.04C335.714 291.581 334.285 293.821 331.597 294.76C330.914 294.995 330.189 295.112 329.421 295.112C328.183 295.112 326.988 294.813 325.836 294.216V292.328C326.924 292.925 328.034 293.224 329.165 293.224C330.061 293.224 330.85 293.021 331.533 292.616C333.026 291.72 333.773 290.045 333.773 287.592V276.424L335.885 275.304V275.336L335.917 275.304V283.368C335.917 285.8 337.09 287.016 339.437 287.016ZM360.154 287.016H361.274V289H360.122C358.351 289 356.933 288.797 355.866 288.392C354.821 287.987 353.85 287.272 352.954 286.248C350.223 288.083 347.066 289 343.482 289H339.93V287.016H343.514C348.165 287.016 351.791 285.437 354.394 282.28C352.495 278.653 350.202 276.84 347.514 276.84C345.679 276.84 343.887 277.768 342.138 279.624V277.512C343.887 275.784 345.711 274.92 347.61 274.92H347.674C351.023 274.92 353.925 277.181 356.378 281.704V283.016C355.717 283.869 355.013 284.605 354.266 285.224C354.949 285.885 355.717 286.355 356.57 286.632C357.445 286.888 358.639 287.016 360.154 287.016ZM360.649 289V287.016H361.545C363.977 287.016 365.193 285.757 365.193 283.24V269.48L367.337 268.36V283.272C367.337 285.085 366.803 286.515 365.737 287.56C364.734 288.52 363.411 289 361.769 289H360.649ZM373.099 289V269.48L375.243 268.36V289H373.099ZM391.765 270.92C390.89 270.92 390.453 270.472 390.453 269.576C390.453 268.723 390.89 268.296 391.765 268.296C392.597 268.296 393.013 268.723 393.013 269.576C393.013 270.472 392.597 270.92 391.765 270.92ZM395.413 270.92C394.538 270.92 394.101 270.472 394.101 269.576C394.101 268.723 394.538 268.296 395.413 268.296C396.245 268.296 396.661 268.723 396.661 269.576C396.661 270.472 396.245 270.92 395.413 270.92ZM401.621 287.016H402.708V289H401.333C399.05 289 397.461 288.104 396.565 286.312C395.455 287.464 394.09 288.04 392.469 288.04C390.634 288.04 389.183 287.347 388.117 285.96C387.221 284.787 386.773 283.325 386.773 281.576C386.773 279.528 387.37 277.885 388.565 276.648C389.61 275.56 390.901 275.016 392.437 275.016C393.823 275.016 394.986 275.421 395.925 276.232V274.504L398.069 273.384V283.368C398.069 285.8 399.253 287.016 401.621 287.016ZM395.925 278.664C394.986 277.533 393.845 276.968 392.501 276.968C391.434 276.968 390.559 277.405 389.877 278.28C389.215 279.133 388.885 280.243 388.885 281.608C388.885 282.995 389.215 284.104 389.877 284.936C390.559 285.768 391.445 286.184 392.533 286.184C393.919 286.184 395.071 285.576 395.989 284.36C395.946 283.976 395.925 283.667 395.925 283.432V278.664ZM412.263 287.016H413.383V289H412.007C410.044 289 408.583 288.328 407.623 286.984C406.62 288.328 405.138 289 403.175 289H402.055V287.016H402.951C405.383 287.016 406.599 285.757 406.599 283.24V269.48L408.743 268.36V283.368C408.743 285.8 409.916 287.016 412.263 287.016ZM417.383 280.424C417.383 278.611 417.927 277.203 419.015 276.2C419.953 275.347 421.191 274.92 422.727 274.92C424.711 274.92 426.236 275.645 427.303 277.096C428.22 278.333 428.679 279.955 428.679 281.96C428.679 284.243 428.092 286.024 426.919 287.304C425.895 288.435 424.561 289 422.919 289C420.913 289 419.42 288.36 418.439 287.08C417.479 288.36 416.039 289 414.118 289H412.742V287.016H413.863C416.209 287.016 417.383 285.8 417.383 283.368V280.424ZM419.527 283.496C419.527 285.843 420.679 287.016 422.983 287.016C424.092 287.016 424.967 286.568 425.607 285.672C426.247 284.776 426.567 283.528 426.567 281.928C426.567 280.349 426.225 279.112 425.543 278.216C424.881 277.32 423.943 276.872 422.727 276.872C420.593 276.872 419.527 278.12 419.527 280.616V283.496ZM439.382 289C437.568 289 436.171 288.413 435.19 287.24C434.379 286.237 433.974 284.968 433.974 283.432V269.48L436.118 268.36V283.368C436.118 285.8 437.291 287.016 439.638 287.016H440.758V289H439.382ZM457.046 268.808C456.278 268.808 455.894 268.403 455.894 267.592C455.894 266.824 456.278 266.44 457.046 266.44C457.814 266.44 458.198 266.824 458.198 267.592C458.198 268.403 457.814 268.808 457.046 268.808ZM455.254 272.136C454.379 272.136 453.942 271.699 453.942 270.824C453.942 269.949 454.379 269.512 455.254 269.512C456.086 269.512 456.502 269.949 456.502 270.824C456.502 271.699 456.086 272.136 455.254 272.136ZM458.902 272.136C458.048 272.136 457.622 271.699 457.622 270.824C457.622 269.949 458.048 269.512 458.902 269.512C459.755 269.512 460.182 269.949 460.182 270.824C460.182 271.699 459.755 272.136 458.902 272.136ZM440.117 289V287.016H442.07C444.438 287.016 445.622 285.8 445.622 283.368V278.76L447.766 277.64V283.368C447.766 285.8 448.939 287.016 451.286 287.016H452.47C454.816 287.016 455.99 285.8 455.99 283.368V277.608L458.134 276.456V283.368C458.134 285.8 459.318 287.016 461.686 287.016H462.838C465.206 287.016 466.39 285.8 466.39 283.368V276.424L468.534 275.304V283.432C468.534 285.203 468.011 286.589 466.966 287.592C466.027 288.509 464.758 288.979 463.158 289H461.398C459.414 289 457.974 288.296 457.078 286.888C456.16 288.296 454.731 289 452.79 289H451.03C449.046 289 447.595 288.296 446.678 286.888C445.782 288.296 444.342 289 442.358 289H440.117ZM488.342 268.744V289H484.15V273.512C483.851 273.704 483.414 273.971 482.838 274.312C482.006 274.803 481.408 275.176 481.046 275.432C480.768 274.963 480.299 274.184 479.638 273.096L479.446 272.808C479.296 272.531 479.179 272.328 479.094 272.2C479.776 271.709 480.854 270.973 482.326 269.992C483.094 269.48 483.702 269.064 484.15 268.744H488.342ZM504.282 272.104H497.21V276.2C497.466 276.093 497.818 276.04 498.266 276.04C500.613 276.04 502.437 276.627 503.738 277.8C504.976 278.931 505.594 280.477 505.594 282.44C505.594 284.509 504.826 286.227 503.29 287.592C501.946 288.787 500.314 289.384 498.394 289.384C495.834 289.384 493.605 288.456 491.706 286.6L493.434 283.944C494.992 285.117 496.496 285.704 497.946 285.704C500.186 285.704 501.306 284.701 501.306 282.696C501.306 280.456 499.866 279.336 496.986 279.336C495.984 279.336 494.672 279.517 493.05 279.88V268.744H504.282V272.104ZM515.773 268.36C518.247 268.36 520.231 269.544 521.725 271.912C522.983 273.875 523.613 276.211 523.613 278.92C523.613 282.184 522.813 284.797 521.213 286.76C519.805 288.509 517.991 289.384 515.773 289.384C513.234 289.384 511.25 288.253 509.821 285.992C508.626 284.115 508.029 281.757 508.029 278.92C508.029 275.763 508.818 273.171 510.397 271.144C511.826 269.288 513.618 268.36 515.773 268.36ZM515.837 271.944C513.533 271.944 512.381 274.205 512.381 278.728C512.381 281.011 512.711 282.803 513.373 284.104C513.97 285.277 514.759 285.864 515.741 285.864C516.829 285.864 517.682 285.235 518.301 283.976C518.941 282.696 519.261 280.947 519.261 278.728C519.261 274.205 518.119 271.944 515.837 271.944ZM534.38 266.6V268.392C536.406 268.456 538.38 269.128 540.3 270.408L538.508 273C536.929 272.339 535.553 271.987 534.38 271.944V276.456C538.668 278.099 540.812 280.349 540.812 283.208C540.812 285.235 540.118 286.803 538.732 287.912C537.601 288.829 536.15 289.309 534.38 289.352V291.368H532.812V289.352C530.956 289.16 528.982 288.413 526.892 287.112C527.105 286.792 527.446 286.323 527.916 285.704C528.278 285.235 528.556 284.861 528.748 284.584C528.961 284.755 529.58 284.968 530.604 285.224C531.628 285.48 532.364 285.608 532.812 285.608V279.912C530.806 279.123 529.377 278.269 528.524 277.352C527.692 276.413 527.276 275.251 527.276 273.864C527.276 272.371 527.766 271.144 528.748 270.184C529.75 269.224 531.105 268.648 532.812 268.456V266.6H534.38ZM534.38 285.576C535.702 285.469 536.364 284.744 536.364 283.4C536.364 282.269 535.702 281.363 534.38 280.68V285.576ZM532.812 271.976C532.022 272.296 531.628 272.925 531.628 273.864C531.628 274.632 532.022 275.272 532.812 275.784V271.976Z" fill="black"/>
</svg>
