<svg width="529" height="339" viewBox="0 0 529 339" fill="none" xmlns="http://www.w3.org/2000/svg">
<path d="M19.1085 21.016H20.1965V23H18.8205C16.9218 23 15.4925 22.36 14.5325 21.08C13.5512 22.3387 12.1005 22.9787 10.1805 23H6.1165C3.76983 23 2.5965 24.216 2.5965 26.648V31.96L0.4525 33.08V26.584C0.4525 24.8133 0.975167 23.4267 2.0205 22.424C2.95917 21.5067 4.20717 21.0373 5.7645 21.016C4.76183 19.736 4.2605 18.0507 4.2605 15.96C4.2605 13.656 4.85783 11.8747 6.0525 10.616C7.09783 9.48533 8.4845 8.92 10.2125 8.92C11.9832 8.92 13.3485 9.47467 14.3085 10.584C15.1405 11.544 15.5565 12.824 15.5565 14.424V17.368C15.5565 19.8 16.7405 21.016 19.1085 21.016ZM13.4125 17.496V14.616C13.4125 12.12 12.3458 10.872 10.2125 10.872C8.9965 10.872 8.04717 11.32 7.3645 12.216C6.70317 13.112 6.3725 14.3493 6.3725 15.928C6.3725 17.528 6.6925 18.776 7.3325 19.672C7.9725 20.568 8.85783 21.016 9.9885 21.016C12.2712 21.016 13.4125 19.8427 13.4125 17.496ZM22.787 5.176C21.9337 5.176 21.507 4.73867 21.507 3.864C21.507 2.98933 21.9337 2.552 22.787 2.552C23.6403 2.552 24.067 2.98933 24.067 3.864C24.067 4.73867 23.6403 5.176 22.787 5.176ZM26.435 5.176C25.5817 5.176 25.155 4.73867 25.155 3.864C25.155 2.98933 25.5817 2.552 26.435 2.552C27.2883 2.552 27.715 2.98933 27.715 3.864C27.715 4.73867 27.2883 5.176 26.435 5.176ZM29.859 21.016H30.979V23H29.603C27.683 23 26.243 22.3493 25.283 21.048C24.2803 22.3493 22.8297 23 20.931 23H19.555V21.016H20.675C23.0217 21.016 24.195 19.8 24.195 17.368V10.424L26.339 9.304V17.368C26.339 19.8 27.5123 21.016 29.859 21.016ZM30.3362 23V21.016H31.4563C33.8029 21.016 34.9763 19.8 34.9763 17.368V10.424L37.1203 9.304V17.432C37.1203 19.224 36.5976 20.6213 35.5523 21.624C34.5923 22.5413 33.3123 23 31.7122 23H30.3362ZM31.3923 28.984C30.5176 28.984 30.0802 28.536 30.0802 27.64C30.0802 26.7867 30.5176 26.36 31.3923 26.36C32.2243 26.36 32.6403 26.7867 32.6403 27.64C32.6403 28.536 32.2243 28.984 31.3923 28.984ZM35.0403 28.984C34.1656 28.984 33.7283 28.536 33.7283 27.64C33.7283 26.7867 34.1656 26.36 35.0403 26.36C35.8723 26.36 36.2883 26.7867 36.2883 27.64C36.2883 28.536 35.8723 28.984 35.0403 28.984ZM55.1115 2.36H57.0315C54.2368 6.328 52.8395 10.4987 52.8395 14.872C52.8395 19.48 54.2368 23.6827 57.0315 27.48H55.1115C53.8315 26.2 52.7542 24.344 51.8795 21.912C51.0262 19.48 50.5995 17.1333 50.5995 14.872C50.5995 12.632 51.0262 10.328 51.8795 7.96C52.7328 5.57067 53.8102 3.704 55.1115 2.36ZM89.4208 21.016V23H88.0448C86.2528 23 84.8661 22.424 83.8848 21.272C83.1168 22.424 81.8794 23 80.1728 23H60.1088L61.1648 21.016H65.3888V3.48L67.3728 2.36V15.8C69.8688 11.2133 73.1754 8.92 77.2928 8.92C79.6821 8.92 81.5808 9.74133 82.9888 11.384C84.1834 12.792 84.7808 14.5307 84.7808 16.6V17.432C84.7808 19.8213 85.9648 21.016 88.3328 21.016H89.4208ZM82.6368 16.6C82.6368 14.808 82.0714 13.368 80.9408 12.28C79.9808 11.3413 78.7754 10.872 77.3248 10.872C74.8288 10.872 72.6101 12.0773 70.6688 14.488C69.1968 16.3013 68.1088 18.4773 67.4048 21.016H79.9488C80.9728 21.016 81.6768 20.7813 82.0608 20.312C82.4448 19.8213 82.6368 18.936 82.6368 17.656V16.6ZM96.1978 5.176C95.3231 5.176 94.8858 4.728 94.8858 3.832C94.8858 2.97867 95.3231 2.552 96.1978 2.552C97.0298 2.552 97.4458 2.97867 97.4458 3.832C97.4458 4.728 97.0298 5.176 96.1978 5.176ZM99.8458 5.176C98.9711 5.176 98.5338 4.728 98.5338 3.832C98.5338 2.97867 98.9711 2.552 99.8458 2.552C100.678 2.552 101.094 2.97867 101.094 3.832C101.094 4.728 100.678 5.176 99.8458 5.176ZM101.35 21.016H107.206V23H99.9738C99.2484 23 98.5871 22.9253 97.9898 22.776C97.3924 22.9253 96.7311 23 96.0058 23H88.7737V21.016H94.6618C92.9764 19.4587 92.1338 17.6133 92.1338 15.48C92.1338 13.4107 92.7098 11.768 93.8618 10.552C94.9071 9.464 96.2831 8.92 97.9898 8.92C99.9311 8.92 101.435 9.624 102.502 11.032C103.398 12.2053 103.846 13.688 103.846 15.48C103.846 17.6347 103.014 19.48 101.35 21.016ZM98.1178 20.728C99.2058 20.344 100.091 19.6613 100.774 18.68C101.478 17.6773 101.83 16.6 101.83 15.448C101.83 14.04 101.478 12.9307 100.774 12.12C100.091 11.288 99.1631 10.872 97.9898 10.872C96.8164 10.872 95.8884 11.288 95.2058 12.12C94.5231 12.9307 94.1818 14.0293 94.1818 15.416C94.1818 16.5893 94.5231 17.6773 95.2058 18.68C95.8884 19.6613 96.7738 20.344 97.8618 20.728L97.9898 20.76L98.0538 20.728H98.1178ZM116.283 5.144C115.408 5.144 114.971 4.696 114.971 3.8C114.971 2.94667 115.408 2.52 116.283 2.52C117.115 2.52 117.531 2.94667 117.531 3.8C117.531 4.696 117.115 5.144 116.283 5.144ZM106.555 23V21.016H111.995C110.822 19.8427 110.235 18.1573 110.235 15.96C110.235 13.656 110.832 11.8747 112.027 10.616C113.072 9.48533 114.459 8.92 116.187 8.92C117.958 8.92 119.323 9.47467 120.283 10.584C121.115 11.544 121.531 12.824 121.531 14.424V17.528C121.51 19.256 120.987 20.6107 119.963 21.592C119.024 22.5307 117.744 23 116.123 23H106.555ZM119.419 14.616C119.419 12.12 118.342 10.872 116.187 10.872C114.992 10.872 114.054 11.32 113.371 12.216C112.71 13.0907 112.379 14.328 112.379 15.928C112.379 17.4853 112.699 18.7227 113.339 19.64C114 20.5573 114.875 21.016 115.963 21.016C118.267 21.016 119.419 19.8213 119.419 17.432V14.616ZM132.101 23L133.125 21.016H139.141C140.123 21.016 140.805 20.7707 141.189 20.28C141.595 19.7893 141.797 18.936 141.797 17.72C141.797 14.584 140.421 12.248 137.669 10.712L138.725 8.952C142.117 10.9147 143.845 13.6773 143.909 17.24C143.931 19.7573 145.157 21.016 147.589 21.016H148.581V23H147.365C145.509 23 144.091 22.3813 143.109 21.144C142.384 22.3813 141.179 23 139.493 23H132.101ZM147.93 23V21.016H151.514C156.165 21.016 159.791 19.4373 162.394 16.28C160.495 12.6533 158.202 10.84 155.514 10.84C153.679 10.84 151.887 11.768 150.138 13.624V11.512C151.887 9.784 153.711 8.92 155.61 8.92H155.674C159.023 8.92 161.925 11.1813 164.378 15.704V17.016C161.263 21.0053 156.965 23 151.482 23H147.93ZM168.849 23V3.48L170.993 2.36V23H168.849ZM184.947 21.816C184.051 22.328 182.899 22.584 181.491 22.584C179.635 22.584 178.184 21.8693 177.139 20.44C176.243 19.224 175.795 17.688 175.795 15.832C175.795 13.592 176.392 11.8427 177.587 10.584C178.632 9.47467 180.019 8.92 181.747 8.92C183.518 8.92 184.883 9.47467 185.843 10.584C186.675 11.544 187.091 12.824 187.091 14.424V21.464C187.091 23.448 186.675 25.08 185.843 26.36C185.011 27.6613 183.827 28.4933 182.291 28.856C181.779 29.0053 181.224 29.08 180.627 29.08C179.39 29.08 178.184 28.7813 177.011 28.184V26.296C178.12 26.8933 179.219 27.192 180.307 27.192C181.182 27.192 181.95 27 182.611 26.616C184.104 25.8693 184.883 24.2693 184.947 21.816ZM184.947 14.616C184.947 12.12 183.88 10.872 181.747 10.872C180.552 10.872 179.603 11.3093 178.899 12.184C178.216 13.0587 177.875 14.264 177.875 15.8C177.875 17.2933 178.206 18.488 178.867 19.384C179.528 20.2587 180.424 20.696 181.555 20.696C183.24 20.696 184.371 20.2267 184.947 19.288V14.616ZM220.096 3.48L222.24 2.36V17.496C222.24 19.3093 221.685 20.7173 220.576 21.72C219.637 22.5733 218.389 23 216.832 23H205.408C203.829 23 202.57 22.5093 201.632 21.528C200.693 20.5253 200.224 19.1813 200.224 17.496V13.304L202.368 12.184V17.24C202.368 19.7573 203.541 21.016 205.888 21.016H216.608C218.933 21.016 220.096 19.7573 220.096 17.24V3.48ZM211.104 7.736C211.978 7.736 212.672 7.97067 213.184 8.44C213.696 8.90933 213.952 9.53867 213.952 10.328C213.952 11.032 213.738 11.5973 213.312 12.024C212.906 12.4293 212.362 12.632 211.68 12.632H207.712L208.32 11.512H211.584C212.394 11.512 212.8 11.1067 212.8 10.296C212.8 9.31467 212.181 8.824 210.944 8.824C210.304 8.824 209.76 8.952 209.312 9.208V8.12L211.936 5.176H213.28L211.072 7.736H211.104ZM235.749 21.016H236.869V23H235.493C234.17 23 233.072 22.68 232.197 22.04C232.026 25.5813 230.597 27.8213 227.909 28.76C227.226 28.9947 226.501 29.112 225.733 29.112C224.496 29.112 223.301 28.8133 222.149 28.216V26.328C223.237 26.9253 224.346 27.224 225.477 27.224C226.373 27.224 227.162 27.0213 227.845 26.616C229.338 25.72 230.085 24.0453 230.085 21.592V10.424L232.197 9.304V9.336L232.229 9.304V17.368C232.229 19.8 233.402 21.016 235.749 21.016ZM239.475 5.176C238.621 5.176 238.195 4.73867 238.195 3.864C238.195 2.98933 238.621 2.552 239.475 2.552C240.328 2.552 240.755 2.98933 240.755 3.864C240.755 4.73867 240.328 5.176 239.475 5.176ZM243.123 5.176C242.269 5.176 241.843 4.73867 241.843 3.864C241.843 2.98933 242.269 2.552 243.123 2.552C243.976 2.552 244.403 2.98933 244.403 3.864C244.403 4.73867 243.976 5.176 243.123 5.176ZM246.547 21.016H247.667V23H246.291C244.371 23 242.931 22.3493 241.971 21.048C240.968 22.3493 239.517 23 237.618 23H236.242V21.016H237.363C239.709 21.016 240.883 19.8 240.883 17.368V10.424L243.027 9.304V17.368C243.027 19.8 244.2 21.016 246.547 21.016ZM263.952 2.808C263.184 2.808 262.8 2.40267 262.8 1.592C262.8 0.823999 263.184 0.439999 263.952 0.439999C264.72 0.439999 265.104 0.823999 265.104 1.592C265.104 2.40267 264.72 2.808 263.952 2.808ZM262.16 6.136C261.285 6.136 260.848 5.69867 260.848 4.824C260.848 3.94933 261.285 3.512 262.16 3.512C262.992 3.512 263.408 3.94933 263.408 4.824C263.408 5.69867 262.992 6.136 262.16 6.136ZM265.808 6.136C264.954 6.136 264.528 5.69867 264.528 4.824C264.528 3.94933 264.954 3.512 265.808 3.512C266.661 3.512 267.088 3.94933 267.088 4.824C267.088 5.69867 266.661 6.136 265.808 6.136ZM247.024 23V21.016H248.976C251.344 21.016 252.528 19.8 252.528 17.368V12.76L254.672 11.64V17.368C254.672 19.8 255.845 21.016 258.192 21.016H259.376C261.722 21.016 262.896 19.8 262.896 17.368V11.608L265.04 10.456V17.368C265.04 19.8 266.224 21.016 268.592 21.016H269.744C272.112 21.016 273.296 19.8 273.296 17.368V10.424L275.44 9.304V17.24C275.44 19.7573 276.656 21.016 279.088 21.016H280.944V23H278.864C276.837 23 275.354 22.2853 274.416 20.856C273.477 22.2853 272.026 23 270.064 23H268.304C266.32 23 264.88 22.296 263.984 20.888C263.066 22.296 261.637 23 259.696 23H257.936C255.952 23 254.501 22.296 253.584 20.888C252.688 22.296 251.248 23 249.264 23H247.024ZM284.945 14.424C284.945 12.6107 285.489 11.2027 286.577 10.2C287.516 9.34667 288.753 8.92 290.289 8.92C292.273 8.92 293.798 9.64533 294.865 11.096C295.782 12.3333 296.241 13.9547 296.241 15.96C296.241 18.2427 295.654 20.024 294.481 21.304C293.457 22.4347 292.124 23 290.481 23C288.476 23 286.982 22.36 286.001 21.08C285.041 22.36 283.601 23 281.681 23H280.305V21.016H281.425C283.772 21.016 284.945 19.8 284.945 17.368V14.424ZM287.089 17.496C287.089 19.8427 288.241 21.016 290.545 21.016C291.654 21.016 292.529 20.568 293.169 19.672C293.809 18.776 294.129 17.528 294.129 15.928C294.129 14.3493 293.788 13.112 293.105 12.216C292.444 11.32 291.505 10.872 290.289 10.872C288.156 10.872 287.089 12.12 287.089 14.616V17.496ZM301.024 2.36H302.944C304.224 3.704 305.291 5.57067 306.144 7.96C307.019 10.328 307.456 12.632 307.456 14.872C307.456 17.752 306.827 20.568 305.568 23.32C304.736 25.176 303.862 26.5627 302.944 27.48H301.024C303.819 23.6827 305.216 19.48 305.216 14.872C305.216 10.4987 303.819 6.328 301.024 2.36ZM324.077 4.92C323.202 4.92 322.765 4.472 322.765 3.576C322.765 2.72267 323.202 2.296 324.077 2.296C324.909 2.296 325.325 2.72267 325.325 3.576C325.325 4.472 324.909 4.92 324.077 4.92ZM327.725 4.92C326.85 4.92 326.413 4.472 326.413 3.576C326.413 2.72267 326.85 2.296 327.725 2.296C328.557 2.296 328.973 2.72267 328.973 3.576C328.973 4.472 328.557 4.92 327.725 4.92ZM333.933 21.016H335.021V23H333.645C331.362 23 329.773 22.104 328.877 20.312C327.768 21.464 326.402 22.04 324.781 22.04C322.946 22.04 321.496 21.3467 320.429 19.96C319.533 18.7867 319.085 17.3253 319.085 15.576C319.085 13.528 319.682 11.8853 320.877 10.648C321.922 9.56 323.213 9.016 324.749 9.016C326.136 9.016 327.298 9.42133 328.237 10.232V8.504L330.381 7.384V17.368C330.381 19.8 331.565 21.016 333.933 21.016ZM328.237 12.664C327.298 11.5333 326.157 10.968 324.813 10.968C323.746 10.968 322.872 11.4053 322.189 12.28C321.528 13.1333 321.197 14.2427 321.197 15.608C321.197 16.9947 321.528 18.104 322.189 18.936C322.872 19.768 323.757 20.184 324.845 20.184C326.232 20.184 327.384 19.576 328.301 18.36C328.258 17.976 328.237 17.6667 328.237 17.432V12.664ZM343.488 20.888C344.277 17.6027 345.653 14.8507 347.616 12.632C349.813 10.1573 352.394 8.92 355.36 8.92C357.749 8.92 359.648 9.74133 361.056 11.384C362.25 12.792 362.848 14.5307 362.848 16.6V17.496C362.848 19.3093 362.293 20.7173 361.184 21.72C360.245 22.5733 358.997 23 357.44 23H344.416C342.496 23 341.056 22.3493 340.096 21.048C339.093 22.3493 337.642 23 335.743 23H334.367V21.016H335.488C337.834 21.016 339.008 19.8 339.008 17.368V12.76L341.152 11.64V17.368C341.152 19.3733 341.93 20.5467 343.488 20.888ZM360.704 17.24V16.6C360.704 14.808 360.138 13.368 359.008 12.28C358.048 11.3413 356.842 10.872 355.392 10.872C352.896 10.872 350.677 12.0453 348.736 14.392C347.264 16.184 346.154 18.392 345.408 21.016H357.28C359.562 21.016 360.704 19.7573 360.704 17.24ZM373.444 23C371.631 23 370.234 22.4133 369.252 21.24C368.442 20.2373 368.036 18.968 368.036 17.432V3.48L370.18 2.36V17.368C370.18 19.8 371.354 21.016 373.7 21.016H374.82V23H373.444ZM383.14 5.08C382.265 5.08 381.828 4.632 381.828 3.736C381.828 2.88267 382.265 2.456 383.14 2.456C383.972 2.456 384.388 2.88267 384.388 3.736C384.388 4.632 383.972 5.08 383.14 5.08ZM374.18 23V21.016H377.764C382.415 21.016 386.041 19.4373 388.644 16.28C386.745 12.6533 384.452 10.84 381.764 10.84C379.929 10.84 378.137 11.768 376.388 13.624V11.512C378.137 9.784 379.961 8.92 381.86 8.92H381.924C385.273 8.92 388.175 11.1813 390.628 15.704V17.016C387.513 21.0053 383.215 23 377.732 23H374.18ZM411.266 8.12C410.413 8.12 409.986 7.672 409.986 6.776C409.986 5.92267 410.413 5.496 411.266 5.496C412.12 5.496 412.546 5.92267 412.546 6.776C412.546 7.672 412.12 8.12 411.266 8.12ZM414.946 8.12C414.072 8.12 413.634 7.672 413.634 6.776C413.634 5.92267 414.072 5.496 414.946 5.496C415.778 5.496 416.194 5.92267 416.194 6.776C416.194 7.672 415.778 8.12 414.946 8.12ZM407.97 23C406.392 23 405.133 22.5093 404.194 21.528C403.256 20.5253 402.786 19.1813 402.786 17.496V13.304L404.93 12.184V17.24C404.93 19.7573 406.104 21.016 408.45 21.016H419.17C421.517 21.016 422.69 19.7573 422.69 17.24V10.424L424.834 9.304V17.496C424.834 19.3093 424.28 20.7173 423.17 21.72C422.21 22.5733 420.952 23 419.394 23H407.97ZM436.007 23C434.193 23 432.796 22.4133 431.815 21.24C431.004 20.2373 430.599 18.968 430.599 17.432V3.48L432.743 2.36V17.368C432.743 19.8 433.916 21.016 436.263 21.016H437.383V23H436.007ZM436.742 23V21.016H438.695C441.063 21.016 442.247 19.8 442.247 17.368V12.76L444.391 11.64V17.368C444.391 19.8 445.564 21.016 447.911 21.016H449.095C451.441 21.016 452.615 19.8 452.615 17.368V11.608L454.759 10.456V17.368C454.759 19.8 455.943 21.016 458.311 21.016H459.463C461.831 21.016 463.015 19.8 463.015 17.368V10.424L465.159 9.304V17.24C465.159 19.7573 466.375 21.016 468.807 21.016H470.663V23H468.583C466.556 23 465.073 22.2853 464.135 20.856C463.196 22.2853 461.745 23 459.783 23H458.023C456.039 23 454.599 22.296 453.703 20.888C452.785 22.296 451.356 23 449.415 23H447.655C445.671 23 444.22 22.296 443.303 20.888C442.407 22.296 440.967 23 438.983 23H436.742ZM480.232 21.016H481.352V23H479.976C478.013 23 476.552 22.328 475.592 20.984C474.589 22.328 473.106 23 471.144 23H470.024V21.016H470.92C473.352 21.016 474.568 19.7573 474.568 17.24V3.48L476.712 2.36V17.368C476.712 19.8 477.885 21.016 480.232 21.016ZM480.711 23V21.016H484.295C488.946 21.016 492.573 19.4373 495.175 16.28C493.277 12.6533 490.983 10.84 488.295 10.84C486.461 10.84 484.669 11.768 482.919 13.624V11.512C484.669 9.784 486.493 8.92 488.391 8.92H488.455C491.805 8.92 494.706 11.1813 497.159 15.704V17.016C494.045 21.0053 489.746 23 484.263 23H480.711ZM489.159 28.984C488.285 28.984 487.847 28.536 487.847 27.64C487.847 26.7867 488.285 26.36 489.159 26.36C489.991 26.36 490.407 26.7867 490.407 27.64C490.407 28.536 489.991 28.984 489.159 28.984ZM509.158 5.784L508.198 4.376C509.712 3.032 511.526 2.36 513.638 2.36C515.366 2.36 516.795 2.872 517.926 3.896C518.971 4.856 519.494 6.08267 519.494 7.576C519.494 8.64267 519.174 9.592 518.534 10.424C517.894 11.2347 517.051 11.768 516.006 12.024C517.35 12.344 518.406 12.9627 519.174 13.88C519.942 14.7973 520.326 15.9067 520.326 17.208C520.326 19.3627 519.515 21.0053 517.894 22.136C516.699 22.9467 515.291 23.352 513.67 23.352C511.622 23.352 509.712 22.648 507.942 21.24L508.966 19.864C510.31 20.8027 511.782 21.272 513.382 21.272C514.704 21.272 515.771 20.8987 516.582 20.152C517.392 19.4053 517.798 18.4133 517.798 17.176C517.798 14.552 516.23 13.24 513.094 13.24H510.47V11.224H513.094C514.288 11.224 515.227 10.9147 515.91 10.296C516.614 9.67733 516.966 8.824 516.966 7.736C516.966 5.496 515.718 4.376 513.222 4.376C511.92 4.376 510.566 4.84533 509.158 5.784ZM110.537 59.72C110.537 59.7413 110.537 59.7627 110.537 59.784C110.537 60.7013 110.099 61.16 109.225 61.16C108.307 61.16 107.849 60.6907 107.849 59.752C107.891 58.8773 108.35 58.44 109.225 58.44C110.099 58.44 110.537 58.8667 110.537 59.72ZM123.614 46.344C122.74 46.344 122.302 45.896 122.302 45C122.302 44.1467 122.74 43.72 123.614 43.72C124.446 43.72 124.862 44.1467 124.862 45C124.862 45.896 124.446 46.344 123.614 46.344ZM135.454 59.016H136.574V61H135.198C133.876 61 132.777 60.6907 131.902 60.072C131.753 62.312 130.857 64.072 129.214 65.352C127.764 66.504 125.929 67.08 123.71 67.08C121.001 67.08 118.9 66.12 117.406 64.2C116.233 62.728 115.646 60.968 115.646 58.92C115.646 57.0853 116.116 55.5067 117.054 54.184L119.134 53.768C118.11 55.3253 117.598 56.9893 117.598 58.76C117.598 60.6373 118.206 62.184 119.422 63.4C120.553 64.5307 121.982 65.096 123.71 65.096C125.737 65.096 127.305 64.4987 128.414 63.304C129.332 62.3227 129.79 61.032 129.79 59.432V48.424L131.934 47.304V55.368C131.934 57.8 133.108 59.016 135.454 59.016ZM146.234 59.016H147.354V61H145.978C144.058 61 142.618 60.3493 141.658 59.048C140.655 60.3493 139.205 61 137.306 61H135.93V59.016H137.05C139.397 59.016 140.57 57.8 140.57 55.368V48.424L142.714 47.304V55.368C142.714 57.8 143.887 59.016 146.234 59.016ZM138.97 64.36C139.823 64.36 140.25 64.7973 140.25 65.672C140.25 66.5467 139.823 66.984 138.97 66.984C138.117 66.984 137.69 66.5467 137.69 65.672C137.69 64.7973 138.117 64.36 138.97 64.36ZM142.618 64.36C143.471 64.36 143.898 64.7973 143.898 65.672C143.898 66.5467 143.471 66.984 142.618 66.984C141.765 66.984 141.338 66.5467 141.338 65.672C141.338 64.7973 141.765 64.36 142.618 64.36ZM151.767 47.784C151.981 47.7627 152.205 47.752 152.439 47.752C154.359 47.752 156.002 48.2213 157.367 49.16C159.245 50.504 160.183 52.424 160.183 54.92V55.528C160.183 57.32 159.629 58.7173 158.519 59.72C157.559 60.5733 156.311 61 154.775 61H146.711V59.016H154.551C156.877 59.016 158.039 57.768 158.039 55.272V54.952C158.039 53.224 157.421 51.9333 156.183 51.08C155.159 50.312 153.858 49.928 152.279 49.928C151.127 49.928 149.986 50.1307 148.855 50.536V48.424L156.119 40.36H158.327L151.767 47.784ZM172.718 59.016H173.838V61H172.462C171.139 61 170.04 60.68 169.166 60.04C168.995 63.5813 167.566 65.8213 164.878 66.76C164.195 66.9947 163.47 67.112 162.702 67.112C161.464 67.112 160.27 66.8133 159.118 66.216V64.328C160.206 64.9253 161.315 65.224 162.446 65.224C163.342 65.224 164.131 65.0213 164.814 64.616C166.307 63.72 167.054 62.0453 167.054 59.592V48.424L169.166 47.304V47.336L169.198 47.304V55.368C169.198 57.8 170.371 59.016 172.718 59.016ZM176.443 43.176C175.59 43.176 175.163 42.7387 175.163 41.864C175.163 40.9893 175.59 40.552 176.443 40.552C177.297 40.552 177.723 40.9893 177.723 41.864C177.723 42.7387 177.297 43.176 176.443 43.176ZM180.091 43.176C179.238 43.176 178.811 42.7387 178.811 41.864C178.811 40.9893 179.238 40.552 180.091 40.552C180.945 40.552 181.371 40.9893 181.371 41.864C181.371 42.7387 180.945 43.176 180.091 43.176ZM183.515 59.016H184.635V61H183.259C181.339 61 179.899 60.3493 178.939 59.048C177.937 60.3493 176.486 61 174.587 61H173.211V59.016H174.331C176.678 59.016 177.851 57.8 177.851 55.368V48.424L179.995 47.304V55.368C179.995 57.8 181.169 59.016 183.515 59.016ZM200.921 40.808C200.153 40.808 199.769 40.4027 199.769 39.592C199.769 38.824 200.153 38.44 200.921 38.44C201.689 38.44 202.073 38.824 202.073 39.592C202.073 40.4027 201.689 40.808 200.921 40.808ZM199.129 44.136C198.254 44.136 197.817 43.6987 197.817 42.824C197.817 41.9493 198.254 41.512 199.129 41.512C199.961 41.512 200.377 41.9493 200.377 42.824C200.377 43.6987 199.961 44.136 199.129 44.136ZM202.777 44.136C201.923 44.136 201.497 43.6987 201.497 42.824C201.497 41.9493 201.923 41.512 202.777 41.512C203.63 41.512 204.057 41.9493 204.057 42.824C204.057 43.6987 203.63 44.136 202.777 44.136ZM183.992 61V59.016H185.945C188.313 59.016 189.497 57.8 189.497 55.368V50.76L191.641 49.64V55.368C191.641 57.8 192.814 59.016 195.161 59.016H196.345C198.691 59.016 199.865 57.8 199.865 55.368V49.608L202.009 48.456V55.368C202.009 57.8 203.193 59.016 205.561 59.016H206.713C209.081 59.016 210.265 57.8 210.265 55.368V48.424L212.409 47.304V55.24C212.409 57.7573 213.625 59.016 216.057 59.016H217.913V61H215.833C213.806 61 212.323 60.2853 211.385 58.856C210.446 60.2853 208.995 61 207.033 61H205.273C203.289 61 201.849 60.296 200.953 58.888C200.035 60.296 198.606 61 196.665 61H194.905C192.921 61 191.47 60.296 190.553 58.888C189.657 60.296 188.217 61 186.233 61H183.992ZM237.402 59.016H238.49V61H237.114C235.172 61 233.722 60.328 232.762 58.984C231.695 60.7547 230.074 61.64 227.898 61.64C225.7 61.64 224.079 60.7653 223.034 59.016C222.052 60.3387 220.591 61 218.65 61H217.274V59.016H218.394C220.74 59.016 221.914 57.8 221.914 55.368V54.28C221.914 51.8267 222.511 49.9493 223.706 48.648C224.751 47.496 226.148 46.92 227.898 46.92C229.903 46.92 231.428 47.6667 232.474 49.16C233.391 50.44 233.85 52.1467 233.85 54.28V55.368C233.85 57.8 235.034 59.016 237.402 59.016ZM227.898 59.656C229.071 59.656 229.999 59.176 230.682 58.216C231.364 57.2347 231.706 55.912 231.706 54.248C231.706 50.664 230.436 48.872 227.898 48.872C225.338 48.872 224.058 50.664 224.058 54.248C224.058 57.8533 225.338 59.656 227.898 59.656ZM237.836 61V59.016H238.732C241.164 59.016 242.38 57.7573 242.38 55.24V41.48L244.524 40.36V55.272C244.524 57.0853 243.991 58.5147 242.924 59.56C241.922 60.52 240.599 61 238.956 61H237.836ZM250.286 61V41.48L252.43 40.36V61H250.286ZM285.368 59.016H286.488V61H285.112C283.747 61 282.605 60.6587 281.688 59.976C281.517 62.2373 280.611 64.0187 278.968 65.32C277.496 66.4933 275.64 67.08 273.4 67.08C270.627 67.08 268.493 66.1307 267 64.232C265.827 62.76 265.24 61 265.24 58.952C265.24 57.096 265.709 55.528 266.648 54.248L268.76 53.768C267.715 55.304 267.192 56.9893 267.192 58.824C267.192 60.7013 267.8 62.2373 269.016 63.432C270.168 64.5627 271.629 65.128 273.4 65.128C275.448 65.128 277.037 64.5093 278.168 63.272C279.128 62.248 279.608 60.9147 279.608 59.272V41.48L281.72 40.36V55.4V55.464C281.72 57.832 282.936 59.016 285.368 59.016ZM296.14 59.016H297.26V61H295.884C293.964 61 292.524 60.3493 291.564 59.048C290.562 60.3493 289.111 61 287.212 61H285.836V59.016H286.956C289.303 59.016 290.476 57.8 290.476 55.368V48.424L292.62 47.304V55.368C292.62 57.8 293.794 59.016 296.14 59.016ZM291.212 64.36C292.044 64.36 292.46 64.7867 292.46 65.64C292.46 66.536 292.044 66.984 291.212 66.984C290.338 66.984 289.9 66.536 289.9 65.64C289.9 64.7867 290.338 64.36 291.212 64.36ZM304.458 43.176C303.583 43.176 303.146 42.728 303.146 41.832C303.146 40.9787 303.583 40.552 304.458 40.552C305.29 40.552 305.706 40.9787 305.706 41.832C305.706 42.728 305.29 43.176 304.458 43.176ZM308.106 43.176C307.231 43.176 306.794 42.728 306.794 41.832C306.794 40.9787 307.231 40.552 308.106 40.552C308.938 40.552 309.354 40.9787 309.354 41.832C309.354 42.728 308.938 43.176 308.106 43.176ZM296.617 61V59.016H302.058C300.884 57.8427 300.298 56.1573 300.298 53.96C300.298 51.656 300.895 49.8747 302.09 48.616C303.135 47.4853 304.522 46.92 306.25 46.92C308.02 46.92 309.386 47.4747 310.346 48.584C311.178 49.544 311.594 50.824 311.594 52.424V55.528C311.572 57.256 311.05 58.6107 310.026 59.592C309.087 60.5307 307.807 61 306.186 61H296.617ZM309.482 52.616C309.482 50.12 308.404 48.872 306.25 48.872C305.055 48.872 304.116 49.32 303.434 50.216C302.772 51.0907 302.442 52.328 302.442 53.928C302.442 55.4853 302.762 56.7227 303.402 57.64C304.063 58.5573 304.938 59.016 306.026 59.016C308.33 59.016 309.482 57.8213 309.482 55.432V52.616ZM332.052 46.344C331.177 46.344 330.74 45.896 330.74 45C330.74 44.1467 331.177 43.72 332.052 43.72C332.884 43.72 333.3 44.1467 333.3 45C333.3 45.896 332.884 46.344 332.052 46.344ZM343.892 59.016H345.012V61H343.636C342.313 61 341.214 60.6907 340.34 60.072C340.19 62.312 339.294 64.072 337.652 65.352C336.201 66.504 334.366 67.08 332.148 67.08C329.438 67.08 327.337 66.12 325.844 64.2C324.67 62.728 324.084 60.968 324.084 58.92C324.084 57.0853 324.553 55.5067 325.492 54.184L327.572 53.768C326.548 55.3253 326.036 56.9893 326.036 58.76C326.036 60.6373 326.644 62.184 327.86 63.4C328.99 64.5307 330.42 65.096 332.148 65.096C334.174 65.096 335.742 64.4987 336.852 63.304C337.769 62.3227 338.228 61.032 338.228 59.432V48.424L340.372 47.304V55.368C340.372 57.8 341.545 59.016 343.892 59.016ZM349.008 52.424C349.008 50.6107 349.552 49.2027 350.64 48.2C351.578 47.3467 352.816 46.92 354.352 46.92C356.336 46.92 357.861 47.6453 358.928 49.096C359.845 50.3333 360.304 51.9547 360.304 53.96C360.304 56.2427 359.717 58.024 358.544 59.304C357.52 60.4347 356.186 61 354.544 61C352.538 61 351.045 60.36 350.064 59.08C349.104 60.36 347.664 61 345.743 61H344.367V59.016H345.488C347.834 59.016 349.008 57.8 349.008 55.368V52.424ZM351.152 55.496C351.152 57.8427 352.304 59.016 354.608 59.016C355.717 59.016 356.592 58.568 357.232 57.672C357.872 56.776 358.192 55.528 358.192 53.928C358.192 52.3493 357.85 51.112 357.168 50.216C356.506 49.32 355.568 48.872 354.352 48.872C352.218 48.872 351.152 50.12 351.152 52.616V55.496ZM381.766 46.12C380.913 46.12 380.486 45.672 380.486 44.776C380.486 43.9227 380.913 43.496 381.766 43.496C382.62 43.496 383.046 43.9227 383.046 44.776C383.046 45.672 382.62 46.12 381.766 46.12ZM385.446 46.12C384.572 46.12 384.134 45.672 384.134 44.776C384.134 43.9227 384.572 43.496 385.446 43.496C386.278 43.496 386.694 43.9227 386.694 44.776C386.694 45.672 386.278 46.12 385.446 46.12ZM398.854 59.016H399.974V61H398.598C396.678 61 395.238 60.3493 394.278 59.048C393.276 60.3493 391.814 61 389.894 61H378.47C376.892 61 375.633 60.5093 374.694 59.528C373.756 58.5253 373.286 57.1813 373.286 55.496V51.304L375.43 50.184V55.24C375.43 57.7573 376.604 59.016 378.95 59.016H389.67C392.017 59.016 393.19 57.7573 393.19 55.24V48.424L395.334 47.304V55.368C395.334 57.8 396.508 59.016 398.854 59.016ZM406.52 43.176C405.645 43.176 405.208 42.728 405.208 41.832C405.208 40.9787 405.645 40.552 406.52 40.552C407.352 40.552 407.768 40.9787 407.768 41.832C407.768 42.728 407.352 43.176 406.52 43.176ZM410.168 43.176C409.293 43.176 408.856 42.728 408.856 41.832C408.856 40.9787 409.293 40.552 410.168 40.552C411 40.552 411.416 40.9787 411.416 41.832C411.416 42.728 411 43.176 410.168 43.176ZM398.68 61V59.016H404.12C402.947 57.8427 402.36 56.1573 402.36 53.96C402.36 51.656 402.957 49.8747 404.152 48.616C405.197 47.4853 406.584 46.92 408.312 46.92C410.083 46.92 411.448 47.4747 412.408 48.584C413.24 49.544 413.656 50.824 413.656 52.424V55.528C413.635 57.256 413.112 58.6107 412.088 59.592C411.149 60.5307 409.869 61 408.248 61H398.68ZM411.544 52.616C411.544 50.12 410.467 48.872 408.312 48.872C407.117 48.872 406.179 49.32 405.496 50.216C404.835 51.0907 404.504 52.328 404.504 53.928C404.504 55.4853 404.824 56.7227 405.464 57.64C406.125 58.5573 407 59.016 408.088 59.016C410.392 59.016 411.544 57.8213 411.544 55.432V52.616ZM433.147 59.016V61H429.755C429.733 62.408 429.275 63.6453 428.379 64.712C427.504 65.8 426.363 66.5147 424.955 66.856C424.443 67.0053 423.888 67.08 423.291 67.08C422.053 67.08 420.848 66.7813 419.675 66.184V64.296C420.784 64.8933 421.883 65.192 422.971 65.192C423.845 65.192 424.613 65 425.275 64.616C425.936 64.2747 426.491 63.752 426.939 63.048C427.387 62.3653 427.611 61.6827 427.611 61L424.891 60.904C422.523 60.7973 420.752 60.0507 419.579 58.664C418.619 57.4907 418.139 55.9227 418.139 53.96C418.139 51.656 418.736 49.8747 419.931 48.616C420.997 47.4853 422.427 46.92 424.219 46.92C426.075 46.92 427.493 47.4747 428.475 48.584C429.328 49.544 429.755 50.824 429.755 52.424V59.016H433.147ZM427.611 52.648C427.611 50.1307 426.48 48.872 424.219 48.872C422.96 48.872 421.979 49.32 421.275 50.216C420.592 51.0907 420.251 52.328 420.251 53.928C420.251 57.1067 421.819 58.7707 424.955 58.92C425.893 58.984 426.779 59.016 427.611 59.016V52.648ZM432.492 61V59.016H433.389C435.82 59.016 437.036 57.7573 437.036 55.24V41.48L439.181 40.36V55.272C439.181 57.0853 438.647 58.5147 437.581 59.56C436.578 60.52 435.255 61 433.613 61H432.492ZM444.943 61V41.48L447.087 40.36V61H444.943ZM457.976 61L459 59.016H465.016C465.998 59.016 466.68 58.7707 467.064 58.28C467.47 57.7893 467.672 56.936 467.672 55.72C467.672 52.584 466.296 50.248 463.544 48.712L464.6 46.952C467.992 48.9147 469.72 51.6773 469.784 55.24C469.806 57.7573 471.032 59.016 473.464 59.016H474.456V61H473.24C471.384 61 469.966 60.3813 468.984 59.144C468.259 60.3813 467.054 61 465.368 61H457.976ZM473.805 61V59.016H474.925C477.272 59.016 478.445 57.8 478.445 55.368V48.424L480.589 47.304V55.432C480.589 57.224 480.066 58.6213 479.021 59.624C478.061 60.5413 476.781 61 475.181 61H473.805ZM474.861 66.984C473.986 66.984 473.549 66.536 473.549 65.64C473.549 64.7867 473.986 64.36 474.861 64.36C475.693 64.36 476.109 64.7867 476.109 65.64C476.109 66.536 475.693 66.984 474.861 66.984ZM478.509 66.984C477.634 66.984 477.197 66.536 477.197 65.64C477.197 64.7867 477.634 64.36 478.509 64.36C479.341 64.36 479.757 64.7867 479.757 65.64C479.757 66.536 479.341 66.984 478.509 66.984ZM483.789 61L484.813 59.016H490.829C491.81 59.016 492.493 58.7707 492.877 58.28C493.282 57.7893 493.485 56.936 493.485 55.72C493.485 52.584 492.109 50.248 489.357 48.712L490.413 46.952C493.805 48.9147 495.533 51.6773 495.597 55.24C495.618 57.7573 496.845 59.016 499.277 59.016H500.269V61H499.053C497.197 61 495.778 60.3813 494.797 59.144C494.071 60.3813 492.866 61 491.181 61H483.789ZM519.842 59.016H520.962V61H519.81C518.039 61 516.62 60.7973 515.554 60.392C514.508 59.9867 513.538 59.272 512.642 58.248C509.911 60.0827 506.754 61 503.17 61H499.617V59.016H503.202C507.852 59.016 511.479 57.4373 514.082 54.28C512.183 50.6533 509.89 48.84 507.202 48.84C505.367 48.84 503.575 49.768 501.826 51.624V49.512C503.575 47.784 505.399 46.92 507.298 46.92H507.362C510.711 46.92 513.612 49.1813 516.066 53.704V55.016C515.404 55.8693 514.7 56.6053 513.954 57.224C514.636 57.8853 515.404 58.3547 516.258 58.632C517.132 58.888 518.327 59.016 519.842 59.016ZM522.256 43.08C521.382 43.08 520.944 42.632 520.944 41.736C520.944 40.8827 521.382 40.456 522.256 40.456C523.088 40.456 523.504 40.8827 523.504 41.736C523.504 42.632 523.088 43.08 522.256 43.08ZM525.904 43.08C525.03 43.08 524.592 42.632 524.592 41.736C524.592 40.8827 525.03 40.456 525.904 40.456C526.736 40.456 527.152 40.8827 527.152 41.736C527.152 42.632 526.736 43.08 525.904 43.08ZM520.336 61V59.016H521.456C523.803 59.016 524.976 57.8 524.976 55.368V48.424L527.12 47.304V55.432C527.12 57.224 526.598 58.6213 525.552 59.624C524.592 60.5413 523.312 61 521.712 61H520.336ZM141.883 137L143.899 133.128H148.955C150.043 133.128 150.587 132.499 150.587 131.24C150.587 128.893 149.456 127.091 147.195 125.832L149.179 122.408C152.507 124.349 154.299 126.984 154.555 130.312C154.64 131.379 154.875 132.115 155.259 132.52C155.664 132.925 156.347 133.128 157.307 133.128H159.739V137H157.083C155.504 137 154.171 136.563 153.083 135.688C152.293 136.563 151.163 137 149.691 137H141.883ZM157.821 137V133.128H162.589C166.344 133.128 169.331 132.008 171.549 129.768C170.099 127.229 168.339 125.96 166.269 125.96C164.563 125.96 162.696 126.888 160.669 128.744V125.192C162.461 123.229 164.488 122.248 166.749 122.248C168.413 122.248 170.035 122.856 171.613 124.072C173.192 125.288 174.589 127.016 175.805 129.256V130.856C174.269 132.819 172.349 134.333 170.045 135.4C167.763 136.467 165.267 137 162.557 137H157.821ZM180.286 137V118.504L184.318 116.36V137H180.286ZM197.3 136.072C196.638 136.2 195.956 136.264 195.252 136.264C193.289 136.264 191.721 135.528 190.548 134.056C189.588 132.819 189.108 131.325 189.108 129.576C189.108 127.229 189.748 125.384 191.028 124.04C192.158 122.845 193.652 122.248 195.508 122.248C197.406 122.248 198.889 122.856 199.956 124.072C200.873 125.117 201.332 126.483 201.332 128.168V135.016C201.332 137.533 200.67 139.517 199.348 140.968C198.11 142.333 196.425 143.016 194.292 143.016C192.948 143.016 191.636 142.653 190.356 141.928V138.44C191.508 139.101 192.66 139.432 193.812 139.432C195.881 139.432 197.044 138.312 197.3 136.072ZM197.332 128.104C197.332 126.696 196.724 125.992 195.508 125.992C194.74 125.992 194.132 126.301 193.684 126.92C193.257 127.539 193.044 128.381 193.044 129.448C193.044 131.709 193.854 132.84 195.476 132.84C196.329 132.84 196.948 132.627 197.332 132.2V128.104ZM233.418 118.472L237.418 116.36V131.048C237.418 132.989 236.81 134.504 235.594 135.592C234.548 136.531 233.194 137 231.53 137H220.106C218.292 137 216.874 136.392 215.85 135.176C214.932 134.109 214.474 132.733 214.474 131.048V127.784L218.474 125.672V130.792C218.474 131.645 218.644 132.253 218.986 132.616C219.348 132.957 219.935 133.128 220.746 133.128H231.178C231.988 133.128 232.564 132.947 232.906 132.584C233.247 132.221 233.418 131.624 233.418 130.792V118.472ZM226.794 121C228.33 121.256 229.098 122.163 229.098 123.72C229.098 125.469 228.255 126.344 226.57 126.344H221.834L222.826 124.488H226.378C226.954 124.488 227.242 124.2 227.242 123.624C227.242 122.899 226.762 122.536 225.802 122.536C225.162 122.536 224.564 122.707 224.01 123.048V121.448L226.762 118.408H229.098L226.794 121ZM251.225 133.128H254.105V137H250.841C250.115 137 249.443 136.904 248.825 136.712C248.547 138.76 247.726 140.381 246.361 141.576C245.123 142.643 243.641 143.176 241.913 143.176C240.569 143.176 239.256 142.835 237.976 142.152V138.632C239.086 139.251 240.174 139.56 241.241 139.56C242.414 139.56 243.321 139.176 243.961 138.408C244.622 137.661 244.953 136.616 244.953 135.272V124.904L247.577 123.528L248.953 122.792V122.824L248.985 122.792V130.824C248.985 131.656 249.155 132.253 249.497 132.616C249.838 132.957 250.414 133.128 251.225 133.128ZM255.236 119.976C254.596 119.976 254.084 119.784 253.7 119.4C253.316 119.016 253.124 118.493 253.124 117.832C253.124 117.213 253.316 116.712 253.7 116.328C254.084 115.944 254.596 115.752 255.236 115.752C255.876 115.752 256.378 115.944 256.74 116.328C257.124 116.691 257.316 117.192 257.316 117.832C257.316 119.261 256.623 119.976 255.236 119.976ZM260.132 119.976C259.492 119.976 258.98 119.784 258.596 119.4C258.212 118.995 258.02 118.472 258.02 117.832C258.02 117.213 258.212 116.712 258.596 116.328C259.002 115.944 259.514 115.752 260.132 115.752C260.772 115.752 261.274 115.944 261.636 116.328C262.02 116.691 262.212 117.192 262.212 117.832C262.212 119.261 261.519 119.976 260.132 119.976ZM263.588 133.128H266.468V137H263.204C261.647 137 260.356 136.584 259.332 135.752C258.308 136.584 257.018 137 255.46 137H252.196V133.128H255.076C255.887 133.128 256.463 132.957 256.804 132.616C257.146 132.253 257.316 131.656 257.316 130.824V124.904L261.348 122.792V130.824C261.348 131.656 261.519 132.253 261.86 132.616C262.202 132.957 262.778 133.128 263.588 133.128ZM282.716 115.272C281.436 115.272 280.796 114.621 280.796 113.32C280.796 112.061 281.436 111.432 282.716 111.432C283.975 111.432 284.604 112.061 284.604 113.32C284.604 114.621 283.975 115.272 282.716 115.272ZM280.284 119.976C279.644 119.976 279.132 119.784 278.748 119.4C278.364 119.016 278.172 118.493 278.172 117.832C278.172 117.213 278.364 116.712 278.748 116.328C279.132 115.944 279.644 115.752 280.284 115.752C280.924 115.752 281.425 115.944 281.788 116.328C282.172 116.691 282.364 117.192 282.364 117.832C282.364 119.261 281.671 119.976 280.284 119.976ZM285.212 119.976C284.572 119.976 284.06 119.784 283.676 119.4C283.292 119.016 283.1 118.493 283.1 117.832C283.1 117.213 283.292 116.712 283.676 116.328C284.06 115.944 284.572 115.752 285.212 115.752C285.852 115.752 286.353 115.944 286.716 116.328C287.1 116.691 287.292 117.192 287.292 117.832C287.292 119.261 286.599 119.976 285.212 119.976ZM264.54 137V133.128H267.932C268.743 133.128 269.319 132.957 269.66 132.616C270.023 132.253 270.204 131.656 270.204 130.824V126.6L274.236 124.488V130.824C274.236 131.656 274.407 132.253 274.748 132.616C275.089 132.957 275.665 133.128 276.476 133.128H278.652C279.463 133.128 280.039 132.957 280.38 132.616C280.721 132.253 280.892 131.656 280.892 130.824V125.768L284.924 123.624V130.824C284.924 131.656 285.095 132.253 285.436 132.616C285.799 132.957 286.385 133.128 287.196 133.128H289.372C290.183 133.128 290.759 132.957 291.1 132.616C291.441 132.253 291.612 131.656 291.612 130.824V124.904L295.644 122.792V130.312C295.644 131.336 295.847 132.061 296.252 132.488C296.679 132.915 297.383 133.128 298.364 133.128H301.308V137H298.14C296.348 137 294.908 136.488 293.82 135.464C292.86 136.467 291.569 136.979 289.948 137H286.78C285.201 137 283.911 136.531 282.908 135.592C281.991 136.509 280.775 136.979 279.26 137H276.092C274.513 137 273.223 136.531 272.22 135.592C271.217 136.531 269.927 137 268.348 137H264.54ZM304.504 128.168C304.504 126.248 305.101 124.744 306.296 123.656C307.341 122.717 308.685 122.248 310.328 122.248C312.44 122.248 314.082 123.027 315.256 124.584C316.258 125.885 316.76 127.56 316.76 129.608C316.76 131.976 316.13 133.843 314.872 135.208C313.741 136.403 312.301 137 310.552 137C308.845 137 307.448 136.627 306.36 135.88C305.336 136.627 304.098 137 302.648 137H299.384V133.128H302.264C303.074 133.128 303.65 132.957 303.992 132.616C304.333 132.253 304.504 131.656 304.504 130.824V128.168ZM308.536 131.336C308.536 132.531 309.165 133.128 310.424 133.128C312.002 133.128 312.792 131.912 312.792 129.48C312.792 127.155 311.97 125.992 310.328 125.992C309.133 125.992 308.536 126.696 308.536 128.104V131.336ZM332.412 128.04C332.412 128.061 332.412 128.083 332.412 128.104C332.412 129.021 331.974 129.48 331.1 129.48C330.182 129.48 329.724 129.011 329.724 128.072C329.766 127.197 330.225 126.76 331.1 126.76C331.974 126.76 332.412 127.187 332.412 128.04ZM332.412 135.72C332.412 135.741 332.412 135.763 332.412 135.784C332.412 136.701 331.974 137.16 331.1 137.16C330.182 137.16 329.724 136.691 329.724 135.752C329.766 134.877 330.225 134.44 331.1 134.44C331.974 134.44 332.412 134.867 332.412 135.72ZM339.952 118.92C339.077 118.92 338.64 118.472 338.64 117.576C338.64 116.723 339.077 116.296 339.952 116.296C340.784 116.296 341.2 116.723 341.2 117.576C341.2 118.472 340.784 118.92 339.952 118.92ZM343.6 118.92C342.725 118.92 342.288 118.472 342.288 117.576C342.288 116.723 342.725 116.296 343.6 116.296C344.432 116.296 344.848 116.723 344.848 117.576C344.848 118.472 344.432 118.92 343.6 118.92ZM349.808 135.016H350.896V137H349.52C347.237 137 345.648 136.104 344.752 134.312C343.643 135.464 342.277 136.04 340.656 136.04C338.821 136.04 337.371 135.347 336.304 133.96C335.408 132.787 334.96 131.325 334.96 129.576C334.96 127.528 335.557 125.885 336.752 124.648C337.797 123.56 339.088 123.016 340.624 123.016C342.011 123.016 343.173 123.421 344.112 124.232V122.504L346.256 121.384V131.368C346.256 133.8 347.44 135.016 349.808 135.016ZM344.112 126.664C343.173 125.533 342.032 124.968 340.688 124.968C339.621 124.968 338.747 125.405 338.064 126.28C337.403 127.133 337.072 128.243 337.072 129.608C337.072 130.995 337.403 132.104 338.064 132.936C338.747 133.768 339.632 134.184 340.72 134.184C342.107 134.184 343.259 133.576 344.176 132.36C344.133 131.976 344.112 131.667 344.112 131.432V126.664ZM366.627 135.016V137H350.242V135.016H355.619C354.275 133.651 353.603 131.837 353.603 129.576C353.603 127.421 354.339 125.715 355.811 124.456C356.984 123.453 358.36 122.941 359.939 122.92C362.136 122.92 363.853 123.784 365.091 125.512V127.624C363.811 125.789 362.168 124.872 360.163 124.872H360.067C358.787 124.872 357.741 125.309 356.931 126.184C356.141 127.059 355.747 128.211 355.747 129.64C355.747 131.283 356.237 132.595 357.219 133.576C358.157 134.536 359.416 135.016 360.995 135.016H366.627ZM385.147 135.016V137H381.755C381.733 138.408 381.275 139.645 380.379 140.712C379.504 141.8 378.363 142.515 376.955 142.856C376.443 143.005 375.888 143.08 375.291 143.08C374.053 143.08 372.848 142.781 371.675 142.184V140.296C372.784 140.893 373.883 141.192 374.971 141.192C375.845 141.192 376.613 141 377.275 140.616C377.936 140.275 378.491 139.752 378.939 139.048C379.387 138.365 379.611 137.683 379.611 137L376.891 136.904C374.523 136.797 372.752 136.051 371.579 134.664C370.619 133.491 370.139 131.923 370.139 129.96C370.139 127.656 370.736 125.875 371.931 124.616C372.997 123.485 374.427 122.92 376.219 122.92C378.075 122.92 379.493 123.475 380.475 124.584C381.328 125.544 381.755 126.824 381.755 128.424V135.016H385.147ZM379.611 128.648C379.611 126.131 378.48 124.872 376.219 124.872C374.96 124.872 373.979 125.32 373.275 126.216C372.592 127.091 372.251 128.328 372.251 129.928C372.251 133.107 373.819 134.771 376.955 134.92C377.893 134.984 378.779 135.016 379.611 135.016V128.648ZM404.621 135.016H405.709V137H404.333C402.391 137 400.941 136.328 399.981 134.984C398.914 136.755 397.293 137.64 395.117 137.64C392.919 137.64 391.298 136.765 390.253 135.016C389.271 136.339 387.81 137 385.868 137H384.492V135.016H385.613C387.959 135.016 389.133 133.8 389.133 131.368V130.28C389.133 127.827 389.73 125.949 390.925 124.648C391.97 123.496 393.367 122.92 395.117 122.92C397.122 122.92 398.647 123.667 399.693 125.16C400.61 126.44 401.069 128.147 401.069 130.28V131.368C401.069 133.8 402.253 135.016 404.621 135.016ZM395.117 135.656C396.29 135.656 397.218 135.176 397.901 134.216C398.583 133.235 398.925 131.912 398.925 130.248C398.925 126.664 397.655 124.872 395.117 124.872C392.557 124.872 391.277 126.664 391.277 130.248C391.277 133.853 392.557 135.656 395.117 135.656ZM425.279 135.016H426.399V137H425.247C423.476 137 422.058 136.797 420.991 136.392C419.946 135.987 418.975 135.272 418.079 134.248C415.348 136.083 412.191 137 408.607 137H405.055V135.016H408.639C413.29 135.016 416.916 133.437 419.519 130.28C417.62 126.653 415.327 124.84 412.639 124.84C410.804 124.84 409.012 125.768 407.263 127.624V125.512C409.012 123.784 410.836 122.92 412.735 122.92H412.799C416.148 122.92 419.05 125.181 421.503 129.704V131.016C420.842 131.869 420.138 132.605 419.391 133.224C420.074 133.885 420.842 134.355 421.695 134.632C422.57 134.888 423.764 135.016 425.279 135.016ZM413.503 140.36C414.335 140.36 414.751 140.787 414.751 141.64C414.751 142.536 414.335 142.984 413.503 142.984C412.628 142.984 412.191 142.536 412.191 141.64C412.191 140.787 412.628 140.36 413.503 140.36ZM445.902 135.016H446.99V137H445.614C443.672 137 442.222 136.328 441.262 134.984C440.195 136.755 438.574 137.64 436.398 137.64C434.2 137.64 432.579 136.765 431.534 135.016C430.552 136.339 429.091 137 427.15 137H425.774V135.016H426.894C429.24 135.016 430.414 133.8 430.414 131.368V130.28C430.414 127.827 431.011 125.949 432.206 124.648C433.251 123.496 434.648 122.92 436.398 122.92C438.403 122.92 439.928 123.667 440.974 125.16C441.891 126.44 442.35 128.147 442.35 130.28V131.368C442.35 133.8 443.534 135.016 445.902 135.016ZM436.398 135.656C437.571 135.656 438.499 135.176 439.182 134.216C439.864 133.235 440.206 131.912 440.206 130.248C440.206 126.664 438.936 124.872 436.398 124.872C433.838 124.872 432.558 126.664 432.558 130.248C432.558 133.853 433.838 135.656 436.398 135.656ZM446.336 137V135.016H447.232C449.664 135.016 450.88 133.757 450.88 131.24V117.48L453.024 116.36V131.272C453.024 133.085 452.491 134.515 451.424 135.56C450.422 136.52 449.099 137 447.456 137H446.336ZM458.786 137V117.48L460.93 116.36V137H458.786ZM490.796 135.016H491.884V137H490.508C488.609 137 487.18 136.36 486.22 135.08C485.239 136.339 483.788 136.979 481.868 137H477.804C475.457 137 474.284 138.216 474.284 140.648V145.96L472.14 147.08V140.584C472.14 138.813 472.663 137.427 473.708 136.424C474.647 135.507 475.895 135.037 477.452 135.016C476.449 133.736 475.948 132.051 475.948 129.96C475.948 127.656 476.545 125.875 477.74 124.616C478.785 123.485 480.172 122.92 481.9 122.92C483.671 122.92 485.036 123.475 485.996 124.584C486.828 125.544 487.244 126.824 487.244 128.424V131.368C487.244 133.8 488.428 135.016 490.796 135.016ZM485.1 131.496V128.616C485.1 126.12 484.033 124.872 481.9 124.872C480.684 124.872 479.735 125.32 479.052 126.216C478.391 127.112 478.06 128.349 478.06 129.928C478.06 131.528 478.38 132.776 479.02 133.672C479.66 134.568 480.545 135.016 481.676 135.016C483.959 135.016 485.1 133.843 485.1 131.496ZM511.467 135.016H512.587V137H511.435C509.664 137 508.245 136.797 507.179 136.392C506.133 135.987 505.163 135.272 504.267 134.248C501.536 136.083 498.379 137 494.795 137H491.242V135.016H494.827C499.477 135.016 503.104 133.437 505.707 130.28C503.808 126.653 501.515 124.84 498.827 124.84C496.992 124.84 495.2 125.768 493.451 127.624V125.512C495.2 123.784 497.024 122.92 498.923 122.92H498.987C502.336 122.92 505.237 125.181 507.691 129.704V131.016C507.029 131.869 506.325 132.605 505.579 133.224C506.261 133.885 507.029 134.355 507.883 134.632C508.757 134.888 509.952 135.016 511.467 135.016ZM499.691 140.36C500.523 140.36 500.939 140.787 500.939 141.64C500.939 142.536 500.523 142.984 499.691 142.984C498.816 142.984 498.379 142.536 498.379 141.64C498.379 140.787 498.816 140.36 499.691 140.36ZM511.961 137V135.016H515.545C520.196 135.016 523.823 133.437 526.425 130.28C524.527 126.653 522.233 124.84 519.545 124.84C517.711 124.84 515.919 125.768 514.169 127.624V125.512C515.919 123.784 517.743 122.92 519.641 122.92H519.705C523.055 122.92 525.956 125.181 528.409 129.704V131.016C525.295 135.005 520.996 137 515.513 137H511.961ZM156.329 160.12C155.475 160.12 155.049 159.672 155.049 158.776C155.049 157.923 155.475 157.496 156.329 157.496C157.182 157.496 157.609 157.923 157.609 158.776C157.609 159.672 157.182 160.12 156.329 160.12ZM160.009 160.12C159.134 160.12 158.697 159.672 158.697 158.776C158.697 157.923 159.134 157.496 160.009 157.496C160.841 157.496 161.257 157.923 161.257 158.776C161.257 159.672 160.841 160.12 160.009 160.12ZM153.033 175C151.454 175 150.195 174.509 149.257 173.528C148.318 172.525 147.849 171.181 147.849 169.496V165.304L149.993 164.184V169.24C149.993 171.757 151.166 173.016 153.513 173.016H164.233C166.579 173.016 167.753 171.757 167.753 169.24V162.424L169.897 161.304V169.496C169.897 171.309 169.342 172.717 168.233 173.72C167.273 174.573 166.014 175 164.457 175H153.033ZM181.069 175C179.256 175 177.859 174.413 176.877 173.24C176.067 172.237 175.661 170.968 175.661 169.432V155.48L177.805 154.36V169.368C177.805 171.8 178.979 173.016 181.325 173.016H182.445V175H181.069ZM198.189 173.016V175H181.805V173.016H187.181C185.837 171.651 185.165 169.837 185.165 167.576C185.165 165.421 185.901 163.715 187.373 162.456C188.546 161.453 189.922 160.941 191.501 160.92C193.698 160.92 195.416 161.784 196.653 163.512V165.624C195.373 163.789 193.73 162.872 191.725 162.872H191.629C190.349 162.872 189.304 163.309 188.493 164.184C187.704 165.059 187.309 166.211 187.309 167.64C187.309 169.283 187.8 170.595 188.781 171.576C189.72 172.536 190.978 173.016 192.557 173.016H198.189ZM208.069 175C206.256 175 204.859 174.413 203.877 173.24C203.067 172.237 202.661 170.968 202.661 169.432V155.48L204.805 154.36V169.368C204.805 171.8 205.979 173.016 208.325 173.016H209.445V175H208.069ZM208.805 175V173.016H210.757C213.125 173.016 214.309 171.8 214.309 169.368V164.76L216.453 163.64V169.368C216.453 171.8 217.626 173.016 219.973 173.016H221.157C223.504 173.016 224.677 171.8 224.677 169.368V163.608L226.821 162.456V169.368C226.821 171.8 228.005 173.016 230.373 173.016H231.525C233.893 173.016 235.077 171.8 235.077 169.368V162.424L237.221 161.304V169.432C237.221 171.203 236.698 172.589 235.653 173.592C234.714 174.509 233.445 174.979 231.845 175H230.085C228.101 175 226.661 174.296 225.765 172.888C224.848 174.296 223.418 175 221.477 175H219.717C217.733 175 216.282 174.296 215.365 172.888C214.469 174.296 213.029 175 211.045 175H208.805ZM253.285 162.744C254.011 162.083 255.088 161.752 256.517 161.752C258.437 161.752 259.973 162.307 261.125 163.416C262.32 164.568 262.917 166.243 262.917 168.44C262.917 170.296 262.309 171.907 261.093 173.272C259.835 174.68 258.139 175.384 256.005 175.384C253.211 175.384 251.237 174.157 250.085 171.704C249.36 170.147 248.997 168.173 248.997 165.784C248.997 158.168 251.589 154.36 256.773 154.36C257.755 154.36 258.747 154.552 259.749 154.936C260.773 155.299 261.584 155.768 262.181 156.344L260.741 158.968C259.333 158.285 258.053 157.944 256.901 157.944C255.813 157.944 254.939 158.381 254.277 159.256C253.616 160.131 253.285 161.293 253.285 162.744ZM253.253 165.72C253.36 167.939 253.541 169.453 253.797 170.264C254.203 171.501 254.917 172.12 255.941 172.12C256.645 172.12 257.253 171.757 257.765 171.032C258.277 170.307 258.533 169.443 258.533 168.44C258.533 165.987 257.552 164.76 255.589 164.76C254.672 164.76 253.893 165.08 253.253 165.72ZM277.599 166.04C277.599 166.061 277.599 166.083 277.599 166.104C277.599 167.021 277.162 167.48 276.287 167.48C275.37 167.48 274.911 167.011 274.911 166.072C274.954 165.197 275.413 164.76 276.287 164.76C277.162 164.76 277.599 165.187 277.599 166.04ZM277.599 173.72C277.599 173.741 277.599 173.763 277.599 173.784C277.599 174.701 277.162 175.16 276.287 175.16C275.37 175.16 274.911 174.691 274.911 173.752C274.954 172.877 275.413 172.44 276.287 172.44C277.162 172.44 277.599 172.867 277.599 173.72ZM285.14 156.92C284.265 156.92 283.828 156.472 283.828 155.576C283.828 154.723 284.265 154.296 285.14 154.296C285.972 154.296 286.388 154.723 286.388 155.576C286.388 156.472 285.972 156.92 285.14 156.92ZM288.788 156.92C287.913 156.92 287.476 156.472 287.476 155.576C287.476 154.723 287.913 154.296 288.788 154.296C289.62 154.296 290.036 154.723 290.036 155.576C290.036 156.472 289.62 156.92 288.788 156.92ZM294.996 173.016H296.083V175H294.708C292.425 175 290.836 174.104 289.94 172.312C288.83 173.464 287.465 174.04 285.844 174.04C284.009 174.04 282.558 173.347 281.492 171.96C280.596 170.787 280.148 169.325 280.148 167.576C280.148 165.528 280.745 163.885 281.94 162.648C282.985 161.56 284.276 161.016 285.812 161.016C287.198 161.016 288.361 161.421 289.3 162.232V160.504L291.444 159.384V169.368C291.444 171.8 292.628 173.016 294.996 173.016ZM289.3 164.664C288.361 163.533 287.22 162.968 285.876 162.968C284.809 162.968 283.934 163.405 283.252 164.28C282.59 165.133 282.26 166.243 282.26 167.608C282.26 168.995 282.59 170.104 283.252 170.936C283.934 171.768 284.82 172.184 285.908 172.184C287.294 172.184 288.446 171.576 289.364 170.36C289.321 169.976 289.3 169.667 289.3 169.432V164.664ZM305.734 173.016H306.854V175H305.478C303.558 175 302.118 174.349 301.158 173.048C300.155 174.349 298.705 175 296.806 175H295.43V173.016H296.55C298.897 173.016 300.07 171.8 300.07 169.368V162.424L302.214 161.304V169.368C302.214 171.8 303.387 173.016 305.734 173.016ZM298.47 178.36C299.323 178.36 299.75 178.797 299.75 179.672C299.75 180.547 299.323 180.984 298.47 180.984C297.617 180.984 297.19 180.547 297.19 179.672C297.19 178.797 297.617 178.36 298.47 178.36ZM302.118 178.36C302.971 178.36 303.398 178.797 303.398 179.672C303.398 180.547 302.971 180.984 302.118 180.984C301.265 180.984 300.838 180.547 300.838 179.672C300.838 178.797 301.265 178.36 302.118 178.36ZM316.419 173.016H317.539V175H316.163C314.201 175 312.739 174.328 311.779 172.984C310.777 174.328 309.294 175 307.331 175H306.211V173.016H307.107C309.539 173.016 310.755 171.757 310.755 169.24V155.48L312.899 154.36V169.368C312.899 171.8 314.073 173.016 316.419 173.016ZM333.891 173.016H334.691V175H333.635C331.715 175 330.275 174.349 329.315 173.048C328.355 174.349 326.904 175 324.963 175H316.899V173.016H324.739C327.064 173.016 328.227 171.768 328.227 169.272V168.952C328.227 167.203 327.587 165.891 326.307 165.016C325.283 164.291 324.003 163.928 322.467 163.928C321.315 163.928 320.173 164.131 319.043 164.536V162.424L326.307 154.36H328.515L321.955 161.784C322.168 161.763 322.392 161.752 322.627 161.752C324.675 161.752 326.381 162.275 327.747 163.32C329.496 164.664 330.371 166.531 330.371 168.92V169.368C330.371 171.8 331.544 173.016 333.891 173.016ZM334.055 175V173.016H334.951C337.383 173.016 338.599 171.757 338.599 169.24V155.48L340.743 154.36V169.272C340.743 171.085 340.21 172.515 339.143 173.56C338.14 174.52 336.818 175 335.175 175H334.055ZM346.505 175V155.48L348.649 154.36V175H346.505ZM370.579 160.12C369.725 160.12 369.299 159.672 369.299 158.776C369.299 157.923 369.725 157.496 370.579 157.496C371.432 157.496 371.859 157.923 371.859 158.776C371.859 159.672 371.432 160.12 370.579 160.12ZM374.259 160.12C373.384 160.12 372.947 159.672 372.947 158.776C372.947 157.923 373.384 157.496 374.259 157.496C375.091 157.496 375.507 157.923 375.507 158.776C375.507 159.672 375.091 160.12 374.259 160.12ZM367.283 175C365.704 175 364.445 174.509 363.507 173.528C362.568 172.525 362.099 171.181 362.099 169.496V165.304L364.243 164.184V169.24C364.243 171.757 365.416 173.016 367.763 173.016H378.483C380.829 173.016 382.003 171.757 382.003 169.24V162.424L384.147 161.304V169.496C384.147 171.309 383.592 172.717 382.483 173.72C381.523 174.573 380.264 175 378.707 175H367.283ZM395.319 175C393.506 175 392.109 174.413 391.127 173.24C390.317 172.237 389.911 170.968 389.911 169.432V155.48L392.055 154.36V169.368C392.055 171.8 393.229 173.016 395.575 173.016H396.695V175H395.319ZM412.439 173.016V175H396.055V173.016H401.431C400.087 171.651 399.415 169.837 399.415 167.576C399.415 165.421 400.151 163.715 401.623 162.456C402.796 161.453 404.172 160.941 405.751 160.92C407.948 160.92 409.666 161.784 410.903 163.512V165.624C409.623 163.789 407.98 162.872 405.975 162.872H405.879C404.599 162.872 403.554 163.309 402.743 164.184C401.954 165.059 401.559 166.211 401.559 167.64C401.559 169.283 402.05 170.595 403.031 171.576C403.97 172.536 405.228 173.016 406.807 173.016H412.439ZM422.319 175C420.506 175 419.109 174.413 418.127 173.24C417.317 172.237 416.911 170.968 416.911 169.432V155.48L419.055 154.36V169.368C419.055 171.8 420.229 173.016 422.575 173.016H423.695V175H422.319ZM423.055 175V173.016H425.007C427.375 173.016 428.559 171.8 428.559 169.368V164.76L430.703 163.64V169.368C430.703 171.8 431.876 173.016 434.223 173.016H435.407C437.754 173.016 438.927 171.8 438.927 169.368V163.608L441.071 162.456V169.368C441.071 171.8 442.255 173.016 444.623 173.016H445.775C448.143 173.016 449.327 171.8 449.327 169.368V162.424L451.471 161.304V169.24C451.471 171.757 452.687 173.016 455.119 173.016H456.975V175H454.895C452.868 175 451.386 174.285 450.447 172.856C449.508 174.285 448.058 175 446.095 175H444.335C442.351 175 440.911 174.296 440.015 172.888C439.098 174.296 437.668 175 435.727 175H433.967C431.983 175 430.532 174.296 429.615 172.888C428.719 174.296 427.279 175 425.295 175H423.055ZM456.336 175V173.016H457.232C459.664 173.016 460.88 171.757 460.88 169.24V155.48L463.024 154.36V169.272C463.024 171.085 462.491 172.515 461.424 173.56C460.422 174.52 459.099 175 457.456 175H456.336ZM468.786 175V155.48L470.93 154.36V175H468.786ZM481.82 175L482.844 173.016H488.86C489.841 173.016 490.524 172.771 490.908 172.28C491.313 171.789 491.516 170.936 491.516 169.72C491.516 166.605 490.151 164.269 487.42 162.712L488.444 160.952C491.921 162.979 493.66 165.912 493.66 169.752C493.66 173.251 492.177 175 489.212 175H481.82ZM496.195 175L497.219 173.016H503.235C504.216 173.016 504.899 172.771 505.283 172.28C505.688 171.789 505.891 170.936 505.891 169.72C505.891 166.584 504.515 164.248 501.763 162.712L502.819 160.952C506.211 162.915 507.939 165.677 508.003 169.24C508.024 171.757 509.251 173.016 511.683 173.016H512.675V175H511.459C509.603 175 508.184 174.381 507.203 173.144C506.478 174.381 505.272 175 503.587 175H496.195ZM528.408 173.016V175H512.024V173.016H517.4C516.056 171.651 515.384 169.837 515.384 167.576C515.384 165.421 516.12 163.715 517.592 162.456C518.765 161.453 520.141 160.941 521.72 160.92C523.917 160.92 525.634 161.784 526.872 163.512V165.624C525.592 163.789 523.949 162.872 521.944 162.872H521.848C520.568 162.872 519.522 163.309 518.712 164.184C517.922 165.059 517.528 166.211 517.528 167.64C517.528 169.283 518.018 170.595 519 171.576C519.938 172.536 521.197 173.016 522.776 173.016H528.408ZM436.631 242.04C436.631 242.061 436.631 242.083 436.631 242.104C436.631 243.021 436.193 243.48 435.319 243.48C434.401 243.48 433.943 243.011 433.943 242.072C433.985 241.197 434.444 240.76 435.319 240.76C436.193 240.76 436.631 241.187 436.631 242.04ZM436.631 249.72C436.631 249.741 436.631 249.763 436.631 249.784C436.631 250.701 436.193 251.16 435.319 251.16C434.401 251.16 433.943 250.691 433.943 249.752C433.985 248.877 434.444 248.44 435.319 248.44C436.193 248.44 436.631 248.867 436.631 249.72ZM456.53 249.016H457.65V251H456.274C454.952 251 453.853 250.68 452.978 250.04C452.808 253.581 451.378 255.821 448.69 256.76C448.008 256.995 447.282 257.112 446.514 257.112C445.277 257.112 444.082 256.813 442.93 256.216V254.328C444.018 254.925 445.128 255.224 446.258 255.224C447.154 255.224 447.944 255.021 448.626 254.616C450.12 253.72 450.866 252.045 450.866 249.592V238.424L452.978 237.304V237.336L453.01 237.304V245.368C453.01 247.8 454.184 249.016 456.53 249.016ZM479.872 251H471.968C470.816 251 469.642 250.755 468.448 250.264C467.232 250.755 466.048 251 464.896 251H457.024V249.016H464.768C465.194 249.016 465.632 248.984 466.08 248.92C464.394 247.704 462.56 245.699 460.576 242.904V241.592C462.794 238.477 465.408 236.92 468.416 236.92C471.402 236.92 474.026 238.499 476.288 241.656V242.904C474.304 245.699 472.48 247.704 470.816 248.92C471.242 248.984 471.669 249.016 472.096 249.016H479.84L479.872 251ZM462.432 242.264C464.672 245.251 466.666 247.192 468.416 248.088C470.144 247.192 472.149 245.24 474.432 242.232C472.725 239.992 470.72 238.872 468.416 238.872H468.32C466.144 238.872 464.181 240.003 462.432 242.264ZM479.242 251V249.016H481.195C483.563 249.016 484.747 247.8 484.747 245.368V240.76L486.891 239.64V245.368C486.891 247.8 488.064 249.016 490.411 249.016H491.595C493.941 249.016 495.115 247.8 495.115 245.368V239.608L497.259 238.456V245.368C497.259 247.8 498.443 249.016 500.811 249.016H501.963C504.331 249.016 505.515 247.8 505.515 245.368V238.424L507.659 237.304V245.24C507.659 247.757 508.875 249.016 511.307 249.016H513.163V251H511.083C509.056 251 507.573 250.285 506.635 248.856C505.696 250.285 504.245 251 502.283 251H500.523C498.539 251 497.099 250.296 496.203 248.888C495.285 250.296 493.856 251 491.915 251H490.155C488.171 251 486.72 250.296 485.803 248.888C484.907 250.296 483.467 251 481.483 251H479.242ZM512.524 251V249.016H513.42C515.852 249.016 517.068 247.757 517.068 245.24V231.48L519.212 230.36V245.272C519.212 247.085 518.678 248.515 517.612 249.56C516.609 250.52 515.286 251 513.644 251H512.524ZM524.974 251V231.48L527.118 230.36V251H524.974ZM380.561 289V285.448C381.073 284.872 381.756 284.093 382.609 283.112C383.953 281.619 384.945 280.488 385.585 279.72C387.015 278.013 387.911 276.851 388.273 276.232C388.636 275.592 388.817 274.888 388.817 274.12C388.817 273.48 388.583 272.947 388.113 272.52C387.644 272.093 387.047 271.88 386.321 271.88C385.063 271.88 383.676 272.392 382.161 273.416L380.401 270.856C382.535 269.171 384.764 268.328 387.089 268.328C388.945 268.328 390.428 268.829 391.537 269.832C392.625 270.813 393.169 272.168 393.169 273.896C393.169 275.176 392.743 276.52 391.889 277.928C391.057 279.315 389.425 281.384 386.993 284.136C386.396 284.819 385.959 285.32 385.681 285.64H392.945V289H380.561ZM403.148 268.36C405.622 268.36 407.606 269.544 409.1 271.912C410.358 273.875 410.988 276.211 410.988 278.92C410.988 282.184 410.188 284.797 408.588 286.76C407.18 288.509 405.366 289.384 403.148 289.384C400.609 289.384 398.625 288.253 397.196 285.992C396.001 284.115 395.404 281.757 395.404 278.92C395.404 275.763 396.193 273.171 397.772 271.144C399.201 269.288 400.993 268.36 403.148 268.36ZM403.212 271.944C400.908 271.944 399.756 274.205 399.756 278.728C399.756 281.011 400.086 282.803 400.748 284.104C401.345 285.277 402.134 285.864 403.116 285.864C404.204 285.864 405.057 285.235 405.676 283.976C406.316 282.696 406.636 280.947 406.636 278.728C406.636 274.205 405.494 271.944 403.212 271.944ZM421.179 268.36C423.653 268.36 425.637 269.544 427.131 271.912C428.389 273.875 429.019 276.211 429.019 278.92C429.019 282.184 428.219 284.797 426.619 286.76C425.211 288.509 423.397 289.384 421.179 289.384C418.64 289.384 416.656 288.253 415.227 285.992C414.032 284.115 413.435 281.757 413.435 278.92C413.435 275.763 414.224 273.171 415.803 271.144C417.232 269.288 419.024 268.36 421.179 268.36ZM421.243 271.944C418.939 271.944 417.787 274.205 417.787 278.728C417.787 281.011 418.117 282.803 418.779 284.104C419.376 285.277 420.165 285.864 421.147 285.864C422.235 285.864 423.088 285.235 423.707 283.976C424.347 282.696 424.667 280.947 424.667 278.728C424.667 274.205 423.525 271.944 421.243 271.944ZM432.202 292.36L431.178 290.472C432.117 290.109 432.586 289.619 432.586 289C431.562 289 431.05 288.392 431.05 287.176C431.05 286.557 431.253 286.045 431.658 285.64C432.085 285.235 432.629 285.032 433.29 285.032C433.951 285.032 434.495 285.299 434.922 285.832C435.349 286.344 435.562 286.995 435.562 287.784C435.562 288.915 435.242 289.907 434.602 290.76C433.983 291.613 433.183 292.147 432.202 292.36ZM444.835 268.36C447.31 268.36 449.294 269.544 450.787 271.912C452.046 273.875 452.675 276.211 452.675 278.92C452.675 282.184 451.875 284.797 450.275 286.76C448.867 288.509 447.054 289.384 444.835 289.384C442.296 289.384 440.312 288.253 438.883 285.992C437.688 284.115 437.091 281.757 437.091 278.92C437.091 275.763 437.88 273.171 439.459 271.144C440.888 269.288 442.68 268.36 444.835 268.36ZM444.899 271.944C442.595 271.944 441.443 274.205 441.443 278.728C441.443 281.011 441.774 282.803 442.435 284.104C443.032 285.277 443.822 285.864 444.803 285.864C445.891 285.864 446.744 285.235 447.363 283.976C448.003 282.696 448.323 280.947 448.323 278.728C448.323 274.205 447.182 271.944 444.899 271.944ZM462.866 268.36C465.341 268.36 467.325 269.544 468.818 271.912C470.077 273.875 470.706 276.211 470.706 278.92C470.706 282.184 469.906 284.797 468.306 286.76C466.898 288.509 465.085 289.384 462.866 289.384C460.328 289.384 458.344 288.253 456.914 285.992C455.72 284.115 455.122 281.757 455.122 278.92C455.122 275.763 455.912 273.171 457.49 271.144C458.92 269.288 460.712 268.36 462.866 268.36ZM462.93 271.944C460.626 271.944 459.474 274.205 459.474 278.728C459.474 281.011 459.805 282.803 460.466 284.104C461.064 285.277 461.853 285.864 462.834 285.864C463.922 285.864 464.776 285.235 465.394 283.976C466.034 282.696 466.354 280.947 466.354 278.728C466.354 274.205 465.213 271.944 462.93 271.944ZM486.313 268.744V289H482.185V268.744H486.313ZM501.003 289.256C500.406 289.341 499.851 289.384 499.339 289.384C496.203 289.384 493.803 288.253 492.139 285.992C490.816 284.179 490.155 281.928 490.155 279.24C490.155 275.891 491.051 273.203 492.843 271.176C494.486 269.299 496.651 268.36 499.339 268.36C502.454 268.36 504.854 269.619 506.539 272.136C507.862 274.099 508.523 276.467 508.523 279.24C508.523 283.208 507.211 286.12 504.587 287.976C505.824 289.363 507.179 290.845 508.651 292.424H503.755L501.003 289.256ZM499.339 285.864C502.539 285.864 504.139 283.656 504.139 279.24C504.139 276.851 503.68 275.005 502.763 273.704C501.91 272.531 500.768 271.944 499.339 271.944C497.803 271.944 496.608 272.584 495.755 273.864C494.923 275.144 494.507 276.936 494.507 279.24C494.507 283.656 496.118 285.864 499.339 285.864ZM512.373 268.776C513.418 268.499 515.263 268.36 517.909 268.36C521.557 268.36 524.341 269.427 526.26 271.56C527.903 273.373 528.725 275.741 528.725 278.664C528.725 282.312 527.679 285.053 525.589 286.888C523.69 288.552 521.045 289.384 517.653 289.384C515.519 289.384 513.759 289.245 512.373 288.968V268.776ZM516.565 285.928C516.991 286.035 517.525 286.088 518.165 286.088C522.282 286.088 524.341 283.656 524.341 278.792C524.341 276.381 523.658 274.536 522.293 273.256C521.183 272.232 519.775 271.72 518.069 271.72C517.578 271.72 517.077 271.773 516.565 271.88V285.928ZM78.0835 327C77.9128 328.835 76.9528 330.317 75.2035 331.448C73.5182 332.536 71.3528 333.08 68.7075 333.08C65.4222 333.08 62.9475 332.12 61.2835 330.2C60.0462 328.771 59.4275 327.011 59.4275 324.92C59.4275 323.085 59.8968 321.507 60.8355 320.184L62.9155 319.768C61.8915 321.325 61.3795 322.989 61.3795 324.76C61.3795 326.723 62.0515 328.291 63.3955 329.464C64.6755 330.595 66.4462 331.16 68.7075 331.16C71.0328 331.16 72.8568 330.669 74.1795 329.688C75.1608 328.963 75.7368 328.067 75.9075 327H72.6435L73.6675 325.016H78.1795V327H78.0835ZM66.6915 338.36C65.8168 338.36 65.3795 337.923 65.3795 337.048C65.3795 336.173 65.8168 335.736 66.6915 335.736C67.5235 335.736 67.9395 336.173 67.9395 337.048C67.9395 337.923 67.5235 338.36 66.6915 338.36ZM70.3395 338.36C69.4862 338.36 69.0595 337.923 69.0595 337.048C69.0595 336.173 69.4862 335.736 70.3395 335.736C71.1928 335.736 71.6195 336.173 71.6195 337.048C71.6195 337.923 71.1928 338.36 70.3395 338.36ZM79.1335 309.016L79.7415 307.896H80.5735C80.3602 307.512 80.2535 307.117 80.2535 306.712C80.2535 306.115 80.4775 305.603 80.9255 305.176C81.3735 304.728 81.9068 304.504 82.5255 304.504C82.9948 304.504 83.4535 304.653 83.9015 304.952V306.136C83.4748 305.837 83.0588 305.688 82.6535 305.688C82.3122 305.688 82.0242 305.805 81.7895 306.04C81.5548 306.253 81.4375 306.509 81.4375 306.808C81.4375 307.171 81.5868 307.533 81.8855 307.896H84.7015L84.0935 309.016H79.1335ZM77.1175 327V325.016H78.2375C80.5842 325.016 81.7575 323.8 81.7575 321.368V314.424L83.9015 313.304V321.432C83.9015 323.224 83.3788 324.621 82.3335 325.624C81.3735 326.541 80.0935 327 78.4935 327H77.1175ZM94.538 327C92.7247 327 91.3273 326.413 90.346 325.24C89.5353 324.237 89.13 322.968 89.13 321.432V307.48L91.274 306.36V321.368C91.274 323.8 92.4473 325.016 94.794 325.016H95.914V327H94.538ZM116.394 325.016H117.514V327H116.138C114.196 327 112.746 326.349 111.786 325.048C110.826 326.349 109.375 327 107.434 327H104.266C103.519 327 102.826 326.893 102.186 326.68C101.546 326.893 100.874 327 100.17 327H95.2737V325.016H99.3698C98.2178 323.864 97.6418 322.445 97.6418 320.76C97.6418 319.523 97.9298 318.477 98.5058 317.624C98.9538 315.853 99.7964 314.456 101.034 313.432C102.292 312.387 103.764 311.864 105.45 311.864C107.604 311.864 109.396 312.621 110.826 314.136C112.17 315.587 112.842 317.432 112.842 319.672V321.368C112.842 323.8 114.026 325.016 116.394 325.016ZM107.274 325.016C109.578 325.016 110.73 323.757 110.73 321.24V319.672C110.73 317.752 110.111 316.237 108.874 315.128C107.871 314.253 106.698 313.816 105.354 313.816C103.562 313.816 102.196 314.509 101.258 315.896C101.578 315.832 101.898 315.8 102.218 315.8C103.583 315.8 104.682 316.259 105.514 317.176C106.346 318.072 106.762 319.267 106.762 320.76C106.762 322.445 106.186 323.864 105.034 325.016H107.274ZM102.218 324.728C104.159 324.088 105.13 322.744 105.13 320.696C105.13 319.693 104.863 318.893 104.33 318.296C103.818 317.677 103.114 317.368 102.218 317.368C101.322 317.368 100.607 317.667 100.074 318.264C99.5404 318.861 99.2738 319.672 99.2738 320.696C99.2738 322.744 100.255 324.088 102.218 324.728ZM122.212 309.08C121.337 309.08 120.9 308.632 120.9 307.736C120.9 306.883 121.337 306.456 122.212 306.456C123.044 306.456 123.46 306.883 123.46 307.736C123.46 308.632 123.044 309.08 122.212 309.08ZM127.172 325.016H128.292V327H126.916C124.996 327 123.556 326.349 122.596 325.048C121.593 326.349 120.142 327 118.243 327H116.867V325.016H117.988C120.334 325.016 121.508 323.8 121.508 321.368V314.424L123.652 313.304V321.368C123.652 323.8 124.825 325.016 127.172 325.016ZM127.649 327V325.016H128.545C130.977 325.016 132.193 323.757 132.193 321.24V307.48L134.337 306.36V321.272C134.337 323.085 133.803 324.515 132.737 325.56C131.734 326.52 130.411 327 128.769 327H127.649ZM140.099 327V307.48L142.243 306.36V327H140.099ZM174.541 325.016H175.661V327H174.509C172.674 327 171.213 326.776 170.125 326.328C169.037 325.88 168.034 325.091 167.117 323.96C166.37 324.237 165.229 324.525 163.693 324.824C161.175 325.315 159.479 325.997 158.605 326.872C157.559 327.917 157.036 329.389 157.036 331.288C157.036 333.123 157.645 334.573 158.861 335.64C159.885 336.557 161.197 337.016 162.797 337.016H162.861C165.293 337.016 167.245 336.472 168.717 335.384V337.336C166.967 338.445 164.983 339 162.765 339C160.375 339 158.455 338.2 157.005 336.6C155.703 335.171 155.053 333.379 155.053 331.224C155.053 328.92 155.757 327.032 157.165 325.56C157.805 324.899 158.541 324.397 159.373 324.056C160.205 323.693 161.474 323.352 163.181 323.032C164.93 322.691 166.21 322.339 167.021 321.976C167.831 321.592 168.535 321.037 169.133 320.312C167.277 316.664 164.983 314.84 162.253 314.84C160.397 314.84 158.605 315.768 156.877 317.624V315.512C158.626 313.784 160.45 312.92 162.349 312.92H162.413C165.762 312.92 168.663 315.181 171.117 319.704V321.016C170.477 321.891 169.666 322.616 168.685 323.192C169.367 323.875 170.135 324.355 170.989 324.632C171.863 324.888 173.047 325.016 174.541 325.016ZM161.645 331.224C161.645 330.413 162.05 330.008 162.861 330.008C163.65 330.008 164.045 330.413 164.045 331.224C164.045 332.056 163.65 332.472 162.861 332.472C162.05 332.472 161.645 332.056 161.645 331.224ZM177.6 309.176C176.746 309.176 176.32 308.739 176.32 307.864C176.32 306.989 176.746 306.552 177.6 306.552C178.453 306.552 178.88 306.989 178.88 307.864C178.88 308.739 178.453 309.176 177.6 309.176ZM181.248 309.176C180.394 309.176 179.968 308.739 179.968 307.864C179.968 306.989 180.394 306.552 181.248 306.552C182.101 306.552 182.528 306.989 182.528 307.864C182.528 308.739 182.101 309.176 181.248 309.176ZM184.672 325.016H185.792V327H184.416C182.496 327 181.056 326.349 180.096 325.048C179.093 326.349 177.642 327 175.743 327H174.367V325.016H175.488C177.834 325.016 179.008 323.8 179.008 321.368V314.424L181.152 313.304V321.368C181.152 323.8 182.325 325.016 184.672 325.016ZM190.493 309.08C189.618 309.08 189.181 308.632 189.181 307.736C189.181 306.883 189.618 306.456 190.493 306.456C191.325 306.456 191.741 306.883 191.741 307.736C191.741 308.632 191.325 309.08 190.493 309.08ZM195.453 325.016H196.573V327H195.197C193.277 327 191.837 326.349 190.877 325.048C189.874 326.349 188.423 327 186.525 327H185.149V325.016H186.269C188.615 325.016 189.789 323.8 189.789 321.368V314.424L191.933 313.304V321.368C191.933 323.8 193.106 325.016 195.453 325.016ZM216.058 325.016H217.146V327H215.77C213.829 327 212.378 326.328 211.418 324.984C210.351 326.755 208.73 327.64 206.554 327.64C204.357 327.64 202.735 326.765 201.69 325.016C200.709 326.339 199.247 327 197.306 327H195.93V325.016H197.05C199.397 325.016 200.57 323.8 200.57 321.368V320.28C200.57 317.827 201.167 315.949 202.362 314.648C203.407 313.496 204.805 312.92 206.554 312.92C208.559 312.92 210.085 313.667 211.13 315.16C212.047 316.44 212.506 318.147 212.506 320.28V321.368C212.506 323.8 213.69 325.016 216.058 325.016ZM206.554 325.656C207.727 325.656 208.655 325.176 209.338 324.216C210.021 323.235 210.362 321.912 210.362 320.248C210.362 316.664 209.093 314.872 206.554 314.872C203.994 314.872 202.714 316.664 202.714 320.248C202.714 323.853 203.994 325.656 206.554 325.656ZM216.492 327V325.016H217.389C219.82 325.016 221.036 323.757 221.036 321.24V307.48L223.181 306.36V321.272C223.181 323.085 222.647 324.515 221.581 325.56C220.578 326.52 219.255 327 217.613 327H216.492ZM228.943 327V307.48L231.087 306.36V327H228.943ZM247.608 325.016C246.606 323.736 246.104 322.051 246.104 319.96C246.104 317.656 246.702 315.875 247.896 314.616C248.942 313.485 250.328 312.92 252.056 312.92C253.827 312.92 255.192 313.475 256.152 314.584C256.984 315.544 257.4 316.824 257.4 318.424V321.688C257.4 323.309 256.92 324.6 255.96 325.56C255 326.499 253.688 326.979 252.024 327H247.96C245.614 327 244.44 328.216 244.44 330.648V335.96L242.296 337.08V330.584C242.296 328.813 242.819 327.427 243.864 326.424C244.803 325.507 246.051 325.037 247.608 325.016ZM255.256 321.496V318.616C255.256 316.12 254.19 314.872 252.056 314.872C250.84 314.872 249.891 315.32 249.208 316.216C248.547 317.112 248.216 318.349 248.216 319.928C248.216 321.528 248.536 322.776 249.176 323.672C249.816 324.568 250.702 325.016 251.832 325.016C254.115 325.016 255.256 323.843 255.256 321.496ZM280.193 325.016H281.313V327H279.937C277.974 327 276.513 326.328 275.553 324.984C274.55 326.328 273.067 327 271.105 327H260.609L261.633 325.016H266.529V311.64L268.641 310.52V325.016H270.881C273.313 325.016 274.529 323.757 274.529 321.24V307.48L276.641 306.36V313.336L276.673 313.304V321.368C276.673 323.8 277.846 325.016 280.193 325.016ZM283.912 309.176C283.059 309.176 282.632 308.739 282.632 307.864C282.632 306.989 283.059 306.552 283.912 306.552C284.765 306.552 285.192 306.989 285.192 307.864C285.192 308.739 284.765 309.176 283.912 309.176ZM287.56 309.176C286.707 309.176 286.28 308.739 286.28 307.864C286.28 306.989 286.707 306.552 287.56 306.552C288.413 306.552 288.84 306.989 288.84 307.864C288.84 308.739 288.413 309.176 287.56 309.176ZM290.984 325.016H292.104V327H290.728C288.808 327 287.368 326.349 286.408 325.048C285.405 326.349 283.955 327 282.056 327H280.68V325.016H281.8C284.147 325.016 285.32 323.8 285.32 321.368V314.424L287.464 313.304V321.368C287.464 323.8 288.637 325.016 290.984 325.016ZM291.461 327V325.016H293.413C295.781 325.016 296.965 323.8 296.965 321.368V316.76L299.109 315.64V321.368C299.109 323.8 300.283 325.016 302.629 325.016H303.813C306.16 325.016 307.333 323.8 307.333 321.368V315.608L309.477 314.456V321.368C309.477 323.8 310.661 325.016 313.029 325.016H314.181C316.549 325.016 317.733 323.8 317.733 321.368V314.424L319.877 313.304V321.432C319.877 323.203 319.355 324.589 318.309 325.592C317.371 326.509 316.101 326.979 314.501 327H312.741C310.757 327 309.317 326.296 308.421 324.888C307.504 326.296 306.075 327 304.133 327H302.373C300.389 327 298.939 326.296 298.021 324.888C297.125 326.296 295.685 327 293.701 327H291.461ZM325.63 327V307.48L327.774 306.36V327H325.63ZM349.416 325.816C348.52 326.328 347.368 326.584 345.96 326.584C344.104 326.584 342.653 325.869 341.608 324.44C340.712 323.224 340.264 321.688 340.264 319.832C340.264 317.592 340.861 315.843 342.056 314.584C343.101 313.475 344.488 312.92 346.216 312.92C347.986 312.92 349.352 313.475 350.312 314.584C351.144 315.544 351.56 316.824 351.56 318.424V325.464C351.56 327.448 351.144 329.08 350.312 330.36C349.48 331.661 348.296 332.493 346.76 332.856C346.248 333.005 345.693 333.08 345.096 333.08C343.858 333.08 342.653 332.781 341.48 332.184V330.296C342.589 330.893 343.688 331.192 344.776 331.192C345.65 331.192 346.418 331 347.08 330.616C348.573 329.869 349.352 328.269 349.416 325.816ZM349.416 318.616C349.416 316.12 348.349 314.872 346.216 314.872C345.021 314.872 344.072 315.309 343.368 316.184C342.685 317.059 342.344 318.264 342.344 319.8C342.344 321.293 342.674 322.488 343.336 323.384C343.997 324.259 344.893 324.696 346.024 324.696C347.709 324.696 348.84 324.227 349.416 323.288V318.616ZM375.637 309.176C374.762 309.176 374.325 308.728 374.325 307.832C374.325 306.979 374.762 306.552 375.637 306.552C376.469 306.552 376.885 306.979 376.885 307.832C376.885 308.728 376.469 309.176 375.637 309.176ZM379.285 309.176C378.41 309.176 377.972 308.728 377.972 307.832C377.972 306.979 378.41 306.552 379.285 306.552C380.117 306.552 380.533 306.979 380.533 307.832C380.533 308.728 380.117 309.176 379.285 309.176ZM382.741 325.432C382.741 327.907 381.845 329.827 380.053 331.192C378.41 332.451 376.17 333.08 373.333 333.08C370.047 333.08 367.573 332.12 365.909 330.2C364.671 328.771 364.053 327.011 364.053 324.92C364.053 323.085 364.522 321.507 365.461 320.184L367.541 319.768C366.517 321.325 366.005 322.989 366.005 324.76C366.005 326.701 366.677 328.248 368.021 329.4C369.322 330.531 371.093 331.096 373.333 331.096C375.893 331.096 377.791 330.509 379.029 329.336C380.053 328.376 380.565 327.096 380.565 325.496C379.775 326.221 378.634 326.584 377.141 326.584C375.306 326.584 373.855 325.859 372.789 324.408C371.893 323.192 371.445 321.667 371.445 319.832C371.445 317.592 372.042 315.843 373.237 314.584C374.282 313.475 375.669 312.92 377.397 312.92C379.167 312.92 380.533 313.475 381.493 314.584C382.325 315.544 382.741 316.824 382.741 318.424V325.432ZM380.597 318.616C380.597 316.12 379.53 314.872 377.397 314.872C376.202 314.872 375.263 315.309 374.581 316.184C373.898 317.059 373.557 318.264 373.557 319.8C373.557 321.315 373.877 322.509 374.517 323.384C375.178 324.259 376.074 324.696 377.205 324.696C378.933 324.696 380.063 324.205 380.597 323.224V318.616ZM398.03 325.016H399.15V327H397.774C396.452 327 395.353 326.68 394.478 326.04C394.308 329.581 392.878 331.821 390.19 332.76C389.508 332.995 388.782 333.112 388.014 333.112C386.777 333.112 385.582 332.813 384.43 332.216V330.328C385.518 330.925 386.628 331.224 387.758 331.224C388.654 331.224 389.444 331.021 390.126 330.616C391.62 329.72 392.366 328.045 392.366 325.592V314.424L394.478 313.304V313.336L394.51 313.304V321.368C394.51 323.8 395.684 325.016 398.03 325.016ZM418.748 325.016H419.868V327H418.716C416.945 327 415.526 326.797 414.46 326.392C413.414 325.987 412.444 325.272 411.548 324.248C408.817 326.083 405.66 327 402.076 327H398.524V325.016H402.108C406.758 325.016 410.385 323.437 412.988 320.28C411.089 316.653 408.796 314.84 406.108 314.84C404.273 314.84 402.481 315.768 400.732 317.624V315.512C402.481 313.784 404.305 312.92 406.204 312.92H406.268C409.617 312.92 412.518 315.181 414.972 319.704V321.016C414.31 321.869 413.606 322.605 412.86 323.224C413.542 323.885 414.31 324.355 415.164 324.632C416.038 324.888 417.233 325.016 418.748 325.016ZM419.242 327V325.016H420.139C422.57 325.016 423.786 323.757 423.786 321.24V307.48L425.931 306.36V321.272C425.931 323.085 425.397 324.515 424.331 325.56C423.328 326.52 422.005 327 420.363 327H419.242ZM431.693 327V307.48L433.837 306.36V327H431.693ZM450.358 308.92C449.484 308.92 449.046 308.472 449.046 307.576C449.046 306.723 449.484 306.296 450.358 306.296C451.19 306.296 451.606 306.723 451.606 307.576C451.606 308.472 451.19 308.92 450.358 308.92ZM454.006 308.92C453.132 308.92 452.694 308.472 452.694 307.576C452.694 306.723 453.132 306.296 454.006 306.296C454.838 306.296 455.254 306.723 455.254 307.576C455.254 308.472 454.838 308.92 454.006 308.92ZM460.214 325.016H461.302V327H459.926C457.644 327 456.054 326.104 455.158 324.312C454.049 325.464 452.684 326.04 451.062 326.04C449.228 326.04 447.777 325.347 446.71 323.96C445.814 322.787 445.366 321.325 445.366 319.576C445.366 317.528 445.964 315.885 447.158 314.648C448.204 313.56 449.494 313.016 451.03 313.016C452.417 313.016 453.58 313.421 454.518 314.232V312.504L456.662 311.384V321.368C456.662 323.8 457.846 325.016 460.214 325.016ZM454.518 316.664C453.58 315.533 452.438 314.968 451.094 314.968C450.028 314.968 449.153 315.405 448.47 316.28C447.809 317.133 447.478 318.243 447.478 319.608C447.478 320.995 447.809 322.104 448.47 322.936C449.153 323.768 450.038 324.184 451.126 324.184C452.513 324.184 453.665 323.576 454.582 322.36C454.54 321.976 454.518 321.667 454.518 321.432V316.664ZM470.857 325.016H471.977V327H470.601C468.638 327 467.177 326.328 466.217 324.984C465.214 326.328 463.731 327 461.769 327H460.649V325.016H461.545C463.977 325.016 465.193 323.757 465.193 321.24V307.48L467.337 306.36V321.368C467.337 323.8 468.51 325.016 470.857 325.016ZM475.976 318.424C475.976 316.611 476.52 315.203 477.608 314.2C478.547 313.347 479.784 312.92 481.32 312.92C483.304 312.92 484.83 313.645 485.896 315.096C486.814 316.333 487.272 317.955 487.272 319.96C487.272 322.243 486.686 324.024 485.512 325.304C484.488 326.435 483.155 327 481.512 327C479.507 327 478.014 326.36 477.032 325.08C476.072 326.36 474.632 327 472.712 327H471.336V325.016H472.456C474.803 325.016 475.976 323.8 475.976 321.368V318.424ZM478.12 321.496C478.12 323.843 479.272 325.016 481.576 325.016C482.686 325.016 483.56 324.568 484.2 323.672C484.84 322.776 485.16 321.528 485.16 319.928C485.16 318.349 484.819 317.112 484.136 316.216C483.475 315.32 482.536 314.872 481.32 314.872C479.187 314.872 478.12 316.12 478.12 318.616V321.496ZM497.976 327C496.162 327 494.765 326.413 493.784 325.24C492.973 324.237 492.568 322.968 492.568 321.432V307.48L494.712 306.36V321.368C494.712 323.8 495.885 325.016 498.232 325.016H499.352V327H497.976ZM515.639 306.808C514.871 306.808 514.487 306.403 514.487 305.592C514.487 304.824 514.871 304.44 515.639 304.44C516.407 304.44 516.791 304.824 516.791 305.592C516.791 306.403 516.407 306.808 515.639 306.808ZM513.847 310.136C512.973 310.136 512.535 309.699 512.535 308.824C512.535 307.949 512.973 307.512 513.847 307.512C514.679 307.512 515.095 307.949 515.095 308.824C515.095 309.699 514.679 310.136 513.847 310.136ZM517.495 310.136C516.642 310.136 516.215 309.699 516.215 308.824C516.215 307.949 516.642 307.512 517.495 307.512C518.349 307.512 518.775 307.949 518.775 308.824C518.775 309.699 518.349 310.136 517.495 310.136ZM498.711 327V325.016H500.663C503.031 325.016 504.215 323.8 504.215 321.368V316.76L506.359 315.64V321.368C506.359 323.8 507.533 325.016 509.879 325.016H511.063C513.41 325.016 514.583 323.8 514.583 321.368V315.608L516.727 314.456V321.368C516.727 323.8 517.911 325.016 520.279 325.016H521.431C523.799 325.016 524.983 323.8 524.983 321.368V314.424L527.127 313.304V321.432C527.127 323.203 526.605 324.589 525.559 325.592C524.621 326.509 523.351 326.979 521.751 327H519.991C518.007 327 516.567 326.296 515.671 324.888C514.754 326.296 513.325 327 511.383 327H509.623C507.639 327 506.189 326.296 505.271 324.888C504.375 326.296 502.935 327 500.951 327H498.711Z" fill="black"/>
</svg>
